G04 #@! TF.GenerationSoftware,KiCad,Pcbnew,10.0.6*
G04 #@! TF.CreationDate,2026-09-07T19:11:06+09:00*
G04 #@! TF.ProjectId,Matrix6,4d617472-6978-4362-9e6b-696361645f70,0.6*
G04 #@! TF.SameCoordinates,Original*
G04 #@! TF.FileFunction,Legend,Top*
G04 #@! TF.FilePolarity,Positive*
%FSLAX46Y46*%
G04 Gerber Fmt 4.6, Leading zero omitted, Abs format (unit mm)*
G04 Created by KiCad (PCBNEW 10.0.6) date 2026-09-07 19:11:06*
%MOMM*%
%LPD*%
G01*
G04 APERTURE LIST*
%ADD10C,0.140000*%
%ADD11C,0.120000*%
%ADD12R,1.700000X1.700000*%
%ADD13C,1.700000*%
%ADD14R,0.900000X1.700000*%
%ADD15R,1.500000X0.900000*%
%ADD16R,0.900000X1.500000*%
%ADD17C,0.600000*%
%ADD18R,3.900000X3.900000*%
%ADD19C,0.650000*%
%ADD20O,1.000000X2.100000*%
%ADD21O,1.000000X1.800000*%
%ADD22R,3.600000X1.500000*%
%ADD23O,1.200000X1.750000*%
G04 APERTURE END LIST*
D10*
X106192857Y-155709077D02*
X105892857Y-155280505D01*
X105678571Y-155709077D02*
X105678571Y-154809077D01*
X105678571Y-154809077D02*
X106021428Y-154809077D01*
X106021428Y-154809077D02*
X106107143Y-154851934D01*
X106107143Y-154851934D02*
X106150000Y-154894791D01*
X106150000Y-154894791D02*
X106192857Y-154980505D01*
X106192857Y-154980505D02*
X106192857Y-155109077D01*
X106192857Y-155109077D02*
X106150000Y-155194791D01*
X106150000Y-155194791D02*
X106107143Y-155237648D01*
X106107143Y-155237648D02*
X106021428Y-155280505D01*
X106021428Y-155280505D02*
X105678571Y-155280505D01*
X106578571Y-155237648D02*
X106878571Y-155237648D01*
X107007143Y-155709077D02*
X106578571Y-155709077D01*
X106578571Y-155709077D02*
X106578571Y-154809077D01*
X106578571Y-154809077D02*
X107007143Y-154809077D01*
X107350000Y-155666220D02*
X107478572Y-155709077D01*
X107478572Y-155709077D02*
X107692857Y-155709077D01*
X107692857Y-155709077D02*
X107778572Y-155666220D01*
X107778572Y-155666220D02*
X107821429Y-155623362D01*
X107821429Y-155623362D02*
X107864286Y-155537648D01*
X107864286Y-155537648D02*
X107864286Y-155451934D01*
X107864286Y-155451934D02*
X107821429Y-155366220D01*
X107821429Y-155366220D02*
X107778572Y-155323362D01*
X107778572Y-155323362D02*
X107692857Y-155280505D01*
X107692857Y-155280505D02*
X107521429Y-155237648D01*
X107521429Y-155237648D02*
X107435714Y-155194791D01*
X107435714Y-155194791D02*
X107392857Y-155151934D01*
X107392857Y-155151934D02*
X107350000Y-155066220D01*
X107350000Y-155066220D02*
X107350000Y-154980505D01*
X107350000Y-154980505D02*
X107392857Y-154894791D01*
X107392857Y-154894791D02*
X107435714Y-154851934D01*
X107435714Y-154851934D02*
X107521429Y-154809077D01*
X107521429Y-154809077D02*
X107735714Y-154809077D01*
X107735714Y-154809077D02*
X107864286Y-154851934D01*
X108250000Y-155237648D02*
X108550000Y-155237648D01*
X108678572Y-155709077D02*
X108250000Y-155709077D01*
X108250000Y-155709077D02*
X108250000Y-154809077D01*
X108250000Y-154809077D02*
X108678572Y-154809077D01*
X108935715Y-154809077D02*
X109450001Y-154809077D01*
X109192858Y-155709077D02*
X109192858Y-154809077D01*
X105921428Y-149209077D02*
X105921428Y-148309077D01*
X105921428Y-148309077D02*
X106264285Y-148309077D01*
X106264285Y-148309077D02*
X106350000Y-148351934D01*
X106350000Y-148351934D02*
X106392857Y-148394791D01*
X106392857Y-148394791D02*
X106435714Y-148480505D01*
X106435714Y-148480505D02*
X106435714Y-148609077D01*
X106435714Y-148609077D02*
X106392857Y-148694791D01*
X106392857Y-148694791D02*
X106350000Y-148737648D01*
X106350000Y-148737648D02*
X106264285Y-148780505D01*
X106264285Y-148780505D02*
X105921428Y-148780505D01*
X106992857Y-148309077D02*
X107164285Y-148309077D01*
X107164285Y-148309077D02*
X107250000Y-148351934D01*
X107250000Y-148351934D02*
X107335714Y-148437648D01*
X107335714Y-148437648D02*
X107378571Y-148609077D01*
X107378571Y-148609077D02*
X107378571Y-148909077D01*
X107378571Y-148909077D02*
X107335714Y-149080505D01*
X107335714Y-149080505D02*
X107250000Y-149166220D01*
X107250000Y-149166220D02*
X107164285Y-149209077D01*
X107164285Y-149209077D02*
X106992857Y-149209077D01*
X106992857Y-149209077D02*
X106907143Y-149166220D01*
X106907143Y-149166220D02*
X106821428Y-149080505D01*
X106821428Y-149080505D02*
X106778571Y-148909077D01*
X106778571Y-148909077D02*
X106778571Y-148609077D01*
X106778571Y-148609077D02*
X106821428Y-148437648D01*
X106821428Y-148437648D02*
X106907143Y-148351934D01*
X106907143Y-148351934D02*
X106992857Y-148309077D01*
X107678571Y-148309077D02*
X107892857Y-149209077D01*
X107892857Y-149209077D02*
X108064285Y-148566220D01*
X108064285Y-148566220D02*
X108235714Y-149209077D01*
X108235714Y-149209077D02*
X108450000Y-148309077D01*
X108792856Y-148737648D02*
X109092856Y-148737648D01*
X109221428Y-149209077D02*
X108792856Y-149209077D01*
X108792856Y-149209077D02*
X108792856Y-148309077D01*
X108792856Y-148309077D02*
X109221428Y-148309077D01*
X110121428Y-149209077D02*
X109821428Y-148780505D01*
X109607142Y-149209077D02*
X109607142Y-148309077D01*
X109607142Y-148309077D02*
X109949999Y-148309077D01*
X109949999Y-148309077D02*
X110035714Y-148351934D01*
X110035714Y-148351934D02*
X110078571Y-148394791D01*
X110078571Y-148394791D02*
X110121428Y-148480505D01*
X110121428Y-148480505D02*
X110121428Y-148609077D01*
X110121428Y-148609077D02*
X110078571Y-148694791D01*
X110078571Y-148694791D02*
X110035714Y-148737648D01*
X110035714Y-148737648D02*
X109949999Y-148780505D01*
X109949999Y-148780505D02*
X109607142Y-148780505D01*
X126378571Y-149209077D02*
X126378571Y-148309077D01*
X126378571Y-148309077D02*
X126721428Y-148309077D01*
X126721428Y-148309077D02*
X126807143Y-148351934D01*
X126807143Y-148351934D02*
X126850000Y-148394791D01*
X126850000Y-148394791D02*
X126892857Y-148480505D01*
X126892857Y-148480505D02*
X126892857Y-148609077D01*
X126892857Y-148609077D02*
X126850000Y-148694791D01*
X126850000Y-148694791D02*
X126807143Y-148737648D01*
X126807143Y-148737648D02*
X126721428Y-148780505D01*
X126721428Y-148780505D02*
X126378571Y-148780505D01*
X127278571Y-149209077D02*
X127278571Y-148309077D01*
X127707142Y-149209077D02*
X127707142Y-148309077D01*
X127707142Y-148309077D02*
X128221428Y-149209077D01*
X128221428Y-149209077D02*
X128221428Y-148309077D01*
X129721428Y-148609077D02*
X129721428Y-149209077D01*
X129507142Y-148266220D02*
X129292856Y-148909077D01*
X129292856Y-148909077D02*
X129849999Y-148909077D01*
X130321428Y-148694791D02*
X130235713Y-148651934D01*
X130235713Y-148651934D02*
X130192856Y-148609077D01*
X130192856Y-148609077D02*
X130149999Y-148523362D01*
X130149999Y-148523362D02*
X130149999Y-148480505D01*
X130149999Y-148480505D02*
X130192856Y-148394791D01*
X130192856Y-148394791D02*
X130235713Y-148351934D01*
X130235713Y-148351934D02*
X130321428Y-148309077D01*
X130321428Y-148309077D02*
X130492856Y-148309077D01*
X130492856Y-148309077D02*
X130578571Y-148351934D01*
X130578571Y-148351934D02*
X130621428Y-148394791D01*
X130621428Y-148394791D02*
X130664285Y-148480505D01*
X130664285Y-148480505D02*
X130664285Y-148523362D01*
X130664285Y-148523362D02*
X130621428Y-148609077D01*
X130621428Y-148609077D02*
X130578571Y-148651934D01*
X130578571Y-148651934D02*
X130492856Y-148694791D01*
X130492856Y-148694791D02*
X130321428Y-148694791D01*
X130321428Y-148694791D02*
X130235713Y-148737648D01*
X130235713Y-148737648D02*
X130192856Y-148780505D01*
X130192856Y-148780505D02*
X130149999Y-148866220D01*
X130149999Y-148866220D02*
X130149999Y-149037648D01*
X130149999Y-149037648D02*
X130192856Y-149123362D01*
X130192856Y-149123362D02*
X130235713Y-149166220D01*
X130235713Y-149166220D02*
X130321428Y-149209077D01*
X130321428Y-149209077D02*
X130492856Y-149209077D01*
X130492856Y-149209077D02*
X130578571Y-149166220D01*
X130578571Y-149166220D02*
X130621428Y-149123362D01*
X130621428Y-149123362D02*
X130664285Y-149037648D01*
X130664285Y-149037648D02*
X130664285Y-148866220D01*
X130664285Y-148866220D02*
X130621428Y-148780505D01*
X130621428Y-148780505D02*
X130578571Y-148737648D01*
X130578571Y-148737648D02*
X130492856Y-148694791D01*
X127278571Y-155237648D02*
X127407143Y-155280505D01*
X127407143Y-155280505D02*
X127450000Y-155323362D01*
X127450000Y-155323362D02*
X127492857Y-155409077D01*
X127492857Y-155409077D02*
X127492857Y-155537648D01*
X127492857Y-155537648D02*
X127450000Y-155623362D01*
X127450000Y-155623362D02*
X127407143Y-155666220D01*
X127407143Y-155666220D02*
X127321428Y-155709077D01*
X127321428Y-155709077D02*
X126978571Y-155709077D01*
X126978571Y-155709077D02*
X126978571Y-154809077D01*
X126978571Y-154809077D02*
X127278571Y-154809077D01*
X127278571Y-154809077D02*
X127364286Y-154851934D01*
X127364286Y-154851934D02*
X127407143Y-154894791D01*
X127407143Y-154894791D02*
X127450000Y-154980505D01*
X127450000Y-154980505D02*
X127450000Y-155066220D01*
X127450000Y-155066220D02*
X127407143Y-155151934D01*
X127407143Y-155151934D02*
X127364286Y-155194791D01*
X127364286Y-155194791D02*
X127278571Y-155237648D01*
X127278571Y-155237648D02*
X126978571Y-155237648D01*
X128050000Y-154809077D02*
X128221428Y-154809077D01*
X128221428Y-154809077D02*
X128307143Y-154851934D01*
X128307143Y-154851934D02*
X128392857Y-154937648D01*
X128392857Y-154937648D02*
X128435714Y-155109077D01*
X128435714Y-155109077D02*
X128435714Y-155409077D01*
X128435714Y-155409077D02*
X128392857Y-155580505D01*
X128392857Y-155580505D02*
X128307143Y-155666220D01*
X128307143Y-155666220D02*
X128221428Y-155709077D01*
X128221428Y-155709077D02*
X128050000Y-155709077D01*
X128050000Y-155709077D02*
X127964286Y-155666220D01*
X127964286Y-155666220D02*
X127878571Y-155580505D01*
X127878571Y-155580505D02*
X127835714Y-155409077D01*
X127835714Y-155409077D02*
X127835714Y-155109077D01*
X127835714Y-155109077D02*
X127878571Y-154937648D01*
X127878571Y-154937648D02*
X127964286Y-154851934D01*
X127964286Y-154851934D02*
X128050000Y-154809077D01*
X128992857Y-154809077D02*
X129164285Y-154809077D01*
X129164285Y-154809077D02*
X129250000Y-154851934D01*
X129250000Y-154851934D02*
X129335714Y-154937648D01*
X129335714Y-154937648D02*
X129378571Y-155109077D01*
X129378571Y-155109077D02*
X129378571Y-155409077D01*
X129378571Y-155409077D02*
X129335714Y-155580505D01*
X129335714Y-155580505D02*
X129250000Y-155666220D01*
X129250000Y-155666220D02*
X129164285Y-155709077D01*
X129164285Y-155709077D02*
X128992857Y-155709077D01*
X128992857Y-155709077D02*
X128907143Y-155666220D01*
X128907143Y-155666220D02*
X128821428Y-155580505D01*
X128821428Y-155580505D02*
X128778571Y-155409077D01*
X128778571Y-155409077D02*
X128778571Y-155109077D01*
X128778571Y-155109077D02*
X128821428Y-154937648D01*
X128821428Y-154937648D02*
X128907143Y-154851934D01*
X128907143Y-154851934D02*
X128992857Y-154809077D01*
X129635714Y-154809077D02*
X130150000Y-154809077D01*
X129892857Y-155709077D02*
X129892857Y-154809077D01*
X112523809Y-124501600D02*
X112523809Y-123401600D01*
X112523809Y-123401600D02*
X112890476Y-124187315D01*
X112890476Y-124187315D02*
X113257143Y-123401600D01*
X113257143Y-123401600D02*
X113257143Y-124501600D01*
X114252381Y-124501600D02*
X114252381Y-123925410D01*
X114252381Y-123925410D02*
X114200000Y-123820648D01*
X114200000Y-123820648D02*
X114095238Y-123768267D01*
X114095238Y-123768267D02*
X113885714Y-123768267D01*
X113885714Y-123768267D02*
X113780952Y-123820648D01*
X114252381Y-124449220D02*
X114147619Y-124501600D01*
X114147619Y-124501600D02*
X113885714Y-124501600D01*
X113885714Y-124501600D02*
X113780952Y-124449220D01*
X113780952Y-124449220D02*
X113728571Y-124344458D01*
X113728571Y-124344458D02*
X113728571Y-124239696D01*
X113728571Y-124239696D02*
X113780952Y-124134934D01*
X113780952Y-124134934D02*
X113885714Y-124082553D01*
X113885714Y-124082553D02*
X114147619Y-124082553D01*
X114147619Y-124082553D02*
X114252381Y-124030172D01*
X114619047Y-123768267D02*
X115038095Y-123768267D01*
X114776190Y-123401600D02*
X114776190Y-124344458D01*
X114776190Y-124344458D02*
X114828571Y-124449220D01*
X114828571Y-124449220D02*
X114933333Y-124501600D01*
X114933333Y-124501600D02*
X115038095Y-124501600D01*
X115404761Y-124501600D02*
X115404761Y-123768267D01*
X115404761Y-123977791D02*
X115457142Y-123873029D01*
X115457142Y-123873029D02*
X115509523Y-123820648D01*
X115509523Y-123820648D02*
X115614285Y-123768267D01*
X115614285Y-123768267D02*
X115719047Y-123768267D01*
X116085713Y-124501600D02*
X116085713Y-123768267D01*
X116085713Y-123401600D02*
X116033332Y-123453981D01*
X116033332Y-123453981D02*
X116085713Y-123506362D01*
X116085713Y-123506362D02*
X116138094Y-123453981D01*
X116138094Y-123453981D02*
X116085713Y-123401600D01*
X116085713Y-123401600D02*
X116085713Y-123506362D01*
X116504761Y-124501600D02*
X117080952Y-123768267D01*
X116504761Y-123768267D02*
X117080952Y-124501600D01*
X118285713Y-124449220D02*
X118442856Y-124501600D01*
X118442856Y-124501600D02*
X118704761Y-124501600D01*
X118704761Y-124501600D02*
X118809523Y-124449220D01*
X118809523Y-124449220D02*
X118861904Y-124396839D01*
X118861904Y-124396839D02*
X118914285Y-124292077D01*
X118914285Y-124292077D02*
X118914285Y-124187315D01*
X118914285Y-124187315D02*
X118861904Y-124082553D01*
X118861904Y-124082553D02*
X118809523Y-124030172D01*
X118809523Y-124030172D02*
X118704761Y-123977791D01*
X118704761Y-123977791D02*
X118495237Y-123925410D01*
X118495237Y-123925410D02*
X118390475Y-123873029D01*
X118390475Y-123873029D02*
X118338094Y-123820648D01*
X118338094Y-123820648D02*
X118285713Y-123715886D01*
X118285713Y-123715886D02*
X118285713Y-123611124D01*
X118285713Y-123611124D02*
X118338094Y-123506362D01*
X118338094Y-123506362D02*
X118390475Y-123453981D01*
X118390475Y-123453981D02*
X118495237Y-123401600D01*
X118495237Y-123401600D02*
X118757142Y-123401600D01*
X118757142Y-123401600D02*
X118914285Y-123453981D01*
X119385713Y-124501600D02*
X119385713Y-123768267D01*
X119385713Y-123401600D02*
X119333332Y-123453981D01*
X119333332Y-123453981D02*
X119385713Y-123506362D01*
X119385713Y-123506362D02*
X119438094Y-123453981D01*
X119438094Y-123453981D02*
X119385713Y-123401600D01*
X119385713Y-123401600D02*
X119385713Y-123506362D01*
X119804761Y-124501600D02*
X120380952Y-123768267D01*
X119804761Y-123768267D02*
X120380952Y-124501600D01*
D11*
X133680476Y-156363855D02*
X133680476Y-155563855D01*
X133680476Y-155944807D02*
X134137619Y-155944807D01*
X134137619Y-156363855D02*
X134137619Y-155563855D01*
X134480475Y-155640045D02*
X134518571Y-155601950D01*
X134518571Y-155601950D02*
X134594761Y-155563855D01*
X134594761Y-155563855D02*
X134785237Y-155563855D01*
X134785237Y-155563855D02*
X134861428Y-155601950D01*
X134861428Y-155601950D02*
X134899523Y-155640045D01*
X134899523Y-155640045D02*
X134937618Y-155716236D01*
X134937618Y-155716236D02*
X134937618Y-155792426D01*
X134937618Y-155792426D02*
X134899523Y-155906712D01*
X134899523Y-155906712D02*
X134442380Y-156363855D01*
X134442380Y-156363855D02*
X134937618Y-156363855D01*
X110485714Y-153763855D02*
X110219047Y-153382902D01*
X110028571Y-153763855D02*
X110028571Y-152963855D01*
X110028571Y-152963855D02*
X110333333Y-152963855D01*
X110333333Y-152963855D02*
X110409523Y-153001950D01*
X110409523Y-153001950D02*
X110447618Y-153040045D01*
X110447618Y-153040045D02*
X110485714Y-153116236D01*
X110485714Y-153116236D02*
X110485714Y-153230521D01*
X110485714Y-153230521D02*
X110447618Y-153306712D01*
X110447618Y-153306712D02*
X110409523Y-153344807D01*
X110409523Y-153344807D02*
X110333333Y-153382902D01*
X110333333Y-153382902D02*
X110028571Y-153382902D01*
X111247618Y-153763855D02*
X110790475Y-153763855D01*
X111019047Y-153763855D02*
X111019047Y-152963855D01*
X111019047Y-152963855D02*
X110942856Y-153078140D01*
X110942856Y-153078140D02*
X110866666Y-153154331D01*
X110866666Y-153154331D02*
X110790475Y-153192426D01*
X112009523Y-153763855D02*
X111552380Y-153763855D01*
X111780952Y-153763855D02*
X111780952Y-152963855D01*
X111780952Y-152963855D02*
X111704761Y-153078140D01*
X111704761Y-153078140D02*
X111628571Y-153154331D01*
X111628571Y-153154331D02*
X111552380Y-153192426D01*
X100660476Y-156363855D02*
X100660476Y-155563855D01*
X100660476Y-155944807D02*
X101117619Y-155944807D01*
X101117619Y-156363855D02*
X101117619Y-155563855D01*
X101917618Y-156363855D02*
X101460475Y-156363855D01*
X101689047Y-156363855D02*
X101689047Y-155563855D01*
X101689047Y-155563855D02*
X101612856Y-155678140D01*
X101612856Y-155678140D02*
X101536666Y-155754331D01*
X101536666Y-155754331D02*
X101460475Y-155792426D01*
X124850000Y-134310000D02*
X124850000Y-128800000D01*
X124850000Y-134310000D02*
X128150000Y-134310000D01*
X128150000Y-134310000D02*
X128150000Y-128800000D01*
X132960000Y-151990000D02*
X132960000Y-103670000D01*
X132960000Y-154590000D02*
X132960000Y-153260000D01*
X134290000Y-154590000D02*
X132960000Y-154590000D01*
X135620000Y-103670000D02*
X132960000Y-103670000D01*
X135620000Y-151990000D02*
X132960000Y-151990000D01*
X135620000Y-151990000D02*
X135620000Y-103670000D01*
X105477500Y-107987258D02*
X105477500Y-107512742D01*
X106522500Y-107987258D02*
X106522500Y-107512742D01*
X117007500Y-151512742D02*
X117007500Y-151987258D01*
X118052500Y-151512742D02*
X118052500Y-151987258D01*
X117262742Y-129877500D02*
X117737258Y-129877500D01*
X117262742Y-130922500D02*
X117737258Y-130922500D01*
X120661252Y-141465000D02*
X120138748Y-141465000D01*
X120661252Y-142935000D02*
X120138748Y-142935000D01*
X116477500Y-127762742D02*
X116477500Y-128237258D01*
X117522500Y-127762742D02*
X117522500Y-128237258D01*
X127977500Y-142762742D02*
X127977500Y-143237258D01*
X129022500Y-142762742D02*
X129022500Y-143237258D01*
X107762742Y-150977500D02*
X108237258Y-150977500D01*
X107762742Y-152022500D02*
X108237258Y-152022500D01*
X112477500Y-127762742D02*
X112477500Y-128237258D01*
X113522500Y-127762742D02*
X113522500Y-128237258D01*
X106061252Y-101065000D02*
X105538748Y-101065000D01*
X106061252Y-102535000D02*
X105538748Y-102535000D01*
X127765000Y-145700000D02*
X127765000Y-147985000D01*
X127765000Y-147985000D02*
X129235000Y-147985000D01*
X129235000Y-147985000D02*
X129235000Y-145700000D01*
X99940000Y-151990000D02*
X99940000Y-103670000D01*
X99940000Y-154590000D02*
X99940000Y-153260000D01*
X101270000Y-154590000D02*
X99940000Y-154590000D01*
X102600000Y-103670000D02*
X99940000Y-103670000D01*
X102600000Y-151990000D02*
X99940000Y-151990000D01*
X102600000Y-151990000D02*
X102600000Y-103670000D01*
X118338748Y-132065000D02*
X118861252Y-132065000D01*
X118338748Y-133535000D02*
X118861252Y-133535000D01*
X108262742Y-123477500D02*
X108737258Y-123477500D01*
X108262742Y-124522500D02*
X108737258Y-124522500D01*
X105490000Y-111440580D02*
X105490000Y-111159420D01*
X106510000Y-111440580D02*
X106510000Y-111159420D01*
X126850000Y-156600000D02*
X130150000Y-156600000D01*
X126850000Y-156900000D02*
X126850000Y-156600000D01*
X126850000Y-159100000D02*
X126850000Y-159400000D01*
X126850000Y-159400000D02*
X130150000Y-159400000D01*
X130150000Y-156600000D02*
X130150000Y-156900000D01*
X130150000Y-159400000D02*
X130150000Y-159100000D01*
X125397936Y-149590000D02*
X126602064Y-149590000D01*
X125397936Y-151410000D02*
X126602064Y-151410000D01*
X108580000Y-118450000D02*
X108580000Y-119450000D01*
X108580000Y-119450000D02*
X110080000Y-119450000D01*
X126980000Y-119450000D02*
X125480000Y-119450000D01*
X126980000Y-119450000D02*
X126980000Y-118450000D01*
X121359420Y-150990000D02*
X121640580Y-150990000D01*
X121359420Y-152010000D02*
X121640580Y-152010000D01*
X125159420Y-134890000D02*
X125440580Y-134890000D01*
X125159420Y-135910000D02*
X125440580Y-135910000D01*
X113540000Y-148090000D02*
X113590000Y-148090000D01*
X113540000Y-149910000D02*
X113540000Y-148090000D01*
X113590000Y-149910000D02*
X113540000Y-149910000D01*
X116610000Y-148090000D02*
X116660000Y-148090000D01*
X116660000Y-148090000D02*
X116660000Y-149910000D01*
X116660000Y-149910000D02*
X116610000Y-149910000D01*
X113590000Y-150450000D02*
X113260000Y-150690000D01*
X113260000Y-150210000D01*
X113590000Y-150450000D01*
G36*
X113590000Y-150450000D02*
G01*
X113260000Y-150690000D01*
X113260000Y-150210000D01*
X113590000Y-150450000D01*
G37*
X121238748Y-144065000D02*
X121761252Y-144065000D01*
X121238748Y-145535000D02*
X121761252Y-145535000D01*
X105490000Y-104640580D02*
X105490000Y-104359420D01*
X106510000Y-104640580D02*
X106510000Y-104359420D01*
X119890000Y-139380000D02*
X119890000Y-139610000D01*
X119890000Y-139610000D02*
X120865000Y-139610000D01*
X120180000Y-136390000D02*
X120865000Y-136390000D01*
X122135000Y-136390000D02*
X123110000Y-136390000D01*
X122135000Y-139610000D02*
X123110000Y-139610000D01*
X123110000Y-136390000D02*
X123110000Y-136620000D01*
X123110000Y-139380000D02*
X123110000Y-139610000D01*
X119860000Y-136390000D02*
X119580000Y-136390000D01*
X119860000Y-136110000D01*
X119860000Y-136390000D01*
G36*
X119860000Y-136390000D02*
G01*
X119580000Y-136390000D01*
X119860000Y-136110000D01*
X119860000Y-136390000D01*
G37*
X125177500Y-140237258D02*
X125177500Y-139762742D01*
X126222500Y-140237258D02*
X126222500Y-139762742D01*
X105850000Y-156600000D02*
X109150000Y-156600000D01*
X105850000Y-156900000D02*
X105850000Y-156600000D01*
X105850000Y-159100000D02*
X105850000Y-159400000D01*
X105850000Y-159400000D02*
X109150000Y-159400000D01*
X109150000Y-156600000D02*
X109150000Y-156900000D01*
X109150000Y-159400000D02*
X109150000Y-159100000D01*
X107265000Y-145700000D02*
X107265000Y-147985000D01*
X107265000Y-147985000D02*
X108735000Y-147985000D01*
X108735000Y-147985000D02*
X108735000Y-145700000D01*
X106262742Y-117377500D02*
X106737258Y-117377500D01*
X106262742Y-118422500D02*
X106737258Y-118422500D01*
X106262742Y-115777500D02*
X106737258Y-115777500D01*
X106262742Y-116822500D02*
X106737258Y-116822500D01*
X113110000Y-157900000D02*
X113110000Y-156200000D01*
X122450000Y-157900000D02*
X122450000Y-156200000D01*
X114790000Y-135615000D02*
X114790000Y-136640000D01*
X114790000Y-135615000D02*
X115815000Y-135615000D01*
X114790000Y-140385000D02*
X114790000Y-139360000D01*
X114790000Y-140385000D02*
X115815000Y-140385000D01*
X119010000Y-135615000D02*
X117985000Y-135615000D01*
X119010000Y-135615000D02*
X119010000Y-136640000D01*
X119010000Y-140385000D02*
X117985000Y-140385000D01*
X119010000Y-140385000D02*
X119010000Y-139360000D01*
X121477500Y-129037258D02*
X121477500Y-128562742D01*
X122522500Y-129037258D02*
X122522500Y-128562742D01*
X114477500Y-127762742D02*
X114477500Y-128237258D01*
X115522500Y-127762742D02*
X115522500Y-128237258D01*
X128262742Y-152477500D02*
X128737258Y-152477500D01*
X128262742Y-153522500D02*
X128737258Y-153522500D01*
X121262742Y-122477500D02*
X121737258Y-122477500D01*
X121262742Y-123522500D02*
X121737258Y-123522500D01*
X107477500Y-141762742D02*
X107477500Y-142237258D01*
X108522500Y-141762742D02*
X108522500Y-142237258D01*
%LPC*%
G36*
G01*
X127150000Y-134050000D02*
X125850000Y-134050000D01*
G75*
G02*
X125600000Y-133800000I0J250000D01*
G01*
X125600000Y-131800000D01*
G75*
G02*
X125850000Y-131550000I250000J0D01*
G01*
X127150000Y-131550000D01*
G75*
G02*
X127400000Y-131800000I0J-250000D01*
G01*
X127400000Y-133800000D01*
G75*
G02*
X127150000Y-134050000I-250000J0D01*
G01*
G37*
G36*
G01*
X127150000Y-130050000D02*
X125850000Y-130050000D01*
G75*
G02*
X125600000Y-129800000I0J250000D01*
G01*
X125600000Y-127800000D01*
G75*
G02*
X125850000Y-127550000I250000J0D01*
G01*
X127150000Y-127550000D01*
G75*
G02*
X127400000Y-127800000I0J-250000D01*
G01*
X127400000Y-129800000D01*
G75*
G02*
X127150000Y-130050000I-250000J0D01*
G01*
G37*
D12*
X134290000Y-153260000D03*
D13*
X134290000Y-150720000D03*
X134290000Y-148180000D03*
X134290000Y-145640000D03*
X134290000Y-143100000D03*
X134290000Y-140560000D03*
X134290000Y-138020000D03*
X134290000Y-135480000D03*
X134290000Y-132940000D03*
X134290000Y-130400000D03*
X134290000Y-127860000D03*
X134290000Y-125320000D03*
X134290000Y-122780000D03*
X134290000Y-120240000D03*
X134290000Y-117700000D03*
X134290000Y-115160000D03*
X134290000Y-112620000D03*
X134290000Y-110080000D03*
X134290000Y-107540000D03*
X134290000Y-105000000D03*
G36*
G01*
X106275000Y-108975000D02*
X105725000Y-108975000D01*
G75*
G02*
X105525000Y-108775000I0J200000D01*
G01*
X105525000Y-108375000D01*
G75*
G02*
X105725000Y-108175000I200000J0D01*
G01*
X106275000Y-108175000D01*
G75*
G02*
X106475000Y-108375000I0J-200000D01*
G01*
X106475000Y-108775000D01*
G75*
G02*
X106275000Y-108975000I-200000J0D01*
G01*
G37*
G36*
G01*
X106275000Y-107325000D02*
X105725000Y-107325000D01*
G75*
G02*
X105525000Y-107125000I0J200000D01*
G01*
X105525000Y-106725000D01*
G75*
G02*
X105725000Y-106525000I200000J0D01*
G01*
X106275000Y-106525000D01*
G75*
G02*
X106475000Y-106725000I0J-200000D01*
G01*
X106475000Y-107125000D01*
G75*
G02*
X106275000Y-107325000I-200000J0D01*
G01*
G37*
G36*
G01*
X117255000Y-150525000D02*
X117805000Y-150525000D01*
G75*
G02*
X118005000Y-150725000I0J-200000D01*
G01*
X118005000Y-151125000D01*
G75*
G02*
X117805000Y-151325000I-200000J0D01*
G01*
X117255000Y-151325000D01*
G75*
G02*
X117055000Y-151125000I0J200000D01*
G01*
X117055000Y-150725000D01*
G75*
G02*
X117255000Y-150525000I200000J0D01*
G01*
G37*
G36*
G01*
X117255000Y-152175000D02*
X117805000Y-152175000D01*
G75*
G02*
X118005000Y-152375000I0J-200000D01*
G01*
X118005000Y-152775000D01*
G75*
G02*
X117805000Y-152975000I-200000J0D01*
G01*
X117255000Y-152975000D01*
G75*
G02*
X117055000Y-152775000I0J200000D01*
G01*
X117055000Y-152375000D01*
G75*
G02*
X117255000Y-152175000I200000J0D01*
G01*
G37*
G36*
G01*
X116275000Y-130675000D02*
X116275000Y-130125000D01*
G75*
G02*
X116475000Y-129925000I200000J0D01*
G01*
X116875000Y-129925000D01*
G75*
G02*
X117075000Y-130125000I0J-200000D01*
G01*
X117075000Y-130675000D01*
G75*
G02*
X116875000Y-130875000I-200000J0D01*
G01*
X116475000Y-130875000D01*
G75*
G02*
X116275000Y-130675000I0J200000D01*
G01*
G37*
G36*
G01*
X117925000Y-130675000D02*
X117925000Y-130125000D01*
G75*
G02*
X118125000Y-129925000I200000J0D01*
G01*
X118525000Y-129925000D01*
G75*
G02*
X118725000Y-130125000I0J-200000D01*
G01*
X118725000Y-130675000D01*
G75*
G02*
X118525000Y-130875000I-200000J0D01*
G01*
X118125000Y-130875000D01*
G75*
G02*
X117925000Y-130675000I0J200000D01*
G01*
G37*
G36*
G01*
X121850000Y-141725000D02*
X121850000Y-142675000D01*
G75*
G02*
X121600000Y-142925000I-250000J0D01*
G01*
X121100000Y-142925000D01*
G75*
G02*
X120850000Y-142675000I0J250000D01*
G01*
X120850000Y-141725000D01*
G75*
G02*
X121100000Y-141475000I250000J0D01*
G01*
X121600000Y-141475000D01*
G75*
G02*
X121850000Y-141725000I0J-250000D01*
G01*
G37*
G36*
G01*
X119950000Y-141725000D02*
X119950000Y-142675000D01*
G75*
G02*
X119700000Y-142925000I-250000J0D01*
G01*
X119200000Y-142925000D01*
G75*
G02*
X118950000Y-142675000I0J250000D01*
G01*
X118950000Y-141725000D01*
G75*
G02*
X119200000Y-141475000I250000J0D01*
G01*
X119700000Y-141475000D01*
G75*
G02*
X119950000Y-141725000I0J-250000D01*
G01*
G37*
G36*
G01*
X116725000Y-126775000D02*
X117275000Y-126775000D01*
G75*
G02*
X117475000Y-126975000I0J-200000D01*
G01*
X117475000Y-127375000D01*
G75*
G02*
X117275000Y-127575000I-200000J0D01*
G01*
X116725000Y-127575000D01*
G75*
G02*
X116525000Y-127375000I0J200000D01*
G01*
X116525000Y-126975000D01*
G75*
G02*
X116725000Y-126775000I200000J0D01*
G01*
G37*
G36*
G01*
X116725000Y-128425000D02*
X117275000Y-128425000D01*
G75*
G02*
X117475000Y-128625000I0J-200000D01*
G01*
X117475000Y-129025000D01*
G75*
G02*
X117275000Y-129225000I-200000J0D01*
G01*
X116725000Y-129225000D01*
G75*
G02*
X116525000Y-129025000I0J200000D01*
G01*
X116525000Y-128625000D01*
G75*
G02*
X116725000Y-128425000I200000J0D01*
G01*
G37*
G36*
G01*
X128225000Y-141775000D02*
X128775000Y-141775000D01*
G75*
G02*
X128975000Y-141975000I0J-200000D01*
G01*
X128975000Y-142375000D01*
G75*
G02*
X128775000Y-142575000I-200000J0D01*
G01*
X128225000Y-142575000D01*
G75*
G02*
X128025000Y-142375000I0J200000D01*
G01*
X128025000Y-141975000D01*
G75*
G02*
X128225000Y-141775000I200000J0D01*
G01*
G37*
G36*
G01*
X128225000Y-143425000D02*
X128775000Y-143425000D01*
G75*
G02*
X128975000Y-143625000I0J-200000D01*
G01*
X128975000Y-144025000D01*
G75*
G02*
X128775000Y-144225000I-200000J0D01*
G01*
X128225000Y-144225000D01*
G75*
G02*
X128025000Y-144025000I0J200000D01*
G01*
X128025000Y-143625000D01*
G75*
G02*
X128225000Y-143425000I200000J0D01*
G01*
G37*
G36*
G01*
X106775000Y-151775000D02*
X106775000Y-151225000D01*
G75*
G02*
X106975000Y-151025000I200000J0D01*
G01*
X107375000Y-151025000D01*
G75*
G02*
X107575000Y-151225000I0J-200000D01*
G01*
X107575000Y-151775000D01*
G75*
G02*
X107375000Y-151975000I-200000J0D01*
G01*
X106975000Y-151975000D01*
G75*
G02*
X106775000Y-151775000I0J200000D01*
G01*
G37*
G36*
G01*
X108425000Y-151775000D02*
X108425000Y-151225000D01*
G75*
G02*
X108625000Y-151025000I200000J0D01*
G01*
X109025000Y-151025000D01*
G75*
G02*
X109225000Y-151225000I0J-200000D01*
G01*
X109225000Y-151775000D01*
G75*
G02*
X109025000Y-151975000I-200000J0D01*
G01*
X108625000Y-151975000D01*
G75*
G02*
X108425000Y-151775000I0J200000D01*
G01*
G37*
G36*
G01*
X112725000Y-126775000D02*
X113275000Y-126775000D01*
G75*
G02*
X113475000Y-126975000I0J-200000D01*
G01*
X113475000Y-127375000D01*
G75*
G02*
X113275000Y-127575000I-200000J0D01*
G01*
X112725000Y-127575000D01*
G75*
G02*
X112525000Y-127375000I0J200000D01*
G01*
X112525000Y-126975000D01*
G75*
G02*
X112725000Y-126775000I200000J0D01*
G01*
G37*
G36*
G01*
X112725000Y-128425000D02*
X113275000Y-128425000D01*
G75*
G02*
X113475000Y-128625000I0J-200000D01*
G01*
X113475000Y-129025000D01*
G75*
G02*
X113275000Y-129225000I-200000J0D01*
G01*
X112725000Y-129225000D01*
G75*
G02*
X112525000Y-129025000I0J200000D01*
G01*
X112525000Y-128625000D01*
G75*
G02*
X112725000Y-128425000I200000J0D01*
G01*
G37*
G36*
G01*
X107250000Y-101325000D02*
X107250000Y-102275000D01*
G75*
G02*
X107000000Y-102525000I-250000J0D01*
G01*
X106500000Y-102525000D01*
G75*
G02*
X106250000Y-102275000I0J250000D01*
G01*
X106250000Y-101325000D01*
G75*
G02*
X106500000Y-101075000I250000J0D01*
G01*
X107000000Y-101075000D01*
G75*
G02*
X107250000Y-101325000I0J-250000D01*
G01*
G37*
G36*
G01*
X105350000Y-101325000D02*
X105350000Y-102275000D01*
G75*
G02*
X105100000Y-102525000I-250000J0D01*
G01*
X104600000Y-102525000D01*
G75*
G02*
X104350000Y-102275000I0J250000D01*
G01*
X104350000Y-101325000D01*
G75*
G02*
X104600000Y-101075000I250000J0D01*
G01*
X105100000Y-101075000D01*
G75*
G02*
X105350000Y-101325000I0J-250000D01*
G01*
G37*
G36*
G01*
X128756250Y-147725000D02*
X128243750Y-147725000D01*
G75*
G02*
X128025000Y-147506250I0J218750D01*
G01*
X128025000Y-147068750D01*
G75*
G02*
X128243750Y-146850000I218750J0D01*
G01*
X128756250Y-146850000D01*
G75*
G02*
X128975000Y-147068750I0J-218750D01*
G01*
X128975000Y-147506250D01*
G75*
G02*
X128756250Y-147725000I-218750J0D01*
G01*
G37*
G36*
G01*
X128756250Y-146150000D02*
X128243750Y-146150000D01*
G75*
G02*
X128025000Y-145931250I0J218750D01*
G01*
X128025000Y-145493750D01*
G75*
G02*
X128243750Y-145275000I218750J0D01*
G01*
X128756250Y-145275000D01*
G75*
G02*
X128975000Y-145493750I0J-218750D01*
G01*
X128975000Y-145931250D01*
G75*
G02*
X128756250Y-146150000I-218750J0D01*
G01*
G37*
D12*
X101270000Y-153260000D03*
D13*
X101270000Y-150720000D03*
X101270000Y-148180000D03*
X101270000Y-145640000D03*
X101270000Y-143100000D03*
X101270000Y-140560000D03*
X101270000Y-138020000D03*
X101270000Y-135480000D03*
X101270000Y-132940000D03*
X101270000Y-130400000D03*
X101270000Y-127860000D03*
X101270000Y-125320000D03*
X101270000Y-122780000D03*
X101270000Y-120240000D03*
X101270000Y-117700000D03*
X101270000Y-115160000D03*
X101270000Y-112620000D03*
X101270000Y-110080000D03*
X101270000Y-107540000D03*
X101270000Y-105000000D03*
G36*
G01*
X117150000Y-133275000D02*
X117150000Y-132325000D01*
G75*
G02*
X117400000Y-132075000I250000J0D01*
G01*
X117900000Y-132075000D01*
G75*
G02*
X118150000Y-132325000I0J-250000D01*
G01*
X118150000Y-133275000D01*
G75*
G02*
X117900000Y-133525000I-250000J0D01*
G01*
X117400000Y-133525000D01*
G75*
G02*
X117150000Y-133275000I0J250000D01*
G01*
G37*
G36*
G01*
X119050000Y-133275000D02*
X119050000Y-132325000D01*
G75*
G02*
X119300000Y-132075000I250000J0D01*
G01*
X119800000Y-132075000D01*
G75*
G02*
X120050000Y-132325000I0J-250000D01*
G01*
X120050000Y-133275000D01*
G75*
G02*
X119800000Y-133525000I-250000J0D01*
G01*
X119300000Y-133525000D01*
G75*
G02*
X119050000Y-133275000I0J250000D01*
G01*
G37*
G36*
G01*
X107275000Y-124275000D02*
X107275000Y-123725000D01*
G75*
G02*
X107475000Y-123525000I200000J0D01*
G01*
X107875000Y-123525000D01*
G75*
G02*
X108075000Y-123725000I0J-200000D01*
G01*
X108075000Y-124275000D01*
G75*
G02*
X107875000Y-124475000I-200000J0D01*
G01*
X107475000Y-124475000D01*
G75*
G02*
X107275000Y-124275000I0J200000D01*
G01*
G37*
G36*
G01*
X108925000Y-124275000D02*
X108925000Y-123725000D01*
G75*
G02*
X109125000Y-123525000I200000J0D01*
G01*
X109525000Y-123525000D01*
G75*
G02*
X109725000Y-123725000I0J-200000D01*
G01*
X109725000Y-124275000D01*
G75*
G02*
X109525000Y-124475000I-200000J0D01*
G01*
X109125000Y-124475000D01*
G75*
G02*
X108925000Y-124275000I0J200000D01*
G01*
G37*
G36*
G01*
X106250000Y-112525000D02*
X105750000Y-112525000D01*
G75*
G02*
X105525000Y-112300000I0J225000D01*
G01*
X105525000Y-111850000D01*
G75*
G02*
X105750000Y-111625000I225000J0D01*
G01*
X106250000Y-111625000D01*
G75*
G02*
X106475000Y-111850000I0J-225000D01*
G01*
X106475000Y-112300000D01*
G75*
G02*
X106250000Y-112525000I-225000J0D01*
G01*
G37*
G36*
G01*
X106250000Y-110975000D02*
X105750000Y-110975000D01*
G75*
G02*
X105525000Y-110750000I0J225000D01*
G01*
X105525000Y-110300000D01*
G75*
G02*
X105750000Y-110075000I225000J0D01*
G01*
X106250000Y-110075000D01*
G75*
G02*
X106475000Y-110300000I0J-225000D01*
G01*
X106475000Y-110750000D01*
G75*
G02*
X106250000Y-110975000I-225000J0D01*
G01*
G37*
D14*
X126800000Y-158000000D03*
X130200000Y-158000000D03*
G36*
G01*
X123975000Y-151125000D02*
X123975000Y-149875000D01*
G75*
G02*
X124225000Y-149625000I250000J0D01*
G01*
X124975000Y-149625000D01*
G75*
G02*
X125225000Y-149875000I0J-250000D01*
G01*
X125225000Y-151125000D01*
G75*
G02*
X124975000Y-151375000I-250000J0D01*
G01*
X124225000Y-151375000D01*
G75*
G02*
X123975000Y-151125000I0J250000D01*
G01*
G37*
G36*
G01*
X126775000Y-151125000D02*
X126775000Y-149875000D01*
G75*
G02*
X127025000Y-149625000I250000J0D01*
G01*
X127775000Y-149625000D01*
G75*
G02*
X128025000Y-149875000I0J-250000D01*
G01*
X128025000Y-151125000D01*
G75*
G02*
X127775000Y-151375000I-250000J0D01*
G01*
X127025000Y-151375000D01*
G75*
G02*
X126775000Y-151125000I0J250000D01*
G01*
G37*
D15*
X109030000Y-101240000D03*
X109030000Y-102510000D03*
X109030000Y-103780000D03*
X109030000Y-105050000D03*
X109030000Y-106320000D03*
X109030000Y-107590000D03*
X109030000Y-108860000D03*
X109030000Y-110130000D03*
X109030000Y-111400000D03*
X109030000Y-112670000D03*
X109030000Y-113940000D03*
X109030000Y-115210000D03*
X109030000Y-116480000D03*
X109030000Y-117750000D03*
D16*
X110795000Y-119000000D03*
X112065000Y-119000000D03*
X113335000Y-119000000D03*
X114605000Y-119000000D03*
X115875000Y-119000000D03*
X117145000Y-119000000D03*
X118415000Y-119000000D03*
X119685000Y-119000000D03*
X120955000Y-119000000D03*
X122225000Y-119000000D03*
X123495000Y-119000000D03*
X124765000Y-119000000D03*
D15*
X126530000Y-117750000D03*
X126530000Y-116480000D03*
X126530000Y-115210000D03*
X126530000Y-113940000D03*
X126530000Y-112670000D03*
X126530000Y-111400000D03*
X126530000Y-110130000D03*
X126530000Y-108860000D03*
X126530000Y-107590000D03*
X126530000Y-106320000D03*
X126530000Y-105050000D03*
X126530000Y-103780000D03*
X126530000Y-102510000D03*
X126530000Y-101240000D03*
D17*
X114880000Y-108260000D03*
X114880000Y-109660000D03*
X115580000Y-107560000D03*
X115580000Y-108960000D03*
X115580000Y-110360000D03*
X116280000Y-108260000D03*
D18*
X116280000Y-108960000D03*
D17*
X116280000Y-109660000D03*
X116980000Y-107560000D03*
X116980000Y-108960000D03*
X116980000Y-110360000D03*
X117680000Y-108260000D03*
X117680000Y-109660000D03*
G36*
G01*
X120275000Y-151750000D02*
X120275000Y-151250000D01*
G75*
G02*
X120500000Y-151025000I225000J0D01*
G01*
X120950000Y-151025000D01*
G75*
G02*
X121175000Y-151250000I0J-225000D01*
G01*
X121175000Y-151750000D01*
G75*
G02*
X120950000Y-151975000I-225000J0D01*
G01*
X120500000Y-151975000D01*
G75*
G02*
X120275000Y-151750000I0J225000D01*
G01*
G37*
G36*
G01*
X121825000Y-151750000D02*
X121825000Y-151250000D01*
G75*
G02*
X122050000Y-151025000I225000J0D01*
G01*
X122500000Y-151025000D01*
G75*
G02*
X122725000Y-151250000I0J-225000D01*
G01*
X122725000Y-151750000D01*
G75*
G02*
X122500000Y-151975000I-225000J0D01*
G01*
X122050000Y-151975000D01*
G75*
G02*
X121825000Y-151750000I0J225000D01*
G01*
G37*
G36*
G01*
X124075000Y-135650000D02*
X124075000Y-135150000D01*
G75*
G02*
X124300000Y-134925000I225000J0D01*
G01*
X124750000Y-134925000D01*
G75*
G02*
X124975000Y-135150000I0J-225000D01*
G01*
X124975000Y-135650000D01*
G75*
G02*
X124750000Y-135875000I-225000J0D01*
G01*
X124300000Y-135875000D01*
G75*
G02*
X124075000Y-135650000I0J225000D01*
G01*
G37*
G36*
G01*
X125625000Y-135650000D02*
X125625000Y-135150000D01*
G75*
G02*
X125850000Y-134925000I225000J0D01*
G01*
X126300000Y-134925000D01*
G75*
G02*
X126525000Y-135150000I0J-225000D01*
G01*
X126525000Y-135650000D01*
G75*
G02*
X126300000Y-135875000I-225000J0D01*
G01*
X125850000Y-135875000D01*
G75*
G02*
X125625000Y-135650000I0J225000D01*
G01*
G37*
G36*
G01*
X114300000Y-150800000D02*
X114000000Y-150800000D01*
G75*
G02*
X113850000Y-150650000I0J150000D01*
G01*
X113850000Y-149625000D01*
G75*
G02*
X114000000Y-149475000I150000J0D01*
G01*
X114300000Y-149475000D01*
G75*
G02*
X114450000Y-149625000I0J-150000D01*
G01*
X114450000Y-150650000D01*
G75*
G02*
X114300000Y-150800000I-150000J0D01*
G01*
G37*
G36*
G01*
X115250000Y-150800000D02*
X114950000Y-150800000D01*
G75*
G02*
X114800000Y-150650000I0J150000D01*
G01*
X114800000Y-149625000D01*
G75*
G02*
X114950000Y-149475000I150000J0D01*
G01*
X115250000Y-149475000D01*
G75*
G02*
X115400000Y-149625000I0J-150000D01*
G01*
X115400000Y-150650000D01*
G75*
G02*
X115250000Y-150800000I-150000J0D01*
G01*
G37*
G36*
G01*
X116200000Y-150800000D02*
X115900000Y-150800000D01*
G75*
G02*
X115750000Y-150650000I0J150000D01*
G01*
X115750000Y-149625000D01*
G75*
G02*
X115900000Y-149475000I150000J0D01*
G01*
X116200000Y-149475000D01*
G75*
G02*
X116350000Y-149625000I0J-150000D01*
G01*
X116350000Y-150650000D01*
G75*
G02*
X116200000Y-150800000I-150000J0D01*
G01*
G37*
G36*
G01*
X116200000Y-148525000D02*
X115900000Y-148525000D01*
G75*
G02*
X115750000Y-148375000I0J150000D01*
G01*
X115750000Y-147350000D01*
G75*
G02*
X115900000Y-147200000I150000J0D01*
G01*
X116200000Y-147200000D01*
G75*
G02*
X116350000Y-147350000I0J-150000D01*
G01*
X116350000Y-148375000D01*
G75*
G02*
X116200000Y-148525000I-150000J0D01*
G01*
G37*
G36*
G01*
X115250000Y-148525000D02*
X114950000Y-148525000D01*
G75*
G02*
X114800000Y-148375000I0J150000D01*
G01*
X114800000Y-147350000D01*
G75*
G02*
X114950000Y-147200000I150000J0D01*
G01*
X115250000Y-147200000D01*
G75*
G02*
X115400000Y-147350000I0J-150000D01*
G01*
X115400000Y-148375000D01*
G75*
G02*
X115250000Y-148525000I-150000J0D01*
G01*
G37*
G36*
G01*
X114300000Y-148525000D02*
X114000000Y-148525000D01*
G75*
G02*
X113850000Y-148375000I0J150000D01*
G01*
X113850000Y-147350000D01*
G75*
G02*
X114000000Y-147200000I150000J0D01*
G01*
X114300000Y-147200000D01*
G75*
G02*
X114450000Y-147350000I0J-150000D01*
G01*
X114450000Y-148375000D01*
G75*
G02*
X114300000Y-148525000I-150000J0D01*
G01*
G37*
G36*
G01*
X120050000Y-145275000D02*
X120050000Y-144325000D01*
G75*
G02*
X120300000Y-144075000I250000J0D01*
G01*
X120800000Y-144075000D01*
G75*
G02*
X121050000Y-144325000I0J-250000D01*
G01*
X121050000Y-145275000D01*
G75*
G02*
X120800000Y-145525000I-250000J0D01*
G01*
X120300000Y-145525000D01*
G75*
G02*
X120050000Y-145275000I0J250000D01*
G01*
G37*
G36*
G01*
X121950000Y-145275000D02*
X121950000Y-144325000D01*
G75*
G02*
X122200000Y-144075000I250000J0D01*
G01*
X122700000Y-144075000D01*
G75*
G02*
X122950000Y-144325000I0J-250000D01*
G01*
X122950000Y-145275000D01*
G75*
G02*
X122700000Y-145525000I-250000J0D01*
G01*
X122200000Y-145525000D01*
G75*
G02*
X121950000Y-145275000I0J250000D01*
G01*
G37*
G36*
G01*
X106250000Y-105725000D02*
X105750000Y-105725000D01*
G75*
G02*
X105525000Y-105500000I0J225000D01*
G01*
X105525000Y-105050000D01*
G75*
G02*
X105750000Y-104825000I225000J0D01*
G01*
X106250000Y-104825000D01*
G75*
G02*
X106475000Y-105050000I0J-225000D01*
G01*
X106475000Y-105500000D01*
G75*
G02*
X106250000Y-105725000I-225000J0D01*
G01*
G37*
G36*
G01*
X106250000Y-104175000D02*
X105750000Y-104175000D01*
G75*
G02*
X105525000Y-103950000I0J225000D01*
G01*
X105525000Y-103500000D01*
G75*
G02*
X105750000Y-103275000I225000J0D01*
G01*
X106250000Y-103275000D01*
G75*
G02*
X106475000Y-103500000I0J-225000D01*
G01*
X106475000Y-103950000D01*
G75*
G02*
X106250000Y-104175000I-225000J0D01*
G01*
G37*
G36*
G01*
X119800000Y-137060000D02*
X119800000Y-136940000D01*
G75*
G02*
X119860000Y-136880000I60000J0D01*
G01*
X120340000Y-136880000D01*
G75*
G02*
X120400000Y-136940000I0J-60000D01*
G01*
X120400000Y-137060000D01*
G75*
G02*
X120340000Y-137120000I-60000J0D01*
G01*
X119860000Y-137120000D01*
G75*
G02*
X119800000Y-137060000I0J60000D01*
G01*
G37*
G36*
G01*
X119800000Y-137560000D02*
X119800000Y-137440000D01*
G75*
G02*
X119860000Y-137380000I60000J0D01*
G01*
X120340000Y-137380000D01*
G75*
G02*
X120400000Y-137440000I0J-60000D01*
G01*
X120400000Y-137560000D01*
G75*
G02*
X120340000Y-137620000I-60000J0D01*
G01*
X119860000Y-137620000D01*
G75*
G02*
X119800000Y-137560000I0J60000D01*
G01*
G37*
G36*
G01*
X119800000Y-138060000D02*
X119800000Y-137940000D01*
G75*
G02*
X119860000Y-137880000I60000J0D01*
G01*
X120340000Y-137880000D01*
G75*
G02*
X120400000Y-137940000I0J-60000D01*
G01*
X120400000Y-138060000D01*
G75*
G02*
X120340000Y-138120000I-60000J0D01*
G01*
X119860000Y-138120000D01*
G75*
G02*
X119800000Y-138060000I0J60000D01*
G01*
G37*
G36*
G01*
X119800000Y-138560000D02*
X119800000Y-138440000D01*
G75*
G02*
X119860000Y-138380000I60000J0D01*
G01*
X120340000Y-138380000D01*
G75*
G02*
X120400000Y-138440000I0J-60000D01*
G01*
X120400000Y-138560000D01*
G75*
G02*
X120340000Y-138620000I-60000J0D01*
G01*
X119860000Y-138620000D01*
G75*
G02*
X119800000Y-138560000I0J60000D01*
G01*
G37*
G36*
G01*
X119800000Y-139060000D02*
X119800000Y-138940000D01*
G75*
G02*
X119860000Y-138880000I60000J0D01*
G01*
X120340000Y-138880000D01*
G75*
G02*
X120400000Y-138940000I0J-60000D01*
G01*
X120400000Y-139060000D01*
G75*
G02*
X120340000Y-139120000I-60000J0D01*
G01*
X119860000Y-139120000D01*
G75*
G02*
X119800000Y-139060000I0J60000D01*
G01*
G37*
G36*
G01*
X122600000Y-139060000D02*
X122600000Y-138940000D01*
G75*
G02*
X122660000Y-138880000I60000J0D01*
G01*
X123140000Y-138880000D01*
G75*
G02*
X123200000Y-138940000I0J-60000D01*
G01*
X123200000Y-139060000D01*
G75*
G02*
X123140000Y-139120000I-60000J0D01*
G01*
X122660000Y-139120000D01*
G75*
G02*
X122600000Y-139060000I0J60000D01*
G01*
G37*
G36*
G01*
X122600000Y-138560000D02*
X122600000Y-138440000D01*
G75*
G02*
X122660000Y-138380000I60000J0D01*
G01*
X123140000Y-138380000D01*
G75*
G02*
X123200000Y-138440000I0J-60000D01*
G01*
X123200000Y-138560000D01*
G75*
G02*
X123140000Y-138620000I-60000J0D01*
G01*
X122660000Y-138620000D01*
G75*
G02*
X122600000Y-138560000I0J60000D01*
G01*
G37*
G36*
G01*
X122600000Y-138060000D02*
X122600000Y-137940000D01*
G75*
G02*
X122660000Y-137880000I60000J0D01*
G01*
X123140000Y-137880000D01*
G75*
G02*
X123200000Y-137940000I0J-60000D01*
G01*
X123200000Y-138060000D01*
G75*
G02*
X123140000Y-138120000I-60000J0D01*
G01*
X122660000Y-138120000D01*
G75*
G02*
X122600000Y-138060000I0J60000D01*
G01*
G37*
G36*
G01*
X122600000Y-137560000D02*
X122600000Y-137440000D01*
G75*
G02*
X122660000Y-137380000I60000J0D01*
G01*
X123140000Y-137380000D01*
G75*
G02*
X123200000Y-137440000I0J-60000D01*
G01*
X123200000Y-137560000D01*
G75*
G02*
X123140000Y-137620000I-60000J0D01*
G01*
X122660000Y-137620000D01*
G75*
G02*
X122600000Y-137560000I0J60000D01*
G01*
G37*
G36*
G01*
X122600000Y-137060000D02*
X122600000Y-136940000D01*
G75*
G02*
X122660000Y-136880000I60000J0D01*
G01*
X123140000Y-136880000D01*
G75*
G02*
X123200000Y-136940000I0J-60000D01*
G01*
X123200000Y-137060000D01*
G75*
G02*
X123140000Y-137120000I-60000J0D01*
G01*
X122660000Y-137120000D01*
G75*
G02*
X122600000Y-137060000I0J60000D01*
G01*
G37*
G36*
X121375000Y-136800000D02*
G01*
X121625000Y-136800000D01*
X121625000Y-136300000D01*
X121875000Y-136300000D01*
X121875000Y-136800000D01*
X122325000Y-136800000D01*
X122325000Y-139200000D01*
X121875000Y-139200000D01*
X121875000Y-139700000D01*
X121625000Y-139700000D01*
X121625000Y-139200000D01*
X121375000Y-139200000D01*
X121375000Y-139700000D01*
X121125000Y-139700000D01*
X121125000Y-139200000D01*
X120675000Y-139200000D01*
X120675000Y-136800000D01*
X121125000Y-136800000D01*
X121125000Y-136300000D01*
X121375000Y-136300000D01*
X121375000Y-136800000D01*
G37*
G36*
G01*
X125975000Y-141225000D02*
X125425000Y-141225000D01*
G75*
G02*
X125225000Y-141025000I0J200000D01*
G01*
X125225000Y-140625000D01*
G75*
G02*
X125425000Y-140425000I200000J0D01*
G01*
X125975000Y-140425000D01*
G75*
G02*
X126175000Y-140625000I0J-200000D01*
G01*
X126175000Y-141025000D01*
G75*
G02*
X125975000Y-141225000I-200000J0D01*
G01*
G37*
G36*
G01*
X125975000Y-139575000D02*
X125425000Y-139575000D01*
G75*
G02*
X125225000Y-139375000I0J200000D01*
G01*
X125225000Y-138975000D01*
G75*
G02*
X125425000Y-138775000I200000J0D01*
G01*
X125975000Y-138775000D01*
G75*
G02*
X126175000Y-138975000I0J-200000D01*
G01*
X126175000Y-139375000D01*
G75*
G02*
X125975000Y-139575000I-200000J0D01*
G01*
G37*
D14*
X105800000Y-158000000D03*
X109200000Y-158000000D03*
G36*
G01*
X108256250Y-147725000D02*
X107743750Y-147725000D01*
G75*
G02*
X107525000Y-147506250I0J218750D01*
G01*
X107525000Y-147068750D01*
G75*
G02*
X107743750Y-146850000I218750J0D01*
G01*
X108256250Y-146850000D01*
G75*
G02*
X108475000Y-147068750I0J-218750D01*
G01*
X108475000Y-147506250D01*
G75*
G02*
X108256250Y-147725000I-218750J0D01*
G01*
G37*
G36*
G01*
X108256250Y-146150000D02*
X107743750Y-146150000D01*
G75*
G02*
X107525000Y-145931250I0J218750D01*
G01*
X107525000Y-145493750D01*
G75*
G02*
X107743750Y-145275000I218750J0D01*
G01*
X108256250Y-145275000D01*
G75*
G02*
X108475000Y-145493750I0J-218750D01*
G01*
X108475000Y-145931250D01*
G75*
G02*
X108256250Y-146150000I-218750J0D01*
G01*
G37*
G36*
G01*
X105275000Y-118175000D02*
X105275000Y-117625000D01*
G75*
G02*
X105475000Y-117425000I200000J0D01*
G01*
X105875000Y-117425000D01*
G75*
G02*
X106075000Y-117625000I0J-200000D01*
G01*
X106075000Y-118175000D01*
G75*
G02*
X105875000Y-118375000I-200000J0D01*
G01*
X105475000Y-118375000D01*
G75*
G02*
X105275000Y-118175000I0J200000D01*
G01*
G37*
G36*
G01*
X106925000Y-118175000D02*
X106925000Y-117625000D01*
G75*
G02*
X107125000Y-117425000I200000J0D01*
G01*
X107525000Y-117425000D01*
G75*
G02*
X107725000Y-117625000I0J-200000D01*
G01*
X107725000Y-118175000D01*
G75*
G02*
X107525000Y-118375000I-200000J0D01*
G01*
X107125000Y-118375000D01*
G75*
G02*
X106925000Y-118175000I0J200000D01*
G01*
G37*
G36*
G01*
X105275000Y-116575000D02*
X105275000Y-116025000D01*
G75*
G02*
X105475000Y-115825000I200000J0D01*
G01*
X105875000Y-115825000D01*
G75*
G02*
X106075000Y-116025000I0J-200000D01*
G01*
X106075000Y-116575000D01*
G75*
G02*
X105875000Y-116775000I-200000J0D01*
G01*
X105475000Y-116775000D01*
G75*
G02*
X105275000Y-116575000I0J200000D01*
G01*
G37*
G36*
G01*
X106925000Y-116575000D02*
X106925000Y-116025000D01*
G75*
G02*
X107125000Y-115825000I200000J0D01*
G01*
X107525000Y-115825000D01*
G75*
G02*
X107725000Y-116025000I0J-200000D01*
G01*
X107725000Y-116575000D01*
G75*
G02*
X107525000Y-116775000I-200000J0D01*
G01*
X107125000Y-116775000D01*
G75*
G02*
X106925000Y-116575000I0J200000D01*
G01*
G37*
D19*
X114890000Y-155395000D03*
X120670000Y-155395000D03*
G36*
G01*
X114280000Y-154745000D02*
X114280000Y-153895000D01*
G75*
G02*
X114430000Y-153745000I150000J0D01*
G01*
X114730000Y-153745000D01*
G75*
G02*
X114880000Y-153895000I0J-150000D01*
G01*
X114880000Y-154745000D01*
G75*
G02*
X114730000Y-154895000I-150000J0D01*
G01*
X114430000Y-154895000D01*
G75*
G02*
X114280000Y-154745000I0J150000D01*
G01*
G37*
G36*
G01*
X115080000Y-154745000D02*
X115080000Y-153895000D01*
G75*
G02*
X115230000Y-153745000I150000J0D01*
G01*
X115530000Y-153745000D01*
G75*
G02*
X115680000Y-153895000I0J-150000D01*
G01*
X115680000Y-154745000D01*
G75*
G02*
X115530000Y-154895000I-150000J0D01*
G01*
X115230000Y-154895000D01*
G75*
G02*
X115080000Y-154745000I0J150000D01*
G01*
G37*
G36*
G01*
X116380000Y-154820000D02*
X116380000Y-153820000D01*
G75*
G02*
X116455000Y-153745000I75000J0D01*
G01*
X116605000Y-153745000D01*
G75*
G02*
X116680000Y-153820000I0J-75000D01*
G01*
X116680000Y-154820000D01*
G75*
G02*
X116605000Y-154895000I-75000J0D01*
G01*
X116455000Y-154895000D01*
G75*
G02*
X116380000Y-154820000I0J75000D01*
G01*
G37*
G36*
G01*
X117380000Y-154820000D02*
X117380000Y-153820000D01*
G75*
G02*
X117455000Y-153745000I75000J0D01*
G01*
X117605000Y-153745000D01*
G75*
G02*
X117680000Y-153820000I0J-75000D01*
G01*
X117680000Y-154820000D01*
G75*
G02*
X117605000Y-154895000I-75000J0D01*
G01*
X117455000Y-154895000D01*
G75*
G02*
X117380000Y-154820000I0J75000D01*
G01*
G37*
G36*
G01*
X117880000Y-154820000D02*
X117880000Y-153820000D01*
G75*
G02*
X117955000Y-153745000I75000J0D01*
G01*
X118105000Y-153745000D01*
G75*
G02*
X118180000Y-153820000I0J-75000D01*
G01*
X118180000Y-154820000D01*
G75*
G02*
X118105000Y-154895000I-75000J0D01*
G01*
X117955000Y-154895000D01*
G75*
G02*
X117880000Y-154820000I0J75000D01*
G01*
G37*
G36*
G01*
X118880000Y-154820000D02*
X118880000Y-153820000D01*
G75*
G02*
X118955000Y-153745000I75000J0D01*
G01*
X119105000Y-153745000D01*
G75*
G02*
X119180000Y-153820000I0J-75000D01*
G01*
X119180000Y-154820000D01*
G75*
G02*
X119105000Y-154895000I-75000J0D01*
G01*
X118955000Y-154895000D01*
G75*
G02*
X118880000Y-154820000I0J75000D01*
G01*
G37*
G36*
G01*
X119880000Y-154745000D02*
X119880000Y-153895000D01*
G75*
G02*
X120030000Y-153745000I150000J0D01*
G01*
X120330000Y-153745000D01*
G75*
G02*
X120480000Y-153895000I0J-150000D01*
G01*
X120480000Y-154745000D01*
G75*
G02*
X120330000Y-154895000I-150000J0D01*
G01*
X120030000Y-154895000D01*
G75*
G02*
X119880000Y-154745000I0J150000D01*
G01*
G37*
G36*
G01*
X120680000Y-154745000D02*
X120680000Y-153895000D01*
G75*
G02*
X120830000Y-153745000I150000J0D01*
G01*
X121130000Y-153745000D01*
G75*
G02*
X121280000Y-153895000I0J-150000D01*
G01*
X121280000Y-154745000D01*
G75*
G02*
X121130000Y-154895000I-150000J0D01*
G01*
X120830000Y-154895000D01*
G75*
G02*
X120680000Y-154745000I0J150000D01*
G01*
G37*
G36*
G01*
X120680000Y-154745000D02*
X120680000Y-153895000D01*
G75*
G02*
X120830000Y-153745000I150000J0D01*
G01*
X121130000Y-153745000D01*
G75*
G02*
X121280000Y-153895000I0J-150000D01*
G01*
X121280000Y-154745000D01*
G75*
G02*
X121130000Y-154895000I-150000J0D01*
G01*
X120830000Y-154895000D01*
G75*
G02*
X120680000Y-154745000I0J150000D01*
G01*
G37*
G36*
G01*
X119880000Y-154745000D02*
X119880000Y-153895000D01*
G75*
G02*
X120030000Y-153745000I150000J0D01*
G01*
X120330000Y-153745000D01*
G75*
G02*
X120480000Y-153895000I0J-150000D01*
G01*
X120480000Y-154745000D01*
G75*
G02*
X120330000Y-154895000I-150000J0D01*
G01*
X120030000Y-154895000D01*
G75*
G02*
X119880000Y-154745000I0J150000D01*
G01*
G37*
G36*
G01*
X119380000Y-154820000D02*
X119380000Y-153820000D01*
G75*
G02*
X119455000Y-153745000I75000J0D01*
G01*
X119605000Y-153745000D01*
G75*
G02*
X119680000Y-153820000I0J-75000D01*
G01*
X119680000Y-154820000D01*
G75*
G02*
X119605000Y-154895000I-75000J0D01*
G01*
X119455000Y-154895000D01*
G75*
G02*
X119380000Y-154820000I0J75000D01*
G01*
G37*
G36*
G01*
X118380000Y-154820000D02*
X118380000Y-153820000D01*
G75*
G02*
X118455000Y-153745000I75000J0D01*
G01*
X118605000Y-153745000D01*
G75*
G02*
X118680000Y-153820000I0J-75000D01*
G01*
X118680000Y-154820000D01*
G75*
G02*
X118605000Y-154895000I-75000J0D01*
G01*
X118455000Y-154895000D01*
G75*
G02*
X118380000Y-154820000I0J75000D01*
G01*
G37*
G36*
G01*
X116880000Y-154820000D02*
X116880000Y-153820000D01*
G75*
G02*
X116955000Y-153745000I75000J0D01*
G01*
X117105000Y-153745000D01*
G75*
G02*
X117180000Y-153820000I0J-75000D01*
G01*
X117180000Y-154820000D01*
G75*
G02*
X117105000Y-154895000I-75000J0D01*
G01*
X116955000Y-154895000D01*
G75*
G02*
X116880000Y-154820000I0J75000D01*
G01*
G37*
G36*
G01*
X115880000Y-154820000D02*
X115880000Y-153820000D01*
G75*
G02*
X115955000Y-153745000I75000J0D01*
G01*
X116105000Y-153745000D01*
G75*
G02*
X116180000Y-153820000I0J-75000D01*
G01*
X116180000Y-154820000D01*
G75*
G02*
X116105000Y-154895000I-75000J0D01*
G01*
X115955000Y-154895000D01*
G75*
G02*
X115880000Y-154820000I0J75000D01*
G01*
G37*
G36*
G01*
X115080000Y-154745000D02*
X115080000Y-153895000D01*
G75*
G02*
X115230000Y-153745000I150000J0D01*
G01*
X115530000Y-153745000D01*
G75*
G02*
X115680000Y-153895000I0J-150000D01*
G01*
X115680000Y-154745000D01*
G75*
G02*
X115530000Y-154895000I-150000J0D01*
G01*
X115230000Y-154895000D01*
G75*
G02*
X115080000Y-154745000I0J150000D01*
G01*
G37*
G36*
G01*
X114280000Y-154745000D02*
X114280000Y-153895000D01*
G75*
G02*
X114430000Y-153745000I150000J0D01*
G01*
X114730000Y-153745000D01*
G75*
G02*
X114880000Y-153895000I0J-150000D01*
G01*
X114880000Y-154745000D01*
G75*
G02*
X114730000Y-154895000I-150000J0D01*
G01*
X114430000Y-154895000D01*
G75*
G02*
X114280000Y-154745000I0J150000D01*
G01*
G37*
D20*
X113460000Y-154895000D03*
D21*
X113460000Y-159075000D03*
D20*
X122100000Y-154895000D03*
D21*
X122100000Y-159075000D03*
D22*
X116900000Y-139525000D03*
X116900000Y-136475000D03*
G36*
G01*
X122275000Y-130025000D02*
X121725000Y-130025000D01*
G75*
G02*
X121525000Y-129825000I0J200000D01*
G01*
X121525000Y-129425000D01*
G75*
G02*
X121725000Y-129225000I200000J0D01*
G01*
X122275000Y-129225000D01*
G75*
G02*
X122475000Y-129425000I0J-200000D01*
G01*
X122475000Y-129825000D01*
G75*
G02*
X122275000Y-130025000I-200000J0D01*
G01*
G37*
G36*
G01*
X122275000Y-128375000D02*
X121725000Y-128375000D01*
G75*
G02*
X121525000Y-128175000I0J200000D01*
G01*
X121525000Y-127775000D01*
G75*
G02*
X121725000Y-127575000I200000J0D01*
G01*
X122275000Y-127575000D01*
G75*
G02*
X122475000Y-127775000I0J-200000D01*
G01*
X122475000Y-128175000D01*
G75*
G02*
X122275000Y-128375000I-200000J0D01*
G01*
G37*
G36*
G01*
X114725000Y-126775000D02*
X115275000Y-126775000D01*
G75*
G02*
X115475000Y-126975000I0J-200000D01*
G01*
X115475000Y-127375000D01*
G75*
G02*
X115275000Y-127575000I-200000J0D01*
G01*
X114725000Y-127575000D01*
G75*
G02*
X114525000Y-127375000I0J200000D01*
G01*
X114525000Y-126975000D01*
G75*
G02*
X114725000Y-126775000I200000J0D01*
G01*
G37*
G36*
G01*
X114725000Y-128425000D02*
X115275000Y-128425000D01*
G75*
G02*
X115475000Y-128625000I0J-200000D01*
G01*
X115475000Y-129025000D01*
G75*
G02*
X115275000Y-129225000I-200000J0D01*
G01*
X114725000Y-129225000D01*
G75*
G02*
X114525000Y-129025000I0J200000D01*
G01*
X114525000Y-128625000D01*
G75*
G02*
X114725000Y-128425000I200000J0D01*
G01*
G37*
G36*
G01*
X127275000Y-153275000D02*
X127275000Y-152725000D01*
G75*
G02*
X127475000Y-152525000I200000J0D01*
G01*
X127875000Y-152525000D01*
G75*
G02*
X128075000Y-152725000I0J-200000D01*
G01*
X128075000Y-153275000D01*
G75*
G02*
X127875000Y-153475000I-200000J0D01*
G01*
X127475000Y-153475000D01*
G75*
G02*
X127275000Y-153275000I0J200000D01*
G01*
G37*
G36*
G01*
X128925000Y-153275000D02*
X128925000Y-152725000D01*
G75*
G02*
X129125000Y-152525000I200000J0D01*
G01*
X129525000Y-152525000D01*
G75*
G02*
X129725000Y-152725000I0J-200000D01*
G01*
X129725000Y-153275000D01*
G75*
G02*
X129525000Y-153475000I-200000J0D01*
G01*
X129125000Y-153475000D01*
G75*
G02*
X128925000Y-153275000I0J200000D01*
G01*
G37*
G36*
G01*
X120275000Y-123275000D02*
X120275000Y-122725000D01*
G75*
G02*
X120475000Y-122525000I200000J0D01*
G01*
X120875000Y-122525000D01*
G75*
G02*
X121075000Y-122725000I0J-200000D01*
G01*
X121075000Y-123275000D01*
G75*
G02*
X120875000Y-123475000I-200000J0D01*
G01*
X120475000Y-123475000D01*
G75*
G02*
X120275000Y-123275000I0J200000D01*
G01*
G37*
G36*
G01*
X121925000Y-123275000D02*
X121925000Y-122725000D01*
G75*
G02*
X122125000Y-122525000I200000J0D01*
G01*
X122525000Y-122525000D01*
G75*
G02*
X122725000Y-122725000I0J-200000D01*
G01*
X122725000Y-123275000D01*
G75*
G02*
X122525000Y-123475000I-200000J0D01*
G01*
X122125000Y-123475000D01*
G75*
G02*
X121925000Y-123275000I0J200000D01*
G01*
G37*
G36*
G01*
X107725000Y-140775000D02*
X108275000Y-140775000D01*
G75*
G02*
X108475000Y-140975000I0J-200000D01*
G01*
X108475000Y-141375000D01*
G75*
G02*
X108275000Y-141575000I-200000J0D01*
G01*
X107725000Y-141575000D01*
G75*
G02*
X107525000Y-141375000I0J200000D01*
G01*
X107525000Y-140975000D01*
G75*
G02*
X107725000Y-140775000I200000J0D01*
G01*
G37*
G36*
G01*
X107725000Y-142425000D02*
X108275000Y-142425000D01*
G75*
G02*
X108475000Y-142625000I0J-200000D01*
G01*
X108475000Y-143025000D01*
G75*
G02*
X108275000Y-143225000I-200000J0D01*
G01*
X107725000Y-143225000D01*
G75*
G02*
X107525000Y-143025000I0J200000D01*
G01*
X107525000Y-142625000D01*
G75*
G02*
X107725000Y-142425000I200000J0D01*
G01*
G37*
G36*
G01*
X109100000Y-152875000D02*
X109100000Y-154125000D01*
G75*
G02*
X108850000Y-154375000I-250000J0D01*
G01*
X108150000Y-154375000D01*
G75*
G02*
X107900000Y-154125000I0J250000D01*
G01*
X107900000Y-152875000D01*
G75*
G02*
X108150000Y-152625000I250000J0D01*
G01*
X108850000Y-152625000D01*
G75*
G02*
X109100000Y-152875000I0J-250000D01*
G01*
G37*
D23*
X106500000Y-153500000D03*
%LPD*%
M02*
