M48
; DRILL file KiCad 10.0.6 date 2026-09-07T19:11:06
; FORMAT={-:-/ absolute / metric / decimal}
; #@! TF.CreationDate,2026-09-07T19:11:06+09:00
; #@! TF.GenerationSoftware,Kicad,Pcbnew,10.0.6
; #@! TF.FileFunction,Plated,1,4,PTH
FMAT,2
METRIC
; #@! TA.AperFunction,Plated,PTH,ComponentDrill
T1C0.200
; #@! TA.AperFunction,Plated,PTH,ViaDrill
T2C0.300
; #@! TA.AperFunction,Plated,PTH,ComponentDrill
T3C0.600
; #@! TA.AperFunction,Plated,PTH,ComponentDrill
T4C0.750
; #@! TA.AperFunction,Plated,PTH,ComponentDrill
T5C1.000
%
G90
G05
T1
X114.88Y-108.26
X114.88Y-109.66
X115.58Y-107.56
X115.58Y-108.96
X115.58Y-110.36
X116.28Y-108.26
X116.28Y-109.66
X116.98Y-107.56
X116.98Y-108.96
X116.98Y-110.36
X117.68Y-108.26
X117.68Y-109.66
T2
X99.3Y-103.78
X99.3Y-156.5
X101.0Y-101.0
X101.0Y-159.8
X102.6Y-104.4
X102.6Y-143.1
X103.25Y-108.22
X103.25Y-140.56
X103.95Y-135.48
X104.65Y-132.94
X104.85Y-101.2
X105.35Y-130.4
X105.8Y-140.25
X105.8Y-142.15
X105.8Y-156.5
X106.0Y-150.5
X106.5Y-127.86
X106.7Y-131.67
X106.7Y-137.4
X106.7Y-138.65
X107.0Y-146.9
X107.4Y-102.1
X107.4Y-103.17
X107.8Y-134.21
X107.85Y-125.32
X108.0Y-148.0
X108.1Y-102.51
X108.1Y-103.78
X108.1Y-105.05
X108.1Y-106.32
X108.1Y-107.59
X108.1Y-108.86
X108.1Y-115.21
X108.7Y-120.2
X108.7Y-126.0
X109.2Y-136.75
X109.8Y-126.1
X110.0Y-139.29
X110.2Y-158.0
X110.7Y-106.96
X110.7Y-110.13
X110.795Y-120.0
X111.4Y-105.7
X111.4Y-111.4
X111.5Y-147.8
X113.335Y-120.0
X113.335Y-122.78
X113.8Y-108.2
X113.8Y-109.7
X114.605Y-120.0
X114.605Y-120.9
X114.95Y-152.5
X115.075Y-137.9
X115.1Y-148.5
X115.1Y-149.35
X115.7Y-135.1
X115.875Y-117.7
X115.875Y-120.0
X115.95Y-152.75
X116.125Y-125.1
X116.5Y-142.7
X117.145Y-114.57
X117.145Y-120.0
X117.225Y-125.1
X117.275Y-140.8
X117.65Y-132.8
X118.415Y-112.1
X118.415Y-120.0
X118.8Y-108.2
X118.8Y-109.7
X119.4Y-143.1
X119.475Y-140.7
X119.53Y-153.3
X119.685Y-111.0
X119.685Y-120.0
X119.9Y-126.3
X120.18Y-152.3
X120.3Y-132.8
X120.4Y-149.2
X120.5Y-128.6
X120.55Y-144.8
X120.8Y-125.5
X120.955Y-120.0
X120.955Y-120.65
X121.0Y-147.8
X121.0Y-150.7
X121.2Y-137.6
X121.8Y-122.5
X121.8Y-138.4
X122.0Y-141.4
X122.1Y-133.5
X122.225Y-118.55
X122.225Y-120.0
X122.45Y-144.8
X122.8Y-128.2
X123.1Y-151.5
X123.495Y-115.16
X123.495Y-120.0
X124.2Y-122.78
X124.5Y-113.89
X124.5Y-116.43
X124.6Y-143.8
X124.765Y-120.0
X124.8Y-147.4
X125.0Y-122.78
X125.0Y-141.5
X125.4Y-150.5
X125.4Y-151.2
X125.8Y-120.65
X125.8Y-133.8
X126.075Y-135.4
X126.1Y-137.2
X126.5Y-122.1
X126.8Y-157.0
X127.0Y-152.0
X127.362Y-147.95
X127.4Y-102.51
X127.4Y-103.78
X127.4Y-105.05
X127.4Y-106.32
X127.4Y-107.59
X127.4Y-108.86
X127.4Y-110.13
X127.4Y-111.4
X127.4Y-112.67
X127.4Y-117.75
X127.8Y-123.6
X128.4Y-135.48
X128.75Y-154.8
X128.8Y-150.5
X129.3Y-132.94
X129.95Y-151.6
X130.0Y-130.4
X130.0Y-142.1
X130.5Y-140.4
X130.5Y-144.3
X130.65Y-154.8
X130.7Y-127.86
X131.0Y-147.0
X131.1Y-148.6
X131.2Y-158.0
X131.4Y-125.32
X132.1Y-112.62
X132.8Y-110.08
X134.5Y-101.0
X134.5Y-159.8
X135.5Y-116.43
X135.5Y-145.64
X136.2Y-113.89
X136.2Y-148.18
T4
X106.5Y-153.5
X108.5Y-153.5
T5
X101.27Y-105.0
X101.27Y-107.54
X101.27Y-110.08
X101.27Y-112.62
X101.27Y-115.16
X101.27Y-117.7
X101.27Y-120.24
X101.27Y-122.78
X101.27Y-125.32
X101.27Y-127.86
X101.27Y-130.4
X101.27Y-132.94
X101.27Y-135.48
X101.27Y-138.02
X101.27Y-140.56
X101.27Y-143.1
X101.27Y-145.64
X101.27Y-148.18
X101.27Y-150.72
X101.27Y-153.26
X134.29Y-105.0
X134.29Y-107.54
X134.29Y-110.08
X134.29Y-112.62
X134.29Y-115.16
X134.29Y-117.7
X134.29Y-120.24
X134.29Y-122.78
X134.29Y-125.32
X134.29Y-127.86
X134.29Y-130.4
X134.29Y-132.94
X134.29Y-135.48
X134.29Y-138.02
X134.29Y-140.56
X134.29Y-143.1
X134.29Y-145.64
X134.29Y-148.18
X134.29Y-150.72
X134.29Y-153.26
T3
X113.46Y-154.345G85X113.46Y-155.445
G05
X113.46Y-158.675G85X113.46Y-159.475
G05
X122.1Y-154.345G85X122.1Y-155.445
G05
X122.1Y-158.675G85X122.1Y-159.475
G05
M30
