G04 #@! TF.GenerationSoftware,KiCad,Pcbnew,10.0.6*
G04 #@! TF.CreationDate,2026-09-08T08:51:54+09:00*
G04 #@! TF.ProjectId,Matrix6,4d617472-6978-4362-9e6b-696361645f70,0.8*
G04 #@! TF.SameCoordinates,Original*
G04 #@! TF.FileFunction,Soldermask,Bot*
G04 #@! TF.FilePolarity,Negative*
%FSLAX46Y46*%
G04 Gerber Fmt 4.6, Leading zero omitted, Abs format (unit mm)*
G04 Created by KiCad (PCBNEW 10.0.6) date 2026-09-08 08:51:54*
%MOMM*%
%LPD*%
G01*
G04 APERTURE LIST*
%ADD10R,1.700000X1.700000*%
%ADD11C,1.700000*%
%ADD12C,0.650000*%
%ADD13O,1.000000X2.100000*%
%ADD14O,1.000000X1.800000*%
%ADD15R,0.700000X1.200000*%
%ADD16R,1.000000X0.800000*%
%ADD17R,1.000000X2.800000*%
%ADD18R,1.000000X1.200000*%
%ADD19R,1.300000X1.900000*%
%ADD20O,1.200000X1.750000*%
G04 APERTURE END LIST*
D10*
X134290000Y-153260000D03*
D11*
X134290000Y-150720000D03*
X134290000Y-148180000D03*
X134290000Y-145640000D03*
X134290000Y-143100000D03*
X134290000Y-140560000D03*
X134290000Y-138020000D03*
X134290000Y-135480000D03*
X134290000Y-132940000D03*
X134290000Y-130400000D03*
X134290000Y-127860000D03*
X134290000Y-125320000D03*
X134290000Y-122780000D03*
X134290000Y-120240000D03*
X134290000Y-117700000D03*
X134290000Y-115160000D03*
X134290000Y-112620000D03*
X134290000Y-110080000D03*
X134290000Y-107540000D03*
X134290000Y-105000000D03*
D10*
X101270000Y-153260000D03*
D11*
X101270000Y-150720000D03*
X101270000Y-148180000D03*
X101270000Y-145640000D03*
X101270000Y-143100000D03*
X101270000Y-140560000D03*
X101270000Y-138020000D03*
X101270000Y-135480000D03*
X101270000Y-132940000D03*
X101270000Y-130400000D03*
X101270000Y-127860000D03*
X101270000Y-125320000D03*
X101270000Y-122780000D03*
X101270000Y-120240000D03*
X101270000Y-117700000D03*
X101270000Y-115160000D03*
X101270000Y-112620000D03*
X101270000Y-110080000D03*
X101270000Y-107540000D03*
X101270000Y-105000000D03*
D12*
X114890000Y-155395000D03*
X120670000Y-155395000D03*
D13*
X113460000Y-154895000D03*
D14*
X113460000Y-159075000D03*
D13*
X122100000Y-154895000D03*
D14*
X122100000Y-159075000D03*
G36*
G01*
X128775000Y-144725000D02*
X128225000Y-144725000D01*
G75*
G02*
X128025000Y-144525000I0J200000D01*
G01*
X128025000Y-144125000D01*
G75*
G02*
X128225000Y-143925000I200000J0D01*
G01*
X128775000Y-143925000D01*
G75*
G02*
X128975000Y-144125000I0J-200000D01*
G01*
X128975000Y-144525000D01*
G75*
G02*
X128775000Y-144725000I-200000J0D01*
G01*
G37*
G36*
G01*
X128775000Y-143075000D02*
X128225000Y-143075000D01*
G75*
G02*
X128025000Y-142875000I0J200000D01*
G01*
X128025000Y-142475000D01*
G75*
G02*
X128225000Y-142275000I200000J0D01*
G01*
X128775000Y-142275000D01*
G75*
G02*
X128975000Y-142475000I0J-200000D01*
G01*
X128975000Y-142875000D01*
G75*
G02*
X128775000Y-143075000I-200000J0D01*
G01*
G37*
D15*
X120575000Y-139725000D03*
X119475000Y-139725000D03*
X118375000Y-139725000D03*
X117275000Y-139725000D03*
X116175000Y-139725000D03*
X115075000Y-139725000D03*
X113975000Y-139725000D03*
X112875000Y-139725000D03*
X111925000Y-139725000D03*
D16*
X110975000Y-129225000D03*
D17*
X110975000Y-125075000D03*
D18*
X110975000Y-135425000D03*
X122125000Y-139725000D03*
D19*
X124475000Y-124625000D03*
G36*
G01*
X124675000Y-144900000D02*
X124675000Y-145200000D01*
G75*
G02*
X124525000Y-145350000I-150000J0D01*
G01*
X123350000Y-145350000D01*
G75*
G02*
X123200000Y-145200000I0J150000D01*
G01*
X123200000Y-144900000D01*
G75*
G02*
X123350000Y-144750000I150000J0D01*
G01*
X124525000Y-144750000D01*
G75*
G02*
X124675000Y-144900000I0J-150000D01*
G01*
G37*
G36*
G01*
X124675000Y-146800000D02*
X124675000Y-147100000D01*
G75*
G02*
X124525000Y-147250000I-150000J0D01*
G01*
X123350000Y-147250000D01*
G75*
G02*
X123200000Y-147100000I0J150000D01*
G01*
X123200000Y-146800000D01*
G75*
G02*
X123350000Y-146650000I150000J0D01*
G01*
X124525000Y-146650000D01*
G75*
G02*
X124675000Y-146800000I0J-150000D01*
G01*
G37*
G36*
G01*
X122800000Y-145850000D02*
X122800000Y-146150000D01*
G75*
G02*
X122650000Y-146300000I-150000J0D01*
G01*
X121475000Y-146300000D01*
G75*
G02*
X121325000Y-146150000I0J150000D01*
G01*
X121325000Y-145850000D01*
G75*
G02*
X121475000Y-145700000I150000J0D01*
G01*
X122650000Y-145700000D01*
G75*
G02*
X122800000Y-145850000I0J-150000D01*
G01*
G37*
G36*
G01*
X130300000Y-145900000D02*
X130300000Y-146200000D01*
G75*
G02*
X130150000Y-146350000I-150000J0D01*
G01*
X129125000Y-146350000D01*
G75*
G02*
X128975000Y-146200000I0J150000D01*
G01*
X128975000Y-145900000D01*
G75*
G02*
X129125000Y-145750000I150000J0D01*
G01*
X130150000Y-145750000D01*
G75*
G02*
X130300000Y-145900000I0J-150000D01*
G01*
G37*
G36*
G01*
X130300000Y-146850000D02*
X130300000Y-147150000D01*
G75*
G02*
X130150000Y-147300000I-150000J0D01*
G01*
X129125000Y-147300000D01*
G75*
G02*
X128975000Y-147150000I0J150000D01*
G01*
X128975000Y-146850000D01*
G75*
G02*
X129125000Y-146700000I150000J0D01*
G01*
X130150000Y-146700000D01*
G75*
G02*
X130300000Y-146850000I0J-150000D01*
G01*
G37*
G36*
G01*
X130300000Y-147800000D02*
X130300000Y-148100000D01*
G75*
G02*
X130150000Y-148250000I-150000J0D01*
G01*
X129125000Y-148250000D01*
G75*
G02*
X128975000Y-148100000I0J150000D01*
G01*
X128975000Y-147800000D01*
G75*
G02*
X129125000Y-147650000I150000J0D01*
G01*
X130150000Y-147650000D01*
G75*
G02*
X130300000Y-147800000I0J-150000D01*
G01*
G37*
G36*
G01*
X128025000Y-147800000D02*
X128025000Y-148100000D01*
G75*
G02*
X127875000Y-148250000I-150000J0D01*
G01*
X126850000Y-148250000D01*
G75*
G02*
X126700000Y-148100000I0J150000D01*
G01*
X126700000Y-147800000D01*
G75*
G02*
X126850000Y-147650000I150000J0D01*
G01*
X127875000Y-147650000D01*
G75*
G02*
X128025000Y-147800000I0J-150000D01*
G01*
G37*
G36*
G01*
X128025000Y-145900000D02*
X128025000Y-146200000D01*
G75*
G02*
X127875000Y-146350000I-150000J0D01*
G01*
X126850000Y-146350000D01*
G75*
G02*
X126700000Y-146200000I0J150000D01*
G01*
X126700000Y-145900000D01*
G75*
G02*
X126850000Y-145750000I150000J0D01*
G01*
X127875000Y-145750000D01*
G75*
G02*
X128025000Y-145900000I0J-150000D01*
G01*
G37*
G36*
G01*
X109100000Y-152875000D02*
X109100000Y-154125000D01*
G75*
G02*
X108850000Y-154375000I-250000J0D01*
G01*
X108150000Y-154375000D01*
G75*
G02*
X107900000Y-154125000I0J250000D01*
G01*
X107900000Y-152875000D01*
G75*
G02*
X108150000Y-152625000I250000J0D01*
G01*
X108850000Y-152625000D01*
G75*
G02*
X109100000Y-152875000I0J-250000D01*
G01*
G37*
D20*
X106500000Y-153500000D03*
G36*
G01*
X131149999Y-154325000D02*
X131149999Y-155275000D01*
G75*
G02*
X130899999Y-155525000I-250000J0D01*
G01*
X130399999Y-155525000D01*
G75*
G02*
X130149999Y-155275000I0J250000D01*
G01*
X130149999Y-154325000D01*
G75*
G02*
X130399999Y-154075000I250000J0D01*
G01*
X130899999Y-154075000D01*
G75*
G02*
X131149999Y-154325000I0J-250000D01*
G01*
G37*
G36*
G01*
X129249999Y-154325000D02*
X129249999Y-155275000D01*
G75*
G02*
X128999999Y-155525000I-250000J0D01*
G01*
X128499999Y-155525000D01*
G75*
G02*
X128249999Y-155275000I0J250000D01*
G01*
X128249999Y-154325000D01*
G75*
G02*
X128499999Y-154075000I250000J0D01*
G01*
X128999999Y-154075000D01*
G75*
G02*
X129249999Y-154325000I0J-250000D01*
G01*
G37*
G36*
G01*
X130775000Y-143725000D02*
X130225000Y-143725000D01*
G75*
G02*
X130025000Y-143525000I0J200000D01*
G01*
X130025000Y-143125000D01*
G75*
G02*
X130225000Y-142925000I200000J0D01*
G01*
X130775000Y-142925000D01*
G75*
G02*
X130975000Y-143125000I0J-200000D01*
G01*
X130975000Y-143525000D01*
G75*
G02*
X130775000Y-143725000I-200000J0D01*
G01*
G37*
G36*
G01*
X130775000Y-142075000D02*
X130225000Y-142075000D01*
G75*
G02*
X130025000Y-141875000I0J200000D01*
G01*
X130025000Y-141475000D01*
G75*
G02*
X130225000Y-141275000I200000J0D01*
G01*
X130775000Y-141275000D01*
G75*
G02*
X130975000Y-141475000I0J-200000D01*
G01*
X130975000Y-141875000D01*
G75*
G02*
X130775000Y-142075000I-200000J0D01*
G01*
G37*
G36*
G01*
X120325000Y-141475000D02*
X120875000Y-141475000D01*
G75*
G02*
X121075000Y-141675000I0J-200000D01*
G01*
X121075000Y-142075000D01*
G75*
G02*
X120875000Y-142275000I-200000J0D01*
G01*
X120325000Y-142275000D01*
G75*
G02*
X120125000Y-142075000I0J200000D01*
G01*
X120125000Y-141675000D01*
G75*
G02*
X120325000Y-141475000I200000J0D01*
G01*
G37*
G36*
G01*
X120325000Y-143125000D02*
X120875000Y-143125000D01*
G75*
G02*
X121075000Y-143325000I0J-200000D01*
G01*
X121075000Y-143725000D01*
G75*
G02*
X120875000Y-143925000I-200000J0D01*
G01*
X120325000Y-143925000D01*
G75*
G02*
X120125000Y-143725000I0J200000D01*
G01*
X120125000Y-143325000D01*
G75*
G02*
X120325000Y-143125000I200000J0D01*
G01*
G37*
G36*
G01*
X117025000Y-141175000D02*
X117525000Y-141175000D01*
G75*
G02*
X117750000Y-141400000I0J-225000D01*
G01*
X117750000Y-141850000D01*
G75*
G02*
X117525000Y-142075000I-225000J0D01*
G01*
X117025000Y-142075000D01*
G75*
G02*
X116800000Y-141850000I0J225000D01*
G01*
X116800000Y-141400000D01*
G75*
G02*
X117025000Y-141175000I225000J0D01*
G01*
G37*
G36*
G01*
X117025000Y-142725000D02*
X117525000Y-142725000D01*
G75*
G02*
X117750000Y-142950000I0J-225000D01*
G01*
X117750000Y-143400000D01*
G75*
G02*
X117525000Y-143625000I-225000J0D01*
G01*
X117025000Y-143625000D01*
G75*
G02*
X116800000Y-143400000I0J225000D01*
G01*
X116800000Y-142950000D01*
G75*
G02*
X117025000Y-142725000I225000J0D01*
G01*
G37*
G36*
G01*
X128050000Y-152075000D02*
X128050000Y-151125000D01*
G75*
G02*
X128300000Y-150875000I250000J0D01*
G01*
X128800000Y-150875000D01*
G75*
G02*
X129050000Y-151125000I0J-250000D01*
G01*
X129050000Y-152075000D01*
G75*
G02*
X128800000Y-152325000I-250000J0D01*
G01*
X128300000Y-152325000D01*
G75*
G02*
X128050000Y-152075000I0J250000D01*
G01*
G37*
G36*
G01*
X129950000Y-152075000D02*
X129950000Y-151125000D01*
G75*
G02*
X130200000Y-150875000I250000J0D01*
G01*
X130700000Y-150875000D01*
G75*
G02*
X130950000Y-151125000I0J-250000D01*
G01*
X130950000Y-152075000D01*
G75*
G02*
X130700000Y-152325000I-250000J0D01*
G01*
X130200000Y-152325000D01*
G75*
G02*
X129950000Y-152075000I0J250000D01*
G01*
G37*
G36*
G01*
X107275000Y-150175000D02*
X107275000Y-149625000D01*
G75*
G02*
X107475000Y-149425000I200000J0D01*
G01*
X107875000Y-149425000D01*
G75*
G02*
X108075000Y-149625000I0J-200000D01*
G01*
X108075000Y-150175000D01*
G75*
G02*
X107875000Y-150375000I-200000J0D01*
G01*
X107475000Y-150375000D01*
G75*
G02*
X107275000Y-150175000I0J200000D01*
G01*
G37*
G36*
G01*
X108925000Y-150175000D02*
X108925000Y-149625000D01*
G75*
G02*
X109125000Y-149425000I200000J0D01*
G01*
X109525000Y-149425000D01*
G75*
G02*
X109725000Y-149625000I0J-200000D01*
G01*
X109725000Y-150175000D01*
G75*
G02*
X109525000Y-150375000I-200000J0D01*
G01*
X109125000Y-150375000D01*
G75*
G02*
X108925000Y-150175000I0J200000D01*
G01*
G37*
M02*
