G04 #@! TF.GenerationSoftware,KiCad,Pcbnew,10.0.6*
G04 #@! TF.CreationDate,2026-09-07T20:38:46+09:00*
G04 #@! TF.ProjectId,Matrix6,4d617472-6978-4362-9e6b-696361645f70,0.7*
G04 #@! TF.SameCoordinates,Original*
G04 #@! TF.FileFunction,Copper,L3,Inr*
G04 #@! TF.FilePolarity,Positive*
%FSLAX46Y46*%
G04 Gerber Fmt 4.6, Leading zero omitted, Abs format (unit mm)*
G04 Created by KiCad (PCBNEW 10.0.6) date 2026-09-07 20:38:46*
%MOMM*%
%LPD*%
G01*
G04 APERTURE LIST*
G04 #@! TA.AperFunction,ComponentPad*
%ADD10R,1.700000X1.700000*%
G04 #@! TD*
G04 #@! TA.AperFunction,ComponentPad*
%ADD11C,1.700000*%
G04 #@! TD*
G04 #@! TA.AperFunction,HeatsinkPad*
%ADD12C,0.600000*%
G04 #@! TD*
G04 #@! TA.AperFunction,ComponentPad*
%ADD13O,1.000000X2.100000*%
G04 #@! TD*
G04 #@! TA.AperFunction,ComponentPad*
%ADD14O,1.000000X1.800000*%
G04 #@! TD*
G04 #@! TA.AperFunction,ComponentPad*
%ADD15O,1.200000X1.750000*%
G04 #@! TD*
G04 #@! TA.AperFunction,ViaPad*
%ADD16C,0.600000*%
G04 #@! TD*
G04 #@! TA.AperFunction,Conductor*
%ADD17C,1.200000*%
G04 #@! TD*
G04 #@! TA.AperFunction,Conductor*
%ADD18C,0.800000*%
G04 #@! TD*
G04 #@! TA.AperFunction,Conductor*
%ADD19C,0.400000*%
G04 #@! TD*
G04 #@! TA.AperFunction,Conductor*
%ADD20C,0.200000*%
G04 #@! TD*
G04 #@! TA.AperFunction,Conductor*
%ADD21C,0.600000*%
G04 #@! TD*
G04 #@! TA.AperFunction,Conductor*
%ADD22C,0.250000*%
G04 #@! TD*
G04 APERTURE END LIST*
D10*
X134290000Y-153260000D03*
D11*
X134290000Y-150720000D03*
X134290000Y-148180000D03*
X134290000Y-145640000D03*
X134290000Y-143100000D03*
X134290000Y-140560000D03*
X134290000Y-138020000D03*
X134290000Y-135480000D03*
X134290000Y-132940000D03*
X134290000Y-130400000D03*
X134290000Y-127860000D03*
X134290000Y-125320000D03*
X134290000Y-122780000D03*
X134290000Y-120240000D03*
X134290000Y-117700000D03*
X134290000Y-115160000D03*
X134290000Y-112620000D03*
X134290000Y-110080000D03*
X134290000Y-107540000D03*
X134290000Y-105000000D03*
D10*
X101270000Y-153260000D03*
D11*
X101270000Y-150720000D03*
X101270000Y-148180000D03*
X101270000Y-145640000D03*
X101270000Y-143100000D03*
X101270000Y-140560000D03*
X101270000Y-138020000D03*
X101270000Y-135480000D03*
X101270000Y-132940000D03*
X101270000Y-130400000D03*
X101270000Y-127860000D03*
X101270000Y-125320000D03*
X101270000Y-122780000D03*
X101270000Y-120240000D03*
X101270000Y-117700000D03*
X101270000Y-115160000D03*
X101270000Y-112620000D03*
X101270000Y-110080000D03*
X101270000Y-107540000D03*
X101270000Y-105000000D03*
D12*
X114880000Y-108260000D03*
X114880000Y-109660000D03*
X115580000Y-107560000D03*
X115580000Y-108960000D03*
X115580000Y-110360000D03*
X116280000Y-108260000D03*
X116280000Y-109660000D03*
X116980000Y-107560000D03*
X116980000Y-108960000D03*
X116980000Y-110360000D03*
X117680000Y-108260000D03*
X117680000Y-109660000D03*
D13*
X113460000Y-154895000D03*
D14*
X113460000Y-159075000D03*
D13*
X122100000Y-154895000D03*
D14*
X122100000Y-159075000D03*
G04 #@! TA.AperFunction,ComponentPad*
G36*
G01*
X109100000Y-152875000D02*
X109100000Y-154125000D01*
G75*
G02*
X108850000Y-154375000I-250000J0D01*
G01*
X108150000Y-154375000D01*
G75*
G02*
X107900000Y-154125000I0J250000D01*
G01*
X107900000Y-152875000D01*
G75*
G02*
X108150000Y-152625000I250000J0D01*
G01*
X108850000Y-152625000D01*
G75*
G02*
X109100000Y-152875000I0J-250000D01*
G01*
G37*
G04 #@! TD.AperFunction*
D15*
X106500000Y-153500000D03*
D16*
X125000000Y-141500000D03*
X125800000Y-133800000D03*
X124800000Y-147400000D03*
X122000000Y-141400000D03*
X128800000Y-150500000D03*
X127362500Y-147950000D03*
X130500000Y-144300000D03*
X124600000Y-143800000D03*
X118800000Y-108200000D03*
X108000000Y-148000000D03*
X115075000Y-137900000D03*
X123100000Y-151500000D03*
X120400000Y-149200000D03*
X129949999Y-151600000D03*
X130000000Y-142100000D03*
X121800000Y-138400000D03*
X105800000Y-140250000D03*
X131199999Y-158000000D03*
X101000000Y-101000000D03*
X122450000Y-144800000D03*
X119400000Y-143100000D03*
X131000000Y-147000000D03*
X104850000Y-101200000D03*
X110200000Y-158000000D03*
X130500000Y-140400000D03*
X134500000Y-159800000D03*
X115100000Y-149350000D03*
X120300000Y-132800000D03*
X107400000Y-103170000D03*
X116500000Y-142700000D03*
X113800000Y-109700000D03*
X121200000Y-137600000D03*
X108700000Y-120200000D03*
X126075000Y-135400000D03*
X101000000Y-159800000D03*
X108700000Y-126000000D03*
X122800000Y-128199999D03*
X134500000Y-101000000D03*
X118800000Y-109700000D03*
X113800000Y-108200000D03*
X128750000Y-154800000D03*
X124500000Y-113890000D03*
X136200000Y-148180000D03*
X136200000Y-113890000D03*
X124500000Y-116430000D03*
X135500000Y-145640000D03*
X135500000Y-116430000D03*
X126100000Y-137200000D03*
X120955000Y-120000000D03*
X125800000Y-120650000D03*
X120955000Y-120650000D03*
X128400000Y-135480000D03*
X127400000Y-112670000D03*
X127400000Y-111400000D03*
X129300000Y-132940000D03*
X127400000Y-110130000D03*
X130000000Y-130400000D03*
X130699999Y-127860000D03*
X127400000Y-108860000D03*
X127400000Y-107590000D03*
X131400000Y-125320000D03*
X125000000Y-122780000D03*
X124200000Y-122780000D03*
X124765000Y-120000000D03*
X126500000Y-122100000D03*
X122225000Y-118550000D03*
X122225000Y-120000000D03*
X123495000Y-115160000D03*
X123495000Y-120000000D03*
X132100000Y-112620000D03*
X127400000Y-106320000D03*
X127400000Y-105050000D03*
X132800000Y-110080000D03*
X130649999Y-154800000D03*
X131100000Y-148600000D03*
X121000000Y-147800000D03*
X111500000Y-147800000D03*
X105800000Y-142150000D03*
X117275000Y-140800000D03*
X117650000Y-132800000D03*
X108100000Y-102510000D03*
X122100000Y-133500000D03*
X120550000Y-144800000D03*
X107000000Y-146900000D03*
X120500000Y-128600000D03*
X120800000Y-125500000D03*
X107400000Y-102100000D03*
X99300000Y-103780000D03*
X99300000Y-156500000D03*
X105800000Y-156500000D03*
X108100000Y-103780000D03*
X115700000Y-135100000D03*
X118415000Y-120000000D03*
X118415000Y-112100000D03*
X119900000Y-126300000D03*
X110000000Y-139290000D03*
X115950000Y-152750000D03*
X106000000Y-150500000D03*
X106700000Y-137400000D03*
X114605000Y-120000000D03*
X114605000Y-120900000D03*
X116125000Y-125100000D03*
X106700000Y-138650000D03*
X119475000Y-140700000D03*
X106700000Y-131669999D03*
X127400000Y-117750000D03*
X127800000Y-123600000D03*
X126800000Y-157000000D03*
X121800000Y-122500000D03*
X102600000Y-104400000D03*
X102600000Y-143100000D03*
X127400000Y-102510000D03*
X103250000Y-108220000D03*
X127400000Y-103780000D03*
X103250000Y-140560000D03*
X110795000Y-120000000D03*
X109800000Y-126100000D03*
X108100000Y-105050000D03*
X103950000Y-135480000D03*
X108100000Y-106320000D03*
X104650000Y-132940000D03*
X108100000Y-107590000D03*
X105350000Y-130400000D03*
X106500000Y-127860000D03*
X108100000Y-108860000D03*
X108100000Y-115210000D03*
X107850000Y-125320000D03*
X113335000Y-120000000D03*
X113335000Y-122780000D03*
X107800000Y-134210000D03*
X115875000Y-120000000D03*
X115875000Y-117700000D03*
X117225000Y-125100000D03*
X109200000Y-136750000D03*
X117145000Y-114570000D03*
X117145000Y-120000000D03*
X119685000Y-111000000D03*
X119685000Y-120000000D03*
X110700000Y-110130000D03*
X110700000Y-106960000D03*
X111400000Y-111400000D03*
X111400000Y-105700000D03*
X125400000Y-150500000D03*
X115100000Y-148500000D03*
X114950000Y-152500000D03*
X121000000Y-150700000D03*
X125400000Y-151200000D03*
X120180000Y-152300000D03*
X119530000Y-153300000D03*
X127000000Y-152000000D03*
D17*
X125000000Y-141500000D02*
X125000000Y-142200000D01*
X125000000Y-142200000D02*
X122000000Y-142200000D01*
D18*
X125800000Y-133800000D02*
X124500000Y-135100000D01*
X123500000Y-141400000D02*
X122000000Y-141400000D01*
X124500000Y-135100000D02*
X124500000Y-140400000D01*
X124500000Y-140400000D02*
X123500000Y-141400000D01*
D17*
X122000000Y-142200000D02*
X122000000Y-141400000D01*
D19*
X124600000Y-143800000D02*
X127000000Y-144800000D01*
X130500000Y-144300000D02*
X129000000Y-144300000D01*
X129000000Y-144300000D02*
X127000000Y-146300000D01*
X127362500Y-147950000D02*
X127000000Y-148700000D01*
X127000000Y-148700000D02*
X128800000Y-150500000D01*
X127000000Y-148700000D02*
X128800000Y-150500000D01*
X127000000Y-144800000D02*
X127000000Y-148700000D01*
D20*
X124500000Y-113890000D02*
X136200000Y-113890000D01*
X136200000Y-148180000D02*
X134290000Y-148180000D01*
X124500000Y-116430000D02*
X135500000Y-116430000D01*
X135500000Y-145640000D02*
X134290000Y-145640000D01*
X126100000Y-137200000D02*
X131160000Y-137200000D01*
X131160000Y-137200000D02*
X131979999Y-138020000D01*
X131979999Y-138020000D02*
X134290000Y-138020000D01*
X120955000Y-120650000D02*
X125800000Y-120650000D01*
X128400000Y-135480000D02*
X134290000Y-135480000D01*
X129300000Y-132940000D02*
X134290000Y-132940000D01*
X130000000Y-130400000D02*
X134290000Y-130400000D01*
X130699999Y-127860000D02*
X134290000Y-127860000D01*
X131400000Y-125320000D02*
X134290000Y-125320000D01*
X125000000Y-122780000D02*
X134290000Y-122780000D01*
X124200000Y-122780000D02*
X125000000Y-122780000D01*
X126500000Y-122100000D02*
X132430000Y-122100000D01*
X132430000Y-122100000D02*
X134290000Y-120240000D01*
X122225000Y-118550000D02*
X133440000Y-118550000D01*
X133440000Y-118550000D02*
X134290000Y-117700000D01*
X123495000Y-115160000D02*
X134290000Y-115160000D01*
X132100000Y-112620000D02*
X134290000Y-112620000D01*
X132800000Y-110080000D02*
X134290000Y-110080000D01*
D21*
X130649999Y-154800000D02*
X131100000Y-154800000D01*
D17*
X111500000Y-147800000D02*
X114000000Y-147800000D01*
X114000000Y-146800000D02*
X121000000Y-146800000D01*
X114000000Y-147800000D02*
X114000000Y-146800000D01*
D21*
X131100000Y-154800000D02*
X131100000Y-148600000D01*
D17*
X121000000Y-146800000D02*
X121000000Y-147800000D01*
D18*
X122100000Y-131500000D02*
X122100000Y-133500000D01*
D19*
X117275000Y-140800000D02*
X114900000Y-140800000D01*
X114900000Y-145700000D02*
X120550000Y-145700000D01*
D18*
X117650000Y-131500000D02*
X122100000Y-131500000D01*
X117650000Y-132800000D02*
X117650000Y-131500000D01*
D19*
X114900000Y-140800000D02*
X114900000Y-145700000D01*
X120550000Y-145700000D02*
X120550000Y-144800000D01*
D22*
X99300000Y-103780000D02*
X99300000Y-156500000D01*
X99300000Y-148180000D02*
X101270000Y-148180000D01*
D20*
X103000000Y-112100000D02*
X101270000Y-112620000D01*
X118415000Y-112100000D02*
X103000000Y-112100000D01*
D22*
X115950000Y-151950000D02*
X115950000Y-152750000D01*
X109000000Y-150500000D02*
X110300000Y-151800000D01*
X115800000Y-151800000D02*
X115950000Y-151950000D01*
X110300000Y-151800000D02*
X115800000Y-151800000D01*
X106000000Y-150500000D02*
X109000000Y-150500000D01*
D20*
X118775000Y-140000000D02*
X119475000Y-140700000D01*
X106700000Y-131669999D02*
X106700000Y-137400000D01*
X107400000Y-140000000D02*
X118775000Y-140000000D01*
X106700000Y-138650000D02*
X107400000Y-140000000D01*
X114605000Y-120900000D02*
X103000000Y-120900000D01*
X103000000Y-120900000D02*
X101270000Y-120240000D01*
D22*
X127800000Y-124050000D02*
X137000000Y-124050000D01*
X121800000Y-123900000D02*
X127800000Y-123900000D01*
X103000000Y-145640000D02*
X101270000Y-145640000D01*
X126800000Y-157200000D02*
X103000000Y-157200000D01*
X126800000Y-157000000D02*
X126800000Y-157200000D01*
X127800000Y-123900000D02*
X127800000Y-124050000D01*
X128300000Y-155700000D02*
X126800000Y-157000000D01*
X121800000Y-122500000D02*
X121800000Y-123900000D01*
X127800000Y-123600000D02*
X127800000Y-123900000D01*
X103000000Y-157200000D02*
X103000000Y-145640000D01*
X137000000Y-124050000D02*
X137000000Y-155700000D01*
X137000000Y-155700000D02*
X128300000Y-155700000D01*
D20*
X102600000Y-143100000D02*
X101270000Y-143100000D01*
X110000000Y-104400000D02*
X102600000Y-104400000D01*
X127400000Y-102510000D02*
X110000000Y-102510000D01*
X110000000Y-102510000D02*
X110000000Y-104400000D01*
X112200000Y-103780000D02*
X112200000Y-108220000D01*
X127400000Y-103780000D02*
X112200000Y-103780000D01*
X112200000Y-108220000D02*
X103250000Y-108220000D01*
X103250000Y-140560000D02*
X101270000Y-140560000D01*
X109800000Y-126100000D02*
X109800000Y-138020000D01*
X109800000Y-138020000D02*
X101270000Y-138020000D01*
X103950000Y-135480000D02*
X101270000Y-135480000D01*
X104650000Y-132940000D02*
X101270000Y-132940000D01*
X105350000Y-130400000D02*
X101270000Y-130400000D01*
X106500000Y-127860000D02*
X101270000Y-127860000D01*
X107850000Y-125320000D02*
X101270000Y-125320000D01*
X113335000Y-122780000D02*
X103000000Y-122780000D01*
X103000000Y-122780000D02*
X101270000Y-122780000D01*
X115875000Y-117700000D02*
X103000000Y-117700000D01*
X103000000Y-117700000D02*
X101270000Y-117700000D01*
X117145000Y-114570000D02*
X103000000Y-114570000D01*
X103000000Y-114570000D02*
X101270000Y-115160000D01*
X112200000Y-110700000D02*
X110900000Y-110700000D01*
X112500000Y-111000000D02*
X112200000Y-110700000D01*
X119685000Y-111000000D02*
X112500000Y-111000000D01*
X110900000Y-110700000D02*
X110900000Y-111000000D01*
X110900000Y-111000000D02*
X103000000Y-111000000D01*
X103000000Y-111000000D02*
X101270000Y-110080000D01*
X103000000Y-106960000D02*
X101270000Y-107540000D01*
X110700000Y-106960000D02*
X103000000Y-106960000D01*
X103000000Y-105700000D02*
X101270000Y-105000000D01*
X111400000Y-105700000D02*
X103000000Y-105700000D01*
D22*
X124000000Y-152000000D02*
X121000000Y-153300000D01*
X121000000Y-153300000D02*
X119530000Y-153300000D01*
X127000000Y-152000000D02*
X124000000Y-152000000D01*
M02*
