M48
; DRILL file KiCad 10.0.6 date 2026-09-07T17:57:41
; FORMAT={-:-/ absolute / metric / decimal}
; #@! TF.CreationDate,2026-09-07T17:57:41+09:00
; #@! TF.GenerationSoftware,Kicad,Pcbnew,10.0.6
; #@! TF.FileFunction,Plated,1,4,PTH
FMAT,2
METRIC
; #@! TA.AperFunction,Plated,PTH,ComponentDrill
T1C0.200
; #@! TA.AperFunction,Plated,PTH,ViaDrill
T2C0.300
; #@! TA.AperFunction,Plated,PTH,ComponentDrill
T3C0.600
; #@! TA.AperFunction,Plated,PTH,ComponentDrill
T4C1.000
%
G90
G05
T1
X114.88Y-108.26
X114.88Y-109.66
X115.58Y-107.56
X115.58Y-108.96
X115.58Y-110.36
X116.28Y-108.26
X116.28Y-109.66
X116.98Y-107.56
X116.98Y-108.96
X116.98Y-110.36
X117.68Y-108.26
X117.68Y-109.66
T2
X99.3Y-103.78
X99.3Y-156.5
X101.0Y-101.0
X101.0Y-159.8
X102.6Y-104.4
X102.6Y-143.1
X103.25Y-108.22
X103.25Y-140.56
X103.95Y-135.48
X104.65Y-132.94
X104.85Y-101.2
X105.35Y-130.4
X105.8Y-156.5
X106.0Y-150.5
X106.5Y-127.86
X107.0Y-146.9
X107.4Y-102.1
X107.4Y-103.17
X107.85Y-125.32
X108.0Y-148.0
X108.1Y-102.51
X108.1Y-103.78
X108.1Y-105.05
X108.1Y-106.32
X108.1Y-107.59
X108.1Y-108.86
X108.1Y-115.21
X108.7Y-120.2
X108.7Y-126.0
X109.5Y-125.0
X109.5Y-145.64
X110.2Y-158.0
X110.7Y-106.96
X110.7Y-110.13
X110.795Y-120.0
X110.795Y-138.02
X111.4Y-105.7
X111.4Y-111.4
X113.335Y-120.0
X113.335Y-122.78
X113.8Y-108.2
X113.8Y-109.7
X114.605Y-120.0
X114.605Y-120.9
X114.95Y-152.5
X115.1Y-148.5
X115.1Y-149.35
X115.25Y-136.0
X115.875Y-117.7
X115.875Y-120.0
X115.95Y-152.75
X116.5Y-136.0
X116.51Y-142.5
X116.51Y-143.1
X117.145Y-114.57
X117.145Y-120.0
X118.415Y-112.1
X118.415Y-120.0
X118.6Y-145.5
X118.8Y-108.2
X118.8Y-109.7
X119.3Y-140.4
X119.3Y-141.3
X119.3Y-145.5
X119.4Y-123.0
X119.53Y-153.3
X119.685Y-111.0
X119.685Y-120.0
X120.0Y-140.4
X120.18Y-152.3
X120.4Y-149.2
X120.7Y-141.3
X120.955Y-120.0
X120.955Y-126.0
X121.0Y-150.7
X121.475Y-127.2
X121.9Y-123.8
X122.225Y-118.55
X122.225Y-120.0
X122.3Y-140.6
X123.0Y-134.4
X123.1Y-151.5
X123.125Y-130.0
X123.25Y-145.1
X123.495Y-115.16
X123.495Y-120.0
X123.495Y-124.0
X124.2Y-122.78
X124.5Y-113.89
X124.5Y-116.43
X124.765Y-120.0
X125.0Y-122.78
X125.25Y-136.1
X125.4Y-150.5
X125.4Y-151.2
X126.0Y-126.0
X126.2Y-141.8
X126.2Y-142.5
X126.5Y-122.1
X126.8Y-157.0
X127.0Y-152.0
X127.1Y-124.0
X127.4Y-102.51
X127.4Y-103.78
X127.4Y-105.05
X127.4Y-106.32
X127.4Y-107.59
X127.4Y-108.86
X127.4Y-110.13
X127.4Y-111.4
X127.4Y-112.67
X127.4Y-117.75
X127.8Y-123.6
X128.4Y-135.48
X128.5Y-141.2
X128.8Y-150.5
X129.3Y-132.94
X129.5Y-147.287
X130.0Y-130.4
X130.7Y-127.86
X131.2Y-158.0
X131.4Y-125.32
X132.1Y-112.62
X132.8Y-110.08
X134.5Y-101.0
X134.5Y-159.8
X135.5Y-116.43
X135.5Y-145.64
X136.2Y-113.89
X136.2Y-148.18
T4
X101.27Y-105.0
X101.27Y-107.54
X101.27Y-110.08
X101.27Y-112.62
X101.27Y-115.16
X101.27Y-117.7
X101.27Y-120.24
X101.27Y-122.78
X101.27Y-125.32
X101.27Y-127.86
X101.27Y-130.4
X101.27Y-132.94
X101.27Y-135.48
X101.27Y-138.02
X101.27Y-140.56
X101.27Y-143.1
X101.27Y-145.64
X101.27Y-148.18
X101.27Y-150.72
X101.27Y-153.26
X134.29Y-105.0
X134.29Y-107.54
X134.29Y-110.08
X134.29Y-112.62
X134.29Y-115.16
X134.29Y-117.7
X134.29Y-120.24
X134.29Y-122.78
X134.29Y-125.32
X134.29Y-127.86
X134.29Y-130.4
X134.29Y-132.94
X134.29Y-135.48
X134.29Y-138.02
X134.29Y-140.56
X134.29Y-143.1
X134.29Y-145.64
X134.29Y-148.18
X134.29Y-150.72
X134.29Y-153.26
T3
X113.46Y-154.345G85X113.46Y-155.445
G05
X113.46Y-158.675G85X113.46Y-159.475
G05
X122.1Y-154.345G85X122.1Y-155.445
G05
X122.1Y-158.675G85X122.1Y-159.475
G05
M30
