G04 #@! TF.GenerationSoftware,KiCad,Pcbnew,10.0.6*
G04 #@! TF.CreationDate,2026-09-07T17:57:41+09:00*
G04 #@! TF.ProjectId,Matrix6,4d617472-6978-4362-9e6b-696361645f70,0.5*
G04 #@! TF.SameCoordinates,Original*
G04 #@! TF.FileFunction,Copper,L3,Inr*
G04 #@! TF.FilePolarity,Positive*
%FSLAX46Y46*%
G04 Gerber Fmt 4.6, Leading zero omitted, Abs format (unit mm)*
G04 Created by KiCad (PCBNEW 10.0.6) date 2026-09-07 17:57:41*
%MOMM*%
%LPD*%
G01*
G04 APERTURE LIST*
G04 #@! TA.AperFunction,ComponentPad*
%ADD10R,1.700000X1.700000*%
G04 #@! TD*
G04 #@! TA.AperFunction,ComponentPad*
%ADD11C,1.700000*%
G04 #@! TD*
G04 #@! TA.AperFunction,HeatsinkPad*
%ADD12C,0.600000*%
G04 #@! TD*
G04 #@! TA.AperFunction,ComponentPad*
%ADD13O,1.000000X2.100000*%
G04 #@! TD*
G04 #@! TA.AperFunction,ComponentPad*
%ADD14O,1.000000X1.800000*%
G04 #@! TD*
G04 #@! TA.AperFunction,ViaPad*
%ADD15C,0.600000*%
G04 #@! TD*
G04 #@! TA.AperFunction,Conductor*
%ADD16C,0.600000*%
G04 #@! TD*
G04 #@! TA.AperFunction,Conductor*
%ADD17C,1.000000*%
G04 #@! TD*
G04 #@! TA.AperFunction,Conductor*
%ADD18C,0.200000*%
G04 #@! TD*
G04 #@! TA.AperFunction,Conductor*
%ADD19C,0.250000*%
G04 #@! TD*
G04 APERTURE END LIST*
D10*
X134290000Y-153260000D03*
D11*
X134290000Y-150720000D03*
X134290000Y-148180000D03*
X134290000Y-145640000D03*
X134290000Y-143100000D03*
X134290000Y-140560000D03*
X134290000Y-138020000D03*
X134290000Y-135480000D03*
X134290000Y-132940000D03*
X134290000Y-130400000D03*
X134290000Y-127860000D03*
X134290000Y-125320000D03*
X134290000Y-122780000D03*
X134290000Y-120240000D03*
X134290000Y-117700000D03*
X134290000Y-115160000D03*
X134290000Y-112620000D03*
X134290000Y-110080000D03*
X134290000Y-107540000D03*
X134290000Y-105000000D03*
D10*
X101270000Y-153260000D03*
D11*
X101270000Y-150720000D03*
X101270000Y-148180000D03*
X101270000Y-145640000D03*
X101270000Y-143100000D03*
X101270000Y-140560000D03*
X101270000Y-138020000D03*
X101270000Y-135480000D03*
X101270000Y-132940000D03*
X101270000Y-130400000D03*
X101270000Y-127860000D03*
X101270000Y-125320000D03*
X101270000Y-122780000D03*
X101270000Y-120240000D03*
X101270000Y-117700000D03*
X101270000Y-115160000D03*
X101270000Y-112620000D03*
X101270000Y-110080000D03*
X101270000Y-107540000D03*
X101270000Y-105000000D03*
D12*
X114880000Y-108260000D03*
X114880000Y-109660000D03*
X115580000Y-107560000D03*
X115580000Y-108960000D03*
X115580000Y-110360000D03*
X116280000Y-108260000D03*
X116280000Y-109660000D03*
X116980000Y-107560000D03*
X116980000Y-108960000D03*
X116980000Y-110360000D03*
X117680000Y-108260000D03*
X117680000Y-109660000D03*
D13*
X113460000Y-154895000D03*
D14*
X113460000Y-159075000D03*
D13*
X122100000Y-154895000D03*
D14*
X122100000Y-159075000D03*
D15*
X126200000Y-141800000D03*
X116510000Y-142500000D03*
X116510000Y-143100000D03*
X126200000Y-142500000D03*
X128800000Y-150500000D03*
X119400000Y-123000000D03*
X108100000Y-102510000D03*
X119300000Y-145500000D03*
X118600000Y-145500000D03*
X107000000Y-146900000D03*
X107400000Y-102100000D03*
X118800000Y-108200000D03*
X129500000Y-147287500D03*
X108000000Y-148000000D03*
X116500000Y-136000000D03*
X123100000Y-151500000D03*
X119300000Y-141300000D03*
X120400000Y-149200000D03*
X123250000Y-145100000D03*
X131199999Y-158000000D03*
X101000000Y-101000000D03*
X119300000Y-140400000D03*
X115250000Y-136000000D03*
X120000000Y-140400000D03*
X104850000Y-101200000D03*
X110200000Y-158000000D03*
X134500000Y-159800000D03*
X115100000Y-149350000D03*
X107400000Y-103170000D03*
X122300000Y-140600000D03*
X123125000Y-130000000D03*
X113800000Y-109700000D03*
X108700000Y-120200000D03*
X101000000Y-159800000D03*
X120700000Y-141300000D03*
X108700000Y-126000000D03*
X134500000Y-101000000D03*
X118800000Y-109700000D03*
X123000000Y-134400000D03*
X113800000Y-108200000D03*
X124500000Y-113890000D03*
X136200000Y-148180000D03*
X136200000Y-113890000D03*
X124500000Y-116430000D03*
X135500000Y-145640000D03*
X135500000Y-116430000D03*
X125250000Y-136100000D03*
X126000000Y-126000000D03*
X120955000Y-126000000D03*
X120955000Y-120000000D03*
X128400000Y-135480000D03*
X127400000Y-112670000D03*
X127400000Y-111400000D03*
X129300000Y-132940000D03*
X127400000Y-110130000D03*
X130000000Y-130400000D03*
X130699999Y-127860000D03*
X127400000Y-108860000D03*
X127400000Y-107590000D03*
X131400000Y-125320000D03*
X125000000Y-122780000D03*
X124200000Y-122780000D03*
X124765000Y-120000000D03*
X121475000Y-127200000D03*
X126500000Y-122100000D03*
X122225000Y-118550000D03*
X122225000Y-120000000D03*
X123495000Y-115160000D03*
X123495000Y-120000000D03*
X123495000Y-124000000D03*
X127100000Y-124000000D03*
X128500000Y-141200000D03*
X132100000Y-112620000D03*
X127400000Y-106320000D03*
X127400000Y-105050000D03*
X132800000Y-110080000D03*
X99300000Y-103780000D03*
X99300000Y-156500000D03*
X105800000Y-156500000D03*
X108100000Y-103780000D03*
X115950000Y-152750000D03*
X106000000Y-150500000D03*
X127400000Y-117750000D03*
X127800000Y-123600000D03*
X126800000Y-157000000D03*
X121900000Y-123800000D03*
X109500000Y-125000000D03*
X109500000Y-145640000D03*
X102600000Y-104400000D03*
X102600000Y-143100000D03*
X127400000Y-102510000D03*
X103250000Y-108220000D03*
X127400000Y-103780000D03*
X103250000Y-140560000D03*
X110795000Y-138020000D03*
X110795000Y-120000000D03*
X108100000Y-105050000D03*
X103950000Y-135480000D03*
X108100000Y-106320000D03*
X104650000Y-132940000D03*
X108100000Y-107590000D03*
X105350000Y-130400000D03*
X106500000Y-127860000D03*
X108100000Y-108860000D03*
X108100000Y-115210000D03*
X107850000Y-125320000D03*
X113335000Y-120000000D03*
X113335000Y-122780000D03*
X114605000Y-120000000D03*
X114605000Y-120900000D03*
X115875000Y-120000000D03*
X115875000Y-117700000D03*
X117145000Y-114570000D03*
X117145000Y-120000000D03*
X118415000Y-120000000D03*
X118415000Y-112100000D03*
X119685000Y-111000000D03*
X119685000Y-120000000D03*
X110700000Y-110130000D03*
X110700000Y-106960000D03*
X111400000Y-111400000D03*
X111400000Y-105700000D03*
X125400000Y-150500000D03*
X115100000Y-148500000D03*
X114950000Y-152500000D03*
X121000000Y-150700000D03*
X125400000Y-151200000D03*
X120180000Y-152300000D03*
X119530000Y-153300000D03*
X127000000Y-152000000D03*
D16*
X126200000Y-141800000D02*
X126200000Y-142500000D01*
D17*
X116550000Y-143700000D02*
X116510000Y-142500000D01*
X126200000Y-141800000D02*
X124600000Y-143700000D01*
D16*
X116510000Y-143100000D02*
X116510000Y-142500000D01*
D17*
X124600000Y-143700000D02*
X116550000Y-143700000D01*
D18*
X124500000Y-113890000D02*
X136200000Y-113890000D01*
X136200000Y-148180000D02*
X134290000Y-148180000D01*
X124500000Y-116430000D02*
X135500000Y-116430000D01*
X135500000Y-145640000D02*
X134290000Y-145640000D01*
X130000000Y-136100000D02*
X131919999Y-138020000D01*
X125250000Y-136100000D02*
X130000000Y-136100000D01*
X120955000Y-126000000D02*
X126000000Y-126000000D01*
X131919999Y-138020000D02*
X134290000Y-138020000D01*
X128400000Y-135480000D02*
X134290000Y-135480000D01*
X129300000Y-132940000D02*
X134290000Y-132940000D01*
X130000000Y-130400000D02*
X134290000Y-130400000D01*
X130699999Y-127860000D02*
X134290000Y-127860000D01*
X131400000Y-125320000D02*
X134290000Y-125320000D01*
X125000000Y-122780000D02*
X134290000Y-122780000D01*
X124200000Y-122780000D02*
X125000000Y-122780000D01*
X126500000Y-122100000D02*
X132430000Y-122100000D01*
X132430000Y-122100000D02*
X134290000Y-120240000D01*
X122225000Y-118550000D02*
X133440000Y-118550000D01*
X133440000Y-118550000D02*
X134290000Y-117700000D01*
X123495000Y-115160000D02*
X134290000Y-115160000D01*
X123495000Y-124000000D02*
X127100000Y-124000000D01*
X132100000Y-112620000D02*
X134290000Y-112620000D01*
X132800000Y-110080000D02*
X134290000Y-110080000D01*
D19*
X99300000Y-103780000D02*
X99300000Y-156500000D01*
X99300000Y-148180000D02*
X101270000Y-148180000D01*
X115950000Y-151950000D02*
X115950000Y-152750000D01*
X109000000Y-150500000D02*
X110300000Y-151800000D01*
X115800000Y-151800000D02*
X115950000Y-151950000D01*
X110300000Y-151800000D02*
X115800000Y-151800000D01*
X106000000Y-150500000D02*
X109000000Y-150500000D01*
X103000000Y-145640000D02*
X101270000Y-145640000D01*
X127800000Y-125000000D02*
X109500000Y-125000000D01*
X126800000Y-157200000D02*
X103000000Y-157200000D01*
X121900000Y-123800000D02*
X121900000Y-125000000D01*
X126800000Y-157000000D02*
X126800000Y-157200000D01*
X127800000Y-123600000D02*
X127800000Y-125000000D01*
X109500000Y-145640000D02*
X101270000Y-145640000D01*
X103000000Y-157200000D02*
X103000000Y-145640000D01*
D18*
X102600000Y-143100000D02*
X101270000Y-143100000D01*
X110000000Y-104400000D02*
X102600000Y-104400000D01*
X127400000Y-102510000D02*
X110000000Y-102510000D01*
X110000000Y-102510000D02*
X110000000Y-104400000D01*
X112200000Y-103780000D02*
X112200000Y-108220000D01*
X127400000Y-103780000D02*
X112200000Y-103780000D01*
X112200000Y-108220000D02*
X103250000Y-108220000D01*
X103250000Y-140560000D02*
X101270000Y-140560000D01*
X110795000Y-138020000D02*
X103000000Y-138020000D01*
X103000000Y-138020000D02*
X101270000Y-138020000D01*
X103950000Y-135480000D02*
X101270000Y-135480000D01*
X104650000Y-132940000D02*
X101270000Y-132940000D01*
X105350000Y-130400000D02*
X101270000Y-130400000D01*
X106500000Y-127860000D02*
X101270000Y-127860000D01*
X107850000Y-125320000D02*
X101270000Y-125320000D01*
X113335000Y-122780000D02*
X103000000Y-122780000D01*
X103000000Y-122780000D02*
X101270000Y-122780000D01*
X114605000Y-120900000D02*
X103000000Y-120900000D01*
X103000000Y-120900000D02*
X101270000Y-120240000D01*
X115875000Y-117700000D02*
X103000000Y-117700000D01*
X103000000Y-117700000D02*
X101270000Y-117700000D01*
X117145000Y-114570000D02*
X103000000Y-114570000D01*
X103000000Y-114570000D02*
X101270000Y-115160000D01*
X103000000Y-112100000D02*
X101270000Y-112620000D01*
X118415000Y-112100000D02*
X103000000Y-112100000D01*
X112200000Y-110700000D02*
X110900000Y-110700000D01*
X112500000Y-111000000D02*
X112200000Y-110700000D01*
X119685000Y-111000000D02*
X112500000Y-111000000D01*
X110900000Y-110700000D02*
X110900000Y-111000000D01*
X110900000Y-111000000D02*
X103000000Y-111000000D01*
X103000000Y-111000000D02*
X101270000Y-110080000D01*
X103000000Y-106960000D02*
X101270000Y-107540000D01*
X110700000Y-106960000D02*
X103000000Y-106960000D01*
X103000000Y-105700000D02*
X101270000Y-105000000D01*
X111400000Y-105700000D02*
X103000000Y-105700000D01*
D19*
X124000000Y-152000000D02*
X121000000Y-153300000D01*
X121000000Y-153300000D02*
X119530000Y-153300000D01*
X127000000Y-152000000D02*
X124000000Y-152000000D01*
M02*
