G04 #@! TF.GenerationSoftware,KiCad,Pcbnew,10.0.6*
G04 #@! TF.CreationDate,2026-09-07T17:57:41+09:00*
G04 #@! TF.ProjectId,Matrix6,4d617472-6978-4362-9e6b-696361645f70,0.5*
G04 #@! TF.SameCoordinates,Original*
G04 #@! TF.FileFunction,Copper,L4,Bot*
G04 #@! TF.FilePolarity,Positive*
%FSLAX46Y46*%
G04 Gerber Fmt 4.6, Leading zero omitted, Abs format (unit mm)*
G04 Created by KiCad (PCBNEW 10.0.6) date 2026-09-07 17:57:41*
%MOMM*%
%LPD*%
G01*
G04 APERTURE LIST*
G04 #@! TA.AperFunction,ComponentPad*
%ADD10R,1.700000X1.700000*%
G04 #@! TD*
G04 #@! TA.AperFunction,ComponentPad*
%ADD11C,1.700000*%
G04 #@! TD*
G04 #@! TA.AperFunction,HeatsinkPad*
%ADD12C,0.600000*%
G04 #@! TD*
G04 #@! TA.AperFunction,ComponentPad*
%ADD13O,1.000000X2.100000*%
G04 #@! TD*
G04 #@! TA.AperFunction,ComponentPad*
%ADD14O,1.000000X1.800000*%
G04 #@! TD*
G04 #@! TA.AperFunction,ViaPad*
%ADD15C,0.600000*%
G04 #@! TD*
G04 #@! TA.AperFunction,Conductor*
%ADD16C,0.800000*%
G04 #@! TD*
G04 #@! TA.AperFunction,Conductor*
%ADD17C,0.600000*%
G04 #@! TD*
G04 #@! TA.AperFunction,Conductor*
%ADD18C,0.300000*%
G04 #@! TD*
G04 #@! TA.AperFunction,Conductor*
%ADD19C,0.200000*%
G04 #@! TD*
G04 #@! TA.AperFunction,Conductor*
%ADD20C,0.250000*%
G04 #@! TD*
G04 #@! TA.AperFunction,Conductor*
%ADD21C,0.750000*%
G04 #@! TD*
G04 #@! TA.AperFunction,Conductor*
%ADD22C,0.400000*%
G04 #@! TD*
G04 APERTURE END LIST*
D10*
X134290000Y-153260000D03*
D11*
X134290000Y-150720000D03*
X134290000Y-148180000D03*
X134290000Y-145640000D03*
X134290000Y-143100000D03*
X134290000Y-140560000D03*
X134290000Y-138020000D03*
X134290000Y-135480000D03*
X134290000Y-132940000D03*
X134290000Y-130400000D03*
X134290000Y-127860000D03*
X134290000Y-125320000D03*
X134290000Y-122780000D03*
X134290000Y-120240000D03*
X134290000Y-117700000D03*
X134290000Y-115160000D03*
X134290000Y-112620000D03*
X134290000Y-110080000D03*
X134290000Y-107540000D03*
X134290000Y-105000000D03*
D10*
X101270000Y-153260000D03*
D11*
X101270000Y-150720000D03*
X101270000Y-148180000D03*
X101270000Y-145640000D03*
X101270000Y-143100000D03*
X101270000Y-140560000D03*
X101270000Y-138020000D03*
X101270000Y-135480000D03*
X101270000Y-132940000D03*
X101270000Y-130400000D03*
X101270000Y-127860000D03*
X101270000Y-125320000D03*
X101270000Y-122780000D03*
X101270000Y-120240000D03*
X101270000Y-117700000D03*
X101270000Y-115160000D03*
X101270000Y-112620000D03*
X101270000Y-110080000D03*
X101270000Y-107540000D03*
X101270000Y-105000000D03*
D12*
X114880000Y-108260000D03*
X114880000Y-109660000D03*
X115580000Y-107560000D03*
X115580000Y-108960000D03*
X115580000Y-110360000D03*
X116280000Y-108260000D03*
X116280000Y-109660000D03*
X116980000Y-107560000D03*
X116980000Y-108960000D03*
X116980000Y-110360000D03*
X117680000Y-108260000D03*
X117680000Y-109660000D03*
D13*
X113460000Y-154895000D03*
D14*
X113460000Y-159075000D03*
D13*
X122100000Y-154895000D03*
D14*
X122100000Y-159075000D03*
D15*
X126200000Y-141800000D03*
X116510000Y-142500000D03*
X116510000Y-143100000D03*
X126200000Y-142500000D03*
X128800000Y-150500000D03*
X119400000Y-123000000D03*
X108100000Y-102510000D03*
X119300000Y-145500000D03*
X118600000Y-145500000D03*
X107000000Y-146900000D03*
X107400000Y-102100000D03*
X118800000Y-108200000D03*
X129500000Y-147287500D03*
X108000000Y-148000000D03*
X116500000Y-136000000D03*
X123100000Y-151500000D03*
X119300000Y-141300000D03*
X120400000Y-149200000D03*
X123250000Y-145100000D03*
X131199999Y-158000000D03*
X101000000Y-101000000D03*
X119300000Y-140400000D03*
X115250000Y-136000000D03*
X120000000Y-140400000D03*
X104850000Y-101200000D03*
X110200000Y-158000000D03*
X134500000Y-159800000D03*
X115100000Y-149350000D03*
X107400000Y-103170000D03*
X122300000Y-140600000D03*
X123125000Y-130000000D03*
X113800000Y-109700000D03*
X108700000Y-120200000D03*
X101000000Y-159800000D03*
X120700000Y-141300000D03*
X108700000Y-126000000D03*
X134500000Y-101000000D03*
X118800000Y-109700000D03*
X123000000Y-134400000D03*
X113800000Y-108200000D03*
X124500000Y-113890000D03*
X136200000Y-148180000D03*
X136200000Y-113890000D03*
X124500000Y-116430000D03*
X135500000Y-145640000D03*
X135500000Y-116430000D03*
X125250000Y-136100000D03*
X126000000Y-126000000D03*
X120955000Y-126000000D03*
X120955000Y-120000000D03*
X128400000Y-135480000D03*
X127400000Y-112670000D03*
X127400000Y-111400000D03*
X129300000Y-132940000D03*
X127400000Y-110130000D03*
X130000000Y-130400000D03*
X130699999Y-127860000D03*
X127400000Y-108860000D03*
X127400000Y-107590000D03*
X131400000Y-125320000D03*
X125000000Y-122780000D03*
X124200000Y-122780000D03*
X124765000Y-120000000D03*
X121475000Y-127200000D03*
X126500000Y-122100000D03*
X122225000Y-118550000D03*
X122225000Y-120000000D03*
X123495000Y-115160000D03*
X123495000Y-120000000D03*
X123495000Y-124000000D03*
X127100000Y-124000000D03*
X128500000Y-141200000D03*
X132100000Y-112620000D03*
X127400000Y-106320000D03*
X127400000Y-105050000D03*
X132800000Y-110080000D03*
X99300000Y-103780000D03*
X99300000Y-156500000D03*
X105800000Y-156500000D03*
X108100000Y-103780000D03*
X115950000Y-152750000D03*
X106000000Y-150500000D03*
X127400000Y-117750000D03*
X127800000Y-123600000D03*
X126800000Y-157000000D03*
X121900000Y-123800000D03*
X109500000Y-125000000D03*
X109500000Y-145640000D03*
X102600000Y-104400000D03*
X102600000Y-143100000D03*
X127400000Y-102510000D03*
X103250000Y-108220000D03*
X127400000Y-103780000D03*
X103250000Y-140560000D03*
X110795000Y-138020000D03*
X110795000Y-120000000D03*
X108100000Y-105050000D03*
X103950000Y-135480000D03*
X108100000Y-106320000D03*
X104650000Y-132940000D03*
X108100000Y-107590000D03*
X105350000Y-130400000D03*
X106500000Y-127860000D03*
X108100000Y-108860000D03*
X108100000Y-115210000D03*
X107850000Y-125320000D03*
X113335000Y-120000000D03*
X113335000Y-122780000D03*
X114605000Y-120000000D03*
X114605000Y-120900000D03*
X115875000Y-120000000D03*
X115875000Y-117700000D03*
X117145000Y-114570000D03*
X117145000Y-120000000D03*
X118415000Y-120000000D03*
X118415000Y-112100000D03*
X119685000Y-111000000D03*
X119685000Y-120000000D03*
X110700000Y-110130000D03*
X110700000Y-106960000D03*
X111400000Y-111400000D03*
X111400000Y-105700000D03*
X125400000Y-150500000D03*
X115100000Y-148500000D03*
X114950000Y-152500000D03*
X121000000Y-150700000D03*
X125400000Y-151200000D03*
X120180000Y-152300000D03*
X119530000Y-153300000D03*
X127000000Y-152000000D03*
D16*
X131550000Y-153260000D02*
X134290000Y-153260000D01*
X128800000Y-150500000D02*
X131550000Y-153260000D01*
X119300000Y-146900000D02*
X103700000Y-146900000D01*
D17*
X108100000Y-102510000D02*
X107700000Y-102300000D01*
D16*
X103700000Y-146900000D02*
X103700000Y-154900000D01*
D18*
X118400000Y-145900000D02*
X119300000Y-146900000D01*
X118400000Y-124000000D02*
X118400000Y-145900000D01*
D16*
X103700000Y-154900000D02*
X98300000Y-154900000D01*
D17*
X118600000Y-145500000D02*
X119300000Y-145500000D01*
D16*
X98300000Y-154900000D02*
X98300000Y-153260000D01*
D18*
X119400000Y-123000000D02*
X118400000Y-124000000D01*
D16*
X98300000Y-153260000D02*
X101270000Y-153260000D01*
D17*
X107700000Y-102300000D02*
X104500000Y-102300000D01*
X107400000Y-102100000D02*
X108100000Y-102510000D01*
D16*
X98300000Y-102300000D02*
X98300000Y-153260000D01*
X119300000Y-145500000D02*
X119300000Y-146900000D01*
X104500000Y-102300000D02*
X98300000Y-102300000D01*
D19*
X136200000Y-113890000D02*
X136200000Y-148180000D01*
X135500000Y-116430000D02*
X135500000Y-145640000D01*
X125250000Y-126750000D02*
X125250000Y-136100000D01*
X120955000Y-120000000D02*
X120955000Y-126000000D01*
X126000000Y-126000000D02*
X125250000Y-126750000D01*
X128400000Y-112670000D02*
X128400000Y-135480000D01*
X127400000Y-112670000D02*
X128400000Y-112670000D01*
X127400000Y-111400000D02*
X129300000Y-111400000D01*
X129300000Y-111400000D02*
X129300000Y-132940000D01*
X127400000Y-110130000D02*
X130000000Y-110130000D01*
X130000000Y-110130000D02*
X130000000Y-130400000D01*
X127400000Y-108860000D02*
X130699999Y-108860000D01*
X130699999Y-108860000D02*
X130699999Y-127860000D01*
X131400000Y-107590000D02*
X131400000Y-125320000D01*
X127400000Y-107590000D02*
X131400000Y-107590000D01*
X124765000Y-120000000D02*
X125000000Y-120000000D01*
X125000000Y-120000000D02*
X125000000Y-122780000D01*
X124200000Y-127200000D02*
X124200000Y-122780000D01*
X121475000Y-127200000D02*
X124200000Y-127200000D01*
X122225000Y-120000000D02*
X122225000Y-118550000D01*
X123495000Y-120000000D02*
X123495000Y-115160000D01*
X127100000Y-139800000D02*
X128500000Y-141200000D01*
X123495000Y-120000000D02*
X123495000Y-124000000D01*
X127100000Y-124000000D02*
X127100000Y-139800000D01*
X132100000Y-106320000D02*
X132100000Y-112620000D01*
X127400000Y-106320000D02*
X132100000Y-106320000D01*
X127400000Y-105050000D02*
X132800000Y-105050000D01*
X132800000Y-105050000D02*
X132800000Y-110080000D01*
D20*
X99300000Y-156500000D02*
X105800000Y-156500000D01*
D19*
X108100000Y-103780000D02*
X99300000Y-103780000D01*
X109500000Y-125000000D02*
X109500000Y-145640000D01*
X127800000Y-118150000D02*
X127800000Y-123600000D01*
X127400000Y-117750000D02*
X127800000Y-118150000D01*
X102600000Y-104400000D02*
X102600000Y-143100000D01*
X103250000Y-108220000D02*
X103250000Y-140560000D01*
X110795000Y-120000000D02*
X110795000Y-138020000D01*
X103950000Y-105050000D02*
X103950000Y-135480000D01*
X108100000Y-105050000D02*
X103950000Y-105050000D01*
X108100000Y-106320000D02*
X104650000Y-106320000D01*
X104650000Y-106320000D02*
X104650000Y-132940000D01*
X105350000Y-107590000D02*
X105350000Y-130400000D01*
X108100000Y-107590000D02*
X105350000Y-107590000D01*
X106500000Y-108860000D02*
X106500000Y-127860000D01*
X108100000Y-108860000D02*
X106500000Y-108860000D01*
X108100000Y-115210000D02*
X107850000Y-115210000D01*
X107850000Y-115210000D02*
X107850000Y-125320000D01*
X113335000Y-120000000D02*
X113335000Y-122780000D01*
X114605000Y-120000000D02*
X114605000Y-120900000D01*
X115875000Y-120000000D02*
X115875000Y-117700000D01*
X117145000Y-120000000D02*
X117145000Y-114570000D01*
X118415000Y-120000000D02*
X118415000Y-112100000D01*
X119685000Y-120000000D02*
X119685000Y-111000000D01*
X110700000Y-110130000D02*
X110700000Y-106960000D01*
X111400000Y-111400000D02*
X111400000Y-105700000D01*
D21*
X121000000Y-150700000D02*
X125400000Y-150500000D01*
D22*
X118930000Y-150450000D02*
X120180000Y-150450000D01*
X118930000Y-150450000D02*
X120180000Y-150450000D01*
D21*
X120180000Y-151520000D02*
X121000000Y-150700000D01*
X120180000Y-151800000D02*
X120180000Y-151520000D01*
D17*
X125400000Y-151200000D02*
X125400000Y-150500000D01*
D16*
X120180000Y-150450000D02*
X120180000Y-152300000D01*
D22*
X115100000Y-148500000D02*
X118930000Y-150450000D01*
D16*
X114950000Y-152500000D02*
X115380000Y-150450000D01*
X115380000Y-150450000D02*
X120180000Y-150450000D01*
G04 #@! TA.AperFunction,Conductor*
G36*
X137728326Y-100371674D02*
G01*
X137750000Y-100424000D01*
X137750000Y-160576000D01*
X137728326Y-160628326D01*
X137676000Y-160650000D01*
X97884000Y-160650000D01*
X97831674Y-160628326D01*
X97810000Y-160576000D01*
X97810000Y-156434105D01*
X98799500Y-156434105D01*
X98799500Y-156565894D01*
X98833606Y-156693181D01*
X98833607Y-156693184D01*
X98833608Y-156693186D01*
X98899500Y-156807314D01*
X98992686Y-156900500D01*
X99106814Y-156966392D01*
X99234105Y-157000499D01*
X99234106Y-157000500D01*
X99234108Y-157000500D01*
X99365894Y-157000500D01*
X99365894Y-157000499D01*
X99493186Y-156966392D01*
X99607314Y-156900500D01*
X99660640Y-156847174D01*
X99712966Y-156825500D01*
X105387034Y-156825500D01*
X105439360Y-156847174D01*
X105492686Y-156900500D01*
X105606814Y-156966392D01*
X105734105Y-157000499D01*
X105734106Y-157000500D01*
X105734108Y-157000500D01*
X105865894Y-157000500D01*
X105865894Y-157000499D01*
X105993186Y-156966392D01*
X106049109Y-156934105D01*
X126299500Y-156934105D01*
X126299500Y-157065894D01*
X126333606Y-157193181D01*
X126333607Y-157193184D01*
X126333608Y-157193186D01*
X126399500Y-157307314D01*
X126492686Y-157400500D01*
X126606814Y-157466392D01*
X126734105Y-157500499D01*
X126734106Y-157500500D01*
X126734108Y-157500500D01*
X126865894Y-157500500D01*
X126865894Y-157500499D01*
X126993186Y-157466392D01*
X127107314Y-157400500D01*
X127200500Y-157307314D01*
X127266392Y-157193186D01*
X127300499Y-157065894D01*
X127300500Y-157065894D01*
X127300500Y-156934106D01*
X127300499Y-156934105D01*
X127291494Y-156900499D01*
X127266392Y-156806814D01*
X127200500Y-156692686D01*
X127107314Y-156599500D01*
X127049107Y-156565894D01*
X126993190Y-156533610D01*
X126993181Y-156533606D01*
X126865894Y-156499500D01*
X126865892Y-156499500D01*
X126734108Y-156499500D01*
X126734106Y-156499500D01*
X126606818Y-156533606D01*
X126606809Y-156533610D01*
X126492685Y-156599500D01*
X126399500Y-156692685D01*
X126333610Y-156806809D01*
X126333606Y-156806818D01*
X126299500Y-156934105D01*
X106049109Y-156934105D01*
X106107314Y-156900500D01*
X106200500Y-156807314D01*
X106266392Y-156693186D01*
X106300499Y-156565894D01*
X106300500Y-156565894D01*
X106300500Y-156434106D01*
X106300499Y-156434105D01*
X106266393Y-156306818D01*
X106266392Y-156306814D01*
X106200500Y-156192686D01*
X106107314Y-156099500D01*
X105993190Y-156033610D01*
X105993181Y-156033606D01*
X105865894Y-155999500D01*
X105865892Y-155999500D01*
X105734108Y-155999500D01*
X105734106Y-155999500D01*
X105606818Y-156033606D01*
X105606809Y-156033610D01*
X105492685Y-156099500D01*
X105439360Y-156152826D01*
X105387034Y-156174500D01*
X99712966Y-156174500D01*
X99660640Y-156152826D01*
X99607314Y-156099500D01*
X99493190Y-156033610D01*
X99493181Y-156033606D01*
X99365894Y-155999500D01*
X99365892Y-155999500D01*
X99234108Y-155999500D01*
X99234106Y-155999500D01*
X99106818Y-156033606D01*
X99106809Y-156033610D01*
X98992685Y-156099500D01*
X98899500Y-156192685D01*
X98833610Y-156306809D01*
X98833606Y-156306818D01*
X98799500Y-156434105D01*
X97810000Y-156434105D01*
X97810000Y-155437512D01*
X97831674Y-155385186D01*
X97884000Y-155363512D01*
X97927062Y-155378131D01*
X97927084Y-155378095D01*
X97927268Y-155378201D01*
X97929052Y-155378807D01*
X97931283Y-155380519D01*
X97931284Y-155380520D01*
X98068216Y-155459577D01*
X98220940Y-155500499D01*
X98220941Y-155500500D01*
X98220943Y-155500500D01*
X103779059Y-155500500D01*
X103779059Y-155500499D01*
X103931784Y-155459577D01*
X104068716Y-155380520D01*
X104116840Y-155332396D01*
X114414500Y-155332396D01*
X114414500Y-155457603D01*
X114446904Y-155578535D01*
X114446905Y-155578536D01*
X114509505Y-155686964D01*
X114598036Y-155775495D01*
X114706464Y-155838095D01*
X114706463Y-155838095D01*
X114776286Y-155856804D01*
X114827396Y-155870499D01*
X114827397Y-155870500D01*
X114827399Y-155870500D01*
X114952603Y-155870500D01*
X114952603Y-155870499D01*
X115073536Y-155838095D01*
X115181964Y-155775495D01*
X115270495Y-155686964D01*
X115333095Y-155578536D01*
X115365499Y-155457603D01*
X115365500Y-155457603D01*
X115365500Y-155332397D01*
X115365499Y-155332396D01*
X120194500Y-155332396D01*
X120194500Y-155457603D01*
X120226904Y-155578535D01*
X120226905Y-155578536D01*
X120289505Y-155686964D01*
X120378036Y-155775495D01*
X120486464Y-155838095D01*
X120486463Y-155838095D01*
X120556286Y-155856804D01*
X120607396Y-155870499D01*
X120607397Y-155870500D01*
X120607399Y-155870500D01*
X120732603Y-155870500D01*
X120732603Y-155870499D01*
X120853536Y-155838095D01*
X120961964Y-155775495D01*
X121050495Y-155686964D01*
X121113095Y-155578536D01*
X121145499Y-155457603D01*
X121145500Y-155457603D01*
X121145500Y-155332397D01*
X121145499Y-155332396D01*
X121113095Y-155211464D01*
X121050495Y-155103036D01*
X120961963Y-155014504D01*
X120853534Y-154951904D01*
X120853536Y-154951904D01*
X120732603Y-154919500D01*
X120732601Y-154919500D01*
X120607399Y-154919500D01*
X120607397Y-154919500D01*
X120486464Y-154951904D01*
X120378036Y-155014504D01*
X120289504Y-155103036D01*
X120226904Y-155211464D01*
X120194500Y-155332396D01*
X115365499Y-155332396D01*
X115333095Y-155211464D01*
X115270495Y-155103036D01*
X115181963Y-155014504D01*
X115073534Y-154951904D01*
X115073536Y-154951904D01*
X114952603Y-154919500D01*
X114952601Y-154919500D01*
X114827399Y-154919500D01*
X114827397Y-154919500D01*
X114706464Y-154951904D01*
X114598036Y-155014504D01*
X114509504Y-155103036D01*
X114446904Y-155211464D01*
X114414500Y-155332396D01*
X104116840Y-155332396D01*
X104180520Y-155268716D01*
X104259577Y-155131784D01*
X104300499Y-154979059D01*
X104300500Y-154979059D01*
X104300500Y-152454096D01*
X114346059Y-152454096D01*
X114354759Y-152611973D01*
X114354759Y-152611974D01*
X114404019Y-152762215D01*
X114404022Y-152762220D01*
X114490491Y-152894590D01*
X114490494Y-152894595D01*
X114608277Y-153000075D01*
X114608277Y-153000076D01*
X114680571Y-153036667D01*
X114749351Y-153071481D01*
X114904097Y-153103940D01*
X115061973Y-153095241D01*
X115212218Y-153045979D01*
X115344592Y-152959508D01*
X115366704Y-152934816D01*
X115417758Y-152910296D01*
X115471197Y-152929058D01*
X115485916Y-152947184D01*
X115542955Y-153045977D01*
X115549500Y-153057314D01*
X115642686Y-153150500D01*
X115756814Y-153216392D01*
X115884105Y-153250499D01*
X115884106Y-153250500D01*
X115884108Y-153250500D01*
X116015894Y-153250500D01*
X116015894Y-153250499D01*
X116143186Y-153216392D01*
X116257314Y-153150500D01*
X116350500Y-153057314D01*
X116416392Y-152943186D01*
X116450499Y-152815894D01*
X116450500Y-152815894D01*
X116450500Y-152684106D01*
X116450499Y-152684105D01*
X116416393Y-152556818D01*
X116416392Y-152556814D01*
X116350500Y-152442686D01*
X116257314Y-152349500D01*
X116180796Y-152305322D01*
X116143190Y-152283610D01*
X116143181Y-152283606D01*
X116015894Y-152249500D01*
X116015892Y-152249500D01*
X115884108Y-152249500D01*
X115884106Y-152249500D01*
X115756818Y-152283606D01*
X115756807Y-152283611D01*
X115732003Y-152297931D01*
X115675850Y-152305322D01*
X115630918Y-152270842D01*
X115622581Y-152218655D01*
X115855274Y-151109308D01*
X115887229Y-151062547D01*
X115927698Y-151050500D01*
X119505500Y-151050500D01*
X119557826Y-151072174D01*
X119579500Y-151124500D01*
X119579500Y-152379059D01*
X119620421Y-152531779D01*
X119620422Y-152531781D01*
X119620423Y-152531784D01*
X119651436Y-152585500D01*
X119699480Y-152668716D01*
X119720766Y-152690002D01*
X119742440Y-152742328D01*
X119720766Y-152794654D01*
X119668440Y-152816328D01*
X119649288Y-152813807D01*
X119595892Y-152799500D01*
X119464108Y-152799500D01*
X119464106Y-152799500D01*
X119336818Y-152833606D01*
X119336809Y-152833610D01*
X119222685Y-152899500D01*
X119129500Y-152992685D01*
X119063610Y-153106809D01*
X119063606Y-153106818D01*
X119029500Y-153234105D01*
X119029500Y-153365894D01*
X119063606Y-153493181D01*
X119063607Y-153493184D01*
X119063608Y-153493186D01*
X119129500Y-153607314D01*
X119222686Y-153700500D01*
X119336814Y-153766392D01*
X119464105Y-153800499D01*
X119464106Y-153800500D01*
X119464108Y-153800500D01*
X119595894Y-153800500D01*
X119595894Y-153800499D01*
X119723186Y-153766392D01*
X119837314Y-153700500D01*
X119930500Y-153607314D01*
X119996392Y-153493186D01*
X120030499Y-153365894D01*
X120030500Y-153365894D01*
X120030500Y-153234106D01*
X120030499Y-153234105D01*
X120008097Y-153150500D01*
X119996392Y-153106814D01*
X119930500Y-152992686D01*
X119930499Y-152992685D01*
X119930498Y-152992683D01*
X119930050Y-152992099D01*
X119929953Y-152991740D01*
X119928075Y-152988486D01*
X119928946Y-152987982D01*
X119915390Y-152937392D01*
X119943708Y-152888343D01*
X119998415Y-152873683D01*
X120007911Y-152875572D01*
X120100940Y-152900499D01*
X120100941Y-152900500D01*
X120100943Y-152900500D01*
X120259059Y-152900500D01*
X120259059Y-152900499D01*
X120411784Y-152859577D01*
X120548716Y-152780520D01*
X120660520Y-152668716D01*
X120739577Y-152531784D01*
X120780499Y-152379059D01*
X120780500Y-152379059D01*
X120780500Y-151934105D01*
X126499500Y-151934105D01*
X126499500Y-152065894D01*
X126533606Y-152193181D01*
X126533610Y-152193190D01*
X126575329Y-152265449D01*
X126599500Y-152307314D01*
X126692686Y-152400500D01*
X126806814Y-152466392D01*
X126934105Y-152500499D01*
X126934106Y-152500500D01*
X126934108Y-152500500D01*
X127065894Y-152500500D01*
X127065894Y-152500499D01*
X127193186Y-152466392D01*
X127307314Y-152400500D01*
X127400500Y-152307314D01*
X127466392Y-152193186D01*
X127500499Y-152065894D01*
X127500500Y-152065894D01*
X127500500Y-151934106D01*
X127500499Y-151934105D01*
X127466393Y-151806818D01*
X127466392Y-151806814D01*
X127400500Y-151692686D01*
X127307314Y-151599500D01*
X127193190Y-151533610D01*
X127193181Y-151533606D01*
X127065894Y-151499500D01*
X127065892Y-151499500D01*
X126934108Y-151499500D01*
X126934106Y-151499500D01*
X126806818Y-151533606D01*
X126806809Y-151533610D01*
X126692685Y-151599500D01*
X126599500Y-151692685D01*
X126533610Y-151806809D01*
X126533606Y-151806818D01*
X126499500Y-151934105D01*
X120780500Y-151934105D01*
X120780500Y-151764031D01*
X120802173Y-151711706D01*
X121228814Y-151285064D01*
X121277777Y-151263467D01*
X124822140Y-151102360D01*
X124875396Y-151121636D01*
X124899424Y-151172924D01*
X124899500Y-151176284D01*
X124899500Y-151265894D01*
X124933606Y-151393181D01*
X124933607Y-151393184D01*
X124933608Y-151393186D01*
X124999500Y-151507314D01*
X125092686Y-151600500D01*
X125206814Y-151666392D01*
X125334105Y-151700499D01*
X125334106Y-151700500D01*
X125334108Y-151700500D01*
X125465894Y-151700500D01*
X125465894Y-151700499D01*
X125593186Y-151666392D01*
X125707314Y-151600500D01*
X125800500Y-151507314D01*
X125866392Y-151393186D01*
X125900499Y-151265894D01*
X125900500Y-151265894D01*
X125900500Y-150803021D01*
X125908800Y-150768969D01*
X125945813Y-150697556D01*
X125945814Y-150697555D01*
X125972102Y-150577967D01*
X128199356Y-150577967D01*
X128240004Y-150730769D01*
X128318809Y-150867840D01*
X128318812Y-150867843D01*
X130934647Y-153493190D01*
X131065426Y-153624444D01*
X131066946Y-153626181D01*
X131069478Y-153628713D01*
X131069480Y-153628716D01*
X131125043Y-153684279D01*
X131125098Y-153684412D01*
X131125138Y-153684374D01*
X131180424Y-153739861D01*
X131181115Y-153740391D01*
X131181213Y-153740466D01*
X131181279Y-153740517D01*
X131249332Y-153779807D01*
X131249448Y-153779874D01*
X131317209Y-153819160D01*
X131317708Y-153819367D01*
X131317788Y-153819400D01*
X131318212Y-153819576D01*
X131393962Y-153839874D01*
X131394091Y-153839908D01*
X131403132Y-153842348D01*
X131469853Y-153860356D01*
X131469858Y-153860356D01*
X131470134Y-153860393D01*
X131470302Y-153860415D01*
X131470938Y-153860500D01*
X131549186Y-153860500D01*
X131627968Y-153860643D01*
X131627969Y-153860642D01*
X131631535Y-153860649D01*
X131633852Y-153860500D01*
X133165500Y-153860500D01*
X133217826Y-153882174D01*
X133239500Y-153934500D01*
X133239500Y-154129746D01*
X133251133Y-154188232D01*
X133256163Y-154195759D01*
X133295448Y-154254552D01*
X133339560Y-154284027D01*
X133361767Y-154298866D01*
X133361768Y-154298866D01*
X133361769Y-154298867D01*
X133420252Y-154310500D01*
X133420254Y-154310500D01*
X135159746Y-154310500D01*
X135159748Y-154310500D01*
X135218231Y-154298867D01*
X135284552Y-154254552D01*
X135328867Y-154188231D01*
X135340500Y-154129748D01*
X135340500Y-152390252D01*
X135328867Y-152331769D01*
X135284552Y-152265448D01*
X135260685Y-152249500D01*
X135218232Y-152221133D01*
X135218233Y-152221133D01*
X135188989Y-152215316D01*
X135159748Y-152209500D01*
X133420252Y-152209500D01*
X133391010Y-152215316D01*
X133361767Y-152221133D01*
X133295449Y-152265447D01*
X133295447Y-152265449D01*
X133251133Y-152331767D01*
X133251133Y-152331769D01*
X133241727Y-152379059D01*
X133239500Y-152390253D01*
X133239500Y-152585500D01*
X133217826Y-152637826D01*
X133165500Y-152659500D01*
X131830105Y-152659500D01*
X131777779Y-152637826D01*
X131777684Y-152637731D01*
X131334744Y-152193181D01*
X129169587Y-150020151D01*
X129032800Y-149940845D01*
X129032797Y-149940844D01*
X129003747Y-149933003D01*
X128880147Y-149899644D01*
X128879572Y-149899642D01*
X128722032Y-149899356D01*
X128569232Y-149940003D01*
X128517962Y-149969480D01*
X128432157Y-150018812D01*
X128320151Y-150130413D01*
X128251194Y-150249351D01*
X128240844Y-150267202D01*
X128228614Y-150312515D01*
X128205495Y-150398177D01*
X128199644Y-150419854D01*
X128199356Y-150577967D01*
X125972102Y-150577967D01*
X125974558Y-150566796D01*
X125978346Y-150549560D01*
X125978346Y-150549559D01*
X125978347Y-150549556D01*
X125971466Y-150398180D01*
X125925641Y-150253743D01*
X125843994Y-150126089D01*
X125732090Y-150023915D01*
X125732089Y-150023914D01*
X125597556Y-149954186D01*
X125597552Y-149954185D01*
X125449559Y-149921653D01*
X125449556Y-149921653D01*
X121343834Y-150108277D01*
X120988600Y-150124424D01*
X120985240Y-150124500D01*
X120924233Y-150124500D01*
X120924231Y-150124500D01*
X120924226Y-150124501D01*
X120919179Y-150125853D01*
X120903398Y-150128296D01*
X120898184Y-150128533D01*
X120898174Y-150128534D01*
X120840026Y-150146983D01*
X120836802Y-150147926D01*
X120773182Y-150164974D01*
X120772441Y-150162211D01*
X120724853Y-150162183D01*
X120689127Y-150130833D01*
X120671037Y-150099500D01*
X120660520Y-150081284D01*
X120548716Y-149969480D01*
X120411784Y-149890423D01*
X120411781Y-149890422D01*
X120411779Y-149890421D01*
X120259059Y-149849500D01*
X120259057Y-149849500D01*
X118651020Y-149849500D01*
X118617445Y-149841445D01*
X118442966Y-149752611D01*
X115570580Y-148290169D01*
X115540070Y-148261224D01*
X115531219Y-148245894D01*
X115500500Y-148192686D01*
X115407314Y-148099500D01*
X115367538Y-148076535D01*
X133239500Y-148076535D01*
X133239500Y-148283464D01*
X133279868Y-148486413D01*
X133279870Y-148486420D01*
X133359059Y-148677598D01*
X133474023Y-148849655D01*
X133620345Y-148995977D01*
X133792402Y-149110941D01*
X133983580Y-149190130D01*
X134186535Y-149230500D01*
X134186536Y-149230500D01*
X134393464Y-149230500D01*
X134393465Y-149230500D01*
X134596420Y-149190130D01*
X134787598Y-149110941D01*
X134959655Y-148995977D01*
X135105977Y-148849655D01*
X135220941Y-148677598D01*
X135300130Y-148486420D01*
X135340500Y-148283465D01*
X135340500Y-148076535D01*
X135300130Y-147873580D01*
X135220941Y-147682402D01*
X135105977Y-147510345D01*
X134959655Y-147364023D01*
X134787598Y-147249059D01*
X134596420Y-147169870D01*
X134596413Y-147169868D01*
X134443516Y-147139455D01*
X134393465Y-147129500D01*
X134186535Y-147129500D01*
X134146385Y-147137486D01*
X133983586Y-147169868D01*
X133983579Y-147169870D01*
X133792401Y-147249059D01*
X133620345Y-147364022D01*
X133620344Y-147364024D01*
X133474024Y-147510344D01*
X133474022Y-147510345D01*
X133359059Y-147682401D01*
X133279870Y-147873579D01*
X133279868Y-147873586D01*
X133239500Y-148076535D01*
X115367538Y-148076535D01*
X115293190Y-148033610D01*
X115293181Y-148033606D01*
X115165894Y-147999500D01*
X115165892Y-147999500D01*
X115034108Y-147999500D01*
X115034106Y-147999500D01*
X114906818Y-148033606D01*
X114906809Y-148033610D01*
X114792685Y-148099500D01*
X114699500Y-148192685D01*
X114633610Y-148306809D01*
X114633606Y-148306818D01*
X114599500Y-148434105D01*
X114599500Y-148565894D01*
X114633606Y-148693181D01*
X114633607Y-148693184D01*
X114633608Y-148693186D01*
X114699500Y-148807314D01*
X114792686Y-148900500D01*
X114906814Y-148966392D01*
X115034105Y-149000499D01*
X115034106Y-149000500D01*
X115034108Y-149000500D01*
X115165890Y-149000500D01*
X115165892Y-149000500D01*
X115165893Y-149000499D01*
X115170475Y-148999896D01*
X115213712Y-149007316D01*
X116592981Y-149709555D01*
X116629777Y-149752611D01*
X116625351Y-149809075D01*
X116582295Y-149845871D01*
X116559406Y-149849500D01*
X115449981Y-149849500D01*
X115434790Y-149847924D01*
X115431233Y-149847178D01*
X115425899Y-149846059D01*
X115365504Y-149849388D01*
X115361433Y-149849500D01*
X115300943Y-149849500D01*
X115294465Y-149851235D01*
X115292168Y-149851851D01*
X115277094Y-149854259D01*
X115268028Y-149854758D01*
X115268020Y-149854760D01*
X115210535Y-149873608D01*
X115206635Y-149874769D01*
X115148215Y-149890423D01*
X115148214Y-149890423D01*
X115140355Y-149894961D01*
X115126415Y-149901190D01*
X115117784Y-149904020D01*
X115117776Y-149904023D01*
X115067130Y-149937106D01*
X115063663Y-149939237D01*
X115011285Y-149969478D01*
X115004859Y-149975904D01*
X114993011Y-149985525D01*
X114985408Y-149990492D01*
X114985402Y-149990497D01*
X114945046Y-150035558D01*
X114942248Y-150038514D01*
X114899481Y-150081281D01*
X114894937Y-150089152D01*
X114885985Y-150101508D01*
X114879924Y-150108277D01*
X114852606Y-150162245D01*
X114850670Y-150165821D01*
X114820423Y-150218214D01*
X114818072Y-150226988D01*
X114812620Y-150241246D01*
X114808520Y-150249347D01*
X114796099Y-150308557D01*
X114795154Y-150312515D01*
X114779500Y-150370942D01*
X114779500Y-150380019D01*
X114777924Y-150395210D01*
X114346059Y-152454096D01*
X104300500Y-152454096D01*
X104300500Y-150434105D01*
X105499500Y-150434105D01*
X105499500Y-150565894D01*
X105533606Y-150693181D01*
X105533610Y-150693190D01*
X105577361Y-150768969D01*
X105599500Y-150807314D01*
X105692686Y-150900500D01*
X105806814Y-150966392D01*
X105934105Y-151000499D01*
X105934106Y-151000500D01*
X105934108Y-151000500D01*
X106065894Y-151000500D01*
X106065894Y-151000499D01*
X106193186Y-150966392D01*
X106307314Y-150900500D01*
X106400500Y-150807314D01*
X106466392Y-150693186D01*
X106500499Y-150565894D01*
X106500500Y-150565894D01*
X106500500Y-150434106D01*
X106500499Y-150434105D01*
X106467919Y-150312515D01*
X106466392Y-150306814D01*
X106400500Y-150192686D01*
X106307314Y-150099500D01*
X106275758Y-150081281D01*
X106193190Y-150033610D01*
X106193181Y-150033606D01*
X106065894Y-149999500D01*
X106065892Y-149999500D01*
X105934108Y-149999500D01*
X105934106Y-149999500D01*
X105806818Y-150033606D01*
X105806809Y-150033610D01*
X105692685Y-150099500D01*
X105599500Y-150192685D01*
X105533610Y-150306809D01*
X105533606Y-150306818D01*
X105499500Y-150434105D01*
X104300500Y-150434105D01*
X104300500Y-147574500D01*
X104322174Y-147522174D01*
X104374500Y-147500500D01*
X119379059Y-147500500D01*
X119379059Y-147500499D01*
X119531784Y-147459577D01*
X119668716Y-147380520D01*
X119780520Y-147268716D01*
X119859577Y-147131784D01*
X119900499Y-146979059D01*
X119900500Y-146979059D01*
X119900500Y-145420941D01*
X119900499Y-145420940D01*
X119859578Y-145268220D01*
X119859577Y-145268216D01*
X119780520Y-145131284D01*
X119668716Y-145019480D01*
X119531784Y-144940423D01*
X119531781Y-144940422D01*
X119531779Y-144940421D01*
X119379059Y-144899500D01*
X119379057Y-144899500D01*
X119220943Y-144899500D01*
X119220941Y-144899500D01*
X119068220Y-144940421D01*
X119068214Y-144940424D01*
X118983063Y-144989586D01*
X118946063Y-144999500D01*
X118824500Y-144999500D01*
X118772174Y-144977826D01*
X118750500Y-144925500D01*
X118750500Y-141734105D01*
X125699500Y-141734105D01*
X125699500Y-141865894D01*
X125733606Y-141993181D01*
X125733610Y-141993190D01*
X125801925Y-142111514D01*
X125799779Y-142112752D01*
X125812345Y-142159667D01*
X125800700Y-142187779D01*
X125801925Y-142188486D01*
X125733610Y-142306809D01*
X125733606Y-142306818D01*
X125699500Y-142434105D01*
X125699500Y-142565894D01*
X125733606Y-142693181D01*
X125733610Y-142693190D01*
X125737253Y-142699500D01*
X125799500Y-142807314D01*
X125892686Y-142900500D01*
X126006814Y-142966392D01*
X126134105Y-143000499D01*
X126134106Y-143000500D01*
X126134108Y-143000500D01*
X126265894Y-143000500D01*
X126265894Y-143000499D01*
X126393186Y-142966392D01*
X126507314Y-142900500D01*
X126600500Y-142807314D01*
X126666392Y-142693186D01*
X126700499Y-142565894D01*
X126700500Y-142565894D01*
X126700500Y-142434106D01*
X126700499Y-142434105D01*
X126666393Y-142306818D01*
X126666392Y-142306814D01*
X126600500Y-142192686D01*
X126600499Y-142192685D01*
X126598075Y-142188486D01*
X126600227Y-142187243D01*
X126587650Y-142140364D01*
X126599305Y-142112224D01*
X126598075Y-142111514D01*
X126643055Y-142033606D01*
X126666392Y-141993186D01*
X126700499Y-141865894D01*
X126700500Y-141865894D01*
X126700500Y-141734106D01*
X126700499Y-141734105D01*
X126691494Y-141700499D01*
X126666392Y-141606814D01*
X126600500Y-141492686D01*
X126507314Y-141399500D01*
X126466571Y-141375977D01*
X126393190Y-141333610D01*
X126393181Y-141333606D01*
X126265894Y-141299500D01*
X126265892Y-141299500D01*
X126134108Y-141299500D01*
X126134106Y-141299500D01*
X126006818Y-141333606D01*
X126006809Y-141333610D01*
X125892685Y-141399500D01*
X125799500Y-141492685D01*
X125733610Y-141606809D01*
X125733606Y-141606818D01*
X125699500Y-141734105D01*
X118750500Y-141734105D01*
X118750500Y-136034105D01*
X124749500Y-136034105D01*
X124749500Y-136165894D01*
X124783606Y-136293181D01*
X124783607Y-136293184D01*
X124783608Y-136293186D01*
X124849500Y-136407314D01*
X124942686Y-136500500D01*
X125056814Y-136566392D01*
X125184105Y-136600499D01*
X125184106Y-136600500D01*
X125184108Y-136600500D01*
X125315894Y-136600500D01*
X125315894Y-136600499D01*
X125443186Y-136566392D01*
X125557314Y-136500500D01*
X125650500Y-136407314D01*
X125716392Y-136293186D01*
X125750499Y-136165894D01*
X125750500Y-136165894D01*
X125750500Y-136034106D01*
X125750499Y-136034105D01*
X125750183Y-136032927D01*
X125716392Y-135906814D01*
X125650500Y-135792686D01*
X125572174Y-135714360D01*
X125550500Y-135662034D01*
X125550500Y-126905122D01*
X125572173Y-126852797D01*
X125902796Y-126522173D01*
X125955122Y-126500500D01*
X126065894Y-126500500D01*
X126065894Y-126500499D01*
X126193186Y-126466392D01*
X126307314Y-126400500D01*
X126400500Y-126307314D01*
X126466392Y-126193186D01*
X126500499Y-126065894D01*
X126500500Y-126065894D01*
X126500500Y-125934106D01*
X126500499Y-125934105D01*
X126495122Y-125914039D01*
X126466392Y-125806814D01*
X126400500Y-125692686D01*
X126307314Y-125599500D01*
X126242421Y-125562034D01*
X126193190Y-125533610D01*
X126193181Y-125533606D01*
X126065894Y-125499500D01*
X126065892Y-125499500D01*
X125934108Y-125499500D01*
X125934106Y-125499500D01*
X125806818Y-125533606D01*
X125806809Y-125533610D01*
X125692685Y-125599500D01*
X125599500Y-125692685D01*
X125533610Y-125806809D01*
X125533606Y-125806818D01*
X125499500Y-125934105D01*
X125499500Y-126044876D01*
X125477826Y-126097202D01*
X125065489Y-126509540D01*
X125009540Y-126565488D01*
X124969979Y-126634009D01*
X124969977Y-126634014D01*
X124949500Y-126710435D01*
X124949500Y-135662034D01*
X124927826Y-135714360D01*
X124849500Y-135792685D01*
X124783610Y-135906809D01*
X124783606Y-135906818D01*
X124749500Y-136034105D01*
X118750500Y-136034105D01*
X118750500Y-127134105D01*
X120974500Y-127134105D01*
X120974500Y-127265894D01*
X121008606Y-127393181D01*
X121008610Y-127393190D01*
X121055474Y-127474360D01*
X121074500Y-127507314D01*
X121167686Y-127600500D01*
X121281814Y-127666392D01*
X121409105Y-127700499D01*
X121409106Y-127700500D01*
X121409108Y-127700500D01*
X121540894Y-127700500D01*
X121540894Y-127700499D01*
X121668186Y-127666392D01*
X121782314Y-127600500D01*
X121860640Y-127522174D01*
X121912966Y-127500500D01*
X124239564Y-127500500D01*
X124239564Y-127500499D01*
X124315989Y-127480021D01*
X124384511Y-127440460D01*
X124440460Y-127384511D01*
X124480021Y-127315989D01*
X124500499Y-127239564D01*
X124500500Y-127239564D01*
X124500500Y-123934105D01*
X126599500Y-123934105D01*
X126599500Y-124065894D01*
X126633606Y-124193181D01*
X126633610Y-124193190D01*
X126699500Y-124307314D01*
X126777826Y-124385640D01*
X126799500Y-124437966D01*
X126799500Y-139839564D01*
X126819977Y-139915985D01*
X126819979Y-139915990D01*
X126859540Y-139984511D01*
X127977826Y-141102797D01*
X127999500Y-141155123D01*
X127999500Y-141265894D01*
X128033606Y-141393181D01*
X128033607Y-141393184D01*
X128033608Y-141393186D01*
X128099500Y-141507314D01*
X128192686Y-141600500D01*
X128306814Y-141666392D01*
X128434105Y-141700499D01*
X128434106Y-141700500D01*
X128434108Y-141700500D01*
X128565894Y-141700500D01*
X128565894Y-141700499D01*
X128693186Y-141666392D01*
X128807314Y-141600500D01*
X128900500Y-141507314D01*
X128966392Y-141393186D01*
X129000499Y-141265894D01*
X129000500Y-141265894D01*
X129000500Y-141134106D01*
X129000499Y-141134105D01*
X128994824Y-141112927D01*
X128966392Y-141006814D01*
X128900500Y-140892686D01*
X128807314Y-140799500D01*
X128727096Y-140753186D01*
X128693190Y-140733610D01*
X128693181Y-140733606D01*
X128565894Y-140699500D01*
X128565892Y-140699500D01*
X128455123Y-140699500D01*
X128402797Y-140677826D01*
X127422174Y-139697203D01*
X127400500Y-139644877D01*
X127400500Y-124437966D01*
X127422174Y-124385640D01*
X127500500Y-124307314D01*
X127566392Y-124193186D01*
X127581646Y-124136256D01*
X127616122Y-124091326D01*
X127672275Y-124083932D01*
X127734108Y-124100500D01*
X127865891Y-124100500D01*
X127865892Y-124100500D01*
X127993186Y-124066392D01*
X127993190Y-124066389D01*
X127997181Y-124064737D01*
X128053818Y-124064737D01*
X128093867Y-124104785D01*
X128099500Y-124133104D01*
X128099500Y-135042034D01*
X128077826Y-135094360D01*
X127999500Y-135172685D01*
X127933610Y-135286809D01*
X127933606Y-135286818D01*
X127899500Y-135414105D01*
X127899500Y-135545894D01*
X127933606Y-135673181D01*
X127933610Y-135673190D01*
X127948800Y-135699500D01*
X127999500Y-135787314D01*
X128092686Y-135880500D01*
X128206814Y-135946392D01*
X128334105Y-135980499D01*
X128334106Y-135980500D01*
X128334108Y-135980500D01*
X128465894Y-135980500D01*
X128465894Y-135980499D01*
X128593186Y-135946392D01*
X128707314Y-135880500D01*
X128800500Y-135787314D01*
X128866392Y-135673186D01*
X128900499Y-135545894D01*
X128900500Y-135545894D01*
X128900500Y-135414106D01*
X128900499Y-135414105D01*
X128866393Y-135286818D01*
X128866392Y-135286814D01*
X128800500Y-135172686D01*
X128722174Y-135094360D01*
X128700500Y-135042034D01*
X128700500Y-133178808D01*
X128722174Y-133126482D01*
X128774500Y-133104808D01*
X128826826Y-133126482D01*
X128838585Y-133141807D01*
X128899500Y-133247314D01*
X128992686Y-133340500D01*
X129106814Y-133406392D01*
X129234105Y-133440499D01*
X129234106Y-133440500D01*
X129234108Y-133440500D01*
X129365894Y-133440500D01*
X129365894Y-133440499D01*
X129493186Y-133406392D01*
X129607314Y-133340500D01*
X129700500Y-133247314D01*
X129766392Y-133133186D01*
X129800499Y-133005894D01*
X129800500Y-133005894D01*
X129800500Y-132874106D01*
X129800499Y-132874105D01*
X129766393Y-132746818D01*
X129766392Y-132746814D01*
X129700500Y-132632686D01*
X129622174Y-132554360D01*
X129600500Y-132502034D01*
X129600500Y-130875448D01*
X129622174Y-130823122D01*
X129674500Y-130801448D01*
X129711499Y-130811361D01*
X129806814Y-130866392D01*
X129934105Y-130900499D01*
X129934106Y-130900500D01*
X129934108Y-130900500D01*
X130065894Y-130900500D01*
X130065894Y-130900499D01*
X130193186Y-130866392D01*
X130307314Y-130800500D01*
X130400500Y-130707314D01*
X130466392Y-130593186D01*
X130500499Y-130465894D01*
X130500500Y-130465894D01*
X130500500Y-130334106D01*
X130500499Y-130334105D01*
X130466393Y-130206818D01*
X130466392Y-130206814D01*
X130400500Y-130092686D01*
X130322174Y-130014360D01*
X130300500Y-129962034D01*
X130300500Y-128335448D01*
X130322174Y-128283122D01*
X130374500Y-128261448D01*
X130411496Y-128271360D01*
X130506813Y-128326392D01*
X130634104Y-128360499D01*
X130634105Y-128360500D01*
X130634107Y-128360500D01*
X130765893Y-128360500D01*
X130765893Y-128360499D01*
X130893185Y-128326392D01*
X131007313Y-128260500D01*
X131100499Y-128167314D01*
X131166391Y-128053186D01*
X131200498Y-127925894D01*
X131200499Y-127925894D01*
X131200499Y-127794106D01*
X131200498Y-127794105D01*
X131166392Y-127666818D01*
X131166391Y-127666814D01*
X131100499Y-127552686D01*
X131022173Y-127474360D01*
X131000499Y-127422034D01*
X131000499Y-125795447D01*
X131022173Y-125743121D01*
X131074499Y-125721447D01*
X131111496Y-125731360D01*
X131206814Y-125786392D01*
X131334105Y-125820499D01*
X131334106Y-125820500D01*
X131334108Y-125820500D01*
X131465894Y-125820500D01*
X131465894Y-125820499D01*
X131593186Y-125786392D01*
X131707314Y-125720500D01*
X131800500Y-125627314D01*
X131866392Y-125513186D01*
X131900499Y-125385894D01*
X131900500Y-125385894D01*
X131900500Y-125254106D01*
X131900499Y-125254105D01*
X131866393Y-125126818D01*
X131866392Y-125126814D01*
X131800500Y-125012686D01*
X131722174Y-124934360D01*
X131700500Y-124882034D01*
X131700500Y-117596535D01*
X133239500Y-117596535D01*
X133239500Y-117803464D01*
X133279868Y-118006413D01*
X133279870Y-118006420D01*
X133359059Y-118197598D01*
X133465445Y-118356818D01*
X133474023Y-118369655D01*
X133620345Y-118515977D01*
X133792402Y-118630941D01*
X133983580Y-118710130D01*
X134186535Y-118750500D01*
X134186536Y-118750500D01*
X134393464Y-118750500D01*
X134393465Y-118750500D01*
X134596420Y-118710130D01*
X134787598Y-118630941D01*
X134959655Y-118515977D01*
X135073174Y-118402458D01*
X135125500Y-118380784D01*
X135177826Y-118402458D01*
X135199500Y-118454784D01*
X135199500Y-119485216D01*
X135177826Y-119537542D01*
X135125500Y-119559216D01*
X135073174Y-119537542D01*
X134959654Y-119424022D01*
X134787598Y-119309059D01*
X134596420Y-119229870D01*
X134596413Y-119229868D01*
X134443516Y-119199455D01*
X134393465Y-119189500D01*
X134186535Y-119189500D01*
X134146385Y-119197486D01*
X133983586Y-119229868D01*
X133983579Y-119229870D01*
X133792401Y-119309059D01*
X133620345Y-119424022D01*
X133620344Y-119424024D01*
X133474024Y-119570344D01*
X133474022Y-119570345D01*
X133359059Y-119742401D01*
X133279870Y-119933579D01*
X133279868Y-119933586D01*
X133239500Y-120136535D01*
X133239500Y-120343464D01*
X133279868Y-120546413D01*
X133279870Y-120546420D01*
X133359059Y-120737598D01*
X133474023Y-120909655D01*
X133620345Y-121055977D01*
X133792402Y-121170941D01*
X133983580Y-121250130D01*
X134186535Y-121290500D01*
X134186536Y-121290500D01*
X134393464Y-121290500D01*
X134393465Y-121290500D01*
X134596420Y-121250130D01*
X134787598Y-121170941D01*
X134959655Y-121055977D01*
X135073174Y-120942458D01*
X135125500Y-120920784D01*
X135177826Y-120942458D01*
X135199500Y-120994784D01*
X135199500Y-122025216D01*
X135177826Y-122077542D01*
X135125500Y-122099216D01*
X135073174Y-122077542D01*
X134959654Y-121964022D01*
X134787598Y-121849059D01*
X134596420Y-121769870D01*
X134596413Y-121769868D01*
X134443516Y-121739455D01*
X134393465Y-121729500D01*
X134186535Y-121729500D01*
X134146385Y-121737486D01*
X133983586Y-121769868D01*
X133983579Y-121769870D01*
X133792401Y-121849059D01*
X133620345Y-121964022D01*
X133620344Y-121964024D01*
X133474024Y-122110344D01*
X133474022Y-122110345D01*
X133359059Y-122282401D01*
X133279870Y-122473579D01*
X133279868Y-122473586D01*
X133239500Y-122676535D01*
X133239500Y-122883464D01*
X133279868Y-123086413D01*
X133279870Y-123086420D01*
X133359059Y-123277598D01*
X133474023Y-123449655D01*
X133620345Y-123595977D01*
X133792402Y-123710941D01*
X133983580Y-123790130D01*
X134186535Y-123830500D01*
X134186536Y-123830500D01*
X134393464Y-123830500D01*
X134393465Y-123830500D01*
X134596420Y-123790130D01*
X134787598Y-123710941D01*
X134959655Y-123595977D01*
X135073174Y-123482458D01*
X135125500Y-123460784D01*
X135177826Y-123482458D01*
X135199500Y-123534784D01*
X135199500Y-124565216D01*
X135177826Y-124617542D01*
X135125500Y-124639216D01*
X135073174Y-124617542D01*
X134959654Y-124504022D01*
X134787598Y-124389059D01*
X134596420Y-124309870D01*
X134596413Y-124309868D01*
X134443516Y-124279455D01*
X134393465Y-124269500D01*
X134186535Y-124269500D01*
X134146385Y-124277486D01*
X133983586Y-124309868D01*
X133983579Y-124309870D01*
X133792401Y-124389059D01*
X133620345Y-124504022D01*
X133620344Y-124504024D01*
X133474024Y-124650344D01*
X133474022Y-124650345D01*
X133359059Y-124822401D01*
X133279870Y-125013579D01*
X133279868Y-125013586D01*
X133239500Y-125216535D01*
X133239500Y-125423465D01*
X133249455Y-125473516D01*
X133279868Y-125626413D01*
X133279870Y-125626420D01*
X133359059Y-125817598D01*
X133436906Y-125934106D01*
X133474023Y-125989655D01*
X133620345Y-126135977D01*
X133792402Y-126250941D01*
X133983580Y-126330130D01*
X134186535Y-126370500D01*
X134186536Y-126370500D01*
X134393464Y-126370500D01*
X134393465Y-126370500D01*
X134596420Y-126330130D01*
X134787598Y-126250941D01*
X134959655Y-126135977D01*
X135073174Y-126022458D01*
X135125500Y-126000784D01*
X135177826Y-126022458D01*
X135199500Y-126074784D01*
X135199500Y-127105216D01*
X135177826Y-127157542D01*
X135125500Y-127179216D01*
X135073174Y-127157542D01*
X134959654Y-127044022D01*
X134787598Y-126929059D01*
X134596420Y-126849870D01*
X134596413Y-126849868D01*
X134443516Y-126819455D01*
X134393465Y-126809500D01*
X134186535Y-126809500D01*
X134146385Y-126817486D01*
X133983586Y-126849868D01*
X133983579Y-126849870D01*
X133792401Y-126929059D01*
X133620345Y-127044022D01*
X133620344Y-127044024D01*
X133474024Y-127190344D01*
X133474022Y-127190345D01*
X133359059Y-127362401D01*
X133279870Y-127553579D01*
X133279868Y-127553586D01*
X133239500Y-127756535D01*
X133239500Y-127963464D01*
X133279868Y-128166413D01*
X133279870Y-128166420D01*
X133359059Y-128357598D01*
X133474023Y-128529655D01*
X133620345Y-128675977D01*
X133792402Y-128790941D01*
X133983580Y-128870130D01*
X134186535Y-128910500D01*
X134186536Y-128910500D01*
X134393464Y-128910500D01*
X134393465Y-128910500D01*
X134596420Y-128870130D01*
X134787598Y-128790941D01*
X134959655Y-128675977D01*
X135073174Y-128562458D01*
X135125500Y-128540784D01*
X135177826Y-128562458D01*
X135199500Y-128614784D01*
X135199500Y-129645216D01*
X135177826Y-129697542D01*
X135125500Y-129719216D01*
X135073174Y-129697542D01*
X134959654Y-129584022D01*
X134787598Y-129469059D01*
X134596420Y-129389870D01*
X134596413Y-129389868D01*
X134443516Y-129359455D01*
X134393465Y-129349500D01*
X134186535Y-129349500D01*
X134146385Y-129357486D01*
X133983586Y-129389868D01*
X133983579Y-129389870D01*
X133792401Y-129469059D01*
X133620345Y-129584022D01*
X133620344Y-129584024D01*
X133474024Y-129730344D01*
X133474022Y-129730345D01*
X133359059Y-129902401D01*
X133279870Y-130093579D01*
X133279868Y-130093586D01*
X133239500Y-130296535D01*
X133239500Y-130503464D01*
X133279868Y-130706413D01*
X133279870Y-130706420D01*
X133359059Y-130897598D01*
X133474023Y-131069655D01*
X133620345Y-131215977D01*
X133792402Y-131330941D01*
X133983580Y-131410130D01*
X134186535Y-131450500D01*
X134186536Y-131450500D01*
X134393464Y-131450500D01*
X134393465Y-131450500D01*
X134596420Y-131410130D01*
X134787598Y-131330941D01*
X134959655Y-131215977D01*
X135073174Y-131102458D01*
X135125500Y-131080784D01*
X135177826Y-131102458D01*
X135199500Y-131154784D01*
X135199500Y-132185216D01*
X135177826Y-132237542D01*
X135125500Y-132259216D01*
X135073174Y-132237542D01*
X134959654Y-132124022D01*
X134787598Y-132009059D01*
X134596420Y-131929870D01*
X134596413Y-131929868D01*
X134443516Y-131899455D01*
X134393465Y-131889500D01*
X134186535Y-131889500D01*
X134146385Y-131897486D01*
X133983586Y-131929868D01*
X133983579Y-131929870D01*
X133792401Y-132009059D01*
X133620345Y-132124022D01*
X133620344Y-132124024D01*
X133474024Y-132270344D01*
X133474022Y-132270345D01*
X133359059Y-132442401D01*
X133279870Y-132633579D01*
X133279868Y-132633586D01*
X133239500Y-132836535D01*
X133239500Y-133043464D01*
X133279868Y-133246413D01*
X133279870Y-133246420D01*
X133359059Y-133437598D01*
X133474023Y-133609655D01*
X133620345Y-133755977D01*
X133792402Y-133870941D01*
X133983580Y-133950130D01*
X134186535Y-133990500D01*
X134186536Y-133990500D01*
X134393464Y-133990500D01*
X134393465Y-133990500D01*
X134596420Y-133950130D01*
X134787598Y-133870941D01*
X134959655Y-133755977D01*
X135073174Y-133642458D01*
X135125500Y-133620784D01*
X135177826Y-133642458D01*
X135199500Y-133694784D01*
X135199500Y-134725216D01*
X135177826Y-134777542D01*
X135125500Y-134799216D01*
X135073174Y-134777542D01*
X134959654Y-134664022D01*
X134787598Y-134549059D01*
X134596420Y-134469870D01*
X134596413Y-134469868D01*
X134443516Y-134439455D01*
X134393465Y-134429500D01*
X134186535Y-134429500D01*
X134146385Y-134437486D01*
X133983586Y-134469868D01*
X133983579Y-134469870D01*
X133792401Y-134549059D01*
X133620345Y-134664022D01*
X133620344Y-134664024D01*
X133474024Y-134810344D01*
X133474022Y-134810345D01*
X133359059Y-134982401D01*
X133279870Y-135173579D01*
X133279868Y-135173586D01*
X133239500Y-135376535D01*
X133239500Y-135583464D01*
X133279868Y-135786413D01*
X133279870Y-135786420D01*
X133359059Y-135977598D01*
X133396817Y-136034108D01*
X133474023Y-136149655D01*
X133620345Y-136295977D01*
X133792402Y-136410941D01*
X133983580Y-136490130D01*
X134186535Y-136530500D01*
X134186536Y-136530500D01*
X134393464Y-136530500D01*
X134393465Y-136530500D01*
X134596420Y-136490130D01*
X134787598Y-136410941D01*
X134959655Y-136295977D01*
X135073174Y-136182458D01*
X135125500Y-136160784D01*
X135177826Y-136182458D01*
X135199500Y-136234784D01*
X135199500Y-137265216D01*
X135177826Y-137317542D01*
X135125500Y-137339216D01*
X135073174Y-137317542D01*
X134959654Y-137204022D01*
X134787598Y-137089059D01*
X134596420Y-137009870D01*
X134596413Y-137009868D01*
X134443516Y-136979455D01*
X134393465Y-136969500D01*
X134186535Y-136969500D01*
X134146385Y-136977486D01*
X133983586Y-137009868D01*
X133983579Y-137009870D01*
X133792401Y-137089059D01*
X133620345Y-137204022D01*
X133620344Y-137204024D01*
X133474024Y-137350344D01*
X133474022Y-137350345D01*
X133359059Y-137522401D01*
X133279870Y-137713579D01*
X133279868Y-137713586D01*
X133239500Y-137916535D01*
X133239500Y-138123464D01*
X133279868Y-138326413D01*
X133279870Y-138326420D01*
X133359059Y-138517598D01*
X133474023Y-138689655D01*
X133620345Y-138835977D01*
X133792402Y-138950941D01*
X133983580Y-139030130D01*
X134186535Y-139070500D01*
X134186536Y-139070500D01*
X134393464Y-139070500D01*
X134393465Y-139070500D01*
X134596420Y-139030130D01*
X134787598Y-138950941D01*
X134959655Y-138835977D01*
X135073174Y-138722458D01*
X135125500Y-138700784D01*
X135177826Y-138722458D01*
X135199500Y-138774784D01*
X135199500Y-139805216D01*
X135177826Y-139857542D01*
X135125500Y-139879216D01*
X135073174Y-139857542D01*
X134959654Y-139744022D01*
X134787598Y-139629059D01*
X134596420Y-139549870D01*
X134596413Y-139549868D01*
X134443516Y-139519455D01*
X134393465Y-139509500D01*
X134186535Y-139509500D01*
X134146385Y-139517486D01*
X133983586Y-139549868D01*
X133983579Y-139549870D01*
X133792401Y-139629059D01*
X133620345Y-139744022D01*
X133620344Y-139744024D01*
X133474024Y-139890344D01*
X133474022Y-139890345D01*
X133359059Y-140062401D01*
X133279870Y-140253579D01*
X133279868Y-140253586D01*
X133239500Y-140456535D01*
X133239500Y-140663464D01*
X133279868Y-140866413D01*
X133279870Y-140866420D01*
X133359059Y-141057598D01*
X133424222Y-141155123D01*
X133474023Y-141229655D01*
X133620345Y-141375977D01*
X133792402Y-141490941D01*
X133983580Y-141570130D01*
X134186535Y-141610500D01*
X134186536Y-141610500D01*
X134393464Y-141610500D01*
X134393465Y-141610500D01*
X134596420Y-141570130D01*
X134787598Y-141490941D01*
X134959655Y-141375977D01*
X135073174Y-141262458D01*
X135125500Y-141240784D01*
X135177826Y-141262458D01*
X135199500Y-141314784D01*
X135199500Y-142345216D01*
X135177826Y-142397542D01*
X135125500Y-142419216D01*
X135073174Y-142397542D01*
X134959654Y-142284022D01*
X134787598Y-142169059D01*
X134596420Y-142089870D01*
X134596413Y-142089868D01*
X134443516Y-142059455D01*
X134393465Y-142049500D01*
X134186535Y-142049500D01*
X134146385Y-142057486D01*
X133983586Y-142089868D01*
X133983579Y-142089870D01*
X133792401Y-142169059D01*
X133620345Y-142284022D01*
X133620344Y-142284024D01*
X133474024Y-142430344D01*
X133474022Y-142430345D01*
X133359059Y-142602401D01*
X133279870Y-142793579D01*
X133279868Y-142793586D01*
X133239500Y-142996535D01*
X133239500Y-143203464D01*
X133279868Y-143406413D01*
X133279870Y-143406420D01*
X133359059Y-143597598D01*
X133474023Y-143769655D01*
X133620345Y-143915977D01*
X133792402Y-144030941D01*
X133983580Y-144110130D01*
X134186535Y-144150500D01*
X134186536Y-144150500D01*
X134393464Y-144150500D01*
X134393465Y-144150500D01*
X134596420Y-144110130D01*
X134787598Y-144030941D01*
X134959655Y-143915977D01*
X135073174Y-143802458D01*
X135125500Y-143780784D01*
X135177826Y-143802458D01*
X135199500Y-143854784D01*
X135199500Y-144885216D01*
X135177826Y-144937542D01*
X135125500Y-144959216D01*
X135073174Y-144937542D01*
X134959654Y-144824022D01*
X134787598Y-144709059D01*
X134596420Y-144629870D01*
X134596413Y-144629868D01*
X134443516Y-144599455D01*
X134393465Y-144589500D01*
X134186535Y-144589500D01*
X134146385Y-144597486D01*
X133983586Y-144629868D01*
X133983579Y-144629870D01*
X133792401Y-144709059D01*
X133620345Y-144824022D01*
X133620344Y-144824024D01*
X133474024Y-144970344D01*
X133474022Y-144970345D01*
X133359059Y-145142401D01*
X133279870Y-145333579D01*
X133279868Y-145333586D01*
X133239500Y-145536535D01*
X133239500Y-145743464D01*
X133279868Y-145946413D01*
X133279870Y-145946420D01*
X133359059Y-146137598D01*
X133467237Y-146299500D01*
X133474023Y-146309655D01*
X133620345Y-146455977D01*
X133792402Y-146570941D01*
X133983580Y-146650130D01*
X134186535Y-146690500D01*
X134186536Y-146690500D01*
X134393464Y-146690500D01*
X134393465Y-146690500D01*
X134596420Y-146650130D01*
X134787598Y-146570941D01*
X134959655Y-146455977D01*
X135105977Y-146309655D01*
X135220941Y-146137598D01*
X135220942Y-146137594D01*
X135222205Y-146135705D01*
X135269297Y-146104239D01*
X135302887Y-146105339D01*
X135306811Y-146106390D01*
X135306814Y-146106392D01*
X135434105Y-146140499D01*
X135434106Y-146140500D01*
X135434108Y-146140500D01*
X135565894Y-146140500D01*
X135565894Y-146140499D01*
X135693186Y-146106392D01*
X135788500Y-146051361D01*
X135844652Y-146043969D01*
X135889586Y-146078448D01*
X135899500Y-146115448D01*
X135899500Y-147742034D01*
X135877826Y-147794360D01*
X135799500Y-147872685D01*
X135733610Y-147986809D01*
X135733606Y-147986818D01*
X135699500Y-148114105D01*
X135699500Y-148245894D01*
X135733606Y-148373181D01*
X135733607Y-148373184D01*
X135733608Y-148373186D01*
X135799500Y-148487314D01*
X135892686Y-148580500D01*
X136006814Y-148646392D01*
X136134105Y-148680499D01*
X136134106Y-148680500D01*
X136134108Y-148680500D01*
X136265894Y-148680500D01*
X136265894Y-148680499D01*
X136393186Y-148646392D01*
X136507314Y-148580500D01*
X136600500Y-148487314D01*
X136666392Y-148373186D01*
X136700499Y-148245894D01*
X136700500Y-148245894D01*
X136700500Y-148114106D01*
X136700499Y-148114105D01*
X136666393Y-147986818D01*
X136666392Y-147986814D01*
X136600500Y-147872686D01*
X136522174Y-147794360D01*
X136500500Y-147742034D01*
X136500500Y-114327966D01*
X136522174Y-114275640D01*
X136535129Y-114262685D01*
X136600500Y-114197314D01*
X136666392Y-114083186D01*
X136700499Y-113955894D01*
X136700500Y-113955894D01*
X136700500Y-113824106D01*
X136700499Y-113824105D01*
X136666393Y-113696818D01*
X136666392Y-113696814D01*
X136600500Y-113582686D01*
X136507314Y-113489500D01*
X136414608Y-113435976D01*
X136393190Y-113423610D01*
X136393181Y-113423606D01*
X136265894Y-113389500D01*
X136265892Y-113389500D01*
X136134108Y-113389500D01*
X136134106Y-113389500D01*
X136006818Y-113423606D01*
X136006809Y-113423610D01*
X135892685Y-113489500D01*
X135799500Y-113582685D01*
X135733610Y-113696809D01*
X135733606Y-113696818D01*
X135699500Y-113824105D01*
X135699500Y-113955894D01*
X135733606Y-114083181D01*
X135733610Y-114083190D01*
X135799500Y-114197314D01*
X135877826Y-114275640D01*
X135899500Y-114327966D01*
X135899500Y-115954551D01*
X135877826Y-116006877D01*
X135825500Y-116028551D01*
X135788500Y-116018637D01*
X135693190Y-115963610D01*
X135693181Y-115963606D01*
X135565894Y-115929500D01*
X135565892Y-115929500D01*
X135434108Y-115929500D01*
X135434106Y-115929500D01*
X135306818Y-115963606D01*
X135306809Y-115963610D01*
X135192685Y-116029500D01*
X135099500Y-116122685D01*
X135033610Y-116236809D01*
X135033606Y-116236818D01*
X134999500Y-116364105D01*
X134999500Y-116495894D01*
X135033606Y-116623181D01*
X135033610Y-116623190D01*
X135099500Y-116737314D01*
X135177826Y-116815640D01*
X135199500Y-116867966D01*
X135199500Y-116945216D01*
X135177826Y-116997542D01*
X135125500Y-117019216D01*
X135073174Y-116997542D01*
X134959654Y-116884022D01*
X134787598Y-116769059D01*
X134596420Y-116689870D01*
X134596413Y-116689868D01*
X134443516Y-116659455D01*
X134393465Y-116649500D01*
X134186535Y-116649500D01*
X134146385Y-116657486D01*
X133983586Y-116689868D01*
X133983579Y-116689870D01*
X133792401Y-116769059D01*
X133620345Y-116884022D01*
X133620344Y-116884024D01*
X133474024Y-117030344D01*
X133474022Y-117030345D01*
X133359059Y-117202401D01*
X133279870Y-117393579D01*
X133279868Y-117393586D01*
X133239500Y-117596535D01*
X131700500Y-117596535D01*
X131700500Y-115056535D01*
X133239500Y-115056535D01*
X133239500Y-115263464D01*
X133279868Y-115466413D01*
X133279870Y-115466420D01*
X133359059Y-115657598D01*
X133435102Y-115771406D01*
X133474023Y-115829655D01*
X133620345Y-115975977D01*
X133792402Y-116090941D01*
X133983580Y-116170130D01*
X134186535Y-116210500D01*
X134186536Y-116210500D01*
X134393464Y-116210500D01*
X134393465Y-116210500D01*
X134596420Y-116170130D01*
X134787598Y-116090941D01*
X134959655Y-115975977D01*
X135105977Y-115829655D01*
X135220941Y-115657598D01*
X135300130Y-115466420D01*
X135340500Y-115263465D01*
X135340500Y-115056535D01*
X135300130Y-114853580D01*
X135220941Y-114662402D01*
X135105977Y-114490345D01*
X134959655Y-114344023D01*
X134885439Y-114294434D01*
X134787598Y-114229059D01*
X134596420Y-114149870D01*
X134596413Y-114149868D01*
X134443516Y-114119455D01*
X134393465Y-114109500D01*
X134186535Y-114109500D01*
X134146385Y-114117486D01*
X133983586Y-114149868D01*
X133983579Y-114149870D01*
X133792401Y-114229059D01*
X133620345Y-114344022D01*
X133620344Y-114344024D01*
X133474024Y-114490344D01*
X133474022Y-114490345D01*
X133359059Y-114662401D01*
X133279870Y-114853579D01*
X133279868Y-114853586D01*
X133239500Y-115056535D01*
X131700500Y-115056535D01*
X131700500Y-113095448D01*
X131722174Y-113043122D01*
X131774500Y-113021448D01*
X131811499Y-113031361D01*
X131906814Y-113086392D01*
X132034105Y-113120499D01*
X132034106Y-113120500D01*
X132034108Y-113120500D01*
X132165894Y-113120500D01*
X132165894Y-113120499D01*
X132293186Y-113086392D01*
X132407314Y-113020500D01*
X132500500Y-112927314D01*
X132566392Y-112813186D01*
X132600499Y-112685894D01*
X132600500Y-112685894D01*
X132600500Y-112554106D01*
X132600499Y-112554105D01*
X132594591Y-112532053D01*
X132590433Y-112516535D01*
X133239500Y-112516535D01*
X133239500Y-112723464D01*
X133279868Y-112926413D01*
X133279870Y-112926420D01*
X133359059Y-113117598D01*
X133474023Y-113289655D01*
X133620345Y-113435977D01*
X133792402Y-113550941D01*
X133983580Y-113630130D01*
X134186535Y-113670500D01*
X134186536Y-113670500D01*
X134393464Y-113670500D01*
X134393465Y-113670500D01*
X134596420Y-113630130D01*
X134787598Y-113550941D01*
X134959655Y-113435977D01*
X135105977Y-113289655D01*
X135220941Y-113117598D01*
X135300130Y-112926420D01*
X135340500Y-112723465D01*
X135340500Y-112516535D01*
X135300130Y-112313580D01*
X135220941Y-112122402D01*
X135105977Y-111950345D01*
X134959655Y-111804023D01*
X134954382Y-111800500D01*
X134787598Y-111689059D01*
X134596420Y-111609870D01*
X134596413Y-111609868D01*
X134443516Y-111579455D01*
X134393465Y-111569500D01*
X134186535Y-111569500D01*
X134146385Y-111577486D01*
X133983586Y-111609868D01*
X133983579Y-111609870D01*
X133792401Y-111689059D01*
X133620345Y-111804022D01*
X133620344Y-111804024D01*
X133474024Y-111950344D01*
X133474022Y-111950345D01*
X133359059Y-112122401D01*
X133279870Y-112313579D01*
X133279868Y-112313586D01*
X133239500Y-112516535D01*
X132590433Y-112516535D01*
X132566393Y-112426818D01*
X132566392Y-112426814D01*
X132500500Y-112312686D01*
X132422174Y-112234360D01*
X132400500Y-112182034D01*
X132400500Y-110555448D01*
X132422174Y-110503122D01*
X132474500Y-110481448D01*
X132511499Y-110491361D01*
X132606814Y-110546392D01*
X132734105Y-110580499D01*
X132734106Y-110580500D01*
X132734108Y-110580500D01*
X132865894Y-110580500D01*
X132865894Y-110580499D01*
X132993186Y-110546392D01*
X133107314Y-110480500D01*
X133178574Y-110409239D01*
X133230899Y-110387566D01*
X133283225Y-110409240D01*
X133299266Y-110433247D01*
X133340838Y-110533610D01*
X133359059Y-110577598D01*
X133474023Y-110749655D01*
X133620345Y-110895977D01*
X133792402Y-111010941D01*
X133983580Y-111090130D01*
X134186535Y-111130500D01*
X134186536Y-111130500D01*
X134393464Y-111130500D01*
X134393465Y-111130500D01*
X134596420Y-111090130D01*
X134787598Y-111010941D01*
X134959655Y-110895977D01*
X135105977Y-110749655D01*
X135220941Y-110577598D01*
X135300130Y-110386420D01*
X135340500Y-110183465D01*
X135340500Y-109976535D01*
X135300130Y-109773580D01*
X135220941Y-109582402D01*
X135105977Y-109410345D01*
X134959655Y-109264023D01*
X134954382Y-109260500D01*
X134787598Y-109149059D01*
X134596420Y-109069870D01*
X134596413Y-109069868D01*
X134443516Y-109039455D01*
X134393465Y-109029500D01*
X134186535Y-109029500D01*
X134146385Y-109037486D01*
X133983586Y-109069868D01*
X133983579Y-109069870D01*
X133792401Y-109149059D01*
X133620345Y-109264022D01*
X133620344Y-109264024D01*
X133474024Y-109410344D01*
X133474022Y-109410345D01*
X133359059Y-109582401D01*
X133299266Y-109726752D01*
X133259217Y-109766800D01*
X133202580Y-109766800D01*
X133178573Y-109750759D01*
X133122174Y-109694360D01*
X133100500Y-109642034D01*
X133100500Y-105155998D01*
X133122174Y-105103672D01*
X133174500Y-105081998D01*
X133226826Y-105103672D01*
X133247078Y-105141562D01*
X133279868Y-105306413D01*
X133279870Y-105306420D01*
X133359059Y-105497598D01*
X133474023Y-105669655D01*
X133620345Y-105815977D01*
X133792402Y-105930941D01*
X133983580Y-106010130D01*
X134186535Y-106050500D01*
X134186536Y-106050500D01*
X134393464Y-106050500D01*
X134393465Y-106050500D01*
X134596420Y-106010130D01*
X134787598Y-105930941D01*
X134959655Y-105815977D01*
X135105977Y-105669655D01*
X135220941Y-105497598D01*
X135300130Y-105306420D01*
X135340500Y-105103465D01*
X135340500Y-104896535D01*
X135300130Y-104693580D01*
X135220941Y-104502402D01*
X135105977Y-104330345D01*
X134959655Y-104184023D01*
X134955801Y-104181448D01*
X134787598Y-104069059D01*
X134596420Y-103989870D01*
X134596413Y-103989868D01*
X134443516Y-103959455D01*
X134393465Y-103949500D01*
X134186535Y-103949500D01*
X134146385Y-103957486D01*
X133983586Y-103989868D01*
X133983579Y-103989870D01*
X133792401Y-104069059D01*
X133620345Y-104184022D01*
X133620344Y-104184024D01*
X133474024Y-104330344D01*
X133474022Y-104330345D01*
X133359059Y-104502401D01*
X133279870Y-104693579D01*
X133279868Y-104693586D01*
X133239500Y-104896535D01*
X133239500Y-104967107D01*
X133217826Y-105019433D01*
X133165500Y-105041107D01*
X133113174Y-105019433D01*
X133094022Y-104986260D01*
X133080022Y-104934014D01*
X133080020Y-104934009D01*
X133040459Y-104865488D01*
X132984511Y-104809540D01*
X132915990Y-104769979D01*
X132915985Y-104769977D01*
X132839564Y-104749500D01*
X132839562Y-104749500D01*
X127837966Y-104749500D01*
X127785640Y-104727826D01*
X127707314Y-104649500D01*
X127593190Y-104583610D01*
X127593181Y-104583606D01*
X127465894Y-104549500D01*
X127465892Y-104549500D01*
X127334108Y-104549500D01*
X127334106Y-104549500D01*
X127206818Y-104583606D01*
X127206809Y-104583610D01*
X127092685Y-104649500D01*
X126999500Y-104742685D01*
X126933610Y-104856809D01*
X126933606Y-104856818D01*
X126899500Y-104984105D01*
X126899500Y-105115894D01*
X126933606Y-105243181D01*
X126933607Y-105243184D01*
X126933608Y-105243186D01*
X126999500Y-105357314D01*
X127092686Y-105450500D01*
X127206814Y-105516392D01*
X127334105Y-105550499D01*
X127334106Y-105550500D01*
X127334108Y-105550500D01*
X127465894Y-105550500D01*
X127465894Y-105550499D01*
X127593186Y-105516392D01*
X127707314Y-105450500D01*
X127785640Y-105372174D01*
X127837966Y-105350500D01*
X132425500Y-105350500D01*
X132477826Y-105372174D01*
X132499500Y-105424500D01*
X132499500Y-106134782D01*
X132477826Y-106187108D01*
X132425500Y-106208782D01*
X132373174Y-106187108D01*
X132361414Y-106171782D01*
X132340459Y-106135488D01*
X132284511Y-106079540D01*
X132215990Y-106039979D01*
X132215985Y-106039977D01*
X132139564Y-106019500D01*
X132139562Y-106019500D01*
X127837966Y-106019500D01*
X127785640Y-105997826D01*
X127707314Y-105919500D01*
X127593190Y-105853610D01*
X127593181Y-105853606D01*
X127465894Y-105819500D01*
X127465892Y-105819500D01*
X127334108Y-105819500D01*
X127334106Y-105819500D01*
X127206818Y-105853606D01*
X127206809Y-105853610D01*
X127092685Y-105919500D01*
X126999500Y-106012685D01*
X126933610Y-106126809D01*
X126933606Y-106126818D01*
X126899500Y-106254105D01*
X126899500Y-106385894D01*
X126933606Y-106513181D01*
X126933610Y-106513190D01*
X126960347Y-106559500D01*
X126999500Y-106627314D01*
X127092686Y-106720500D01*
X127206814Y-106786392D01*
X127334105Y-106820499D01*
X127334106Y-106820500D01*
X127334108Y-106820500D01*
X127465894Y-106820500D01*
X127465894Y-106820499D01*
X127593186Y-106786392D01*
X127707314Y-106720500D01*
X127785640Y-106642174D01*
X127837966Y-106620500D01*
X131725500Y-106620500D01*
X131777826Y-106642174D01*
X131799500Y-106694500D01*
X131799500Y-107404782D01*
X131777826Y-107457108D01*
X131725500Y-107478782D01*
X131673174Y-107457108D01*
X131661414Y-107441782D01*
X131640459Y-107405488D01*
X131584511Y-107349540D01*
X131515990Y-107309979D01*
X131515985Y-107309977D01*
X131439564Y-107289500D01*
X131439562Y-107289500D01*
X127837966Y-107289500D01*
X127785640Y-107267826D01*
X127707314Y-107189500D01*
X127593190Y-107123610D01*
X127593181Y-107123606D01*
X127465894Y-107089500D01*
X127465892Y-107089500D01*
X127334108Y-107089500D01*
X127334106Y-107089500D01*
X127206818Y-107123606D01*
X127206809Y-107123610D01*
X127092685Y-107189500D01*
X126999500Y-107282685D01*
X126933610Y-107396809D01*
X126933606Y-107396818D01*
X126899500Y-107524105D01*
X126899500Y-107655894D01*
X126933606Y-107783181D01*
X126933610Y-107783190D01*
X126948302Y-107808637D01*
X126999500Y-107897314D01*
X127092686Y-107990500D01*
X127206814Y-108056392D01*
X127334105Y-108090499D01*
X127334106Y-108090500D01*
X127334108Y-108090500D01*
X127465894Y-108090500D01*
X127465894Y-108090499D01*
X127593186Y-108056392D01*
X127707314Y-107990500D01*
X127785640Y-107912174D01*
X127837966Y-107890500D01*
X131025500Y-107890500D01*
X131077826Y-107912174D01*
X131099500Y-107964500D01*
X131099500Y-108674784D01*
X131077826Y-108727110D01*
X131025500Y-108748784D01*
X130973174Y-108727110D01*
X130961414Y-108711784D01*
X130940458Y-108675488D01*
X130884510Y-108619540D01*
X130815989Y-108579979D01*
X130815984Y-108579977D01*
X130739563Y-108559500D01*
X130739561Y-108559500D01*
X127837966Y-108559500D01*
X127785640Y-108537826D01*
X127707314Y-108459500D01*
X127593190Y-108393610D01*
X127593181Y-108393606D01*
X127465894Y-108359500D01*
X127465892Y-108359500D01*
X127334108Y-108359500D01*
X127334106Y-108359500D01*
X127206818Y-108393606D01*
X127206809Y-108393610D01*
X127092685Y-108459500D01*
X126999500Y-108552685D01*
X126933610Y-108666809D01*
X126933606Y-108666818D01*
X126899500Y-108794105D01*
X126899500Y-108925894D01*
X126933606Y-109053181D01*
X126933610Y-109053190D01*
X126988960Y-109149059D01*
X126999500Y-109167314D01*
X127092686Y-109260500D01*
X127206814Y-109326392D01*
X127334105Y-109360499D01*
X127334106Y-109360500D01*
X127334108Y-109360500D01*
X127465894Y-109360500D01*
X127465894Y-109360499D01*
X127593186Y-109326392D01*
X127707314Y-109260500D01*
X127785640Y-109182174D01*
X127837966Y-109160500D01*
X130325499Y-109160500D01*
X130377825Y-109182174D01*
X130399499Y-109234500D01*
X130399499Y-109944780D01*
X130377825Y-109997106D01*
X130325499Y-110018780D01*
X130273173Y-109997106D01*
X130261413Y-109981781D01*
X130258384Y-109976535D01*
X130240460Y-109945489D01*
X130184511Y-109889540D01*
X130159606Y-109875161D01*
X130115990Y-109849979D01*
X130115985Y-109849977D01*
X130039564Y-109829500D01*
X130039562Y-109829500D01*
X127837966Y-109829500D01*
X127785640Y-109807826D01*
X127707314Y-109729500D01*
X127593190Y-109663610D01*
X127593181Y-109663606D01*
X127465894Y-109629500D01*
X127465892Y-109629500D01*
X127334108Y-109629500D01*
X127334106Y-109629500D01*
X127206818Y-109663606D01*
X127206809Y-109663610D01*
X127092685Y-109729500D01*
X126999500Y-109822685D01*
X126933610Y-109936809D01*
X126933606Y-109936818D01*
X126899500Y-110064105D01*
X126899500Y-110195894D01*
X126933606Y-110323181D01*
X126933607Y-110323184D01*
X126933608Y-110323186D01*
X126999500Y-110437314D01*
X127092686Y-110530500D01*
X127206814Y-110596392D01*
X127334105Y-110630499D01*
X127334106Y-110630500D01*
X127334108Y-110630500D01*
X127465894Y-110630500D01*
X127465894Y-110630499D01*
X127593186Y-110596392D01*
X127707314Y-110530500D01*
X127785640Y-110452174D01*
X127837966Y-110430500D01*
X129625500Y-110430500D01*
X129677826Y-110452174D01*
X129699500Y-110504500D01*
X129699500Y-111214782D01*
X129677826Y-111267108D01*
X129625500Y-111288782D01*
X129573174Y-111267108D01*
X129561414Y-111251782D01*
X129540459Y-111215488D01*
X129484511Y-111159540D01*
X129415990Y-111119979D01*
X129415985Y-111119977D01*
X129339564Y-111099500D01*
X129339562Y-111099500D01*
X127837966Y-111099500D01*
X127785640Y-111077826D01*
X127707314Y-110999500D01*
X127593190Y-110933610D01*
X127593181Y-110933606D01*
X127465894Y-110899500D01*
X127465892Y-110899500D01*
X127334108Y-110899500D01*
X127334106Y-110899500D01*
X127206818Y-110933606D01*
X127206809Y-110933610D01*
X127092685Y-110999500D01*
X126999500Y-111092685D01*
X126933610Y-111206809D01*
X126933606Y-111206818D01*
X126899500Y-111334105D01*
X126899500Y-111465894D01*
X126933606Y-111593181D01*
X126933610Y-111593190D01*
X126956946Y-111633608D01*
X126999500Y-111707314D01*
X127092686Y-111800500D01*
X127206814Y-111866392D01*
X127334105Y-111900499D01*
X127334106Y-111900500D01*
X127334108Y-111900500D01*
X127465894Y-111900500D01*
X127465894Y-111900499D01*
X127593186Y-111866392D01*
X127707314Y-111800500D01*
X127785640Y-111722174D01*
X127837966Y-111700500D01*
X128925500Y-111700500D01*
X128977826Y-111722174D01*
X128999500Y-111774500D01*
X128999500Y-132502034D01*
X128977826Y-132554360D01*
X128899500Y-132632685D01*
X128838586Y-132738191D01*
X128793652Y-132772670D01*
X128737500Y-132765277D01*
X128703021Y-132720343D01*
X128700500Y-132701191D01*
X128700500Y-112630436D01*
X128700499Y-112630435D01*
X128680022Y-112554014D01*
X128680020Y-112554009D01*
X128651398Y-112504434D01*
X128640460Y-112485489D01*
X128584511Y-112429540D01*
X128579781Y-112426809D01*
X128515990Y-112389979D01*
X128515985Y-112389977D01*
X128439564Y-112369500D01*
X128439562Y-112369500D01*
X127837966Y-112369500D01*
X127785640Y-112347826D01*
X127707314Y-112269500D01*
X127593190Y-112203610D01*
X127593181Y-112203606D01*
X127465894Y-112169500D01*
X127465892Y-112169500D01*
X127334108Y-112169500D01*
X127334106Y-112169500D01*
X127206818Y-112203606D01*
X127206809Y-112203610D01*
X127092685Y-112269500D01*
X126999500Y-112362685D01*
X126933610Y-112476809D01*
X126933606Y-112476818D01*
X126899500Y-112604105D01*
X126899500Y-112735894D01*
X126933606Y-112863181D01*
X126933607Y-112863184D01*
X126933608Y-112863186D01*
X126999500Y-112977314D01*
X127092686Y-113070500D01*
X127206814Y-113136392D01*
X127334105Y-113170499D01*
X127334106Y-113170500D01*
X127334108Y-113170500D01*
X127465894Y-113170500D01*
X127465894Y-113170499D01*
X127593186Y-113136392D01*
X127707314Y-113070500D01*
X127785640Y-112992174D01*
X127837966Y-112970500D01*
X128025500Y-112970500D01*
X128077826Y-112992174D01*
X128099500Y-113044500D01*
X128099500Y-117845877D01*
X128077826Y-117898203D01*
X128025500Y-117919877D01*
X127973174Y-117898203D01*
X127922174Y-117847203D01*
X127900500Y-117794877D01*
X127900500Y-117684106D01*
X127900499Y-117684105D01*
X127866393Y-117556818D01*
X127866392Y-117556814D01*
X127800500Y-117442686D01*
X127707314Y-117349500D01*
X127620712Y-117299500D01*
X127593190Y-117283610D01*
X127593181Y-117283606D01*
X127465894Y-117249500D01*
X127465892Y-117249500D01*
X127334108Y-117249500D01*
X127334106Y-117249500D01*
X127206818Y-117283606D01*
X127206809Y-117283610D01*
X127092685Y-117349500D01*
X126999500Y-117442685D01*
X126933610Y-117556809D01*
X126933606Y-117556818D01*
X126899500Y-117684105D01*
X126899500Y-117815894D01*
X126933606Y-117943181D01*
X126933610Y-117943190D01*
X126970112Y-118006413D01*
X126999500Y-118057314D01*
X127092686Y-118150500D01*
X127206814Y-118216392D01*
X127334105Y-118250499D01*
X127334106Y-118250500D01*
X127425500Y-118250500D01*
X127477826Y-118272174D01*
X127499500Y-118324500D01*
X127499500Y-123162034D01*
X127477826Y-123214360D01*
X127399500Y-123292685D01*
X127333610Y-123406809D01*
X127333607Y-123406817D01*
X127318353Y-123463743D01*
X127283874Y-123508676D01*
X127227722Y-123516067D01*
X127165894Y-123499500D01*
X127165892Y-123499500D01*
X127034108Y-123499500D01*
X127034106Y-123499500D01*
X126906818Y-123533606D01*
X126906809Y-123533610D01*
X126792685Y-123599500D01*
X126699500Y-123692685D01*
X126633610Y-123806809D01*
X126633606Y-123806818D01*
X126599500Y-123934105D01*
X124500500Y-123934105D01*
X124500500Y-123217966D01*
X124522174Y-123165640D01*
X124547674Y-123140140D01*
X124600000Y-123118466D01*
X124652326Y-123140140D01*
X124692686Y-123180500D01*
X124806814Y-123246392D01*
X124934105Y-123280499D01*
X124934106Y-123280500D01*
X124934108Y-123280500D01*
X125065894Y-123280500D01*
X125065894Y-123280499D01*
X125193186Y-123246392D01*
X125307314Y-123180500D01*
X125400500Y-123087314D01*
X125466392Y-122973186D01*
X125500499Y-122845894D01*
X125500500Y-122845894D01*
X125500500Y-122714106D01*
X125500499Y-122714105D01*
X125466393Y-122586818D01*
X125466392Y-122586814D01*
X125400500Y-122472686D01*
X125322174Y-122394360D01*
X125300500Y-122342034D01*
X125300500Y-122034105D01*
X125999500Y-122034105D01*
X125999500Y-122165894D01*
X126033606Y-122293181D01*
X126033610Y-122293190D01*
X126092021Y-122394360D01*
X126099500Y-122407314D01*
X126192686Y-122500500D01*
X126306814Y-122566392D01*
X126434105Y-122600499D01*
X126434106Y-122600500D01*
X126434108Y-122600500D01*
X126565894Y-122600500D01*
X126565894Y-122600499D01*
X126693186Y-122566392D01*
X126807314Y-122500500D01*
X126900500Y-122407314D01*
X126966392Y-122293186D01*
X127000499Y-122165894D01*
X127000500Y-122165894D01*
X127000500Y-122034106D01*
X127000499Y-122034105D01*
X126966393Y-121906818D01*
X126966392Y-121906814D01*
X126900500Y-121792686D01*
X126807314Y-121699500D01*
X126693190Y-121633610D01*
X126693181Y-121633606D01*
X126565894Y-121599500D01*
X126565892Y-121599500D01*
X126434108Y-121599500D01*
X126434106Y-121599500D01*
X126306818Y-121633606D01*
X126306809Y-121633610D01*
X126192685Y-121699500D01*
X126099500Y-121792685D01*
X126033610Y-121906809D01*
X126033606Y-121906818D01*
X125999500Y-122034105D01*
X125300500Y-122034105D01*
X125300500Y-119960436D01*
X125300499Y-119960435D01*
X125280022Y-119884014D01*
X125280020Y-119884009D01*
X125240459Y-119815488D01*
X125237743Y-119812772D01*
X125225983Y-119797446D01*
X125165500Y-119692686D01*
X125072314Y-119599500D01*
X125021816Y-119570345D01*
X124958190Y-119533610D01*
X124958181Y-119533606D01*
X124830894Y-119499500D01*
X124830892Y-119499500D01*
X124699108Y-119499500D01*
X124699106Y-119499500D01*
X124571818Y-119533606D01*
X124571809Y-119533610D01*
X124457685Y-119599500D01*
X124364500Y-119692685D01*
X124298610Y-119806809D01*
X124298606Y-119806818D01*
X124264500Y-119934105D01*
X124264500Y-120065894D01*
X124298606Y-120193181D01*
X124298607Y-120193184D01*
X124298608Y-120193186D01*
X124364500Y-120307314D01*
X124457686Y-120400500D01*
X124571814Y-120466392D01*
X124644653Y-120485909D01*
X124689586Y-120520387D01*
X124699500Y-120557387D01*
X124699500Y-122342034D01*
X124677826Y-122394360D01*
X124652326Y-122419860D01*
X124600000Y-122441534D01*
X124547674Y-122419860D01*
X124507314Y-122379500D01*
X124393190Y-122313610D01*
X124393181Y-122313606D01*
X124265894Y-122279500D01*
X124265892Y-122279500D01*
X124134108Y-122279500D01*
X124134106Y-122279500D01*
X124006818Y-122313606D01*
X124006809Y-122313610D01*
X123906500Y-122371524D01*
X123850347Y-122378916D01*
X123805414Y-122344438D01*
X123795500Y-122307438D01*
X123795500Y-120437966D01*
X123817174Y-120385640D01*
X123895500Y-120307314D01*
X123961392Y-120193186D01*
X123995499Y-120065894D01*
X123995500Y-120065894D01*
X123995500Y-119934106D01*
X123995499Y-119934105D01*
X123995358Y-119933580D01*
X123961392Y-119806814D01*
X123895500Y-119692686D01*
X123817174Y-119614360D01*
X123795500Y-119562034D01*
X123795500Y-116364105D01*
X123999500Y-116364105D01*
X123999500Y-116495894D01*
X124033606Y-116623181D01*
X124033607Y-116623184D01*
X124033608Y-116623186D01*
X124099500Y-116737314D01*
X124192686Y-116830500D01*
X124306814Y-116896392D01*
X124434105Y-116930499D01*
X124434106Y-116930500D01*
X124434108Y-116930500D01*
X124565894Y-116930500D01*
X124565894Y-116930499D01*
X124693186Y-116896392D01*
X124807314Y-116830500D01*
X124900500Y-116737314D01*
X124966392Y-116623186D01*
X125000499Y-116495894D01*
X125000500Y-116495894D01*
X125000500Y-116364106D01*
X125000499Y-116364105D01*
X124966393Y-116236818D01*
X124966392Y-116236814D01*
X124900500Y-116122686D01*
X124807314Y-116029500D01*
X124714608Y-115975976D01*
X124693190Y-115963610D01*
X124693181Y-115963606D01*
X124565894Y-115929500D01*
X124565892Y-115929500D01*
X124434108Y-115929500D01*
X124434106Y-115929500D01*
X124306818Y-115963606D01*
X124306809Y-115963610D01*
X124192685Y-116029500D01*
X124099500Y-116122685D01*
X124033610Y-116236809D01*
X124033606Y-116236818D01*
X123999500Y-116364105D01*
X123795500Y-116364105D01*
X123795500Y-115597966D01*
X123817174Y-115545640D01*
X123845500Y-115517314D01*
X123895500Y-115467314D01*
X123961392Y-115353186D01*
X123995499Y-115225894D01*
X123995500Y-115225894D01*
X123995500Y-115094106D01*
X123995499Y-115094105D01*
X123977113Y-115025488D01*
X123961392Y-114966814D01*
X123895500Y-114852686D01*
X123802314Y-114759500D01*
X123715712Y-114709500D01*
X123688190Y-114693610D01*
X123688181Y-114693606D01*
X123560894Y-114659500D01*
X123560892Y-114659500D01*
X123429108Y-114659500D01*
X123429106Y-114659500D01*
X123301818Y-114693606D01*
X123301809Y-114693610D01*
X123187685Y-114759500D01*
X123094500Y-114852685D01*
X123028610Y-114966809D01*
X123028606Y-114966818D01*
X122994500Y-115094105D01*
X122994500Y-115225894D01*
X123028606Y-115353181D01*
X123028610Y-115353190D01*
X123094500Y-115467314D01*
X123172826Y-115545640D01*
X123194500Y-115597966D01*
X123194500Y-119562034D01*
X123172826Y-119614360D01*
X123094500Y-119692685D01*
X123028610Y-119806809D01*
X123028606Y-119806818D01*
X122994500Y-119934105D01*
X122994500Y-120065894D01*
X123028606Y-120193181D01*
X123028610Y-120193190D01*
X123094500Y-120307314D01*
X123172826Y-120385640D01*
X123194500Y-120437966D01*
X123194500Y-123562034D01*
X123172826Y-123614360D01*
X123094500Y-123692685D01*
X123028610Y-123806809D01*
X123028606Y-123806818D01*
X122994500Y-123934105D01*
X122994500Y-124065894D01*
X123028606Y-124193181D01*
X123028610Y-124193190D01*
X123070872Y-124266389D01*
X123094500Y-124307314D01*
X123187686Y-124400500D01*
X123301814Y-124466392D01*
X123429105Y-124500499D01*
X123429106Y-124500500D01*
X123429108Y-124500500D01*
X123560894Y-124500500D01*
X123560894Y-124500499D01*
X123688186Y-124466392D01*
X123788501Y-124408474D01*
X123844652Y-124401082D01*
X123889586Y-124435561D01*
X123899500Y-124472561D01*
X123899500Y-126825500D01*
X123877826Y-126877826D01*
X123825500Y-126899500D01*
X121912966Y-126899500D01*
X121860640Y-126877826D01*
X121782314Y-126799500D01*
X121668190Y-126733610D01*
X121668181Y-126733606D01*
X121540894Y-126699500D01*
X121540892Y-126699500D01*
X121409108Y-126699500D01*
X121409106Y-126699500D01*
X121281818Y-126733606D01*
X121281809Y-126733610D01*
X121167685Y-126799500D01*
X121074500Y-126892685D01*
X121008610Y-127006809D01*
X121008606Y-127006818D01*
X120974500Y-127134105D01*
X118750500Y-127134105D01*
X118750500Y-124175834D01*
X118772174Y-124123508D01*
X119373508Y-123522174D01*
X119425834Y-123500500D01*
X119465894Y-123500500D01*
X119465894Y-123500499D01*
X119593186Y-123466392D01*
X119707314Y-123400500D01*
X119800500Y-123307314D01*
X119866392Y-123193186D01*
X119900499Y-123065894D01*
X119900500Y-123065894D01*
X119900500Y-122934106D01*
X119900499Y-122934105D01*
X119866393Y-122806818D01*
X119866392Y-122806814D01*
X119800500Y-122692686D01*
X119707314Y-122599500D01*
X119685333Y-122586809D01*
X119593190Y-122533610D01*
X119593181Y-122533606D01*
X119465894Y-122499500D01*
X119465892Y-122499500D01*
X119334108Y-122499500D01*
X119334106Y-122499500D01*
X119206818Y-122533606D01*
X119206809Y-122533610D01*
X119092685Y-122599500D01*
X118999500Y-122692685D01*
X118933610Y-122806809D01*
X118933606Y-122806818D01*
X118899500Y-122934105D01*
X118899500Y-122974166D01*
X118877826Y-123026492D01*
X118119530Y-123784787D01*
X118087388Y-123840460D01*
X118073386Y-123864710D01*
X118073384Y-123864715D01*
X118049500Y-123953853D01*
X118049500Y-145888843D01*
X118049398Y-145892732D01*
X118047559Y-145927658D01*
X118047885Y-145929190D01*
X118049500Y-145944564D01*
X118049500Y-145946146D01*
X118058556Y-145979948D01*
X118059463Y-145983727D01*
X118066726Y-146017933D01*
X118066729Y-146017939D01*
X118067444Y-146019344D01*
X118072972Y-146033745D01*
X118073386Y-146035288D01*
X118090884Y-146065595D01*
X118092732Y-146069000D01*
X118108605Y-146100172D01*
X118108606Y-146100174D01*
X118109654Y-146101337D01*
X118118748Y-146113856D01*
X118119528Y-146115208D01*
X118119532Y-146115213D01*
X118144251Y-146139932D01*
X118146929Y-146142754D01*
X118176847Y-146175996D01*
X118195741Y-146229389D01*
X118171347Y-146280504D01*
X118121843Y-146299500D01*
X103620941Y-146299500D01*
X103468220Y-146340421D01*
X103468214Y-146340424D01*
X103331283Y-146419480D01*
X103219480Y-146531283D01*
X103140424Y-146668214D01*
X103140421Y-146668220D01*
X103099500Y-146820940D01*
X103099500Y-154225500D01*
X103077826Y-154277826D01*
X103025500Y-154299500D01*
X102372964Y-154299500D01*
X102320638Y-154277826D01*
X102298964Y-154225500D01*
X102307987Y-154195759D01*
X102306077Y-154194968D01*
X102308866Y-154188233D01*
X102308866Y-154188232D01*
X102308867Y-154188231D01*
X102320500Y-154129748D01*
X102320500Y-152390252D01*
X102308867Y-152331769D01*
X102264552Y-152265448D01*
X102240685Y-152249500D01*
X102198232Y-152221133D01*
X102198233Y-152221133D01*
X102168989Y-152215316D01*
X102139748Y-152209500D01*
X100400252Y-152209500D01*
X100371010Y-152215316D01*
X100341767Y-152221133D01*
X100275449Y-152265447D01*
X100275447Y-152265449D01*
X100231133Y-152331767D01*
X100231133Y-152331769D01*
X100221727Y-152379059D01*
X100219500Y-152390253D01*
X100219500Y-152585500D01*
X100197826Y-152637826D01*
X100145500Y-152659500D01*
X98974500Y-152659500D01*
X98922174Y-152637826D01*
X98900500Y-152585500D01*
X98900500Y-148076535D01*
X100219500Y-148076535D01*
X100219500Y-148283464D01*
X100259868Y-148486413D01*
X100259870Y-148486420D01*
X100339059Y-148677598D01*
X100454023Y-148849655D01*
X100600345Y-148995977D01*
X100772402Y-149110941D01*
X100963580Y-149190130D01*
X101166535Y-149230500D01*
X101166536Y-149230500D01*
X101373464Y-149230500D01*
X101373465Y-149230500D01*
X101576420Y-149190130D01*
X101767598Y-149110941D01*
X101939655Y-148995977D01*
X102085977Y-148849655D01*
X102200941Y-148677598D01*
X102280130Y-148486420D01*
X102320500Y-148283465D01*
X102320500Y-148076535D01*
X102280130Y-147873580D01*
X102200941Y-147682402D01*
X102085977Y-147510345D01*
X101939655Y-147364023D01*
X101767598Y-147249059D01*
X101576420Y-147169870D01*
X101576413Y-147169868D01*
X101423516Y-147139455D01*
X101373465Y-147129500D01*
X101166535Y-147129500D01*
X101126385Y-147137486D01*
X100963586Y-147169868D01*
X100963579Y-147169870D01*
X100772401Y-147249059D01*
X100600345Y-147364022D01*
X100600344Y-147364024D01*
X100454024Y-147510344D01*
X100454022Y-147510345D01*
X100339059Y-147682401D01*
X100259870Y-147873579D01*
X100259868Y-147873586D01*
X100219500Y-148076535D01*
X98900500Y-148076535D01*
X98900500Y-145536535D01*
X100219500Y-145536535D01*
X100219500Y-145743464D01*
X100259868Y-145946413D01*
X100259870Y-145946420D01*
X100339059Y-146137598D01*
X100447237Y-146299500D01*
X100454023Y-146309655D01*
X100600345Y-146455977D01*
X100772402Y-146570941D01*
X100963580Y-146650130D01*
X101166535Y-146690500D01*
X101166536Y-146690500D01*
X101373464Y-146690500D01*
X101373465Y-146690500D01*
X101576420Y-146650130D01*
X101767598Y-146570941D01*
X101939655Y-146455977D01*
X102085977Y-146309655D01*
X102200941Y-146137598D01*
X102280130Y-145946420D01*
X102320500Y-145743465D01*
X102320500Y-145536535D01*
X102280130Y-145333580D01*
X102200941Y-145142402D01*
X102085977Y-144970345D01*
X101939655Y-144824023D01*
X101767598Y-144709059D01*
X101576420Y-144629870D01*
X101576413Y-144629868D01*
X101423516Y-144599455D01*
X101373465Y-144589500D01*
X101166535Y-144589500D01*
X101126385Y-144597486D01*
X100963586Y-144629868D01*
X100963579Y-144629870D01*
X100772401Y-144709059D01*
X100600345Y-144824022D01*
X100600344Y-144824024D01*
X100454024Y-144970344D01*
X100454022Y-144970345D01*
X100339059Y-145142401D01*
X100259870Y-145333579D01*
X100259868Y-145333586D01*
X100219500Y-145536535D01*
X98900500Y-145536535D01*
X98900500Y-104255448D01*
X98922174Y-104203122D01*
X98974500Y-104181448D01*
X99011499Y-104191361D01*
X99106814Y-104246392D01*
X99234105Y-104280499D01*
X99234106Y-104280500D01*
X99234108Y-104280500D01*
X99365894Y-104280500D01*
X99365894Y-104280499D01*
X99493186Y-104246392D01*
X99607314Y-104180500D01*
X99685640Y-104102174D01*
X99737966Y-104080500D01*
X100525216Y-104080500D01*
X100577542Y-104102174D01*
X100599216Y-104154500D01*
X100577542Y-104206826D01*
X100454024Y-104330344D01*
X100454022Y-104330345D01*
X100339059Y-104502401D01*
X100259870Y-104693579D01*
X100259868Y-104693586D01*
X100219500Y-104896535D01*
X100219500Y-105103464D01*
X100259868Y-105306413D01*
X100259870Y-105306420D01*
X100339059Y-105497598D01*
X100454023Y-105669655D01*
X100600345Y-105815977D01*
X100772402Y-105930941D01*
X100963580Y-106010130D01*
X101166535Y-106050500D01*
X101166536Y-106050500D01*
X101373464Y-106050500D01*
X101373465Y-106050500D01*
X101576420Y-106010130D01*
X101767598Y-105930941D01*
X101939655Y-105815977D01*
X102085977Y-105669655D01*
X102163972Y-105552926D01*
X102211063Y-105521461D01*
X102266612Y-105532510D01*
X102298078Y-105579602D01*
X102299500Y-105594039D01*
X102299500Y-106945960D01*
X102277826Y-106998286D01*
X102225500Y-107019960D01*
X102173174Y-106998286D01*
X102163971Y-106987072D01*
X102085977Y-106870345D01*
X101939654Y-106724022D01*
X101767598Y-106609059D01*
X101576420Y-106529870D01*
X101576413Y-106529868D01*
X101394107Y-106493606D01*
X101373465Y-106489500D01*
X101166535Y-106489500D01*
X101145893Y-106493606D01*
X100963586Y-106529868D01*
X100963579Y-106529870D01*
X100772401Y-106609059D01*
X100600345Y-106724022D01*
X100600344Y-106724024D01*
X100454024Y-106870344D01*
X100454022Y-106870345D01*
X100339059Y-107042401D01*
X100259870Y-107233579D01*
X100259868Y-107233586D01*
X100219500Y-107436535D01*
X100219500Y-107643464D01*
X100259868Y-107846413D01*
X100259870Y-107846420D01*
X100339059Y-108037598D01*
X100454023Y-108209655D01*
X100600345Y-108355977D01*
X100772402Y-108470941D01*
X100963580Y-108550130D01*
X101166535Y-108590500D01*
X101166536Y-108590500D01*
X101373464Y-108590500D01*
X101373465Y-108590500D01*
X101576420Y-108550130D01*
X101767598Y-108470941D01*
X101939655Y-108355977D01*
X102085977Y-108209655D01*
X102163972Y-108092926D01*
X102211063Y-108061461D01*
X102266612Y-108072510D01*
X102298078Y-108119602D01*
X102299500Y-108134039D01*
X102299500Y-109485960D01*
X102277826Y-109538286D01*
X102225500Y-109559960D01*
X102173174Y-109538286D01*
X102163971Y-109527072D01*
X102085977Y-109410345D01*
X101939654Y-109264022D01*
X101767598Y-109149059D01*
X101576420Y-109069870D01*
X101576413Y-109069868D01*
X101423516Y-109039455D01*
X101373465Y-109029500D01*
X101166535Y-109029500D01*
X101126385Y-109037486D01*
X100963586Y-109069868D01*
X100963579Y-109069870D01*
X100772401Y-109149059D01*
X100600345Y-109264022D01*
X100600344Y-109264024D01*
X100454024Y-109410344D01*
X100454022Y-109410345D01*
X100339059Y-109582401D01*
X100259870Y-109773579D01*
X100259868Y-109773586D01*
X100219500Y-109976535D01*
X100219500Y-110183464D01*
X100259868Y-110386413D01*
X100259870Y-110386420D01*
X100339059Y-110577598D01*
X100454023Y-110749655D01*
X100600345Y-110895977D01*
X100772402Y-111010941D01*
X100963580Y-111090130D01*
X101166535Y-111130500D01*
X101166536Y-111130500D01*
X101373464Y-111130500D01*
X101373465Y-111130500D01*
X101576420Y-111090130D01*
X101767598Y-111010941D01*
X101939655Y-110895977D01*
X102085977Y-110749655D01*
X102163972Y-110632926D01*
X102211063Y-110601461D01*
X102266612Y-110612510D01*
X102298078Y-110659602D01*
X102299500Y-110674039D01*
X102299500Y-112025960D01*
X102277826Y-112078286D01*
X102225500Y-112099960D01*
X102173174Y-112078286D01*
X102163971Y-112067072D01*
X102085977Y-111950345D01*
X101939654Y-111804022D01*
X101767598Y-111689059D01*
X101576420Y-111609870D01*
X101576413Y-111609868D01*
X101423516Y-111579455D01*
X101373465Y-111569500D01*
X101166535Y-111569500D01*
X101126385Y-111577486D01*
X100963586Y-111609868D01*
X100963579Y-111609870D01*
X100772401Y-111689059D01*
X100600345Y-111804022D01*
X100600344Y-111804024D01*
X100454024Y-111950344D01*
X100454022Y-111950345D01*
X100339059Y-112122401D01*
X100259870Y-112313579D01*
X100259868Y-112313586D01*
X100219500Y-112516535D01*
X100219500Y-112723464D01*
X100259868Y-112926413D01*
X100259870Y-112926420D01*
X100339059Y-113117598D01*
X100454023Y-113289655D01*
X100600345Y-113435977D01*
X100772402Y-113550941D01*
X100963580Y-113630130D01*
X101166535Y-113670500D01*
X101166536Y-113670500D01*
X101373464Y-113670500D01*
X101373465Y-113670500D01*
X101576420Y-113630130D01*
X101767598Y-113550941D01*
X101939655Y-113435977D01*
X102085977Y-113289655D01*
X102163972Y-113172926D01*
X102211063Y-113141461D01*
X102266612Y-113152510D01*
X102298078Y-113199602D01*
X102299500Y-113214039D01*
X102299500Y-114565960D01*
X102277826Y-114618286D01*
X102225500Y-114639960D01*
X102173174Y-114618286D01*
X102163971Y-114607072D01*
X102085977Y-114490345D01*
X101939654Y-114344022D01*
X101767598Y-114229059D01*
X101576420Y-114149870D01*
X101576413Y-114149868D01*
X101423516Y-114119455D01*
X101373465Y-114109500D01*
X101166535Y-114109500D01*
X101126385Y-114117486D01*
X100963586Y-114149868D01*
X100963579Y-114149870D01*
X100772401Y-114229059D01*
X100600345Y-114344022D01*
X100600344Y-114344024D01*
X100454024Y-114490344D01*
X100454022Y-114490345D01*
X100339059Y-114662401D01*
X100259870Y-114853579D01*
X100259868Y-114853586D01*
X100219500Y-115056535D01*
X100219500Y-115263464D01*
X100259868Y-115466413D01*
X100259870Y-115466420D01*
X100339059Y-115657598D01*
X100415102Y-115771406D01*
X100454023Y-115829655D01*
X100600345Y-115975977D01*
X100772402Y-116090941D01*
X100963580Y-116170130D01*
X101166535Y-116210500D01*
X101166536Y-116210500D01*
X101373464Y-116210500D01*
X101373465Y-116210500D01*
X101576420Y-116170130D01*
X101767598Y-116090941D01*
X101939655Y-115975977D01*
X102085977Y-115829655D01*
X102163972Y-115712926D01*
X102211063Y-115681461D01*
X102266612Y-115692510D01*
X102298078Y-115739602D01*
X102299500Y-115754039D01*
X102299500Y-117105960D01*
X102277826Y-117158286D01*
X102225500Y-117179960D01*
X102173174Y-117158286D01*
X102163971Y-117147072D01*
X102085977Y-117030345D01*
X101939654Y-116884022D01*
X101767598Y-116769059D01*
X101576420Y-116689870D01*
X101576413Y-116689868D01*
X101423516Y-116659455D01*
X101373465Y-116649500D01*
X101166535Y-116649500D01*
X101126385Y-116657486D01*
X100963586Y-116689868D01*
X100963579Y-116689870D01*
X100772401Y-116769059D01*
X100600345Y-116884022D01*
X100600344Y-116884024D01*
X100454024Y-117030344D01*
X100454022Y-117030345D01*
X100339059Y-117202401D01*
X100259870Y-117393579D01*
X100259868Y-117393586D01*
X100219500Y-117596535D01*
X100219500Y-117803464D01*
X100259868Y-118006413D01*
X100259870Y-118006420D01*
X100339059Y-118197598D01*
X100445445Y-118356818D01*
X100454023Y-118369655D01*
X100600345Y-118515977D01*
X100772402Y-118630941D01*
X100963580Y-118710130D01*
X101166535Y-118750500D01*
X101166536Y-118750500D01*
X101373464Y-118750500D01*
X101373465Y-118750500D01*
X101576420Y-118710130D01*
X101767598Y-118630941D01*
X101939655Y-118515977D01*
X102085977Y-118369655D01*
X102163972Y-118252926D01*
X102211063Y-118221461D01*
X102266612Y-118232510D01*
X102298078Y-118279602D01*
X102299500Y-118294039D01*
X102299500Y-119645960D01*
X102277826Y-119698286D01*
X102225500Y-119719960D01*
X102173174Y-119698286D01*
X102163971Y-119687072D01*
X102085977Y-119570345D01*
X101939654Y-119424022D01*
X101767598Y-119309059D01*
X101576420Y-119229870D01*
X101576413Y-119229868D01*
X101423516Y-119199455D01*
X101373465Y-119189500D01*
X101166535Y-119189500D01*
X101126385Y-119197486D01*
X100963586Y-119229868D01*
X100963579Y-119229870D01*
X100772401Y-119309059D01*
X100600345Y-119424022D01*
X100600344Y-119424024D01*
X100454024Y-119570344D01*
X100454022Y-119570345D01*
X100339059Y-119742401D01*
X100259870Y-119933579D01*
X100259868Y-119933586D01*
X100219500Y-120136535D01*
X100219500Y-120343464D01*
X100259868Y-120546413D01*
X100259870Y-120546420D01*
X100339059Y-120737598D01*
X100454023Y-120909655D01*
X100600345Y-121055977D01*
X100772402Y-121170941D01*
X100963580Y-121250130D01*
X101166535Y-121290500D01*
X101166536Y-121290500D01*
X101373464Y-121290500D01*
X101373465Y-121290500D01*
X101576420Y-121250130D01*
X101767598Y-121170941D01*
X101939655Y-121055977D01*
X102085977Y-120909655D01*
X102163972Y-120792926D01*
X102211063Y-120761461D01*
X102266612Y-120772510D01*
X102298078Y-120819602D01*
X102299500Y-120834039D01*
X102299500Y-122185960D01*
X102277826Y-122238286D01*
X102225500Y-122259960D01*
X102173174Y-122238286D01*
X102163971Y-122227072D01*
X102085977Y-122110345D01*
X101939654Y-121964022D01*
X101767598Y-121849059D01*
X101576420Y-121769870D01*
X101576413Y-121769868D01*
X101423516Y-121739455D01*
X101373465Y-121729500D01*
X101166535Y-121729500D01*
X101126385Y-121737486D01*
X100963586Y-121769868D01*
X100963579Y-121769870D01*
X100772401Y-121849059D01*
X100600345Y-121964022D01*
X100600344Y-121964024D01*
X100454024Y-122110344D01*
X100454022Y-122110345D01*
X100339059Y-122282401D01*
X100259870Y-122473579D01*
X100259868Y-122473586D01*
X100219500Y-122676535D01*
X100219500Y-122883464D01*
X100259868Y-123086413D01*
X100259870Y-123086420D01*
X100339059Y-123277598D01*
X100454023Y-123449655D01*
X100600345Y-123595977D01*
X100772402Y-123710941D01*
X100963580Y-123790130D01*
X101166535Y-123830500D01*
X101166536Y-123830500D01*
X101373464Y-123830500D01*
X101373465Y-123830500D01*
X101576420Y-123790130D01*
X101767598Y-123710941D01*
X101939655Y-123595977D01*
X102085977Y-123449655D01*
X102163972Y-123332926D01*
X102211063Y-123301461D01*
X102266612Y-123312510D01*
X102298078Y-123359602D01*
X102299500Y-123374039D01*
X102299500Y-124725960D01*
X102277826Y-124778286D01*
X102225500Y-124799960D01*
X102173174Y-124778286D01*
X102163971Y-124767072D01*
X102085977Y-124650345D01*
X101939654Y-124504022D01*
X101767598Y-124389059D01*
X101576420Y-124309870D01*
X101576413Y-124309868D01*
X101423516Y-124279455D01*
X101373465Y-124269500D01*
X101166535Y-124269500D01*
X101126385Y-124277486D01*
X100963586Y-124309868D01*
X100963579Y-124309870D01*
X100772401Y-124389059D01*
X100600345Y-124504022D01*
X100600344Y-124504024D01*
X100454024Y-124650344D01*
X100454022Y-124650345D01*
X100339059Y-124822401D01*
X100259870Y-125013579D01*
X100259868Y-125013586D01*
X100219500Y-125216535D01*
X100219500Y-125423465D01*
X100229455Y-125473516D01*
X100259868Y-125626413D01*
X100259870Y-125626420D01*
X100339059Y-125817598D01*
X100416906Y-125934106D01*
X100454023Y-125989655D01*
X100600345Y-126135977D01*
X100772402Y-126250941D01*
X100963580Y-126330130D01*
X101166535Y-126370500D01*
X101166536Y-126370500D01*
X101373464Y-126370500D01*
X101373465Y-126370500D01*
X101576420Y-126330130D01*
X101767598Y-126250941D01*
X101939655Y-126135977D01*
X102085977Y-125989655D01*
X102163972Y-125872926D01*
X102211063Y-125841461D01*
X102266612Y-125852510D01*
X102298078Y-125899602D01*
X102299500Y-125914039D01*
X102299500Y-127265960D01*
X102277826Y-127318286D01*
X102225500Y-127339960D01*
X102173174Y-127318286D01*
X102163971Y-127307072D01*
X102085977Y-127190345D01*
X101939654Y-127044022D01*
X101767598Y-126929059D01*
X101576420Y-126849870D01*
X101576413Y-126849868D01*
X101423516Y-126819455D01*
X101373465Y-126809500D01*
X101166535Y-126809500D01*
X101126385Y-126817486D01*
X100963586Y-126849868D01*
X100963579Y-126849870D01*
X100772401Y-126929059D01*
X100600345Y-127044022D01*
X100600344Y-127044024D01*
X100454024Y-127190344D01*
X100454022Y-127190345D01*
X100339059Y-127362401D01*
X100259870Y-127553579D01*
X100259868Y-127553586D01*
X100219500Y-127756535D01*
X100219500Y-127963464D01*
X100259868Y-128166413D01*
X100259870Y-128166420D01*
X100339059Y-128357598D01*
X100454023Y-128529655D01*
X100600345Y-128675977D01*
X100772402Y-128790941D01*
X100963580Y-128870130D01*
X101166535Y-128910500D01*
X101166536Y-128910500D01*
X101373464Y-128910500D01*
X101373465Y-128910500D01*
X101576420Y-128870130D01*
X101767598Y-128790941D01*
X101939655Y-128675977D01*
X102085977Y-128529655D01*
X102163972Y-128412926D01*
X102211063Y-128381461D01*
X102266612Y-128392510D01*
X102298078Y-128439602D01*
X102299500Y-128454039D01*
X102299500Y-129805960D01*
X102277826Y-129858286D01*
X102225500Y-129879960D01*
X102173174Y-129858286D01*
X102163971Y-129847072D01*
X102085977Y-129730345D01*
X101939654Y-129584022D01*
X101767598Y-129469059D01*
X101576420Y-129389870D01*
X101576413Y-129389868D01*
X101423516Y-129359455D01*
X101373465Y-129349500D01*
X101166535Y-129349500D01*
X101126385Y-129357486D01*
X100963586Y-129389868D01*
X100963579Y-129389870D01*
X100772401Y-129469059D01*
X100600345Y-129584022D01*
X100600344Y-129584024D01*
X100454024Y-129730344D01*
X100454022Y-129730345D01*
X100339059Y-129902401D01*
X100259870Y-130093579D01*
X100259868Y-130093586D01*
X100219500Y-130296535D01*
X100219500Y-130503464D01*
X100259868Y-130706413D01*
X100259870Y-130706420D01*
X100339059Y-130897598D01*
X100454023Y-131069655D01*
X100600345Y-131215977D01*
X100772402Y-131330941D01*
X100963580Y-131410130D01*
X101166535Y-131450500D01*
X101166536Y-131450500D01*
X101373464Y-131450500D01*
X101373465Y-131450500D01*
X101576420Y-131410130D01*
X101767598Y-131330941D01*
X101939655Y-131215977D01*
X102085977Y-131069655D01*
X102163972Y-130952926D01*
X102211063Y-130921461D01*
X102266612Y-130932510D01*
X102298078Y-130979602D01*
X102299500Y-130994039D01*
X102299500Y-132345960D01*
X102277826Y-132398286D01*
X102225500Y-132419960D01*
X102173174Y-132398286D01*
X102163971Y-132387072D01*
X102085977Y-132270345D01*
X101939654Y-132124022D01*
X101767598Y-132009059D01*
X101576420Y-131929870D01*
X101576413Y-131929868D01*
X101423516Y-131899455D01*
X101373465Y-131889500D01*
X101166535Y-131889500D01*
X101126385Y-131897486D01*
X100963586Y-131929868D01*
X100963579Y-131929870D01*
X100772401Y-132009059D01*
X100600345Y-132124022D01*
X100600344Y-132124024D01*
X100454024Y-132270344D01*
X100454022Y-132270345D01*
X100339059Y-132442401D01*
X100259870Y-132633579D01*
X100259868Y-132633586D01*
X100219500Y-132836535D01*
X100219500Y-133043464D01*
X100259868Y-133246413D01*
X100259870Y-133246420D01*
X100339059Y-133437598D01*
X100454023Y-133609655D01*
X100600345Y-133755977D01*
X100772402Y-133870941D01*
X100963580Y-133950130D01*
X101166535Y-133990500D01*
X101166536Y-133990500D01*
X101373464Y-133990500D01*
X101373465Y-133990500D01*
X101576420Y-133950130D01*
X101767598Y-133870941D01*
X101939655Y-133755977D01*
X102085977Y-133609655D01*
X102163972Y-133492926D01*
X102211063Y-133461461D01*
X102266612Y-133472510D01*
X102298078Y-133519602D01*
X102299500Y-133534039D01*
X102299500Y-134885960D01*
X102277826Y-134938286D01*
X102225500Y-134959960D01*
X102173174Y-134938286D01*
X102163971Y-134927072D01*
X102085977Y-134810345D01*
X101939654Y-134664022D01*
X101767598Y-134549059D01*
X101576420Y-134469870D01*
X101576413Y-134469868D01*
X101423516Y-134439455D01*
X101373465Y-134429500D01*
X101166535Y-134429500D01*
X101126385Y-134437486D01*
X100963586Y-134469868D01*
X100963579Y-134469870D01*
X100772401Y-134549059D01*
X100600345Y-134664022D01*
X100600344Y-134664024D01*
X100454024Y-134810344D01*
X100454022Y-134810345D01*
X100339059Y-134982401D01*
X100259870Y-135173579D01*
X100259868Y-135173586D01*
X100219500Y-135376535D01*
X100219500Y-135583464D01*
X100259868Y-135786413D01*
X100259870Y-135786420D01*
X100339059Y-135977598D01*
X100376817Y-136034108D01*
X100454023Y-136149655D01*
X100600345Y-136295977D01*
X100772402Y-136410941D01*
X100963580Y-136490130D01*
X101166535Y-136530500D01*
X101166536Y-136530500D01*
X101373464Y-136530500D01*
X101373465Y-136530500D01*
X101576420Y-136490130D01*
X101767598Y-136410941D01*
X101939655Y-136295977D01*
X102085977Y-136149655D01*
X102163972Y-136032926D01*
X102211063Y-136001461D01*
X102266612Y-136012510D01*
X102298078Y-136059602D01*
X102299500Y-136074039D01*
X102299500Y-137425960D01*
X102277826Y-137478286D01*
X102225500Y-137499960D01*
X102173174Y-137478286D01*
X102163971Y-137467072D01*
X102085977Y-137350345D01*
X101939654Y-137204022D01*
X101767598Y-137089059D01*
X101576420Y-137009870D01*
X101576413Y-137009868D01*
X101423516Y-136979455D01*
X101373465Y-136969500D01*
X101166535Y-136969500D01*
X101126385Y-136977486D01*
X100963586Y-137009868D01*
X100963579Y-137009870D01*
X100772401Y-137089059D01*
X100600345Y-137204022D01*
X100600344Y-137204024D01*
X100454024Y-137350344D01*
X100454022Y-137350345D01*
X100339059Y-137522401D01*
X100259870Y-137713579D01*
X100259868Y-137713586D01*
X100219500Y-137916535D01*
X100219500Y-138123464D01*
X100259868Y-138326413D01*
X100259870Y-138326420D01*
X100339059Y-138517598D01*
X100454023Y-138689655D01*
X100600345Y-138835977D01*
X100772402Y-138950941D01*
X100963580Y-139030130D01*
X101166535Y-139070500D01*
X101166536Y-139070500D01*
X101373464Y-139070500D01*
X101373465Y-139070500D01*
X101576420Y-139030130D01*
X101767598Y-138950941D01*
X101939655Y-138835977D01*
X102085977Y-138689655D01*
X102163972Y-138572926D01*
X102211063Y-138541461D01*
X102266612Y-138552510D01*
X102298078Y-138599602D01*
X102299500Y-138614039D01*
X102299500Y-139965960D01*
X102277826Y-140018286D01*
X102225500Y-140039960D01*
X102173174Y-140018286D01*
X102163971Y-140007072D01*
X102085977Y-139890345D01*
X101939654Y-139744022D01*
X101767598Y-139629059D01*
X101576420Y-139549870D01*
X101576413Y-139549868D01*
X101423516Y-139519455D01*
X101373465Y-139509500D01*
X101166535Y-139509500D01*
X101126385Y-139517486D01*
X100963586Y-139549868D01*
X100963579Y-139549870D01*
X100772401Y-139629059D01*
X100600345Y-139744022D01*
X100600344Y-139744024D01*
X100454024Y-139890344D01*
X100454022Y-139890345D01*
X100339059Y-140062401D01*
X100259870Y-140253579D01*
X100259868Y-140253586D01*
X100219500Y-140456535D01*
X100219500Y-140663464D01*
X100259868Y-140866413D01*
X100259870Y-140866420D01*
X100339059Y-141057598D01*
X100404222Y-141155123D01*
X100454023Y-141229655D01*
X100600345Y-141375977D01*
X100772402Y-141490941D01*
X100963580Y-141570130D01*
X101166535Y-141610500D01*
X101166536Y-141610500D01*
X101373464Y-141610500D01*
X101373465Y-141610500D01*
X101576420Y-141570130D01*
X101767598Y-141490941D01*
X101939655Y-141375977D01*
X102085977Y-141229655D01*
X102163972Y-141112926D01*
X102211063Y-141081461D01*
X102266612Y-141092510D01*
X102298078Y-141139602D01*
X102299500Y-141154039D01*
X102299500Y-142505960D01*
X102277826Y-142558286D01*
X102225500Y-142579960D01*
X102173174Y-142558286D01*
X102163971Y-142547072D01*
X102085977Y-142430345D01*
X101939654Y-142284022D01*
X101767598Y-142169059D01*
X101576420Y-142089870D01*
X101576413Y-142089868D01*
X101423516Y-142059455D01*
X101373465Y-142049500D01*
X101166535Y-142049500D01*
X101126385Y-142057486D01*
X100963586Y-142089868D01*
X100963579Y-142089870D01*
X100772401Y-142169059D01*
X100600345Y-142284022D01*
X100600344Y-142284024D01*
X100454024Y-142430344D01*
X100454022Y-142430345D01*
X100339059Y-142602401D01*
X100259870Y-142793579D01*
X100259868Y-142793586D01*
X100219500Y-142996535D01*
X100219500Y-143203464D01*
X100259868Y-143406413D01*
X100259870Y-143406420D01*
X100339059Y-143597598D01*
X100454023Y-143769655D01*
X100600345Y-143915977D01*
X100772402Y-144030941D01*
X100963580Y-144110130D01*
X101166535Y-144150500D01*
X101166536Y-144150500D01*
X101373464Y-144150500D01*
X101373465Y-144150500D01*
X101576420Y-144110130D01*
X101767598Y-144030941D01*
X101939655Y-143915977D01*
X102085977Y-143769655D01*
X102200941Y-143597598D01*
X102218813Y-143554450D01*
X102258861Y-143514402D01*
X102315498Y-143514402D01*
X102324178Y-143518682D01*
X102406814Y-143566392D01*
X102534105Y-143600499D01*
X102534106Y-143600500D01*
X102534108Y-143600500D01*
X102665894Y-143600500D01*
X102665894Y-143600499D01*
X102793186Y-143566392D01*
X102907314Y-143500500D01*
X103000500Y-143407314D01*
X103066392Y-143293186D01*
X103100499Y-143165894D01*
X103100500Y-143165894D01*
X103100500Y-143034106D01*
X103100499Y-143034105D01*
X103091494Y-143000499D01*
X103066392Y-142906814D01*
X103000500Y-142792686D01*
X102922174Y-142714360D01*
X102900500Y-142662034D01*
X102900500Y-141064315D01*
X102922174Y-141011989D01*
X102974500Y-140990315D01*
X103011499Y-141000229D01*
X103056814Y-141026392D01*
X103184105Y-141060499D01*
X103184106Y-141060500D01*
X103184108Y-141060500D01*
X103315894Y-141060500D01*
X103315894Y-141060499D01*
X103443186Y-141026392D01*
X103557314Y-140960500D01*
X103650500Y-140867314D01*
X103716392Y-140753186D01*
X103750499Y-140625894D01*
X103750500Y-140625894D01*
X103750500Y-140494106D01*
X103750499Y-140494105D01*
X103716393Y-140366818D01*
X103716392Y-140366814D01*
X103650500Y-140252686D01*
X103572174Y-140174360D01*
X103550500Y-140122034D01*
X103550500Y-135955448D01*
X103572174Y-135903122D01*
X103624500Y-135881448D01*
X103661499Y-135891361D01*
X103756814Y-135946392D01*
X103884105Y-135980499D01*
X103884106Y-135980500D01*
X103884108Y-135980500D01*
X104015894Y-135980500D01*
X104015894Y-135980499D01*
X104143186Y-135946392D01*
X104257314Y-135880500D01*
X104350500Y-135787314D01*
X104416392Y-135673186D01*
X104450499Y-135545894D01*
X104450500Y-135545894D01*
X104450500Y-135414106D01*
X104450499Y-135414105D01*
X104416393Y-135286818D01*
X104416392Y-135286814D01*
X104350500Y-135172686D01*
X104272174Y-135094360D01*
X104250500Y-135042034D01*
X104250500Y-133415448D01*
X104272174Y-133363122D01*
X104324500Y-133341448D01*
X104361499Y-133351361D01*
X104456814Y-133406392D01*
X104584105Y-133440499D01*
X104584106Y-133440500D01*
X104584108Y-133440500D01*
X104715894Y-133440500D01*
X104715894Y-133440499D01*
X104843186Y-133406392D01*
X104957314Y-133340500D01*
X105050500Y-133247314D01*
X105116392Y-133133186D01*
X105150499Y-133005894D01*
X105150500Y-133005894D01*
X105150500Y-132874106D01*
X105150499Y-132874105D01*
X105116393Y-132746818D01*
X105116392Y-132746814D01*
X105050500Y-132632686D01*
X104972174Y-132554360D01*
X104950500Y-132502034D01*
X104950500Y-130875448D01*
X104972174Y-130823122D01*
X105024500Y-130801448D01*
X105061499Y-130811361D01*
X105156814Y-130866392D01*
X105284105Y-130900499D01*
X105284106Y-130900500D01*
X105284108Y-130900500D01*
X105415894Y-130900500D01*
X105415894Y-130900499D01*
X105543186Y-130866392D01*
X105657314Y-130800500D01*
X105750500Y-130707314D01*
X105816392Y-130593186D01*
X105850499Y-130465894D01*
X105850500Y-130465894D01*
X105850500Y-130334106D01*
X105850499Y-130334105D01*
X105816393Y-130206818D01*
X105816392Y-130206814D01*
X105750500Y-130092686D01*
X105672174Y-130014360D01*
X105650500Y-129962034D01*
X105650500Y-127794105D01*
X105999500Y-127794105D01*
X105999500Y-127925894D01*
X106033606Y-128053181D01*
X106033610Y-128053190D01*
X106098980Y-128166413D01*
X106099500Y-128167314D01*
X106192686Y-128260500D01*
X106306814Y-128326392D01*
X106434105Y-128360499D01*
X106434106Y-128360500D01*
X106434108Y-128360500D01*
X106565894Y-128360500D01*
X106565894Y-128360499D01*
X106693186Y-128326392D01*
X106807314Y-128260500D01*
X106900500Y-128167314D01*
X106966392Y-128053186D01*
X107000499Y-127925894D01*
X107000500Y-127925894D01*
X107000500Y-127794106D01*
X107000499Y-127794105D01*
X106966393Y-127666818D01*
X106966392Y-127666814D01*
X106900500Y-127552686D01*
X106822174Y-127474360D01*
X106800500Y-127422034D01*
X106800500Y-125254105D01*
X107349500Y-125254105D01*
X107349500Y-125385894D01*
X107383606Y-125513181D01*
X107383610Y-125513190D01*
X107442021Y-125614360D01*
X107449500Y-125627314D01*
X107542686Y-125720500D01*
X107656814Y-125786392D01*
X107784105Y-125820499D01*
X107784106Y-125820500D01*
X107784108Y-125820500D01*
X107915894Y-125820500D01*
X107915894Y-125820499D01*
X108043186Y-125786392D01*
X108157314Y-125720500D01*
X108250500Y-125627314D01*
X108316392Y-125513186D01*
X108350499Y-125385894D01*
X108350500Y-125385894D01*
X108350500Y-125254106D01*
X108350499Y-125254105D01*
X108316393Y-125126818D01*
X108316392Y-125126814D01*
X108250500Y-125012686D01*
X108172174Y-124934360D01*
X108172068Y-124934105D01*
X108999500Y-124934105D01*
X108999500Y-125065894D01*
X109033606Y-125193181D01*
X109033610Y-125193190D01*
X109099500Y-125307314D01*
X109177826Y-125385640D01*
X109199500Y-125437966D01*
X109199500Y-145202034D01*
X109177826Y-145254360D01*
X109099500Y-145332685D01*
X109033610Y-145446809D01*
X109033606Y-145446818D01*
X108999500Y-145574105D01*
X108999500Y-145705894D01*
X109033606Y-145833181D01*
X109033607Y-145833184D01*
X109033608Y-145833186D01*
X109099500Y-145947314D01*
X109192686Y-146040500D01*
X109306814Y-146106392D01*
X109434105Y-146140499D01*
X109434106Y-146140500D01*
X109434108Y-146140500D01*
X109565894Y-146140500D01*
X109565894Y-146140499D01*
X109693186Y-146106392D01*
X109807314Y-146040500D01*
X109900500Y-145947314D01*
X109966392Y-145833186D01*
X110000499Y-145705894D01*
X110000500Y-145705894D01*
X110000500Y-145574106D01*
X110000499Y-145574105D01*
X109966393Y-145446818D01*
X109966392Y-145446814D01*
X109900500Y-145332686D01*
X109822174Y-145254360D01*
X109800500Y-145202034D01*
X109800500Y-142434105D01*
X116009500Y-142434105D01*
X116009500Y-142565894D01*
X116043606Y-142693181D01*
X116043610Y-142693190D01*
X116083915Y-142763000D01*
X116091308Y-142819153D01*
X116083915Y-142837000D01*
X116043610Y-142906809D01*
X116043606Y-142906818D01*
X116009500Y-143034105D01*
X116009500Y-143165894D01*
X116043606Y-143293181D01*
X116043607Y-143293184D01*
X116043608Y-143293186D01*
X116109500Y-143407314D01*
X116202686Y-143500500D01*
X116316814Y-143566392D01*
X116444105Y-143600499D01*
X116444106Y-143600500D01*
X116444108Y-143600500D01*
X116575894Y-143600500D01*
X116575894Y-143600499D01*
X116703186Y-143566392D01*
X116817314Y-143500500D01*
X116910500Y-143407314D01*
X116976392Y-143293186D01*
X117010499Y-143165894D01*
X117010500Y-143165894D01*
X117010500Y-143034109D01*
X117010499Y-143034105D01*
X116976392Y-142906814D01*
X116936083Y-142836999D01*
X116928691Y-142780848D01*
X116936084Y-142763000D01*
X116976392Y-142693186D01*
X117010500Y-142565892D01*
X117010500Y-142434108D01*
X117010500Y-142434106D01*
X117010499Y-142434105D01*
X116976393Y-142306818D01*
X116976392Y-142306814D01*
X116910500Y-142192686D01*
X116817314Y-142099500D01*
X116730712Y-142049500D01*
X116703190Y-142033610D01*
X116703181Y-142033606D01*
X116575894Y-141999500D01*
X116575892Y-141999500D01*
X116444108Y-141999500D01*
X116444106Y-141999500D01*
X116316818Y-142033606D01*
X116316809Y-142033610D01*
X116202685Y-142099500D01*
X116109500Y-142192685D01*
X116043610Y-142306809D01*
X116043606Y-142306818D01*
X116009500Y-142434105D01*
X109800500Y-142434105D01*
X109800500Y-125437966D01*
X109822174Y-125385640D01*
X109900500Y-125307314D01*
X109966392Y-125193186D01*
X110000499Y-125065894D01*
X110000500Y-125065894D01*
X110000500Y-124934106D01*
X110000499Y-124934105D01*
X109966393Y-124806818D01*
X109966392Y-124806814D01*
X109900500Y-124692686D01*
X109807314Y-124599500D01*
X109747933Y-124565216D01*
X109693190Y-124533610D01*
X109693181Y-124533606D01*
X109565894Y-124499500D01*
X109565892Y-124499500D01*
X109434108Y-124499500D01*
X109434106Y-124499500D01*
X109306818Y-124533606D01*
X109306809Y-124533610D01*
X109192685Y-124599500D01*
X109099500Y-124692685D01*
X109033610Y-124806809D01*
X109033606Y-124806818D01*
X108999500Y-124934105D01*
X108172068Y-124934105D01*
X108150500Y-124882034D01*
X108150500Y-119934105D01*
X110294500Y-119934105D01*
X110294500Y-120065894D01*
X110328606Y-120193181D01*
X110328610Y-120193190D01*
X110394500Y-120307314D01*
X110472826Y-120385640D01*
X110494500Y-120437966D01*
X110494500Y-137582034D01*
X110472826Y-137634360D01*
X110394500Y-137712685D01*
X110328610Y-137826809D01*
X110328606Y-137826818D01*
X110294500Y-137954105D01*
X110294500Y-138085894D01*
X110328606Y-138213181D01*
X110328610Y-138213190D01*
X110393980Y-138326413D01*
X110394500Y-138327314D01*
X110487686Y-138420500D01*
X110601814Y-138486392D01*
X110729105Y-138520499D01*
X110729106Y-138520500D01*
X110729108Y-138520500D01*
X110860894Y-138520500D01*
X110860894Y-138520499D01*
X110988186Y-138486392D01*
X111102314Y-138420500D01*
X111195500Y-138327314D01*
X111261392Y-138213186D01*
X111295499Y-138085894D01*
X111295500Y-138085894D01*
X111295500Y-137954106D01*
X111295499Y-137954105D01*
X111261393Y-137826818D01*
X111261392Y-137826814D01*
X111195500Y-137712686D01*
X111117174Y-137634360D01*
X111095500Y-137582034D01*
X111095500Y-120437966D01*
X111117174Y-120385640D01*
X111195500Y-120307314D01*
X111261392Y-120193186D01*
X111295499Y-120065894D01*
X111295500Y-120065894D01*
X111295500Y-119934106D01*
X111295499Y-119934105D01*
X112834500Y-119934105D01*
X112834500Y-120065894D01*
X112868606Y-120193181D01*
X112868610Y-120193190D01*
X112934500Y-120307314D01*
X113012826Y-120385640D01*
X113034500Y-120437966D01*
X113034500Y-122342034D01*
X113012826Y-122394360D01*
X112934500Y-122472685D01*
X112868610Y-122586809D01*
X112868606Y-122586818D01*
X112834500Y-122714105D01*
X112834500Y-122845894D01*
X112868606Y-122973181D01*
X112868610Y-122973190D01*
X112886871Y-123004818D01*
X112934500Y-123087314D01*
X113027686Y-123180500D01*
X113141814Y-123246392D01*
X113269105Y-123280499D01*
X113269106Y-123280500D01*
X113269108Y-123280500D01*
X113400894Y-123280500D01*
X113400894Y-123280499D01*
X113528186Y-123246392D01*
X113642314Y-123180500D01*
X113735500Y-123087314D01*
X113801392Y-122973186D01*
X113835499Y-122845894D01*
X113835500Y-122845894D01*
X113835500Y-122714106D01*
X113835499Y-122714105D01*
X113801393Y-122586818D01*
X113801392Y-122586814D01*
X113735500Y-122472686D01*
X113657174Y-122394360D01*
X113635500Y-122342034D01*
X113635500Y-120437966D01*
X113657174Y-120385640D01*
X113735500Y-120307314D01*
X113801392Y-120193186D01*
X113835499Y-120065894D01*
X113835500Y-120065894D01*
X113835500Y-119934106D01*
X113835499Y-119934105D01*
X114104500Y-119934105D01*
X114104500Y-120065894D01*
X114138606Y-120193181D01*
X114138610Y-120193190D01*
X114204500Y-120307314D01*
X114282826Y-120385640D01*
X114304500Y-120437966D01*
X114304500Y-120462034D01*
X114282826Y-120514360D01*
X114204500Y-120592685D01*
X114138610Y-120706809D01*
X114138606Y-120706818D01*
X114104500Y-120834105D01*
X114104500Y-120965894D01*
X114138606Y-121093181D01*
X114138607Y-121093184D01*
X114138608Y-121093186D01*
X114204500Y-121207314D01*
X114297686Y-121300500D01*
X114411814Y-121366392D01*
X114539105Y-121400499D01*
X114539106Y-121400500D01*
X114539108Y-121400500D01*
X114670894Y-121400500D01*
X114670894Y-121400499D01*
X114798186Y-121366392D01*
X114912314Y-121300500D01*
X115005500Y-121207314D01*
X115071392Y-121093186D01*
X115105499Y-120965894D01*
X115105500Y-120965894D01*
X115105500Y-120834106D01*
X115105499Y-120834105D01*
X115105481Y-120834039D01*
X115071392Y-120706814D01*
X115005500Y-120592686D01*
X114927174Y-120514360D01*
X114905500Y-120462034D01*
X114905500Y-120437966D01*
X114927174Y-120385640D01*
X115005500Y-120307314D01*
X115071392Y-120193186D01*
X115105499Y-120065894D01*
X115105500Y-120065894D01*
X115105500Y-119934106D01*
X115105499Y-119934105D01*
X115105358Y-119933580D01*
X115071392Y-119806814D01*
X115005500Y-119692686D01*
X114912314Y-119599500D01*
X114861816Y-119570345D01*
X114798190Y-119533610D01*
X114798181Y-119533606D01*
X114670894Y-119499500D01*
X114670892Y-119499500D01*
X114539108Y-119499500D01*
X114539106Y-119499500D01*
X114411818Y-119533606D01*
X114411809Y-119533610D01*
X114297685Y-119599500D01*
X114204500Y-119692685D01*
X114138610Y-119806809D01*
X114138606Y-119806818D01*
X114104500Y-119934105D01*
X113835499Y-119934105D01*
X113835358Y-119933580D01*
X113801392Y-119806814D01*
X113735500Y-119692686D01*
X113642314Y-119599500D01*
X113591816Y-119570345D01*
X113528190Y-119533610D01*
X113528181Y-119533606D01*
X113400894Y-119499500D01*
X113400892Y-119499500D01*
X113269108Y-119499500D01*
X113269106Y-119499500D01*
X113141818Y-119533606D01*
X113141809Y-119533610D01*
X113027685Y-119599500D01*
X112934500Y-119692685D01*
X112868610Y-119806809D01*
X112868606Y-119806818D01*
X112834500Y-119934105D01*
X111295499Y-119934105D01*
X111295358Y-119933580D01*
X111261392Y-119806814D01*
X111195500Y-119692686D01*
X111102314Y-119599500D01*
X111051816Y-119570345D01*
X110988190Y-119533610D01*
X110988181Y-119533606D01*
X110860894Y-119499500D01*
X110860892Y-119499500D01*
X110729108Y-119499500D01*
X110729106Y-119499500D01*
X110601818Y-119533606D01*
X110601809Y-119533610D01*
X110487685Y-119599500D01*
X110394500Y-119692685D01*
X110328610Y-119806809D01*
X110328606Y-119806818D01*
X110294500Y-119934105D01*
X108150500Y-119934105D01*
X108150500Y-117634105D01*
X115374500Y-117634105D01*
X115374500Y-117765894D01*
X115408606Y-117893181D01*
X115408610Y-117893190D01*
X115474500Y-118007314D01*
X115552826Y-118085640D01*
X115574500Y-118137966D01*
X115574500Y-119562034D01*
X115552826Y-119614360D01*
X115474500Y-119692685D01*
X115408610Y-119806809D01*
X115408606Y-119806818D01*
X115374500Y-119934105D01*
X115374500Y-120065894D01*
X115408606Y-120193181D01*
X115408607Y-120193184D01*
X115408608Y-120193186D01*
X115474500Y-120307314D01*
X115567686Y-120400500D01*
X115681814Y-120466392D01*
X115809105Y-120500499D01*
X115809106Y-120500500D01*
X115809108Y-120500500D01*
X115940894Y-120500500D01*
X115940894Y-120500499D01*
X116068186Y-120466392D01*
X116182314Y-120400500D01*
X116275500Y-120307314D01*
X116341392Y-120193186D01*
X116375499Y-120065894D01*
X116375500Y-120065894D01*
X116375500Y-119934106D01*
X116375499Y-119934105D01*
X116375358Y-119933580D01*
X116341392Y-119806814D01*
X116275500Y-119692686D01*
X116197174Y-119614360D01*
X116175500Y-119562034D01*
X116175500Y-118137966D01*
X116197174Y-118085640D01*
X116233314Y-118049500D01*
X116275500Y-118007314D01*
X116341392Y-117893186D01*
X116375499Y-117765894D01*
X116375500Y-117765894D01*
X116375500Y-117634106D01*
X116375499Y-117634105D01*
X116341393Y-117506818D01*
X116341392Y-117506814D01*
X116275500Y-117392686D01*
X116182314Y-117299500D01*
X116095712Y-117249500D01*
X116068190Y-117233610D01*
X116068181Y-117233606D01*
X115940894Y-117199500D01*
X115940892Y-117199500D01*
X115809108Y-117199500D01*
X115809106Y-117199500D01*
X115681818Y-117233606D01*
X115681809Y-117233610D01*
X115567685Y-117299500D01*
X115474500Y-117392685D01*
X115408610Y-117506809D01*
X115408606Y-117506818D01*
X115374500Y-117634105D01*
X108150500Y-117634105D01*
X108150500Y-115771406D01*
X108172174Y-115719080D01*
X108205345Y-115699928D01*
X108293186Y-115676392D01*
X108407314Y-115610500D01*
X108500500Y-115517314D01*
X108566392Y-115403186D01*
X108600499Y-115275894D01*
X108600500Y-115275894D01*
X108600500Y-115144106D01*
X108600499Y-115144105D01*
X108566393Y-115016818D01*
X108566392Y-115016814D01*
X108500500Y-114902686D01*
X108407314Y-114809500D01*
X108327096Y-114763186D01*
X108293190Y-114743610D01*
X108293181Y-114743606D01*
X108165894Y-114709500D01*
X108165892Y-114709500D01*
X108034108Y-114709500D01*
X108034106Y-114709500D01*
X107906818Y-114743606D01*
X107906809Y-114743610D01*
X107792685Y-114809500D01*
X107699496Y-114902690D01*
X107699496Y-114902691D01*
X107659502Y-114971960D01*
X107647744Y-114987284D01*
X107609540Y-115025488D01*
X107569979Y-115094009D01*
X107569977Y-115094014D01*
X107549500Y-115170435D01*
X107549500Y-124882034D01*
X107527826Y-124934360D01*
X107449500Y-125012685D01*
X107383610Y-125126809D01*
X107383606Y-125126818D01*
X107349500Y-125254105D01*
X106800500Y-125254105D01*
X106800500Y-114504105D01*
X116644500Y-114504105D01*
X116644500Y-114635894D01*
X116678606Y-114763181D01*
X116678610Y-114763190D01*
X116744500Y-114877314D01*
X116822826Y-114955640D01*
X116844500Y-115007966D01*
X116844500Y-119562034D01*
X116822826Y-119614360D01*
X116744500Y-119692685D01*
X116678610Y-119806809D01*
X116678606Y-119806818D01*
X116644500Y-119934105D01*
X116644500Y-120065894D01*
X116678606Y-120193181D01*
X116678607Y-120193184D01*
X116678608Y-120193186D01*
X116744500Y-120307314D01*
X116837686Y-120400500D01*
X116951814Y-120466392D01*
X117079105Y-120500499D01*
X117079106Y-120500500D01*
X117079108Y-120500500D01*
X117210894Y-120500500D01*
X117210894Y-120500499D01*
X117338186Y-120466392D01*
X117452314Y-120400500D01*
X117545500Y-120307314D01*
X117611392Y-120193186D01*
X117645499Y-120065894D01*
X117645500Y-120065894D01*
X117645500Y-119934106D01*
X117645499Y-119934105D01*
X117645358Y-119933580D01*
X117611392Y-119806814D01*
X117545500Y-119692686D01*
X117467174Y-119614360D01*
X117445500Y-119562034D01*
X117445500Y-115007966D01*
X117467174Y-114955640D01*
X117471854Y-114950960D01*
X117545500Y-114877314D01*
X117611392Y-114763186D01*
X117645499Y-114635894D01*
X117645500Y-114635894D01*
X117645500Y-114504106D01*
X117645499Y-114504105D01*
X117611393Y-114376818D01*
X117611392Y-114376814D01*
X117545500Y-114262686D01*
X117452314Y-114169500D01*
X117418314Y-114149870D01*
X117338190Y-114103610D01*
X117338181Y-114103606D01*
X117210894Y-114069500D01*
X117210892Y-114069500D01*
X117079108Y-114069500D01*
X117079106Y-114069500D01*
X116951818Y-114103606D01*
X116951809Y-114103610D01*
X116837685Y-114169500D01*
X116744500Y-114262685D01*
X116678610Y-114376809D01*
X116678606Y-114376818D01*
X116644500Y-114504105D01*
X106800500Y-114504105D01*
X106800500Y-112034105D01*
X117914500Y-112034105D01*
X117914500Y-112165894D01*
X117948606Y-112293181D01*
X117948610Y-112293190D01*
X118014500Y-112407314D01*
X118092826Y-112485640D01*
X118114500Y-112537966D01*
X118114500Y-119562034D01*
X118092826Y-119614360D01*
X118014500Y-119692685D01*
X117948610Y-119806809D01*
X117948606Y-119806818D01*
X117914500Y-119934105D01*
X117914500Y-120065894D01*
X117948606Y-120193181D01*
X117948607Y-120193184D01*
X117948608Y-120193186D01*
X118014500Y-120307314D01*
X118107686Y-120400500D01*
X118221814Y-120466392D01*
X118349105Y-120500499D01*
X118349106Y-120500500D01*
X118349108Y-120500500D01*
X118480894Y-120500500D01*
X118480894Y-120500499D01*
X118608186Y-120466392D01*
X118722314Y-120400500D01*
X118815500Y-120307314D01*
X118881392Y-120193186D01*
X118915499Y-120065894D01*
X118915500Y-120065894D01*
X118915500Y-119934106D01*
X118915499Y-119934105D01*
X118915358Y-119933580D01*
X118881392Y-119806814D01*
X118815500Y-119692686D01*
X118737174Y-119614360D01*
X118715500Y-119562034D01*
X118715500Y-112537966D01*
X118737174Y-112485640D01*
X118746005Y-112476809D01*
X118815500Y-112407314D01*
X118881392Y-112293186D01*
X118915499Y-112165894D01*
X118915500Y-112165894D01*
X118915500Y-112034106D01*
X118915499Y-112034105D01*
X118881393Y-111906818D01*
X118881392Y-111906814D01*
X118815500Y-111792686D01*
X118722314Y-111699500D01*
X118704230Y-111689059D01*
X118608190Y-111633610D01*
X118608181Y-111633606D01*
X118480894Y-111599500D01*
X118480892Y-111599500D01*
X118349108Y-111599500D01*
X118349106Y-111599500D01*
X118221818Y-111633606D01*
X118221809Y-111633610D01*
X118107685Y-111699500D01*
X118014500Y-111792685D01*
X117948610Y-111906809D01*
X117948606Y-111906818D01*
X117914500Y-112034105D01*
X106800500Y-112034105D01*
X106800500Y-109234500D01*
X106822174Y-109182174D01*
X106874500Y-109160500D01*
X107662034Y-109160500D01*
X107714360Y-109182174D01*
X107792686Y-109260500D01*
X107906814Y-109326392D01*
X108034105Y-109360499D01*
X108034106Y-109360500D01*
X108034108Y-109360500D01*
X108165894Y-109360500D01*
X108165894Y-109360499D01*
X108293186Y-109326392D01*
X108407314Y-109260500D01*
X108500500Y-109167314D01*
X108566392Y-109053186D01*
X108600499Y-108925894D01*
X108600500Y-108925894D01*
X108600500Y-108794106D01*
X108600499Y-108794105D01*
X108588355Y-108748784D01*
X108566392Y-108666814D01*
X108500500Y-108552686D01*
X108407314Y-108459500D01*
X108293190Y-108393610D01*
X108293181Y-108393606D01*
X108165894Y-108359500D01*
X108165892Y-108359500D01*
X108034108Y-108359500D01*
X108034106Y-108359500D01*
X107906818Y-108393606D01*
X107906809Y-108393610D01*
X107792685Y-108459500D01*
X107714360Y-108537826D01*
X107662034Y-108559500D01*
X106460436Y-108559500D01*
X106384014Y-108579977D01*
X106384009Y-108579979D01*
X106315488Y-108619540D01*
X106259540Y-108675488D01*
X106219979Y-108744009D01*
X106219977Y-108744014D01*
X106199500Y-108820435D01*
X106199500Y-127422034D01*
X106177826Y-127474360D01*
X106099500Y-127552685D01*
X106033610Y-127666809D01*
X106033606Y-127666818D01*
X105999500Y-127794105D01*
X105650500Y-127794105D01*
X105650500Y-107964500D01*
X105672174Y-107912174D01*
X105724500Y-107890500D01*
X107662034Y-107890500D01*
X107714360Y-107912174D01*
X107792686Y-107990500D01*
X107906814Y-108056392D01*
X108034105Y-108090499D01*
X108034106Y-108090500D01*
X108034108Y-108090500D01*
X108165894Y-108090500D01*
X108165894Y-108090499D01*
X108293186Y-108056392D01*
X108407314Y-107990500D01*
X108500500Y-107897314D01*
X108566392Y-107783186D01*
X108600499Y-107655894D01*
X108600500Y-107655894D01*
X108600500Y-107524106D01*
X108600499Y-107524105D01*
X108587679Y-107476261D01*
X108566392Y-107396814D01*
X108500500Y-107282686D01*
X108407314Y-107189500D01*
X108293190Y-107123610D01*
X108293181Y-107123606D01*
X108165894Y-107089500D01*
X108165892Y-107089500D01*
X108034108Y-107089500D01*
X108034106Y-107089500D01*
X107906818Y-107123606D01*
X107906809Y-107123610D01*
X107792685Y-107189500D01*
X107714360Y-107267826D01*
X107662034Y-107289500D01*
X105310436Y-107289500D01*
X105234014Y-107309977D01*
X105234009Y-107309979D01*
X105165488Y-107349540D01*
X105109540Y-107405488D01*
X105088586Y-107441782D01*
X105043652Y-107476261D01*
X104987500Y-107468868D01*
X104953021Y-107423934D01*
X104950500Y-107404782D01*
X104950500Y-106894105D01*
X110199500Y-106894105D01*
X110199500Y-107025894D01*
X110233606Y-107153181D01*
X110233610Y-107153190D01*
X110299500Y-107267314D01*
X110377826Y-107345640D01*
X110399500Y-107397966D01*
X110399500Y-109692034D01*
X110377826Y-109744360D01*
X110299500Y-109822685D01*
X110233610Y-109936809D01*
X110233606Y-109936818D01*
X110199500Y-110064105D01*
X110199500Y-110195894D01*
X110233606Y-110323181D01*
X110233607Y-110323184D01*
X110233608Y-110323186D01*
X110299500Y-110437314D01*
X110392686Y-110530500D01*
X110506814Y-110596392D01*
X110634105Y-110630499D01*
X110634106Y-110630500D01*
X110634108Y-110630500D01*
X110765894Y-110630500D01*
X110765894Y-110630499D01*
X110893186Y-110596392D01*
X110988500Y-110541361D01*
X111044652Y-110533969D01*
X111089586Y-110568448D01*
X111099500Y-110605448D01*
X111099500Y-110962034D01*
X111077826Y-111014360D01*
X110999500Y-111092685D01*
X110933610Y-111206809D01*
X110933606Y-111206818D01*
X110899500Y-111334105D01*
X110899500Y-111465894D01*
X110933606Y-111593181D01*
X110933610Y-111593190D01*
X110956946Y-111633608D01*
X110999500Y-111707314D01*
X111092686Y-111800500D01*
X111206814Y-111866392D01*
X111334105Y-111900499D01*
X111334106Y-111900500D01*
X111334108Y-111900500D01*
X111465894Y-111900500D01*
X111465894Y-111900499D01*
X111593186Y-111866392D01*
X111707314Y-111800500D01*
X111800500Y-111707314D01*
X111866392Y-111593186D01*
X111900499Y-111465894D01*
X111900500Y-111465894D01*
X111900500Y-111334106D01*
X111900499Y-111334105D01*
X111893320Y-111307314D01*
X111866392Y-111206814D01*
X111800500Y-111092686D01*
X111722174Y-111014360D01*
X111700500Y-110962034D01*
X111700500Y-110934105D01*
X119184500Y-110934105D01*
X119184500Y-111065894D01*
X119218606Y-111193181D01*
X119218610Y-111193190D01*
X119284500Y-111307314D01*
X119362826Y-111385640D01*
X119384500Y-111437966D01*
X119384500Y-119562034D01*
X119362826Y-119614360D01*
X119284500Y-119692685D01*
X119218610Y-119806809D01*
X119218606Y-119806818D01*
X119184500Y-119934105D01*
X119184500Y-120065894D01*
X119218606Y-120193181D01*
X119218607Y-120193184D01*
X119218608Y-120193186D01*
X119284500Y-120307314D01*
X119377686Y-120400500D01*
X119491814Y-120466392D01*
X119619105Y-120500499D01*
X119619106Y-120500500D01*
X119619108Y-120500500D01*
X119750894Y-120500500D01*
X119750894Y-120500499D01*
X119878186Y-120466392D01*
X119992314Y-120400500D01*
X120085500Y-120307314D01*
X120151392Y-120193186D01*
X120185499Y-120065894D01*
X120185500Y-120065894D01*
X120185500Y-119934106D01*
X120185499Y-119934105D01*
X120454500Y-119934105D01*
X120454500Y-120065894D01*
X120488606Y-120193181D01*
X120488610Y-120193190D01*
X120554500Y-120307314D01*
X120632826Y-120385640D01*
X120654500Y-120437966D01*
X120654500Y-125562034D01*
X120632826Y-125614360D01*
X120554500Y-125692685D01*
X120488610Y-125806809D01*
X120488606Y-125806818D01*
X120454500Y-125934105D01*
X120454500Y-126065894D01*
X120488606Y-126193181D01*
X120488607Y-126193184D01*
X120488608Y-126193186D01*
X120554500Y-126307314D01*
X120647686Y-126400500D01*
X120761814Y-126466392D01*
X120889105Y-126500499D01*
X120889106Y-126500500D01*
X120889108Y-126500500D01*
X121020894Y-126500500D01*
X121020894Y-126500499D01*
X121148186Y-126466392D01*
X121262314Y-126400500D01*
X121355500Y-126307314D01*
X121421392Y-126193186D01*
X121455499Y-126065894D01*
X121455500Y-126065894D01*
X121455500Y-125934106D01*
X121455499Y-125934105D01*
X121450122Y-125914039D01*
X121421392Y-125806814D01*
X121355500Y-125692686D01*
X121277174Y-125614360D01*
X121255500Y-125562034D01*
X121255500Y-123890563D01*
X121277174Y-123838237D01*
X121329500Y-123816563D01*
X121381826Y-123838237D01*
X121400978Y-123871410D01*
X121433606Y-123993181D01*
X121433610Y-123993190D01*
X121474918Y-124064737D01*
X121499500Y-124107314D01*
X121592686Y-124200500D01*
X121706814Y-124266392D01*
X121834105Y-124300499D01*
X121834106Y-124300500D01*
X121834108Y-124300500D01*
X121965894Y-124300500D01*
X121965894Y-124300499D01*
X122093186Y-124266392D01*
X122207314Y-124200500D01*
X122300500Y-124107314D01*
X122366392Y-123993186D01*
X122400499Y-123865894D01*
X122400500Y-123865894D01*
X122400500Y-123734106D01*
X122400499Y-123734105D01*
X122366393Y-123606818D01*
X122366392Y-123606814D01*
X122300500Y-123492686D01*
X122207314Y-123399500D01*
X122093190Y-123333610D01*
X122093181Y-123333606D01*
X121965894Y-123299500D01*
X121965892Y-123299500D01*
X121834108Y-123299500D01*
X121834106Y-123299500D01*
X121706818Y-123333606D01*
X121706809Y-123333610D01*
X121592685Y-123399500D01*
X121499500Y-123492685D01*
X121433610Y-123606809D01*
X121433606Y-123606818D01*
X121400978Y-123728589D01*
X121366500Y-123773522D01*
X121310347Y-123780914D01*
X121265414Y-123746436D01*
X121255500Y-123709436D01*
X121255500Y-120437966D01*
X121277174Y-120385640D01*
X121355500Y-120307314D01*
X121421392Y-120193186D01*
X121455499Y-120065894D01*
X121455500Y-120065894D01*
X121455500Y-119934106D01*
X121455499Y-119934105D01*
X121455358Y-119933580D01*
X121421392Y-119806814D01*
X121355500Y-119692686D01*
X121262314Y-119599500D01*
X121211816Y-119570345D01*
X121148190Y-119533610D01*
X121148181Y-119533606D01*
X121020894Y-119499500D01*
X121020892Y-119499500D01*
X120889108Y-119499500D01*
X120889106Y-119499500D01*
X120761818Y-119533606D01*
X120761809Y-119533610D01*
X120647685Y-119599500D01*
X120554500Y-119692685D01*
X120488610Y-119806809D01*
X120488606Y-119806818D01*
X120454500Y-119934105D01*
X120185499Y-119934105D01*
X120185358Y-119933580D01*
X120151392Y-119806814D01*
X120085500Y-119692686D01*
X120007174Y-119614360D01*
X119985500Y-119562034D01*
X119985500Y-118484105D01*
X121724500Y-118484105D01*
X121724500Y-118615894D01*
X121758606Y-118743181D01*
X121758610Y-118743190D01*
X121824500Y-118857314D01*
X121902826Y-118935640D01*
X121924500Y-118987966D01*
X121924500Y-119562034D01*
X121902826Y-119614360D01*
X121824500Y-119692685D01*
X121758610Y-119806809D01*
X121758606Y-119806818D01*
X121724500Y-119934105D01*
X121724500Y-120065894D01*
X121758606Y-120193181D01*
X121758607Y-120193184D01*
X121758608Y-120193186D01*
X121824500Y-120307314D01*
X121917686Y-120400500D01*
X122031814Y-120466392D01*
X122159105Y-120500499D01*
X122159106Y-120500500D01*
X122159108Y-120500500D01*
X122290894Y-120500500D01*
X122290894Y-120500499D01*
X122418186Y-120466392D01*
X122532314Y-120400500D01*
X122625500Y-120307314D01*
X122691392Y-120193186D01*
X122725499Y-120065894D01*
X122725500Y-120065894D01*
X122725500Y-119934106D01*
X122725499Y-119934105D01*
X122725358Y-119933580D01*
X122691392Y-119806814D01*
X122625500Y-119692686D01*
X122547174Y-119614360D01*
X122525500Y-119562034D01*
X122525500Y-118987966D01*
X122547174Y-118935640D01*
X122625500Y-118857314D01*
X122691392Y-118743186D01*
X122725499Y-118615894D01*
X122725500Y-118615894D01*
X122725500Y-118484106D01*
X122725499Y-118484105D01*
X122691393Y-118356818D01*
X122691392Y-118356814D01*
X122625500Y-118242686D01*
X122532314Y-118149500D01*
X122421706Y-118085640D01*
X122418190Y-118083610D01*
X122418181Y-118083606D01*
X122290894Y-118049500D01*
X122290892Y-118049500D01*
X122159108Y-118049500D01*
X122159106Y-118049500D01*
X122031818Y-118083606D01*
X122031809Y-118083610D01*
X121917685Y-118149500D01*
X121824500Y-118242685D01*
X121758610Y-118356809D01*
X121758606Y-118356818D01*
X121724500Y-118484105D01*
X119985500Y-118484105D01*
X119985500Y-113824105D01*
X123999500Y-113824105D01*
X123999500Y-113955894D01*
X124033606Y-114083181D01*
X124033610Y-114083190D01*
X124099500Y-114197314D01*
X124192686Y-114290500D01*
X124306814Y-114356392D01*
X124434105Y-114390499D01*
X124434106Y-114390500D01*
X124434108Y-114390500D01*
X124565894Y-114390500D01*
X124565894Y-114390499D01*
X124693186Y-114356392D01*
X124807314Y-114290500D01*
X124900500Y-114197314D01*
X124966392Y-114083186D01*
X125000499Y-113955894D01*
X125000500Y-113955894D01*
X125000500Y-113824106D01*
X125000499Y-113824105D01*
X124966393Y-113696818D01*
X124966392Y-113696814D01*
X124900500Y-113582686D01*
X124807314Y-113489500D01*
X124714608Y-113435976D01*
X124693190Y-113423610D01*
X124693181Y-113423606D01*
X124565894Y-113389500D01*
X124565892Y-113389500D01*
X124434108Y-113389500D01*
X124434106Y-113389500D01*
X124306818Y-113423606D01*
X124306809Y-113423610D01*
X124192685Y-113489500D01*
X124099500Y-113582685D01*
X124033610Y-113696809D01*
X124033606Y-113696818D01*
X123999500Y-113824105D01*
X119985500Y-113824105D01*
X119985500Y-111437966D01*
X120007174Y-111385640D01*
X120032376Y-111360438D01*
X120085500Y-111307314D01*
X120151392Y-111193186D01*
X120185499Y-111065894D01*
X120185500Y-111065894D01*
X120185500Y-110934106D01*
X120185499Y-110934105D01*
X120185366Y-110933610D01*
X120151392Y-110806814D01*
X120085500Y-110692686D01*
X119992314Y-110599500D01*
X119959405Y-110580500D01*
X119878190Y-110533610D01*
X119878181Y-110533606D01*
X119750894Y-110499500D01*
X119750892Y-110499500D01*
X119619108Y-110499500D01*
X119619106Y-110499500D01*
X119491818Y-110533606D01*
X119491809Y-110533610D01*
X119377685Y-110599500D01*
X119284500Y-110692685D01*
X119218610Y-110806809D01*
X119218606Y-110806818D01*
X119184500Y-110934105D01*
X111700500Y-110934105D01*
X111700500Y-106137966D01*
X111722174Y-106085640D01*
X111757314Y-106050500D01*
X111800500Y-106007314D01*
X111866392Y-105893186D01*
X111900499Y-105765894D01*
X111900500Y-105765894D01*
X111900500Y-105634106D01*
X111900499Y-105634105D01*
X111889763Y-105594039D01*
X111866392Y-105506814D01*
X111800500Y-105392686D01*
X111707314Y-105299500D01*
X111593190Y-105233610D01*
X111593181Y-105233606D01*
X111465894Y-105199500D01*
X111465892Y-105199500D01*
X111334108Y-105199500D01*
X111334106Y-105199500D01*
X111206818Y-105233606D01*
X111206809Y-105233610D01*
X111092685Y-105299500D01*
X110999500Y-105392685D01*
X110933610Y-105506809D01*
X110933606Y-105506818D01*
X110899500Y-105634105D01*
X110899500Y-105765894D01*
X110933606Y-105893181D01*
X110933610Y-105893190D01*
X110999500Y-106007314D01*
X111077826Y-106085640D01*
X111099500Y-106137966D01*
X111099500Y-106484551D01*
X111077826Y-106536877D01*
X111025500Y-106558551D01*
X110988500Y-106548637D01*
X110893190Y-106493610D01*
X110893181Y-106493606D01*
X110765894Y-106459500D01*
X110765892Y-106459500D01*
X110634108Y-106459500D01*
X110634106Y-106459500D01*
X110506818Y-106493606D01*
X110506809Y-106493610D01*
X110392685Y-106559500D01*
X110299500Y-106652685D01*
X110233610Y-106766809D01*
X110233606Y-106766818D01*
X110199500Y-106894105D01*
X104950500Y-106894105D01*
X104950500Y-106694500D01*
X104972174Y-106642174D01*
X105024500Y-106620500D01*
X107662034Y-106620500D01*
X107714360Y-106642174D01*
X107792686Y-106720500D01*
X107906814Y-106786392D01*
X108034105Y-106820499D01*
X108034106Y-106820500D01*
X108034108Y-106820500D01*
X108165892Y-106820500D01*
X108176047Y-106817779D01*
X108176052Y-106817778D01*
X108234457Y-106802128D01*
X108293186Y-106786392D01*
X108407314Y-106720500D01*
X108500500Y-106627314D01*
X108566392Y-106513186D01*
X108600499Y-106385894D01*
X108600500Y-106385894D01*
X108600500Y-106254106D01*
X108600499Y-106254105D01*
X108587679Y-106206261D01*
X108566392Y-106126814D01*
X108500500Y-106012686D01*
X108407314Y-105919500D01*
X108361728Y-105893181D01*
X108293190Y-105853610D01*
X108293181Y-105853606D01*
X108165894Y-105819500D01*
X108165892Y-105819500D01*
X108034108Y-105819500D01*
X108034106Y-105819500D01*
X107906818Y-105853606D01*
X107906809Y-105853610D01*
X107792685Y-105919500D01*
X107714360Y-105997826D01*
X107662034Y-106019500D01*
X104610436Y-106019500D01*
X104534014Y-106039977D01*
X104534009Y-106039979D01*
X104465488Y-106079540D01*
X104409540Y-106135488D01*
X104388586Y-106171782D01*
X104343652Y-106206261D01*
X104287500Y-106198868D01*
X104253021Y-106153934D01*
X104250500Y-106134782D01*
X104250500Y-105424500D01*
X104272174Y-105372174D01*
X104324500Y-105350500D01*
X107662034Y-105350500D01*
X107714360Y-105372174D01*
X107792686Y-105450500D01*
X107906814Y-105516392D01*
X108034105Y-105550499D01*
X108034106Y-105550500D01*
X108034108Y-105550500D01*
X108165894Y-105550500D01*
X108165894Y-105550499D01*
X108293186Y-105516392D01*
X108407314Y-105450500D01*
X108500500Y-105357314D01*
X108566392Y-105243186D01*
X108600499Y-105115894D01*
X108600500Y-105115894D01*
X108600500Y-104984106D01*
X108600499Y-104984105D01*
X108595944Y-104967107D01*
X108566392Y-104856814D01*
X108500500Y-104742686D01*
X108407314Y-104649500D01*
X108293190Y-104583610D01*
X108293181Y-104583606D01*
X108165894Y-104549500D01*
X108165892Y-104549500D01*
X108034108Y-104549500D01*
X108034106Y-104549500D01*
X107906818Y-104583606D01*
X107906809Y-104583610D01*
X107792685Y-104649500D01*
X107714360Y-104727826D01*
X107662034Y-104749500D01*
X103910436Y-104749500D01*
X103834014Y-104769977D01*
X103834009Y-104769979D01*
X103765488Y-104809540D01*
X103709540Y-104865488D01*
X103669979Y-104934009D01*
X103669977Y-104934014D01*
X103649500Y-105010435D01*
X103649500Y-107744551D01*
X103627826Y-107796877D01*
X103575500Y-107818551D01*
X103538500Y-107808637D01*
X103443190Y-107753610D01*
X103443181Y-107753606D01*
X103315894Y-107719500D01*
X103315892Y-107719500D01*
X103184108Y-107719500D01*
X103184106Y-107719500D01*
X103056818Y-107753606D01*
X103056809Y-107753610D01*
X103011500Y-107779770D01*
X102955347Y-107787163D01*
X102910414Y-107752684D01*
X102900500Y-107715684D01*
X102900500Y-104837966D01*
X102922174Y-104785640D01*
X102958314Y-104749500D01*
X103000500Y-104707314D01*
X103066392Y-104593186D01*
X103100499Y-104465894D01*
X103100500Y-104465894D01*
X103100500Y-104334106D01*
X103100499Y-104334105D01*
X103066393Y-104206818D01*
X103066392Y-104206814D01*
X103066390Y-104206811D01*
X103066388Y-104206805D01*
X103057551Y-104191499D01*
X103050159Y-104135346D01*
X103084638Y-104090414D01*
X103121637Y-104080500D01*
X107662034Y-104080500D01*
X107714360Y-104102174D01*
X107792686Y-104180500D01*
X107906814Y-104246392D01*
X108034105Y-104280499D01*
X108034106Y-104280500D01*
X108034108Y-104280500D01*
X108165894Y-104280500D01*
X108165894Y-104280499D01*
X108293186Y-104246392D01*
X108407314Y-104180500D01*
X108500500Y-104087314D01*
X108566392Y-103973186D01*
X108600499Y-103845894D01*
X108600500Y-103845894D01*
X108600500Y-103714106D01*
X108600499Y-103714105D01*
X126899500Y-103714105D01*
X126899500Y-103845894D01*
X126933606Y-103973181D01*
X126933610Y-103973190D01*
X126988960Y-104069059D01*
X126999500Y-104087314D01*
X127092686Y-104180500D01*
X127206814Y-104246392D01*
X127334105Y-104280499D01*
X127334106Y-104280500D01*
X127334108Y-104280500D01*
X127465894Y-104280500D01*
X127465894Y-104280499D01*
X127593186Y-104246392D01*
X127707314Y-104180500D01*
X127800500Y-104087314D01*
X127866392Y-103973186D01*
X127900499Y-103845894D01*
X127900500Y-103845894D01*
X127900500Y-103714106D01*
X127900499Y-103714105D01*
X127866393Y-103586818D01*
X127866392Y-103586814D01*
X127800500Y-103472686D01*
X127707314Y-103379500D01*
X127641585Y-103341551D01*
X127593190Y-103313610D01*
X127593181Y-103313606D01*
X127465894Y-103279500D01*
X127465892Y-103279500D01*
X127334108Y-103279500D01*
X127334106Y-103279500D01*
X127206818Y-103313606D01*
X127206809Y-103313610D01*
X127092685Y-103379500D01*
X126999500Y-103472685D01*
X126933610Y-103586809D01*
X126933606Y-103586818D01*
X126899500Y-103714105D01*
X108600499Y-103714105D01*
X108566393Y-103586818D01*
X108566392Y-103586814D01*
X108500500Y-103472686D01*
X108407314Y-103379500D01*
X108341585Y-103341551D01*
X108293190Y-103313610D01*
X108293181Y-103313606D01*
X108165894Y-103279500D01*
X108165892Y-103279500D01*
X108034108Y-103279500D01*
X108034106Y-103279500D01*
X107906818Y-103313606D01*
X107906809Y-103313610D01*
X107792685Y-103379500D01*
X107714360Y-103457826D01*
X107662034Y-103479500D01*
X99737966Y-103479500D01*
X99685640Y-103457826D01*
X99607314Y-103379500D01*
X99493190Y-103313610D01*
X99493181Y-103313606D01*
X99365894Y-103279500D01*
X99365892Y-103279500D01*
X99234108Y-103279500D01*
X99234106Y-103279500D01*
X99106818Y-103313606D01*
X99106809Y-103313610D01*
X99011500Y-103368637D01*
X98955347Y-103376029D01*
X98910414Y-103341551D01*
X98900500Y-103304551D01*
X98900500Y-102974500D01*
X98922174Y-102922174D01*
X98974500Y-102900500D01*
X104579059Y-102900500D01*
X104579059Y-102900499D01*
X104731784Y-102859577D01*
X104816937Y-102810413D01*
X104853937Y-102800500D01*
X107558361Y-102800500D01*
X107592755Y-102808979D01*
X107855593Y-102946969D01*
X107858514Y-102948590D01*
X107903903Y-102975175D01*
X107903904Y-102975175D01*
X107903962Y-102975209D01*
X107905206Y-102975725D01*
X107905634Y-102975904D01*
X107906756Y-102976376D01*
X107906812Y-102976391D01*
X107906814Y-102976392D01*
X107907656Y-102976617D01*
X107908712Y-102976901D01*
X107923957Y-102982859D01*
X107925691Y-102983770D01*
X107976981Y-102995328D01*
X107980299Y-102996158D01*
X108031039Y-103010095D01*
X108032297Y-103010261D01*
X108032727Y-103010319D01*
X108034041Y-103010500D01*
X108034108Y-103010500D01*
X108036067Y-103010500D01*
X108052333Y-103012309D01*
X108054251Y-103012742D01*
X108106783Y-103010631D01*
X108110163Y-103010573D01*
X108162763Y-103010902D01*
X108162764Y-103010901D01*
X108162837Y-103010902D01*
X108164082Y-103010738D01*
X108164572Y-103010675D01*
X108165816Y-103010519D01*
X108165887Y-103010500D01*
X108165892Y-103010500D01*
X108167785Y-103009992D01*
X108183973Y-103007530D01*
X108185929Y-103007452D01*
X108185931Y-103007451D01*
X108185934Y-103007451D01*
X108200314Y-103002970D01*
X108237751Y-102991310D01*
X108290268Y-102977590D01*
X108291650Y-102976803D01*
X108293186Y-102976392D01*
X108302017Y-102971293D01*
X108311752Y-102968261D01*
X108357624Y-102939260D01*
X108404805Y-102912413D01*
X108404806Y-102912411D01*
X108404862Y-102912380D01*
X108405886Y-102911595D01*
X108406245Y-102911321D01*
X108407269Y-102910545D01*
X108408696Y-102909118D01*
X108421491Y-102898885D01*
X108423143Y-102897841D01*
X108458791Y-102859207D01*
X108461173Y-102856744D01*
X108498571Y-102819812D01*
X108498573Y-102819808D01*
X108498615Y-102819767D01*
X108499391Y-102818757D01*
X108499685Y-102818377D01*
X108500461Y-102817377D01*
X108500493Y-102817320D01*
X108500500Y-102817314D01*
X108501481Y-102815613D01*
X108511187Y-102802426D01*
X108512513Y-102800990D01*
X108536958Y-102754424D01*
X108538605Y-102751458D01*
X108565175Y-102706097D01*
X108565175Y-102706095D01*
X108565209Y-102706038D01*
X108565728Y-102704787D01*
X108565908Y-102704356D01*
X108566374Y-102703248D01*
X108566389Y-102703190D01*
X108566392Y-102703186D01*
X108566898Y-102701296D01*
X108572861Y-102686038D01*
X108573770Y-102684309D01*
X108585330Y-102633007D01*
X108586142Y-102629755D01*
X108600079Y-102579019D01*
X108600088Y-102577426D01*
X108600500Y-102575892D01*
X108600500Y-102565696D01*
X108602742Y-102555748D01*
X108600563Y-102501523D01*
X108600903Y-102447238D01*
X108600500Y-102445695D01*
X108600500Y-102444108D01*
X108600499Y-102444105D01*
X126899500Y-102444105D01*
X126899500Y-102575894D01*
X126933606Y-102703181D01*
X126933610Y-102703190D01*
X126961478Y-102751458D01*
X126999500Y-102817314D01*
X127092686Y-102910500D01*
X127206814Y-102976392D01*
X127334105Y-103010499D01*
X127334106Y-103010500D01*
X127334108Y-103010500D01*
X127465894Y-103010500D01*
X127465894Y-103010499D01*
X127593186Y-102976392D01*
X127707314Y-102910500D01*
X127800500Y-102817314D01*
X127866392Y-102703186D01*
X127900499Y-102575894D01*
X127900500Y-102575894D01*
X127900500Y-102444106D01*
X127900499Y-102444105D01*
X127866393Y-102316818D01*
X127866392Y-102316814D01*
X127800500Y-102202686D01*
X127707314Y-102109500D01*
X127686507Y-102097487D01*
X127593190Y-102043610D01*
X127593181Y-102043606D01*
X127465894Y-102009500D01*
X127465892Y-102009500D01*
X127334108Y-102009500D01*
X127334106Y-102009500D01*
X127206818Y-102043606D01*
X127206809Y-102043610D01*
X127092685Y-102109500D01*
X126999500Y-102202685D01*
X126933610Y-102316809D01*
X126933606Y-102316818D01*
X126899500Y-102444105D01*
X108600499Y-102444105D01*
X108599994Y-102442222D01*
X108597530Y-102426025D01*
X108597452Y-102424071D01*
X108581823Y-102373894D01*
X108580878Y-102370593D01*
X108567571Y-102319662D01*
X108567110Y-102318549D01*
X108566926Y-102318102D01*
X108566428Y-102316878D01*
X108566392Y-102316817D01*
X108566392Y-102316814D01*
X108565409Y-102315112D01*
X108558843Y-102300116D01*
X108558261Y-102298248D01*
X108529258Y-102252371D01*
X108502413Y-102205195D01*
X108501294Y-102204062D01*
X108500500Y-102202686D01*
X108493289Y-102195475D01*
X108487841Y-102186857D01*
X108447955Y-102150052D01*
X108409812Y-102111429D01*
X108409761Y-102111377D01*
X108408786Y-102110629D01*
X108408428Y-102110352D01*
X108407380Y-102109538D01*
X108405614Y-102108518D01*
X108392431Y-102098816D01*
X108390990Y-102097487D01*
X108390988Y-102097485D01*
X108390987Y-102097485D01*
X108344454Y-102073055D01*
X108341452Y-102071389D01*
X107911364Y-101819481D01*
X107713861Y-101703801D01*
X107708401Y-101700127D01*
X107655900Y-101669815D01*
X107655898Y-101669814D01*
X107651547Y-101667302D01*
X107596097Y-101634825D01*
X107594565Y-101634404D01*
X107593186Y-101633608D01*
X107531059Y-101616961D01*
X107526278Y-101615648D01*
X107526269Y-101615644D01*
X107468957Y-101599903D01*
X107467770Y-101599747D01*
X107467329Y-101599687D01*
X107465973Y-101599500D01*
X107465892Y-101599500D01*
X107401909Y-101599500D01*
X107401447Y-101599499D01*
X107337161Y-101599097D01*
X107335861Y-101599269D01*
X107335407Y-101599328D01*
X107334169Y-101599483D01*
X107276724Y-101614873D01*
X107276708Y-101614879D01*
X107271929Y-101616160D01*
X107209733Y-101632410D01*
X107208351Y-101633195D01*
X107206814Y-101633608D01*
X107151088Y-101665781D01*
X107146799Y-101668221D01*
X107146793Y-101668224D01*
X107095128Y-101697624D01*
X107094179Y-101698353D01*
X107093826Y-101698622D01*
X107092740Y-101699444D01*
X107047429Y-101744755D01*
X107047104Y-101745079D01*
X107029665Y-101762302D01*
X107013618Y-101778150D01*
X106961620Y-101799500D01*
X104853937Y-101799500D01*
X104816937Y-101789586D01*
X104739287Y-101744755D01*
X104731784Y-101740423D01*
X104731781Y-101740422D01*
X104731779Y-101740421D01*
X104579059Y-101699500D01*
X104579057Y-101699500D01*
X98379057Y-101699500D01*
X98220943Y-101699500D01*
X98220941Y-101699500D01*
X98068220Y-101740421D01*
X98068214Y-101740424D01*
X97931282Y-101819481D01*
X97929046Y-101821197D01*
X97927673Y-101821564D01*
X97927084Y-101821905D01*
X97926992Y-101821747D01*
X97874338Y-101835854D01*
X97825290Y-101807533D01*
X97810000Y-101762487D01*
X97810000Y-100424000D01*
X97831674Y-100371674D01*
X97884000Y-100350000D01*
X137676000Y-100350000D01*
X137728326Y-100371674D01*
G37*
G04 #@! TD.AperFunction*
M02*
