G04 #@! TF.GenerationSoftware,KiCad,Pcbnew,10.0.6*
G04 #@! TF.CreationDate,2026-09-07T17:57:41+09:00*
G04 #@! TF.ProjectId,Matrix6,4d617472-6978-4362-9e6b-696361645f70,0.5*
G04 #@! TF.SameCoordinates,Original*
G04 #@! TF.FileFunction,Soldermask,Top*
G04 #@! TF.FilePolarity,Negative*
%FSLAX46Y46*%
G04 Gerber Fmt 4.6, Leading zero omitted, Abs format (unit mm)*
G04 Created by KiCad (PCBNEW 10.0.6) date 2026-09-07 17:57:41*
%MOMM*%
%LPD*%
G01*
G04 APERTURE LIST*
%ADD10R,1.700000X1.700000*%
%ADD11C,1.700000*%
%ADD12R,0.900000X1.700000*%
%ADD13R,1.500000X0.900000*%
%ADD14R,0.900000X1.500000*%
%ADD15C,0.600000*%
%ADD16R,3.900000X3.900000*%
%ADD17R,1.500000X3.600000*%
%ADD18C,0.650000*%
%ADD19O,1.000000X2.100000*%
%ADD20O,1.000000X1.800000*%
G04 APERTURE END LIST*
G36*
G01*
X127150000Y-134050000D02*
X125850000Y-134050000D01*
G75*
G02*
X125600000Y-133800000I0J250000D01*
G01*
X125600000Y-131800000D01*
G75*
G02*
X125850000Y-131550000I250000J0D01*
G01*
X127150000Y-131550000D01*
G75*
G02*
X127400000Y-131800000I0J-250000D01*
G01*
X127400000Y-133800000D01*
G75*
G02*
X127150000Y-134050000I-250000J0D01*
G01*
G37*
G36*
G01*
X127150000Y-130050000D02*
X125850000Y-130050000D01*
G75*
G02*
X125600000Y-129800000I0J250000D01*
G01*
X125600000Y-127800000D01*
G75*
G02*
X125850000Y-127550000I250000J0D01*
G01*
X127150000Y-127550000D01*
G75*
G02*
X127400000Y-127800000I0J-250000D01*
G01*
X127400000Y-129800000D01*
G75*
G02*
X127150000Y-130050000I-250000J0D01*
G01*
G37*
G36*
G01*
X122775000Y-143450000D02*
X121825000Y-143450000D01*
G75*
G02*
X121575000Y-143200000I0J250000D01*
G01*
X121575000Y-142700000D01*
G75*
G02*
X121825000Y-142450000I250000J0D01*
G01*
X122775000Y-142450000D01*
G75*
G02*
X123025000Y-142700000I0J-250000D01*
G01*
X123025000Y-143200000D01*
G75*
G02*
X122775000Y-143450000I-250000J0D01*
G01*
G37*
G36*
G01*
X122775000Y-141550000D02*
X121825000Y-141550000D01*
G75*
G02*
X121575000Y-141300000I0J250000D01*
G01*
X121575000Y-140800000D01*
G75*
G02*
X121825000Y-140550000I250000J0D01*
G01*
X122775000Y-140550000D01*
G75*
G02*
X123025000Y-140800000I0J-250000D01*
G01*
X123025000Y-141300000D01*
G75*
G02*
X122775000Y-141550000I-250000J0D01*
G01*
G37*
D10*
X134290000Y-153260000D03*
D11*
X134290000Y-150720000D03*
X134290000Y-148180000D03*
X134290000Y-145640000D03*
X134290000Y-143100000D03*
X134290000Y-140560000D03*
X134290000Y-138020000D03*
X134290000Y-135480000D03*
X134290000Y-132940000D03*
X134290000Y-130400000D03*
X134290000Y-127860000D03*
X134290000Y-125320000D03*
X134290000Y-122780000D03*
X134290000Y-120240000D03*
X134290000Y-117700000D03*
X134290000Y-115160000D03*
X134290000Y-112620000D03*
X134290000Y-110080000D03*
X134290000Y-107540000D03*
X134290000Y-105000000D03*
G36*
G01*
X106275000Y-108975000D02*
X105725000Y-108975000D01*
G75*
G02*
X105525000Y-108775000I0J200000D01*
G01*
X105525000Y-108375000D01*
G75*
G02*
X105725000Y-108175000I200000J0D01*
G01*
X106275000Y-108175000D01*
G75*
G02*
X106475000Y-108375000I0J-200000D01*
G01*
X106475000Y-108775000D01*
G75*
G02*
X106275000Y-108975000I-200000J0D01*
G01*
G37*
G36*
G01*
X106275000Y-107325000D02*
X105725000Y-107325000D01*
G75*
G02*
X105525000Y-107125000I0J200000D01*
G01*
X105525000Y-106725000D01*
G75*
G02*
X105725000Y-106525000I200000J0D01*
G01*
X106275000Y-106525000D01*
G75*
G02*
X106475000Y-106725000I0J-200000D01*
G01*
X106475000Y-107125000D01*
G75*
G02*
X106275000Y-107325000I-200000J0D01*
G01*
G37*
G36*
G01*
X117255000Y-150525000D02*
X117805000Y-150525000D01*
G75*
G02*
X118005000Y-150725000I0J-200000D01*
G01*
X118005000Y-151125000D01*
G75*
G02*
X117805000Y-151325000I-200000J0D01*
G01*
X117255000Y-151325000D01*
G75*
G02*
X117055000Y-151125000I0J200000D01*
G01*
X117055000Y-150725000D01*
G75*
G02*
X117255000Y-150525000I200000J0D01*
G01*
G37*
G36*
G01*
X117255000Y-152175000D02*
X117805000Y-152175000D01*
G75*
G02*
X118005000Y-152375000I0J-200000D01*
G01*
X118005000Y-152775000D01*
G75*
G02*
X117805000Y-152975000I-200000J0D01*
G01*
X117255000Y-152975000D01*
G75*
G02*
X117055000Y-152775000I0J200000D01*
G01*
X117055000Y-152375000D01*
G75*
G02*
X117255000Y-152175000I200000J0D01*
G01*
G37*
G36*
G01*
X128225000Y-141775000D02*
X128775000Y-141775000D01*
G75*
G02*
X128975000Y-141975000I0J-200000D01*
G01*
X128975000Y-142375000D01*
G75*
G02*
X128775000Y-142575000I-200000J0D01*
G01*
X128225000Y-142575000D01*
G75*
G02*
X128025000Y-142375000I0J200000D01*
G01*
X128025000Y-141975000D01*
G75*
G02*
X128225000Y-141775000I200000J0D01*
G01*
G37*
G36*
G01*
X128225000Y-143425000D02*
X128775000Y-143425000D01*
G75*
G02*
X128975000Y-143625000I0J-200000D01*
G01*
X128975000Y-144025000D01*
G75*
G02*
X128775000Y-144225000I-200000J0D01*
G01*
X128225000Y-144225000D01*
G75*
G02*
X128025000Y-144025000I0J200000D01*
G01*
X128025000Y-143625000D01*
G75*
G02*
X128225000Y-143425000I200000J0D01*
G01*
G37*
G36*
G01*
X106775000Y-151775000D02*
X106775000Y-151225000D01*
G75*
G02*
X106975000Y-151025000I200000J0D01*
G01*
X107375000Y-151025000D01*
G75*
G02*
X107575000Y-151225000I0J-200000D01*
G01*
X107575000Y-151775000D01*
G75*
G02*
X107375000Y-151975000I-200000J0D01*
G01*
X106975000Y-151975000D01*
G75*
G02*
X106775000Y-151775000I0J200000D01*
G01*
G37*
G36*
G01*
X108425000Y-151775000D02*
X108425000Y-151225000D01*
G75*
G02*
X108625000Y-151025000I200000J0D01*
G01*
X109025000Y-151025000D01*
G75*
G02*
X109225000Y-151225000I0J-200000D01*
G01*
X109225000Y-151775000D01*
G75*
G02*
X109025000Y-151975000I-200000J0D01*
G01*
X108625000Y-151975000D01*
G75*
G02*
X108425000Y-151775000I0J200000D01*
G01*
G37*
G36*
G01*
X107250000Y-101325000D02*
X107250000Y-102275000D01*
G75*
G02*
X107000000Y-102525000I-250000J0D01*
G01*
X106500000Y-102525000D01*
G75*
G02*
X106250000Y-102275000I0J250000D01*
G01*
X106250000Y-101325000D01*
G75*
G02*
X106500000Y-101075000I250000J0D01*
G01*
X107000000Y-101075000D01*
G75*
G02*
X107250000Y-101325000I0J-250000D01*
G01*
G37*
G36*
G01*
X105350000Y-101325000D02*
X105350000Y-102275000D01*
G75*
G02*
X105100000Y-102525000I-250000J0D01*
G01*
X104600000Y-102525000D01*
G75*
G02*
X104350000Y-102275000I0J250000D01*
G01*
X104350000Y-101325000D01*
G75*
G02*
X104600000Y-101075000I250000J0D01*
G01*
X105100000Y-101075000D01*
G75*
G02*
X105350000Y-101325000I0J-250000D01*
G01*
G37*
G36*
G01*
X128756250Y-147725000D02*
X128243750Y-147725000D01*
G75*
G02*
X128025000Y-147506250I0J218750D01*
G01*
X128025000Y-147068750D01*
G75*
G02*
X128243750Y-146850000I218750J0D01*
G01*
X128756250Y-146850000D01*
G75*
G02*
X128975000Y-147068750I0J-218750D01*
G01*
X128975000Y-147506250D01*
G75*
G02*
X128756250Y-147725000I-218750J0D01*
G01*
G37*
G36*
G01*
X128756250Y-146150000D02*
X128243750Y-146150000D01*
G75*
G02*
X128025000Y-145931250I0J218750D01*
G01*
X128025000Y-145493750D01*
G75*
G02*
X128243750Y-145275000I218750J0D01*
G01*
X128756250Y-145275000D01*
G75*
G02*
X128975000Y-145493750I0J-218750D01*
G01*
X128975000Y-145931250D01*
G75*
G02*
X128756250Y-146150000I-218750J0D01*
G01*
G37*
D10*
X101270000Y-153260000D03*
D11*
X101270000Y-150720000D03*
X101270000Y-148180000D03*
X101270000Y-145640000D03*
X101270000Y-143100000D03*
X101270000Y-140560000D03*
X101270000Y-138020000D03*
X101270000Y-135480000D03*
X101270000Y-132940000D03*
X101270000Y-130400000D03*
X101270000Y-127860000D03*
X101270000Y-125320000D03*
X101270000Y-122780000D03*
X101270000Y-120240000D03*
X101270000Y-117700000D03*
X101270000Y-115160000D03*
X101270000Y-112620000D03*
X101270000Y-110080000D03*
X101270000Y-107540000D03*
X101270000Y-105000000D03*
G36*
G01*
X107275000Y-124275000D02*
X107275000Y-123725000D01*
G75*
G02*
X107475000Y-123525000I200000J0D01*
G01*
X107875000Y-123525000D01*
G75*
G02*
X108075000Y-123725000I0J-200000D01*
G01*
X108075000Y-124275000D01*
G75*
G02*
X107875000Y-124475000I-200000J0D01*
G01*
X107475000Y-124475000D01*
G75*
G02*
X107275000Y-124275000I0J200000D01*
G01*
G37*
G36*
G01*
X108925000Y-124275000D02*
X108925000Y-123725000D01*
G75*
G02*
X109125000Y-123525000I200000J0D01*
G01*
X109525000Y-123525000D01*
G75*
G02*
X109725000Y-123725000I0J-200000D01*
G01*
X109725000Y-124275000D01*
G75*
G02*
X109525000Y-124475000I-200000J0D01*
G01*
X109125000Y-124475000D01*
G75*
G02*
X108925000Y-124275000I0J200000D01*
G01*
G37*
G36*
G01*
X106250000Y-112525000D02*
X105750000Y-112525000D01*
G75*
G02*
X105525000Y-112300000I0J225000D01*
G01*
X105525000Y-111850000D01*
G75*
G02*
X105750000Y-111625000I225000J0D01*
G01*
X106250000Y-111625000D01*
G75*
G02*
X106475000Y-111850000I0J-225000D01*
G01*
X106475000Y-112300000D01*
G75*
G02*
X106250000Y-112525000I-225000J0D01*
G01*
G37*
G36*
G01*
X106250000Y-110975000D02*
X105750000Y-110975000D01*
G75*
G02*
X105525000Y-110750000I0J225000D01*
G01*
X105525000Y-110300000D01*
G75*
G02*
X105750000Y-110075000I225000J0D01*
G01*
X106250000Y-110075000D01*
G75*
G02*
X106475000Y-110300000I0J-225000D01*
G01*
X106475000Y-110750000D01*
G75*
G02*
X106250000Y-110975000I-225000J0D01*
G01*
G37*
D12*
X126800000Y-158000000D03*
X130200000Y-158000000D03*
G36*
G01*
X123975000Y-151125000D02*
X123975000Y-149875000D01*
G75*
G02*
X124225000Y-149625000I250000J0D01*
G01*
X124975000Y-149625000D01*
G75*
G02*
X125225000Y-149875000I0J-250000D01*
G01*
X125225000Y-151125000D01*
G75*
G02*
X124975000Y-151375000I-250000J0D01*
G01*
X124225000Y-151375000D01*
G75*
G02*
X123975000Y-151125000I0J250000D01*
G01*
G37*
G36*
G01*
X126775000Y-151125000D02*
X126775000Y-149875000D01*
G75*
G02*
X127025000Y-149625000I250000J0D01*
G01*
X127775000Y-149625000D01*
G75*
G02*
X128025000Y-149875000I0J-250000D01*
G01*
X128025000Y-151125000D01*
G75*
G02*
X127775000Y-151375000I-250000J0D01*
G01*
X127025000Y-151375000D01*
G75*
G02*
X126775000Y-151125000I0J250000D01*
G01*
G37*
D13*
X109030000Y-101240000D03*
X109030000Y-102510000D03*
X109030000Y-103780000D03*
X109030000Y-105050000D03*
X109030000Y-106320000D03*
X109030000Y-107590000D03*
X109030000Y-108860000D03*
X109030000Y-110130000D03*
X109030000Y-111400000D03*
X109030000Y-112670000D03*
X109030000Y-113940000D03*
X109030000Y-115210000D03*
X109030000Y-116480000D03*
X109030000Y-117750000D03*
D14*
X110795000Y-119000000D03*
X112065000Y-119000000D03*
X113335000Y-119000000D03*
X114605000Y-119000000D03*
X115875000Y-119000000D03*
X117145000Y-119000000D03*
X118415000Y-119000000D03*
X119685000Y-119000000D03*
X120955000Y-119000000D03*
X122225000Y-119000000D03*
X123495000Y-119000000D03*
X124765000Y-119000000D03*
D13*
X126530000Y-117750000D03*
X126530000Y-116480000D03*
X126530000Y-115210000D03*
X126530000Y-113940000D03*
X126530000Y-112670000D03*
X126530000Y-111400000D03*
X126530000Y-110130000D03*
X126530000Y-108860000D03*
X126530000Y-107590000D03*
X126530000Y-106320000D03*
X126530000Y-105050000D03*
X126530000Y-103780000D03*
X126530000Y-102510000D03*
X126530000Y-101240000D03*
D15*
X114880000Y-108260000D03*
X114880000Y-109660000D03*
X115580000Y-107560000D03*
X115580000Y-108960000D03*
X115580000Y-110360000D03*
X116280000Y-108260000D03*
D16*
X116280000Y-108960000D03*
D15*
X116280000Y-109660000D03*
X116980000Y-107560000D03*
X116980000Y-108960000D03*
X116980000Y-110360000D03*
X117680000Y-108260000D03*
X117680000Y-109660000D03*
G36*
G01*
X120275000Y-151750000D02*
X120275000Y-151250000D01*
G75*
G02*
X120500000Y-151025000I225000J0D01*
G01*
X120950000Y-151025000D01*
G75*
G02*
X121175000Y-151250000I0J-225000D01*
G01*
X121175000Y-151750000D01*
G75*
G02*
X120950000Y-151975000I-225000J0D01*
G01*
X120500000Y-151975000D01*
G75*
G02*
X120275000Y-151750000I0J225000D01*
G01*
G37*
G36*
G01*
X121825000Y-151750000D02*
X121825000Y-151250000D01*
G75*
G02*
X122050000Y-151025000I225000J0D01*
G01*
X122500000Y-151025000D01*
G75*
G02*
X122725000Y-151250000I0J-225000D01*
G01*
X122725000Y-151750000D01*
G75*
G02*
X122500000Y-151975000I-225000J0D01*
G01*
X122050000Y-151975000D01*
G75*
G02*
X121825000Y-151750000I0J225000D01*
G01*
G37*
D17*
X120775000Y-138000000D03*
X123825000Y-138000000D03*
G36*
G01*
X114300000Y-150800000D02*
X114000000Y-150800000D01*
G75*
G02*
X113850000Y-150650000I0J150000D01*
G01*
X113850000Y-149625000D01*
G75*
G02*
X114000000Y-149475000I150000J0D01*
G01*
X114300000Y-149475000D01*
G75*
G02*
X114450000Y-149625000I0J-150000D01*
G01*
X114450000Y-150650000D01*
G75*
G02*
X114300000Y-150800000I-150000J0D01*
G01*
G37*
G36*
G01*
X115250000Y-150800000D02*
X114950000Y-150800000D01*
G75*
G02*
X114800000Y-150650000I0J150000D01*
G01*
X114800000Y-149625000D01*
G75*
G02*
X114950000Y-149475000I150000J0D01*
G01*
X115250000Y-149475000D01*
G75*
G02*
X115400000Y-149625000I0J-150000D01*
G01*
X115400000Y-150650000D01*
G75*
G02*
X115250000Y-150800000I-150000J0D01*
G01*
G37*
G36*
G01*
X116200000Y-150800000D02*
X115900000Y-150800000D01*
G75*
G02*
X115750000Y-150650000I0J150000D01*
G01*
X115750000Y-149625000D01*
G75*
G02*
X115900000Y-149475000I150000J0D01*
G01*
X116200000Y-149475000D01*
G75*
G02*
X116350000Y-149625000I0J-150000D01*
G01*
X116350000Y-150650000D01*
G75*
G02*
X116200000Y-150800000I-150000J0D01*
G01*
G37*
G36*
G01*
X116200000Y-148525000D02*
X115900000Y-148525000D01*
G75*
G02*
X115750000Y-148375000I0J150000D01*
G01*
X115750000Y-147350000D01*
G75*
G02*
X115900000Y-147200000I150000J0D01*
G01*
X116200000Y-147200000D01*
G75*
G02*
X116350000Y-147350000I0J-150000D01*
G01*
X116350000Y-148375000D01*
G75*
G02*
X116200000Y-148525000I-150000J0D01*
G01*
G37*
G36*
G01*
X115250000Y-148525000D02*
X114950000Y-148525000D01*
G75*
G02*
X114800000Y-148375000I0J150000D01*
G01*
X114800000Y-147350000D01*
G75*
G02*
X114950000Y-147200000I150000J0D01*
G01*
X115250000Y-147200000D01*
G75*
G02*
X115400000Y-147350000I0J-150000D01*
G01*
X115400000Y-148375000D01*
G75*
G02*
X115250000Y-148525000I-150000J0D01*
G01*
G37*
G36*
G01*
X114300000Y-148525000D02*
X114000000Y-148525000D01*
G75*
G02*
X113850000Y-148375000I0J150000D01*
G01*
X113850000Y-147350000D01*
G75*
G02*
X114000000Y-147200000I150000J0D01*
G01*
X114300000Y-147200000D01*
G75*
G02*
X114450000Y-147350000I0J-150000D01*
G01*
X114450000Y-148375000D01*
G75*
G02*
X114300000Y-148525000I-150000J0D01*
G01*
G37*
G36*
G01*
X106250000Y-105725000D02*
X105750000Y-105725000D01*
G75*
G02*
X105525000Y-105500000I0J225000D01*
G01*
X105525000Y-105050000D01*
G75*
G02*
X105750000Y-104825000I225000J0D01*
G01*
X106250000Y-104825000D01*
G75*
G02*
X106475000Y-105050000I0J-225000D01*
G01*
X106475000Y-105500000D01*
G75*
G02*
X106250000Y-105725000I-225000J0D01*
G01*
G37*
G36*
G01*
X106250000Y-104175000D02*
X105750000Y-104175000D01*
G75*
G02*
X105525000Y-103950000I0J225000D01*
G01*
X105525000Y-103500000D01*
G75*
G02*
X105750000Y-103275000I225000J0D01*
G01*
X106250000Y-103275000D01*
G75*
G02*
X106475000Y-103500000I0J-225000D01*
G01*
X106475000Y-103950000D01*
G75*
G02*
X106250000Y-104175000I-225000J0D01*
G01*
G37*
D12*
X105800000Y-158000000D03*
X109200000Y-158000000D03*
G36*
G01*
X108256250Y-147725000D02*
X107743750Y-147725000D01*
G75*
G02*
X107525000Y-147506250I0J218750D01*
G01*
X107525000Y-147068750D01*
G75*
G02*
X107743750Y-146850000I218750J0D01*
G01*
X108256250Y-146850000D01*
G75*
G02*
X108475000Y-147068750I0J-218750D01*
G01*
X108475000Y-147506250D01*
G75*
G02*
X108256250Y-147725000I-218750J0D01*
G01*
G37*
G36*
G01*
X108256250Y-146150000D02*
X107743750Y-146150000D01*
G75*
G02*
X107525000Y-145931250I0J218750D01*
G01*
X107525000Y-145493750D01*
G75*
G02*
X107743750Y-145275000I218750J0D01*
G01*
X108256250Y-145275000D01*
G75*
G02*
X108475000Y-145493750I0J-218750D01*
G01*
X108475000Y-145931250D01*
G75*
G02*
X108256250Y-146150000I-218750J0D01*
G01*
G37*
G36*
G01*
X105275000Y-118175000D02*
X105275000Y-117625000D01*
G75*
G02*
X105475000Y-117425000I200000J0D01*
G01*
X105875000Y-117425000D01*
G75*
G02*
X106075000Y-117625000I0J-200000D01*
G01*
X106075000Y-118175000D01*
G75*
G02*
X105875000Y-118375000I-200000J0D01*
G01*
X105475000Y-118375000D01*
G75*
G02*
X105275000Y-118175000I0J200000D01*
G01*
G37*
G36*
G01*
X106925000Y-118175000D02*
X106925000Y-117625000D01*
G75*
G02*
X107125000Y-117425000I200000J0D01*
G01*
X107525000Y-117425000D01*
G75*
G02*
X107725000Y-117625000I0J-200000D01*
G01*
X107725000Y-118175000D01*
G75*
G02*
X107525000Y-118375000I-200000J0D01*
G01*
X107125000Y-118375000D01*
G75*
G02*
X106925000Y-118175000I0J200000D01*
G01*
G37*
G36*
G01*
X105275000Y-116575000D02*
X105275000Y-116025000D01*
G75*
G02*
X105475000Y-115825000I200000J0D01*
G01*
X105875000Y-115825000D01*
G75*
G02*
X106075000Y-116025000I0J-200000D01*
G01*
X106075000Y-116575000D01*
G75*
G02*
X105875000Y-116775000I-200000J0D01*
G01*
X105475000Y-116775000D01*
G75*
G02*
X105275000Y-116575000I0J200000D01*
G01*
G37*
G36*
G01*
X106925000Y-116575000D02*
X106925000Y-116025000D01*
G75*
G02*
X107125000Y-115825000I200000J0D01*
G01*
X107525000Y-115825000D01*
G75*
G02*
X107725000Y-116025000I0J-200000D01*
G01*
X107725000Y-116575000D01*
G75*
G02*
X107525000Y-116775000I-200000J0D01*
G01*
X107125000Y-116775000D01*
G75*
G02*
X106925000Y-116575000I0J200000D01*
G01*
G37*
D18*
X114890000Y-155395000D03*
X120670000Y-155395000D03*
G36*
G01*
X114280000Y-154745000D02*
X114280000Y-153895000D01*
G75*
G02*
X114430000Y-153745000I150000J0D01*
G01*
X114730000Y-153745000D01*
G75*
G02*
X114880000Y-153895000I0J-150000D01*
G01*
X114880000Y-154745000D01*
G75*
G02*
X114730000Y-154895000I-150000J0D01*
G01*
X114430000Y-154895000D01*
G75*
G02*
X114280000Y-154745000I0J150000D01*
G01*
G37*
G36*
G01*
X115080000Y-154745000D02*
X115080000Y-153895000D01*
G75*
G02*
X115230000Y-153745000I150000J0D01*
G01*
X115530000Y-153745000D01*
G75*
G02*
X115680000Y-153895000I0J-150000D01*
G01*
X115680000Y-154745000D01*
G75*
G02*
X115530000Y-154895000I-150000J0D01*
G01*
X115230000Y-154895000D01*
G75*
G02*
X115080000Y-154745000I0J150000D01*
G01*
G37*
G36*
G01*
X116380000Y-154820000D02*
X116380000Y-153820000D01*
G75*
G02*
X116455000Y-153745000I75000J0D01*
G01*
X116605000Y-153745000D01*
G75*
G02*
X116680000Y-153820000I0J-75000D01*
G01*
X116680000Y-154820000D01*
G75*
G02*
X116605000Y-154895000I-75000J0D01*
G01*
X116455000Y-154895000D01*
G75*
G02*
X116380000Y-154820000I0J75000D01*
G01*
G37*
G36*
G01*
X117380000Y-154820000D02*
X117380000Y-153820000D01*
G75*
G02*
X117455000Y-153745000I75000J0D01*
G01*
X117605000Y-153745000D01*
G75*
G02*
X117680000Y-153820000I0J-75000D01*
G01*
X117680000Y-154820000D01*
G75*
G02*
X117605000Y-154895000I-75000J0D01*
G01*
X117455000Y-154895000D01*
G75*
G02*
X117380000Y-154820000I0J75000D01*
G01*
G37*
G36*
G01*
X117880000Y-154820000D02*
X117880000Y-153820000D01*
G75*
G02*
X117955000Y-153745000I75000J0D01*
G01*
X118105000Y-153745000D01*
G75*
G02*
X118180000Y-153820000I0J-75000D01*
G01*
X118180000Y-154820000D01*
G75*
G02*
X118105000Y-154895000I-75000J0D01*
G01*
X117955000Y-154895000D01*
G75*
G02*
X117880000Y-154820000I0J75000D01*
G01*
G37*
G36*
G01*
X118880000Y-154820000D02*
X118880000Y-153820000D01*
G75*
G02*
X118955000Y-153745000I75000J0D01*
G01*
X119105000Y-153745000D01*
G75*
G02*
X119180000Y-153820000I0J-75000D01*
G01*
X119180000Y-154820000D01*
G75*
G02*
X119105000Y-154895000I-75000J0D01*
G01*
X118955000Y-154895000D01*
G75*
G02*
X118880000Y-154820000I0J75000D01*
G01*
G37*
G36*
G01*
X119880000Y-154745000D02*
X119880000Y-153895000D01*
G75*
G02*
X120030000Y-153745000I150000J0D01*
G01*
X120330000Y-153745000D01*
G75*
G02*
X120480000Y-153895000I0J-150000D01*
G01*
X120480000Y-154745000D01*
G75*
G02*
X120330000Y-154895000I-150000J0D01*
G01*
X120030000Y-154895000D01*
G75*
G02*
X119880000Y-154745000I0J150000D01*
G01*
G37*
G36*
G01*
X120680000Y-154745000D02*
X120680000Y-153895000D01*
G75*
G02*
X120830000Y-153745000I150000J0D01*
G01*
X121130000Y-153745000D01*
G75*
G02*
X121280000Y-153895000I0J-150000D01*
G01*
X121280000Y-154745000D01*
G75*
G02*
X121130000Y-154895000I-150000J0D01*
G01*
X120830000Y-154895000D01*
G75*
G02*
X120680000Y-154745000I0J150000D01*
G01*
G37*
G36*
G01*
X120680000Y-154745000D02*
X120680000Y-153895000D01*
G75*
G02*
X120830000Y-153745000I150000J0D01*
G01*
X121130000Y-153745000D01*
G75*
G02*
X121280000Y-153895000I0J-150000D01*
G01*
X121280000Y-154745000D01*
G75*
G02*
X121130000Y-154895000I-150000J0D01*
G01*
X120830000Y-154895000D01*
G75*
G02*
X120680000Y-154745000I0J150000D01*
G01*
G37*
G36*
G01*
X119880000Y-154745000D02*
X119880000Y-153895000D01*
G75*
G02*
X120030000Y-153745000I150000J0D01*
G01*
X120330000Y-153745000D01*
G75*
G02*
X120480000Y-153895000I0J-150000D01*
G01*
X120480000Y-154745000D01*
G75*
G02*
X120330000Y-154895000I-150000J0D01*
G01*
X120030000Y-154895000D01*
G75*
G02*
X119880000Y-154745000I0J150000D01*
G01*
G37*
G36*
G01*
X119380000Y-154820000D02*
X119380000Y-153820000D01*
G75*
G02*
X119455000Y-153745000I75000J0D01*
G01*
X119605000Y-153745000D01*
G75*
G02*
X119680000Y-153820000I0J-75000D01*
G01*
X119680000Y-154820000D01*
G75*
G02*
X119605000Y-154895000I-75000J0D01*
G01*
X119455000Y-154895000D01*
G75*
G02*
X119380000Y-154820000I0J75000D01*
G01*
G37*
G36*
G01*
X118380000Y-154820000D02*
X118380000Y-153820000D01*
G75*
G02*
X118455000Y-153745000I75000J0D01*
G01*
X118605000Y-153745000D01*
G75*
G02*
X118680000Y-153820000I0J-75000D01*
G01*
X118680000Y-154820000D01*
G75*
G02*
X118605000Y-154895000I-75000J0D01*
G01*
X118455000Y-154895000D01*
G75*
G02*
X118380000Y-154820000I0J75000D01*
G01*
G37*
G36*
G01*
X116880000Y-154820000D02*
X116880000Y-153820000D01*
G75*
G02*
X116955000Y-153745000I75000J0D01*
G01*
X117105000Y-153745000D01*
G75*
G02*
X117180000Y-153820000I0J-75000D01*
G01*
X117180000Y-154820000D01*
G75*
G02*
X117105000Y-154895000I-75000J0D01*
G01*
X116955000Y-154895000D01*
G75*
G02*
X116880000Y-154820000I0J75000D01*
G01*
G37*
G36*
G01*
X115880000Y-154820000D02*
X115880000Y-153820000D01*
G75*
G02*
X115955000Y-153745000I75000J0D01*
G01*
X116105000Y-153745000D01*
G75*
G02*
X116180000Y-153820000I0J-75000D01*
G01*
X116180000Y-154820000D01*
G75*
G02*
X116105000Y-154895000I-75000J0D01*
G01*
X115955000Y-154895000D01*
G75*
G02*
X115880000Y-154820000I0J75000D01*
G01*
G37*
G36*
G01*
X115080000Y-154745000D02*
X115080000Y-153895000D01*
G75*
G02*
X115230000Y-153745000I150000J0D01*
G01*
X115530000Y-153745000D01*
G75*
G02*
X115680000Y-153895000I0J-150000D01*
G01*
X115680000Y-154745000D01*
G75*
G02*
X115530000Y-154895000I-150000J0D01*
G01*
X115230000Y-154895000D01*
G75*
G02*
X115080000Y-154745000I0J150000D01*
G01*
G37*
G36*
G01*
X114280000Y-154745000D02*
X114280000Y-153895000D01*
G75*
G02*
X114430000Y-153745000I150000J0D01*
G01*
X114730000Y-153745000D01*
G75*
G02*
X114880000Y-153895000I0J-150000D01*
G01*
X114880000Y-154745000D01*
G75*
G02*
X114730000Y-154895000I-150000J0D01*
G01*
X114430000Y-154895000D01*
G75*
G02*
X114280000Y-154745000I0J150000D01*
G01*
G37*
D19*
X113460000Y-154895000D03*
D20*
X113460000Y-159075000D03*
D19*
X122100000Y-154895000D03*
D20*
X122100000Y-159075000D03*
G36*
G01*
X115700000Y-137200000D02*
X115700000Y-136900000D01*
G75*
G02*
X115850000Y-136750000I150000J0D01*
G01*
X116875000Y-136750000D01*
G75*
G02*
X117025000Y-136900000I0J-150000D01*
G01*
X117025000Y-137200000D01*
G75*
G02*
X116875000Y-137350000I-150000J0D01*
G01*
X115850000Y-137350000D01*
G75*
G02*
X115700000Y-137200000I0J150000D01*
G01*
G37*
G36*
G01*
X115700000Y-138150000D02*
X115700000Y-137850000D01*
G75*
G02*
X115850000Y-137700000I150000J0D01*
G01*
X116875000Y-137700000D01*
G75*
G02*
X117025000Y-137850000I0J-150000D01*
G01*
X117025000Y-138150000D01*
G75*
G02*
X116875000Y-138300000I-150000J0D01*
G01*
X115850000Y-138300000D01*
G75*
G02*
X115700000Y-138150000I0J150000D01*
G01*
G37*
G36*
G01*
X115700000Y-139100000D02*
X115700000Y-138800000D01*
G75*
G02*
X115850000Y-138650000I150000J0D01*
G01*
X116875000Y-138650000D01*
G75*
G02*
X117025000Y-138800000I0J-150000D01*
G01*
X117025000Y-139100000D01*
G75*
G02*
X116875000Y-139250000I-150000J0D01*
G01*
X115850000Y-139250000D01*
G75*
G02*
X115700000Y-139100000I0J150000D01*
G01*
G37*
G36*
G01*
X117975000Y-139100000D02*
X117975000Y-138800000D01*
G75*
G02*
X118125000Y-138650000I150000J0D01*
G01*
X119150000Y-138650000D01*
G75*
G02*
X119300000Y-138800000I0J-150000D01*
G01*
X119300000Y-139100000D01*
G75*
G02*
X119150000Y-139250000I-150000J0D01*
G01*
X118125000Y-139250000D01*
G75*
G02*
X117975000Y-139100000I0J150000D01*
G01*
G37*
G36*
G01*
X117975000Y-138150000D02*
X117975000Y-137850000D01*
G75*
G02*
X118125000Y-137700000I150000J0D01*
G01*
X119150000Y-137700000D01*
G75*
G02*
X119300000Y-137850000I0J-150000D01*
G01*
X119300000Y-138150000D01*
G75*
G02*
X119150000Y-138300000I-150000J0D01*
G01*
X118125000Y-138300000D01*
G75*
G02*
X117975000Y-138150000I0J150000D01*
G01*
G37*
G36*
G01*
X117975000Y-137200000D02*
X117975000Y-136900000D01*
G75*
G02*
X118125000Y-136750000I150000J0D01*
G01*
X119150000Y-136750000D01*
G75*
G02*
X119300000Y-136900000I0J-150000D01*
G01*
X119300000Y-137200000D01*
G75*
G02*
X119150000Y-137350000I-150000J0D01*
G01*
X118125000Y-137350000D01*
G75*
G02*
X117975000Y-137200000I0J150000D01*
G01*
G37*
G36*
G01*
X122775000Y-146950000D02*
X121825000Y-146950000D01*
G75*
G02*
X121575000Y-146700000I0J250000D01*
G01*
X121575000Y-146200000D01*
G75*
G02*
X121825000Y-145950000I250000J0D01*
G01*
X122775000Y-145950000D01*
G75*
G02*
X123025000Y-146200000I0J-250000D01*
G01*
X123025000Y-146700000D01*
G75*
G02*
X122775000Y-146950000I-250000J0D01*
G01*
G37*
G36*
G01*
X122775000Y-145050000D02*
X121825000Y-145050000D01*
G75*
G02*
X121575000Y-144800000I0J250000D01*
G01*
X121575000Y-144300000D01*
G75*
G02*
X121825000Y-144050000I250000J0D01*
G01*
X122775000Y-144050000D01*
G75*
G02*
X123025000Y-144300000I0J-250000D01*
G01*
X123025000Y-144800000D01*
G75*
G02*
X122775000Y-145050000I-250000J0D01*
G01*
G37*
G36*
G01*
X127275000Y-153275000D02*
X127275000Y-152725000D01*
G75*
G02*
X127475000Y-152525000I200000J0D01*
G01*
X127875000Y-152525000D01*
G75*
G02*
X128075000Y-152725000I0J-200000D01*
G01*
X128075000Y-153275000D01*
G75*
G02*
X127875000Y-153475000I-200000J0D01*
G01*
X127475000Y-153475000D01*
G75*
G02*
X127275000Y-153275000I0J200000D01*
G01*
G37*
G36*
G01*
X128925000Y-153275000D02*
X128925000Y-152725000D01*
G75*
G02*
X129125000Y-152525000I200000J0D01*
G01*
X129525000Y-152525000D01*
G75*
G02*
X129725000Y-152725000I0J-200000D01*
G01*
X129725000Y-153275000D01*
G75*
G02*
X129525000Y-153475000I-200000J0D01*
G01*
X129125000Y-153475000D01*
G75*
G02*
X128925000Y-153275000I0J200000D01*
G01*
G37*
G36*
G01*
X120275000Y-123275000D02*
X120275000Y-122725000D01*
G75*
G02*
X120475000Y-122525000I200000J0D01*
G01*
X120875000Y-122525000D01*
G75*
G02*
X121075000Y-122725000I0J-200000D01*
G01*
X121075000Y-123275000D01*
G75*
G02*
X120875000Y-123475000I-200000J0D01*
G01*
X120475000Y-123475000D01*
G75*
G02*
X120275000Y-123275000I0J200000D01*
G01*
G37*
G36*
G01*
X121925000Y-123275000D02*
X121925000Y-122725000D01*
G75*
G02*
X122125000Y-122525000I200000J0D01*
G01*
X122525000Y-122525000D01*
G75*
G02*
X122725000Y-122725000I0J-200000D01*
G01*
X122725000Y-123275000D01*
G75*
G02*
X122525000Y-123475000I-200000J0D01*
G01*
X122125000Y-123475000D01*
G75*
G02*
X121925000Y-123275000I0J200000D01*
G01*
G37*
G36*
G01*
X121075000Y-128275000D02*
X121075000Y-127725000D01*
G75*
G02*
X121275000Y-127525000I200000J0D01*
G01*
X121675000Y-127525000D01*
G75*
G02*
X121875000Y-127725000I0J-200000D01*
G01*
X121875000Y-128275000D01*
G75*
G02*
X121675000Y-128475000I-200000J0D01*
G01*
X121275000Y-128475000D01*
G75*
G02*
X121075000Y-128275000I0J200000D01*
G01*
G37*
G36*
G01*
X122725000Y-128275000D02*
X122725000Y-127725000D01*
G75*
G02*
X122925000Y-127525000I200000J0D01*
G01*
X123325000Y-127525000D01*
G75*
G02*
X123525000Y-127725000I0J-200000D01*
G01*
X123525000Y-128275000D01*
G75*
G02*
X123325000Y-128475000I-200000J0D01*
G01*
X122925000Y-128475000D01*
G75*
G02*
X122725000Y-128275000I0J200000D01*
G01*
G37*
G36*
G01*
X117675000Y-134550000D02*
X117675000Y-134050000D01*
G75*
G02*
X117900000Y-133825000I225000J0D01*
G01*
X118350000Y-133825000D01*
G75*
G02*
X118575000Y-134050000I0J-225000D01*
G01*
X118575000Y-134550000D01*
G75*
G02*
X118350000Y-134775000I-225000J0D01*
G01*
X117900000Y-134775000D01*
G75*
G02*
X117675000Y-134550000I0J225000D01*
G01*
G37*
G36*
G01*
X119225000Y-134550000D02*
X119225000Y-134050000D01*
G75*
G02*
X119450000Y-133825000I225000J0D01*
G01*
X119900000Y-133825000D01*
G75*
G02*
X120125000Y-134050000I0J-225000D01*
G01*
X120125000Y-134550000D01*
G75*
G02*
X119900000Y-134775000I-225000J0D01*
G01*
X119450000Y-134775000D01*
G75*
G02*
X119225000Y-134550000I0J225000D01*
G01*
G37*
G36*
G01*
X107725000Y-140775000D02*
X108275000Y-140775000D01*
G75*
G02*
X108475000Y-140975000I0J-200000D01*
G01*
X108475000Y-141375000D01*
G75*
G02*
X108275000Y-141575000I-200000J0D01*
G01*
X107725000Y-141575000D01*
G75*
G02*
X107525000Y-141375000I0J200000D01*
G01*
X107525000Y-140975000D01*
G75*
G02*
X107725000Y-140775000I200000J0D01*
G01*
G37*
G36*
G01*
X107725000Y-142425000D02*
X108275000Y-142425000D01*
G75*
G02*
X108475000Y-142625000I0J-200000D01*
G01*
X108475000Y-143025000D01*
G75*
G02*
X108275000Y-143225000I-200000J0D01*
G01*
X107725000Y-143225000D01*
G75*
G02*
X107525000Y-143025000I0J200000D01*
G01*
X107525000Y-142625000D01*
G75*
G02*
X107725000Y-142425000I200000J0D01*
G01*
G37*
G36*
G01*
X116050000Y-141775000D02*
X116050000Y-140825000D01*
G75*
G02*
X116300000Y-140575000I250000J0D01*
G01*
X116800000Y-140575000D01*
G75*
G02*
X117050000Y-140825000I0J-250000D01*
G01*
X117050000Y-141775000D01*
G75*
G02*
X116800000Y-142025000I-250000J0D01*
G01*
X116300000Y-142025000D01*
G75*
G02*
X116050000Y-141775000I0J250000D01*
G01*
G37*
G36*
G01*
X117950000Y-141775000D02*
X117950000Y-140825000D01*
G75*
G02*
X118200000Y-140575000I250000J0D01*
G01*
X118700000Y-140575000D01*
G75*
G02*
X118950000Y-140825000I0J-250000D01*
G01*
X118950000Y-141775000D01*
G75*
G02*
X118700000Y-142025000I-250000J0D01*
G01*
X118200000Y-142025000D01*
G75*
G02*
X117950000Y-141775000I0J250000D01*
G01*
G37*
M02*
