G04 #@! TF.GenerationSoftware,KiCad,Pcbnew,10.0.6*
G04 #@! TF.CreationDate,2026-09-07T17:57:41+09:00*
G04 #@! TF.ProjectId,Matrix6,4d617472-6978-4362-9e6b-696361645f70,0.5*
G04 #@! TF.SameCoordinates,Original*
G04 #@! TF.FileFunction,Legend,Bot*
G04 #@! TF.FilePolarity,Positive*
%FSLAX46Y46*%
G04 Gerber Fmt 4.6, Leading zero omitted, Abs format (unit mm)*
G04 Created by KiCad (PCBNEW 10.0.6) date 2026-09-07 17:57:41*
%MOMM*%
%LPD*%
G01*
G04 APERTURE LIST*
%ADD10C,0.120000*%
%ADD11C,0.140000*%
%ADD12R,1.700000X1.700000*%
%ADD13C,1.700000*%
%ADD14C,0.650000*%
%ADD15O,1.000000X2.100000*%
%ADD16O,1.000000X1.800000*%
G04 APERTURE END LIST*
D10*
X104252381Y-105363855D02*
X104709524Y-105363855D01*
X104480952Y-105363855D02*
X104480952Y-104563855D01*
X104480952Y-104563855D02*
X104557143Y-104678140D01*
X104557143Y-104678140D02*
X104633333Y-104754331D01*
X104633333Y-104754331D02*
X104709524Y-104792426D01*
X103566666Y-104563855D02*
X103719047Y-104563855D01*
X103719047Y-104563855D02*
X103795238Y-104601950D01*
X103795238Y-104601950D02*
X103833333Y-104640045D01*
X103833333Y-104640045D02*
X103909523Y-104754331D01*
X103909523Y-104754331D02*
X103947619Y-104906712D01*
X103947619Y-104906712D02*
X103947619Y-105211474D01*
X103947619Y-105211474D02*
X103909523Y-105287664D01*
X103909523Y-105287664D02*
X103871428Y-105325760D01*
X103871428Y-105325760D02*
X103795238Y-105363855D01*
X103795238Y-105363855D02*
X103642857Y-105363855D01*
X103642857Y-105363855D02*
X103566666Y-105325760D01*
X103566666Y-105325760D02*
X103528571Y-105287664D01*
X103528571Y-105287664D02*
X103490476Y-105211474D01*
X103490476Y-105211474D02*
X103490476Y-105020998D01*
X103490476Y-105020998D02*
X103528571Y-104944807D01*
X103528571Y-104944807D02*
X103566666Y-104906712D01*
X103566666Y-104906712D02*
X103642857Y-104868617D01*
X103642857Y-104868617D02*
X103795238Y-104868617D01*
X103795238Y-104868617D02*
X103871428Y-104906712D01*
X103871428Y-104906712D02*
X103909523Y-104944807D01*
X103909523Y-104944807D02*
X103947619Y-105020998D01*
X104252381Y-107903855D02*
X104709524Y-107903855D01*
X104480952Y-107903855D02*
X104480952Y-107103855D01*
X104480952Y-107103855D02*
X104557143Y-107218140D01*
X104557143Y-107218140D02*
X104633333Y-107294331D01*
X104633333Y-107294331D02*
X104709524Y-107332426D01*
X103528571Y-107103855D02*
X103909523Y-107103855D01*
X103909523Y-107103855D02*
X103947619Y-107484807D01*
X103947619Y-107484807D02*
X103909523Y-107446712D01*
X103909523Y-107446712D02*
X103833333Y-107408617D01*
X103833333Y-107408617D02*
X103642857Y-107408617D01*
X103642857Y-107408617D02*
X103566666Y-107446712D01*
X103566666Y-107446712D02*
X103528571Y-107484807D01*
X103528571Y-107484807D02*
X103490476Y-107560998D01*
X103490476Y-107560998D02*
X103490476Y-107751474D01*
X103490476Y-107751474D02*
X103528571Y-107827664D01*
X103528571Y-107827664D02*
X103566666Y-107865760D01*
X103566666Y-107865760D02*
X103642857Y-107903855D01*
X103642857Y-107903855D02*
X103833333Y-107903855D01*
X103833333Y-107903855D02*
X103909523Y-107865760D01*
X103909523Y-107865760D02*
X103947619Y-107827664D01*
X104252381Y-110443855D02*
X104709524Y-110443855D01*
X104480952Y-110443855D02*
X104480952Y-109643855D01*
X104480952Y-109643855D02*
X104557143Y-109758140D01*
X104557143Y-109758140D02*
X104633333Y-109834331D01*
X104633333Y-109834331D02*
X104709524Y-109872426D01*
X103566666Y-109910521D02*
X103566666Y-110443855D01*
X103757142Y-109605760D02*
X103947619Y-110177188D01*
X103947619Y-110177188D02*
X103452380Y-110177188D01*
X104252381Y-112983855D02*
X104709524Y-112983855D01*
X104480952Y-112983855D02*
X104480952Y-112183855D01*
X104480952Y-112183855D02*
X104557143Y-112298140D01*
X104557143Y-112298140D02*
X104633333Y-112374331D01*
X104633333Y-112374331D02*
X104709524Y-112412426D01*
X103985714Y-112183855D02*
X103490476Y-112183855D01*
X103490476Y-112183855D02*
X103757142Y-112488617D01*
X103757142Y-112488617D02*
X103642857Y-112488617D01*
X103642857Y-112488617D02*
X103566666Y-112526712D01*
X103566666Y-112526712D02*
X103528571Y-112564807D01*
X103528571Y-112564807D02*
X103490476Y-112640998D01*
X103490476Y-112640998D02*
X103490476Y-112831474D01*
X103490476Y-112831474D02*
X103528571Y-112907664D01*
X103528571Y-112907664D02*
X103566666Y-112945760D01*
X103566666Y-112945760D02*
X103642857Y-112983855D01*
X103642857Y-112983855D02*
X103871428Y-112983855D01*
X103871428Y-112983855D02*
X103947619Y-112945760D01*
X103947619Y-112945760D02*
X103985714Y-112907664D01*
X104252381Y-115523855D02*
X104709524Y-115523855D01*
X104480952Y-115523855D02*
X104480952Y-114723855D01*
X104480952Y-114723855D02*
X104557143Y-114838140D01*
X104557143Y-114838140D02*
X104633333Y-114914331D01*
X104633333Y-114914331D02*
X104709524Y-114952426D01*
X103947619Y-114800045D02*
X103909523Y-114761950D01*
X103909523Y-114761950D02*
X103833333Y-114723855D01*
X103833333Y-114723855D02*
X103642857Y-114723855D01*
X103642857Y-114723855D02*
X103566666Y-114761950D01*
X103566666Y-114761950D02*
X103528571Y-114800045D01*
X103528571Y-114800045D02*
X103490476Y-114876236D01*
X103490476Y-114876236D02*
X103490476Y-114952426D01*
X103490476Y-114952426D02*
X103528571Y-115066712D01*
X103528571Y-115066712D02*
X103985714Y-115523855D01*
X103985714Y-115523855D02*
X103490476Y-115523855D01*
X104252381Y-118063855D02*
X104709524Y-118063855D01*
X104480952Y-118063855D02*
X104480952Y-117263855D01*
X104480952Y-117263855D02*
X104557143Y-117378140D01*
X104557143Y-117378140D02*
X104633333Y-117454331D01*
X104633333Y-117454331D02*
X104709524Y-117492426D01*
X103490476Y-118063855D02*
X103947619Y-118063855D01*
X103719047Y-118063855D02*
X103719047Y-117263855D01*
X103719047Y-117263855D02*
X103795238Y-117378140D01*
X103795238Y-117378140D02*
X103871428Y-117454331D01*
X103871428Y-117454331D02*
X103947619Y-117492426D01*
X104252381Y-120603855D02*
X104709524Y-120603855D01*
X104480952Y-120603855D02*
X104480952Y-119803855D01*
X104480952Y-119803855D02*
X104557143Y-119918140D01*
X104557143Y-119918140D02*
X104633333Y-119994331D01*
X104633333Y-119994331D02*
X104709524Y-120032426D01*
X103757142Y-119803855D02*
X103680952Y-119803855D01*
X103680952Y-119803855D02*
X103604761Y-119841950D01*
X103604761Y-119841950D02*
X103566666Y-119880045D01*
X103566666Y-119880045D02*
X103528571Y-119956236D01*
X103528571Y-119956236D02*
X103490476Y-120108617D01*
X103490476Y-120108617D02*
X103490476Y-120299093D01*
X103490476Y-120299093D02*
X103528571Y-120451474D01*
X103528571Y-120451474D02*
X103566666Y-120527664D01*
X103566666Y-120527664D02*
X103604761Y-120565760D01*
X103604761Y-120565760D02*
X103680952Y-120603855D01*
X103680952Y-120603855D02*
X103757142Y-120603855D01*
X103757142Y-120603855D02*
X103833333Y-120565760D01*
X103833333Y-120565760D02*
X103871428Y-120527664D01*
X103871428Y-120527664D02*
X103909523Y-120451474D01*
X103909523Y-120451474D02*
X103947619Y-120299093D01*
X103947619Y-120299093D02*
X103947619Y-120108617D01*
X103947619Y-120108617D02*
X103909523Y-119956236D01*
X103909523Y-119956236D02*
X103871428Y-119880045D01*
X103871428Y-119880045D02*
X103833333Y-119841950D01*
X103833333Y-119841950D02*
X103757142Y-119803855D01*
X104252380Y-123143855D02*
X104099999Y-123143855D01*
X104099999Y-123143855D02*
X104023809Y-123105760D01*
X104023809Y-123105760D02*
X103985713Y-123067664D01*
X103985713Y-123067664D02*
X103909523Y-122953379D01*
X103909523Y-122953379D02*
X103871428Y-122800998D01*
X103871428Y-122800998D02*
X103871428Y-122496236D01*
X103871428Y-122496236D02*
X103909523Y-122420045D01*
X103909523Y-122420045D02*
X103947618Y-122381950D01*
X103947618Y-122381950D02*
X104023809Y-122343855D01*
X104023809Y-122343855D02*
X104176190Y-122343855D01*
X104176190Y-122343855D02*
X104252380Y-122381950D01*
X104252380Y-122381950D02*
X104290475Y-122420045D01*
X104290475Y-122420045D02*
X104328571Y-122496236D01*
X104328571Y-122496236D02*
X104328571Y-122686712D01*
X104328571Y-122686712D02*
X104290475Y-122762902D01*
X104290475Y-122762902D02*
X104252380Y-122800998D01*
X104252380Y-122800998D02*
X104176190Y-122839093D01*
X104176190Y-122839093D02*
X104023809Y-122839093D01*
X104023809Y-122839093D02*
X103947618Y-122800998D01*
X103947618Y-122800998D02*
X103909523Y-122762902D01*
X103909523Y-122762902D02*
X103871428Y-122686712D01*
X104176190Y-125226712D02*
X104252380Y-125188617D01*
X104252380Y-125188617D02*
X104290475Y-125150521D01*
X104290475Y-125150521D02*
X104328571Y-125074331D01*
X104328571Y-125074331D02*
X104328571Y-125036236D01*
X104328571Y-125036236D02*
X104290475Y-124960045D01*
X104290475Y-124960045D02*
X104252380Y-124921950D01*
X104252380Y-124921950D02*
X104176190Y-124883855D01*
X104176190Y-124883855D02*
X104023809Y-124883855D01*
X104023809Y-124883855D02*
X103947618Y-124921950D01*
X103947618Y-124921950D02*
X103909523Y-124960045D01*
X103909523Y-124960045D02*
X103871428Y-125036236D01*
X103871428Y-125036236D02*
X103871428Y-125074331D01*
X103871428Y-125074331D02*
X103909523Y-125150521D01*
X103909523Y-125150521D02*
X103947618Y-125188617D01*
X103947618Y-125188617D02*
X104023809Y-125226712D01*
X104023809Y-125226712D02*
X104176190Y-125226712D01*
X104176190Y-125226712D02*
X104252380Y-125264807D01*
X104252380Y-125264807D02*
X104290475Y-125302902D01*
X104290475Y-125302902D02*
X104328571Y-125379093D01*
X104328571Y-125379093D02*
X104328571Y-125531474D01*
X104328571Y-125531474D02*
X104290475Y-125607664D01*
X104290475Y-125607664D02*
X104252380Y-125645760D01*
X104252380Y-125645760D02*
X104176190Y-125683855D01*
X104176190Y-125683855D02*
X104023809Y-125683855D01*
X104023809Y-125683855D02*
X103947618Y-125645760D01*
X103947618Y-125645760D02*
X103909523Y-125607664D01*
X103909523Y-125607664D02*
X103871428Y-125531474D01*
X103871428Y-125531474D02*
X103871428Y-125379093D01*
X103871428Y-125379093D02*
X103909523Y-125302902D01*
X103909523Y-125302902D02*
X103947618Y-125264807D01*
X103947618Y-125264807D02*
X104023809Y-125226712D01*
X104366666Y-127423855D02*
X103833332Y-127423855D01*
X103833332Y-127423855D02*
X104176190Y-128223855D01*
X103947618Y-129963855D02*
X104099999Y-129963855D01*
X104099999Y-129963855D02*
X104176190Y-130001950D01*
X104176190Y-130001950D02*
X104214285Y-130040045D01*
X104214285Y-130040045D02*
X104290475Y-130154331D01*
X104290475Y-130154331D02*
X104328571Y-130306712D01*
X104328571Y-130306712D02*
X104328571Y-130611474D01*
X104328571Y-130611474D02*
X104290475Y-130687664D01*
X104290475Y-130687664D02*
X104252380Y-130725760D01*
X104252380Y-130725760D02*
X104176190Y-130763855D01*
X104176190Y-130763855D02*
X104023809Y-130763855D01*
X104023809Y-130763855D02*
X103947618Y-130725760D01*
X103947618Y-130725760D02*
X103909523Y-130687664D01*
X103909523Y-130687664D02*
X103871428Y-130611474D01*
X103871428Y-130611474D02*
X103871428Y-130420998D01*
X103871428Y-130420998D02*
X103909523Y-130344807D01*
X103909523Y-130344807D02*
X103947618Y-130306712D01*
X103947618Y-130306712D02*
X104023809Y-130268617D01*
X104023809Y-130268617D02*
X104176190Y-130268617D01*
X104176190Y-130268617D02*
X104252380Y-130306712D01*
X104252380Y-130306712D02*
X104290475Y-130344807D01*
X104290475Y-130344807D02*
X104328571Y-130420998D01*
X103909523Y-132503855D02*
X104290475Y-132503855D01*
X104290475Y-132503855D02*
X104328571Y-132884807D01*
X104328571Y-132884807D02*
X104290475Y-132846712D01*
X104290475Y-132846712D02*
X104214285Y-132808617D01*
X104214285Y-132808617D02*
X104023809Y-132808617D01*
X104023809Y-132808617D02*
X103947618Y-132846712D01*
X103947618Y-132846712D02*
X103909523Y-132884807D01*
X103909523Y-132884807D02*
X103871428Y-132960998D01*
X103871428Y-132960998D02*
X103871428Y-133151474D01*
X103871428Y-133151474D02*
X103909523Y-133227664D01*
X103909523Y-133227664D02*
X103947618Y-133265760D01*
X103947618Y-133265760D02*
X104023809Y-133303855D01*
X104023809Y-133303855D02*
X104214285Y-133303855D01*
X104214285Y-133303855D02*
X104290475Y-133265760D01*
X104290475Y-133265760D02*
X104328571Y-133227664D01*
X103947618Y-135310521D02*
X103947618Y-135843855D01*
X104138094Y-135005760D02*
X104328571Y-135577188D01*
X104328571Y-135577188D02*
X103833332Y-135577188D01*
X104366666Y-137583855D02*
X103871428Y-137583855D01*
X103871428Y-137583855D02*
X104138094Y-137888617D01*
X104138094Y-137888617D02*
X104023809Y-137888617D01*
X104023809Y-137888617D02*
X103947618Y-137926712D01*
X103947618Y-137926712D02*
X103909523Y-137964807D01*
X103909523Y-137964807D02*
X103871428Y-138040998D01*
X103871428Y-138040998D02*
X103871428Y-138231474D01*
X103871428Y-138231474D02*
X103909523Y-138307664D01*
X103909523Y-138307664D02*
X103947618Y-138345760D01*
X103947618Y-138345760D02*
X104023809Y-138383855D01*
X104023809Y-138383855D02*
X104252380Y-138383855D01*
X104252380Y-138383855D02*
X104328571Y-138345760D01*
X104328571Y-138345760D02*
X104366666Y-138307664D01*
X104328571Y-140200045D02*
X104290475Y-140161950D01*
X104290475Y-140161950D02*
X104214285Y-140123855D01*
X104214285Y-140123855D02*
X104023809Y-140123855D01*
X104023809Y-140123855D02*
X103947618Y-140161950D01*
X103947618Y-140161950D02*
X103909523Y-140200045D01*
X103909523Y-140200045D02*
X103871428Y-140276236D01*
X103871428Y-140276236D02*
X103871428Y-140352426D01*
X103871428Y-140352426D02*
X103909523Y-140466712D01*
X103909523Y-140466712D02*
X104366666Y-140923855D01*
X104366666Y-140923855D02*
X103871428Y-140923855D01*
X103871428Y-143463855D02*
X104328571Y-143463855D01*
X104099999Y-143463855D02*
X104099999Y-142663855D01*
X104099999Y-142663855D02*
X104176190Y-142778140D01*
X104176190Y-142778140D02*
X104252380Y-142854331D01*
X104252380Y-142854331D02*
X104328571Y-142892426D01*
X104138094Y-145203855D02*
X104061904Y-145203855D01*
X104061904Y-145203855D02*
X103985713Y-145241950D01*
X103985713Y-145241950D02*
X103947618Y-145280045D01*
X103947618Y-145280045D02*
X103909523Y-145356236D01*
X103909523Y-145356236D02*
X103871428Y-145508617D01*
X103871428Y-145508617D02*
X103871428Y-145699093D01*
X103871428Y-145699093D02*
X103909523Y-145851474D01*
X103909523Y-145851474D02*
X103947618Y-145927664D01*
X103947618Y-145927664D02*
X103985713Y-145965760D01*
X103985713Y-145965760D02*
X104061904Y-146003855D01*
X104061904Y-146003855D02*
X104138094Y-146003855D01*
X104138094Y-146003855D02*
X104214285Y-145965760D01*
X104214285Y-145965760D02*
X104252380Y-145927664D01*
X104252380Y-145927664D02*
X104290475Y-145851474D01*
X104290475Y-145851474D02*
X104328571Y-145699093D01*
X104328571Y-145699093D02*
X104328571Y-145508617D01*
X104328571Y-145508617D02*
X104290475Y-145356236D01*
X104290475Y-145356236D02*
X104252380Y-145280045D01*
X104252380Y-145280045D02*
X104214285Y-145241950D01*
X104214285Y-145241950D02*
X104138094Y-145203855D01*
X104690475Y-148124807D02*
X104423809Y-148124807D01*
X104309523Y-148543855D02*
X104690475Y-148543855D01*
X104690475Y-148543855D02*
X104690475Y-147743855D01*
X104690475Y-147743855D02*
X104309523Y-147743855D01*
X103966665Y-148543855D02*
X103966665Y-147743855D01*
X103966665Y-147743855D02*
X103509522Y-148543855D01*
X103509522Y-148543855D02*
X103509522Y-147743855D01*
X104709523Y-150321950D02*
X104785713Y-150283855D01*
X104785713Y-150283855D02*
X104899999Y-150283855D01*
X104899999Y-150283855D02*
X105014285Y-150321950D01*
X105014285Y-150321950D02*
X105090475Y-150398140D01*
X105090475Y-150398140D02*
X105128570Y-150474331D01*
X105128570Y-150474331D02*
X105166666Y-150626712D01*
X105166666Y-150626712D02*
X105166666Y-150740998D01*
X105166666Y-150740998D02*
X105128570Y-150893379D01*
X105128570Y-150893379D02*
X105090475Y-150969569D01*
X105090475Y-150969569D02*
X105014285Y-151045760D01*
X105014285Y-151045760D02*
X104899999Y-151083855D01*
X104899999Y-151083855D02*
X104823808Y-151083855D01*
X104823808Y-151083855D02*
X104709523Y-151045760D01*
X104709523Y-151045760D02*
X104671427Y-151007664D01*
X104671427Y-151007664D02*
X104671427Y-150740998D01*
X104671427Y-150740998D02*
X104823808Y-150740998D01*
X104328570Y-151083855D02*
X104328570Y-150283855D01*
X104328570Y-150283855D02*
X103871427Y-151083855D01*
X103871427Y-151083855D02*
X103871427Y-150283855D01*
X103490475Y-151083855D02*
X103490475Y-150283855D01*
X103490475Y-150283855D02*
X103299999Y-150283855D01*
X103299999Y-150283855D02*
X103185713Y-150321950D01*
X103185713Y-150321950D02*
X103109523Y-150398140D01*
X103109523Y-150398140D02*
X103071428Y-150474331D01*
X103071428Y-150474331D02*
X103033332Y-150626712D01*
X103033332Y-150626712D02*
X103033332Y-150740998D01*
X103033332Y-150740998D02*
X103071428Y-150893379D01*
X103071428Y-150893379D02*
X103109523Y-150969569D01*
X103109523Y-150969569D02*
X103185713Y-151045760D01*
X103185713Y-151045760D02*
X103299999Y-151083855D01*
X103299999Y-151083855D02*
X103490475Y-151083855D01*
X105090476Y-152823855D02*
X104595238Y-152823855D01*
X104595238Y-152823855D02*
X104861904Y-153128617D01*
X104861904Y-153128617D02*
X104747619Y-153128617D01*
X104747619Y-153128617D02*
X104671428Y-153166712D01*
X104671428Y-153166712D02*
X104633333Y-153204807D01*
X104633333Y-153204807D02*
X104595238Y-153280998D01*
X104595238Y-153280998D02*
X104595238Y-153471474D01*
X104595238Y-153471474D02*
X104633333Y-153547664D01*
X104633333Y-153547664D02*
X104671428Y-153585760D01*
X104671428Y-153585760D02*
X104747619Y-153623855D01*
X104747619Y-153623855D02*
X104976190Y-153623855D01*
X104976190Y-153623855D02*
X105052381Y-153585760D01*
X105052381Y-153585760D02*
X105090476Y-153547664D01*
X104366666Y-152823855D02*
X104099999Y-153623855D01*
X104099999Y-153623855D02*
X103833333Y-152823855D01*
X103642857Y-152823855D02*
X103147619Y-152823855D01*
X103147619Y-152823855D02*
X103414285Y-153128617D01*
X103414285Y-153128617D02*
X103300000Y-153128617D01*
X103300000Y-153128617D02*
X103223809Y-153166712D01*
X103223809Y-153166712D02*
X103185714Y-153204807D01*
X103185714Y-153204807D02*
X103147619Y-153280998D01*
X103147619Y-153280998D02*
X103147619Y-153471474D01*
X103147619Y-153471474D02*
X103185714Y-153547664D01*
X103185714Y-153547664D02*
X103223809Y-153585760D01*
X103223809Y-153585760D02*
X103300000Y-153623855D01*
X103300000Y-153623855D02*
X103528571Y-153623855D01*
X103528571Y-153623855D02*
X103604762Y-153585760D01*
X103604762Y-153585760D02*
X103642857Y-153547664D01*
X132078569Y-105363855D02*
X132078569Y-104563855D01*
X132078569Y-104563855D02*
X131621426Y-105363855D01*
X131621426Y-105363855D02*
X131621426Y-104563855D01*
X130783331Y-105287664D02*
X130821427Y-105325760D01*
X130821427Y-105325760D02*
X130935712Y-105363855D01*
X130935712Y-105363855D02*
X131011903Y-105363855D01*
X131011903Y-105363855D02*
X131126189Y-105325760D01*
X131126189Y-105325760D02*
X131202379Y-105249569D01*
X131202379Y-105249569D02*
X131240474Y-105173379D01*
X131240474Y-105173379D02*
X131278570Y-105020998D01*
X131278570Y-105020998D02*
X131278570Y-104906712D01*
X131278570Y-104906712D02*
X131240474Y-104754331D01*
X131240474Y-104754331D02*
X131202379Y-104678140D01*
X131202379Y-104678140D02*
X131126189Y-104601950D01*
X131126189Y-104601950D02*
X131011903Y-104563855D01*
X131011903Y-104563855D02*
X130935712Y-104563855D01*
X130935712Y-104563855D02*
X130821427Y-104601950D01*
X130821427Y-104601950D02*
X130783331Y-104640045D01*
X132059522Y-107141950D02*
X132135712Y-107103855D01*
X132135712Y-107103855D02*
X132249998Y-107103855D01*
X132249998Y-107103855D02*
X132364284Y-107141950D01*
X132364284Y-107141950D02*
X132440474Y-107218140D01*
X132440474Y-107218140D02*
X132478569Y-107294331D01*
X132478569Y-107294331D02*
X132516665Y-107446712D01*
X132516665Y-107446712D02*
X132516665Y-107560998D01*
X132516665Y-107560998D02*
X132478569Y-107713379D01*
X132478569Y-107713379D02*
X132440474Y-107789569D01*
X132440474Y-107789569D02*
X132364284Y-107865760D01*
X132364284Y-107865760D02*
X132249998Y-107903855D01*
X132249998Y-107903855D02*
X132173807Y-107903855D01*
X132173807Y-107903855D02*
X132059522Y-107865760D01*
X132059522Y-107865760D02*
X132021426Y-107827664D01*
X132021426Y-107827664D02*
X132021426Y-107560998D01*
X132021426Y-107560998D02*
X132173807Y-107560998D01*
X131678569Y-107903855D02*
X131678569Y-107103855D01*
X131678569Y-107103855D02*
X131221426Y-107903855D01*
X131221426Y-107903855D02*
X131221426Y-107103855D01*
X130840474Y-107903855D02*
X130840474Y-107103855D01*
X130840474Y-107103855D02*
X130649998Y-107103855D01*
X130649998Y-107103855D02*
X130535712Y-107141950D01*
X130535712Y-107141950D02*
X130459522Y-107218140D01*
X130459522Y-107218140D02*
X130421427Y-107294331D01*
X130421427Y-107294331D02*
X130383331Y-107446712D01*
X130383331Y-107446712D02*
X130383331Y-107560998D01*
X130383331Y-107560998D02*
X130421427Y-107713379D01*
X130421427Y-107713379D02*
X130459522Y-107789569D01*
X130459522Y-107789569D02*
X130535712Y-107865760D01*
X130535712Y-107865760D02*
X130649998Y-107903855D01*
X130649998Y-107903855D02*
X130840474Y-107903855D01*
X131983332Y-109910521D02*
X131983332Y-110443855D01*
X132173808Y-109605760D02*
X132364285Y-110177188D01*
X132364285Y-110177188D02*
X131869046Y-110177188D01*
X131640475Y-109643855D02*
X131145237Y-109643855D01*
X131145237Y-109643855D02*
X131411903Y-109948617D01*
X131411903Y-109948617D02*
X131297618Y-109948617D01*
X131297618Y-109948617D02*
X131221427Y-109986712D01*
X131221427Y-109986712D02*
X131183332Y-110024807D01*
X131183332Y-110024807D02*
X131145237Y-110100998D01*
X131145237Y-110100998D02*
X131145237Y-110291474D01*
X131145237Y-110291474D02*
X131183332Y-110367664D01*
X131183332Y-110367664D02*
X131221427Y-110405760D01*
X131221427Y-110405760D02*
X131297618Y-110443855D01*
X131297618Y-110443855D02*
X131526189Y-110443855D01*
X131526189Y-110443855D02*
X131602380Y-110405760D01*
X131602380Y-110405760D02*
X131640475Y-110367664D01*
X130916665Y-109643855D02*
X130459522Y-109643855D01*
X130688094Y-110443855D02*
X130688094Y-109643855D01*
X132078570Y-112450521D02*
X132078570Y-112983855D01*
X132269046Y-112145760D02*
X132459523Y-112717188D01*
X132459523Y-112717188D02*
X131964284Y-112717188D01*
X131316665Y-112450521D02*
X131316665Y-112983855D01*
X131507141Y-112145760D02*
X131697618Y-112717188D01*
X131697618Y-112717188D02*
X131202379Y-112717188D01*
X130440474Y-112983855D02*
X130707141Y-112602902D01*
X130897617Y-112983855D02*
X130897617Y-112183855D01*
X130897617Y-112183855D02*
X130592855Y-112183855D01*
X130592855Y-112183855D02*
X130516665Y-112221950D01*
X130516665Y-112221950D02*
X130478570Y-112260045D01*
X130478570Y-112260045D02*
X130440474Y-112336236D01*
X130440474Y-112336236D02*
X130440474Y-112450521D01*
X130440474Y-112450521D02*
X130478570Y-112526712D01*
X130478570Y-112526712D02*
X130516665Y-112564807D01*
X130516665Y-112564807D02*
X130592855Y-112602902D01*
X130592855Y-112602902D02*
X130897617Y-112602902D01*
X131678570Y-114990521D02*
X131678570Y-115523855D01*
X131869046Y-114685760D02*
X132059523Y-115257188D01*
X132059523Y-115257188D02*
X131564284Y-115257188D01*
X131145237Y-115066712D02*
X131221427Y-115028617D01*
X131221427Y-115028617D02*
X131259522Y-114990521D01*
X131259522Y-114990521D02*
X131297618Y-114914331D01*
X131297618Y-114914331D02*
X131297618Y-114876236D01*
X131297618Y-114876236D02*
X131259522Y-114800045D01*
X131259522Y-114800045D02*
X131221427Y-114761950D01*
X131221427Y-114761950D02*
X131145237Y-114723855D01*
X131145237Y-114723855D02*
X130992856Y-114723855D01*
X130992856Y-114723855D02*
X130916665Y-114761950D01*
X130916665Y-114761950D02*
X130878570Y-114800045D01*
X130878570Y-114800045D02*
X130840475Y-114876236D01*
X130840475Y-114876236D02*
X130840475Y-114914331D01*
X130840475Y-114914331D02*
X130878570Y-114990521D01*
X130878570Y-114990521D02*
X130916665Y-115028617D01*
X130916665Y-115028617D02*
X130992856Y-115066712D01*
X130992856Y-115066712D02*
X131145237Y-115066712D01*
X131145237Y-115066712D02*
X131221427Y-115104807D01*
X131221427Y-115104807D02*
X131259522Y-115142902D01*
X131259522Y-115142902D02*
X131297618Y-115219093D01*
X131297618Y-115219093D02*
X131297618Y-115371474D01*
X131297618Y-115371474D02*
X131259522Y-115447664D01*
X131259522Y-115447664D02*
X131221427Y-115485760D01*
X131221427Y-115485760D02*
X131145237Y-115523855D01*
X131145237Y-115523855D02*
X130992856Y-115523855D01*
X130992856Y-115523855D02*
X130916665Y-115485760D01*
X130916665Y-115485760D02*
X130878570Y-115447664D01*
X130878570Y-115447664D02*
X130840475Y-115371474D01*
X130840475Y-115371474D02*
X130840475Y-115219093D01*
X130840475Y-115219093D02*
X130878570Y-115142902D01*
X130878570Y-115142902D02*
X130916665Y-115104807D01*
X130916665Y-115104807D02*
X130992856Y-115066712D01*
X131678570Y-117530521D02*
X131678570Y-118063855D01*
X131869046Y-117225760D02*
X132059523Y-117797188D01*
X132059523Y-117797188D02*
X131564284Y-117797188D01*
X131335713Y-117263855D02*
X130802379Y-117263855D01*
X130802379Y-117263855D02*
X131145237Y-118063855D01*
X131678570Y-120070521D02*
X131678570Y-120603855D01*
X131869046Y-119765760D02*
X132059523Y-120337188D01*
X132059523Y-120337188D02*
X131564284Y-120337188D01*
X130916665Y-119803855D02*
X131069046Y-119803855D01*
X131069046Y-119803855D02*
X131145237Y-119841950D01*
X131145237Y-119841950D02*
X131183332Y-119880045D01*
X131183332Y-119880045D02*
X131259522Y-119994331D01*
X131259522Y-119994331D02*
X131297618Y-120146712D01*
X131297618Y-120146712D02*
X131297618Y-120451474D01*
X131297618Y-120451474D02*
X131259522Y-120527664D01*
X131259522Y-120527664D02*
X131221427Y-120565760D01*
X131221427Y-120565760D02*
X131145237Y-120603855D01*
X131145237Y-120603855D02*
X130992856Y-120603855D01*
X130992856Y-120603855D02*
X130916665Y-120565760D01*
X130916665Y-120565760D02*
X130878570Y-120527664D01*
X130878570Y-120527664D02*
X130840475Y-120451474D01*
X130840475Y-120451474D02*
X130840475Y-120260998D01*
X130840475Y-120260998D02*
X130878570Y-120184807D01*
X130878570Y-120184807D02*
X130916665Y-120146712D01*
X130916665Y-120146712D02*
X130992856Y-120108617D01*
X130992856Y-120108617D02*
X131145237Y-120108617D01*
X131145237Y-120108617D02*
X131221427Y-120146712D01*
X131221427Y-120146712D02*
X131259522Y-120184807D01*
X131259522Y-120184807D02*
X131297618Y-120260998D01*
X131678570Y-122610521D02*
X131678570Y-123143855D01*
X131869046Y-122305760D02*
X132059523Y-122877188D01*
X132059523Y-122877188D02*
X131564284Y-122877188D01*
X130878570Y-122343855D02*
X131259522Y-122343855D01*
X131259522Y-122343855D02*
X131297618Y-122724807D01*
X131297618Y-122724807D02*
X131259522Y-122686712D01*
X131259522Y-122686712D02*
X131183332Y-122648617D01*
X131183332Y-122648617D02*
X130992856Y-122648617D01*
X130992856Y-122648617D02*
X130916665Y-122686712D01*
X130916665Y-122686712D02*
X130878570Y-122724807D01*
X130878570Y-122724807D02*
X130840475Y-122800998D01*
X130840475Y-122800998D02*
X130840475Y-122991474D01*
X130840475Y-122991474D02*
X130878570Y-123067664D01*
X130878570Y-123067664D02*
X130916665Y-123105760D01*
X130916665Y-123105760D02*
X130992856Y-123143855D01*
X130992856Y-123143855D02*
X131183332Y-123143855D01*
X131183332Y-123143855D02*
X131259522Y-123105760D01*
X131259522Y-123105760D02*
X131297618Y-123067664D01*
X131678570Y-125150521D02*
X131678570Y-125683855D01*
X131869046Y-124845760D02*
X132059523Y-125417188D01*
X132059523Y-125417188D02*
X131564284Y-125417188D01*
X131297618Y-124960045D02*
X131259522Y-124921950D01*
X131259522Y-124921950D02*
X131183332Y-124883855D01*
X131183332Y-124883855D02*
X130992856Y-124883855D01*
X130992856Y-124883855D02*
X130916665Y-124921950D01*
X130916665Y-124921950D02*
X130878570Y-124960045D01*
X130878570Y-124960045D02*
X130840475Y-125036236D01*
X130840475Y-125036236D02*
X130840475Y-125112426D01*
X130840475Y-125112426D02*
X130878570Y-125226712D01*
X130878570Y-125226712D02*
X131335713Y-125683855D01*
X131335713Y-125683855D02*
X130840475Y-125683855D01*
X131678570Y-127690521D02*
X131678570Y-128223855D01*
X131869046Y-127385760D02*
X132059523Y-127957188D01*
X132059523Y-127957188D02*
X131564284Y-127957188D01*
X130840475Y-128223855D02*
X131297618Y-128223855D01*
X131069046Y-128223855D02*
X131069046Y-127423855D01*
X131069046Y-127423855D02*
X131145237Y-127538140D01*
X131145237Y-127538140D02*
X131221427Y-127614331D01*
X131221427Y-127614331D02*
X131297618Y-127652426D01*
X131678570Y-130230521D02*
X131678570Y-130763855D01*
X131869046Y-129925760D02*
X132059523Y-130497188D01*
X132059523Y-130497188D02*
X131564284Y-130497188D01*
X131107141Y-129963855D02*
X131030951Y-129963855D01*
X131030951Y-129963855D02*
X130954760Y-130001950D01*
X130954760Y-130001950D02*
X130916665Y-130040045D01*
X130916665Y-130040045D02*
X130878570Y-130116236D01*
X130878570Y-130116236D02*
X130840475Y-130268617D01*
X130840475Y-130268617D02*
X130840475Y-130459093D01*
X130840475Y-130459093D02*
X130878570Y-130611474D01*
X130878570Y-130611474D02*
X130916665Y-130687664D01*
X130916665Y-130687664D02*
X130954760Y-130725760D01*
X130954760Y-130725760D02*
X131030951Y-130763855D01*
X131030951Y-130763855D02*
X131107141Y-130763855D01*
X131107141Y-130763855D02*
X131183332Y-130725760D01*
X131183332Y-130725760D02*
X131221427Y-130687664D01*
X131221427Y-130687664D02*
X131259522Y-130611474D01*
X131259522Y-130611474D02*
X131297618Y-130459093D01*
X131297618Y-130459093D02*
X131297618Y-130268617D01*
X131297618Y-130268617D02*
X131259522Y-130116236D01*
X131259522Y-130116236D02*
X131221427Y-130040045D01*
X131221427Y-130040045D02*
X131183332Y-130001950D01*
X131183332Y-130001950D02*
X131107141Y-129963855D01*
X132097618Y-132503855D02*
X131602380Y-132503855D01*
X131602380Y-132503855D02*
X131869046Y-132808617D01*
X131869046Y-132808617D02*
X131754761Y-132808617D01*
X131754761Y-132808617D02*
X131678570Y-132846712D01*
X131678570Y-132846712D02*
X131640475Y-132884807D01*
X131640475Y-132884807D02*
X131602380Y-132960998D01*
X131602380Y-132960998D02*
X131602380Y-133151474D01*
X131602380Y-133151474D02*
X131640475Y-133227664D01*
X131640475Y-133227664D02*
X131678570Y-133265760D01*
X131678570Y-133265760D02*
X131754761Y-133303855D01*
X131754761Y-133303855D02*
X131983332Y-133303855D01*
X131983332Y-133303855D02*
X132059523Y-133265760D01*
X132059523Y-133265760D02*
X132097618Y-133227664D01*
X131221427Y-133303855D02*
X131069046Y-133303855D01*
X131069046Y-133303855D02*
X130992856Y-133265760D01*
X130992856Y-133265760D02*
X130954760Y-133227664D01*
X130954760Y-133227664D02*
X130878570Y-133113379D01*
X130878570Y-133113379D02*
X130840475Y-132960998D01*
X130840475Y-132960998D02*
X130840475Y-132656236D01*
X130840475Y-132656236D02*
X130878570Y-132580045D01*
X130878570Y-132580045D02*
X130916665Y-132541950D01*
X130916665Y-132541950D02*
X130992856Y-132503855D01*
X130992856Y-132503855D02*
X131145237Y-132503855D01*
X131145237Y-132503855D02*
X131221427Y-132541950D01*
X131221427Y-132541950D02*
X131259522Y-132580045D01*
X131259522Y-132580045D02*
X131297618Y-132656236D01*
X131297618Y-132656236D02*
X131297618Y-132846712D01*
X131297618Y-132846712D02*
X131259522Y-132922902D01*
X131259522Y-132922902D02*
X131221427Y-132960998D01*
X131221427Y-132960998D02*
X131145237Y-132999093D01*
X131145237Y-132999093D02*
X130992856Y-132999093D01*
X130992856Y-132999093D02*
X130916665Y-132960998D01*
X130916665Y-132960998D02*
X130878570Y-132922902D01*
X130878570Y-132922902D02*
X130840475Y-132846712D01*
X132097618Y-135043855D02*
X131602380Y-135043855D01*
X131602380Y-135043855D02*
X131869046Y-135348617D01*
X131869046Y-135348617D02*
X131754761Y-135348617D01*
X131754761Y-135348617D02*
X131678570Y-135386712D01*
X131678570Y-135386712D02*
X131640475Y-135424807D01*
X131640475Y-135424807D02*
X131602380Y-135500998D01*
X131602380Y-135500998D02*
X131602380Y-135691474D01*
X131602380Y-135691474D02*
X131640475Y-135767664D01*
X131640475Y-135767664D02*
X131678570Y-135805760D01*
X131678570Y-135805760D02*
X131754761Y-135843855D01*
X131754761Y-135843855D02*
X131983332Y-135843855D01*
X131983332Y-135843855D02*
X132059523Y-135805760D01*
X132059523Y-135805760D02*
X132097618Y-135767664D01*
X131145237Y-135386712D02*
X131221427Y-135348617D01*
X131221427Y-135348617D02*
X131259522Y-135310521D01*
X131259522Y-135310521D02*
X131297618Y-135234331D01*
X131297618Y-135234331D02*
X131297618Y-135196236D01*
X131297618Y-135196236D02*
X131259522Y-135120045D01*
X131259522Y-135120045D02*
X131221427Y-135081950D01*
X131221427Y-135081950D02*
X131145237Y-135043855D01*
X131145237Y-135043855D02*
X130992856Y-135043855D01*
X130992856Y-135043855D02*
X130916665Y-135081950D01*
X130916665Y-135081950D02*
X130878570Y-135120045D01*
X130878570Y-135120045D02*
X130840475Y-135196236D01*
X130840475Y-135196236D02*
X130840475Y-135234331D01*
X130840475Y-135234331D02*
X130878570Y-135310521D01*
X130878570Y-135310521D02*
X130916665Y-135348617D01*
X130916665Y-135348617D02*
X130992856Y-135386712D01*
X130992856Y-135386712D02*
X131145237Y-135386712D01*
X131145237Y-135386712D02*
X131221427Y-135424807D01*
X131221427Y-135424807D02*
X131259522Y-135462902D01*
X131259522Y-135462902D02*
X131297618Y-135539093D01*
X131297618Y-135539093D02*
X131297618Y-135691474D01*
X131297618Y-135691474D02*
X131259522Y-135767664D01*
X131259522Y-135767664D02*
X131221427Y-135805760D01*
X131221427Y-135805760D02*
X131145237Y-135843855D01*
X131145237Y-135843855D02*
X130992856Y-135843855D01*
X130992856Y-135843855D02*
X130916665Y-135805760D01*
X130916665Y-135805760D02*
X130878570Y-135767664D01*
X130878570Y-135767664D02*
X130840475Y-135691474D01*
X130840475Y-135691474D02*
X130840475Y-135539093D01*
X130840475Y-135539093D02*
X130878570Y-135462902D01*
X130878570Y-135462902D02*
X130916665Y-135424807D01*
X130916665Y-135424807D02*
X130992856Y-135386712D01*
X132059523Y-137660045D02*
X132021427Y-137621950D01*
X132021427Y-137621950D02*
X131945237Y-137583855D01*
X131945237Y-137583855D02*
X131754761Y-137583855D01*
X131754761Y-137583855D02*
X131678570Y-137621950D01*
X131678570Y-137621950D02*
X131640475Y-137660045D01*
X131640475Y-137660045D02*
X131602380Y-137736236D01*
X131602380Y-137736236D02*
X131602380Y-137812426D01*
X131602380Y-137812426D02*
X131640475Y-137926712D01*
X131640475Y-137926712D02*
X132097618Y-138383855D01*
X132097618Y-138383855D02*
X131602380Y-138383855D01*
X130840475Y-138383855D02*
X131297618Y-138383855D01*
X131069046Y-138383855D02*
X131069046Y-137583855D01*
X131069046Y-137583855D02*
X131145237Y-137698140D01*
X131145237Y-137698140D02*
X131221427Y-137774331D01*
X131221427Y-137774331D02*
X131297618Y-137812426D01*
X132078569Y-140923855D02*
X132078569Y-140123855D01*
X132078569Y-140123855D02*
X131621426Y-140923855D01*
X131621426Y-140923855D02*
X131621426Y-140123855D01*
X130783331Y-140847664D02*
X130821427Y-140885760D01*
X130821427Y-140885760D02*
X130935712Y-140923855D01*
X130935712Y-140923855D02*
X131011903Y-140923855D01*
X131011903Y-140923855D02*
X131126189Y-140885760D01*
X131126189Y-140885760D02*
X131202379Y-140809569D01*
X131202379Y-140809569D02*
X131240474Y-140733379D01*
X131240474Y-140733379D02*
X131278570Y-140580998D01*
X131278570Y-140580998D02*
X131278570Y-140466712D01*
X131278570Y-140466712D02*
X131240474Y-140314331D01*
X131240474Y-140314331D02*
X131202379Y-140238140D01*
X131202379Y-140238140D02*
X131126189Y-140161950D01*
X131126189Y-140161950D02*
X131011903Y-140123855D01*
X131011903Y-140123855D02*
X130935712Y-140123855D01*
X130935712Y-140123855D02*
X130821427Y-140161950D01*
X130821427Y-140161950D02*
X130783331Y-140200045D01*
X132078569Y-143463855D02*
X132078569Y-142663855D01*
X132078569Y-142663855D02*
X131621426Y-143463855D01*
X131621426Y-143463855D02*
X131621426Y-142663855D01*
X130783331Y-143387664D02*
X130821427Y-143425760D01*
X130821427Y-143425760D02*
X130935712Y-143463855D01*
X130935712Y-143463855D02*
X131011903Y-143463855D01*
X131011903Y-143463855D02*
X131126189Y-143425760D01*
X131126189Y-143425760D02*
X131202379Y-143349569D01*
X131202379Y-143349569D02*
X131240474Y-143273379D01*
X131240474Y-143273379D02*
X131278570Y-143120998D01*
X131278570Y-143120998D02*
X131278570Y-143006712D01*
X131278570Y-143006712D02*
X131240474Y-142854331D01*
X131240474Y-142854331D02*
X131202379Y-142778140D01*
X131202379Y-142778140D02*
X131126189Y-142701950D01*
X131126189Y-142701950D02*
X131011903Y-142663855D01*
X131011903Y-142663855D02*
X130935712Y-142663855D01*
X130935712Y-142663855D02*
X130821427Y-142701950D01*
X130821427Y-142701950D02*
X130783331Y-142740045D01*
X131602380Y-146003855D02*
X132059523Y-146003855D01*
X131830951Y-146003855D02*
X131830951Y-145203855D01*
X131830951Y-145203855D02*
X131907142Y-145318140D01*
X131907142Y-145318140D02*
X131983332Y-145394331D01*
X131983332Y-145394331D02*
X132059523Y-145432426D01*
X131145237Y-145546712D02*
X131221427Y-145508617D01*
X131221427Y-145508617D02*
X131259522Y-145470521D01*
X131259522Y-145470521D02*
X131297618Y-145394331D01*
X131297618Y-145394331D02*
X131297618Y-145356236D01*
X131297618Y-145356236D02*
X131259522Y-145280045D01*
X131259522Y-145280045D02*
X131221427Y-145241950D01*
X131221427Y-145241950D02*
X131145237Y-145203855D01*
X131145237Y-145203855D02*
X130992856Y-145203855D01*
X130992856Y-145203855D02*
X130916665Y-145241950D01*
X130916665Y-145241950D02*
X130878570Y-145280045D01*
X130878570Y-145280045D02*
X130840475Y-145356236D01*
X130840475Y-145356236D02*
X130840475Y-145394331D01*
X130840475Y-145394331D02*
X130878570Y-145470521D01*
X130878570Y-145470521D02*
X130916665Y-145508617D01*
X130916665Y-145508617D02*
X130992856Y-145546712D01*
X130992856Y-145546712D02*
X131145237Y-145546712D01*
X131145237Y-145546712D02*
X131221427Y-145584807D01*
X131221427Y-145584807D02*
X131259522Y-145622902D01*
X131259522Y-145622902D02*
X131297618Y-145699093D01*
X131297618Y-145699093D02*
X131297618Y-145851474D01*
X131297618Y-145851474D02*
X131259522Y-145927664D01*
X131259522Y-145927664D02*
X131221427Y-145965760D01*
X131221427Y-145965760D02*
X131145237Y-146003855D01*
X131145237Y-146003855D02*
X130992856Y-146003855D01*
X130992856Y-146003855D02*
X130916665Y-145965760D01*
X130916665Y-145965760D02*
X130878570Y-145927664D01*
X130878570Y-145927664D02*
X130840475Y-145851474D01*
X130840475Y-145851474D02*
X130840475Y-145699093D01*
X130840475Y-145699093D02*
X130878570Y-145622902D01*
X130878570Y-145622902D02*
X130916665Y-145584807D01*
X130916665Y-145584807D02*
X130992856Y-145546712D01*
X131602380Y-148543855D02*
X132059523Y-148543855D01*
X131830951Y-148543855D02*
X131830951Y-147743855D01*
X131830951Y-147743855D02*
X131907142Y-147858140D01*
X131907142Y-147858140D02*
X131983332Y-147934331D01*
X131983332Y-147934331D02*
X132059523Y-147972426D01*
X131335713Y-147743855D02*
X130802379Y-147743855D01*
X130802379Y-147743855D02*
X131145237Y-148543855D01*
X132059522Y-150321950D02*
X132135712Y-150283855D01*
X132135712Y-150283855D02*
X132249998Y-150283855D01*
X132249998Y-150283855D02*
X132364284Y-150321950D01*
X132364284Y-150321950D02*
X132440474Y-150398140D01*
X132440474Y-150398140D02*
X132478569Y-150474331D01*
X132478569Y-150474331D02*
X132516665Y-150626712D01*
X132516665Y-150626712D02*
X132516665Y-150740998D01*
X132516665Y-150740998D02*
X132478569Y-150893379D01*
X132478569Y-150893379D02*
X132440474Y-150969569D01*
X132440474Y-150969569D02*
X132364284Y-151045760D01*
X132364284Y-151045760D02*
X132249998Y-151083855D01*
X132249998Y-151083855D02*
X132173807Y-151083855D01*
X132173807Y-151083855D02*
X132059522Y-151045760D01*
X132059522Y-151045760D02*
X132021426Y-151007664D01*
X132021426Y-151007664D02*
X132021426Y-150740998D01*
X132021426Y-150740998D02*
X132173807Y-150740998D01*
X131678569Y-151083855D02*
X131678569Y-150283855D01*
X131678569Y-150283855D02*
X131221426Y-151083855D01*
X131221426Y-151083855D02*
X131221426Y-150283855D01*
X130840474Y-151083855D02*
X130840474Y-150283855D01*
X130840474Y-150283855D02*
X130649998Y-150283855D01*
X130649998Y-150283855D02*
X130535712Y-150321950D01*
X130535712Y-150321950D02*
X130459522Y-150398140D01*
X130459522Y-150398140D02*
X130421427Y-150474331D01*
X130421427Y-150474331D02*
X130383331Y-150626712D01*
X130383331Y-150626712D02*
X130383331Y-150740998D01*
X130383331Y-150740998D02*
X130421427Y-150893379D01*
X130421427Y-150893379D02*
X130459522Y-150969569D01*
X130459522Y-150969569D02*
X130535712Y-151045760D01*
X130535712Y-151045760D02*
X130649998Y-151083855D01*
X130649998Y-151083855D02*
X130840474Y-151083855D01*
X132916665Y-152823855D02*
X132649998Y-153623855D01*
X132649998Y-153623855D02*
X132383332Y-152823855D01*
X131849999Y-153204807D02*
X131735713Y-153242902D01*
X131735713Y-153242902D02*
X131697618Y-153280998D01*
X131697618Y-153280998D02*
X131659522Y-153357188D01*
X131659522Y-153357188D02*
X131659522Y-153471474D01*
X131659522Y-153471474D02*
X131697618Y-153547664D01*
X131697618Y-153547664D02*
X131735713Y-153585760D01*
X131735713Y-153585760D02*
X131811903Y-153623855D01*
X131811903Y-153623855D02*
X132116665Y-153623855D01*
X132116665Y-153623855D02*
X132116665Y-152823855D01*
X132116665Y-152823855D02*
X131849999Y-152823855D01*
X131849999Y-152823855D02*
X131773808Y-152861950D01*
X131773808Y-152861950D02*
X131735713Y-152900045D01*
X131735713Y-152900045D02*
X131697618Y-152976236D01*
X131697618Y-152976236D02*
X131697618Y-153052426D01*
X131697618Y-153052426D02*
X131735713Y-153128617D01*
X131735713Y-153128617D02*
X131773808Y-153166712D01*
X131773808Y-153166712D02*
X131849999Y-153204807D01*
X131849999Y-153204807D02*
X132116665Y-153204807D01*
X131316665Y-152823855D02*
X131316665Y-153471474D01*
X131316665Y-153471474D02*
X131278570Y-153547664D01*
X131278570Y-153547664D02*
X131240475Y-153585760D01*
X131240475Y-153585760D02*
X131164284Y-153623855D01*
X131164284Y-153623855D02*
X131011903Y-153623855D01*
X131011903Y-153623855D02*
X130935713Y-153585760D01*
X130935713Y-153585760D02*
X130897618Y-153547664D01*
X130897618Y-153547664D02*
X130859522Y-153471474D01*
X130859522Y-153471474D02*
X130859522Y-152823855D01*
X130516666Y-153585760D02*
X130402380Y-153623855D01*
X130402380Y-153623855D02*
X130211904Y-153623855D01*
X130211904Y-153623855D02*
X130135713Y-153585760D01*
X130135713Y-153585760D02*
X130097618Y-153547664D01*
X130097618Y-153547664D02*
X130059523Y-153471474D01*
X130059523Y-153471474D02*
X130059523Y-153395283D01*
X130059523Y-153395283D02*
X130097618Y-153319093D01*
X130097618Y-153319093D02*
X130135713Y-153280998D01*
X130135713Y-153280998D02*
X130211904Y-153242902D01*
X130211904Y-153242902D02*
X130364285Y-153204807D01*
X130364285Y-153204807D02*
X130440475Y-153166712D01*
X130440475Y-153166712D02*
X130478570Y-153128617D01*
X130478570Y-153128617D02*
X130516666Y-153052426D01*
X130516666Y-153052426D02*
X130516666Y-152976236D01*
X130516666Y-152976236D02*
X130478570Y-152900045D01*
X130478570Y-152900045D02*
X130440475Y-152861950D01*
X130440475Y-152861950D02*
X130364285Y-152823855D01*
X130364285Y-152823855D02*
X130173808Y-152823855D01*
X130173808Y-152823855D02*
X130059523Y-152861950D01*
D11*
X122576427Y-152335947D02*
X122050236Y-152335947D01*
X122050236Y-152335947D02*
X122333570Y-152659756D01*
X122333570Y-152659756D02*
X122212141Y-152659756D01*
X122212141Y-152659756D02*
X122131189Y-152700232D01*
X122131189Y-152700232D02*
X122090713Y-152740709D01*
X122090713Y-152740709D02*
X122050236Y-152821661D01*
X122050236Y-152821661D02*
X122050236Y-153024042D01*
X122050236Y-153024042D02*
X122090713Y-153104994D01*
X122090713Y-153104994D02*
X122131189Y-153145471D01*
X122131189Y-153145471D02*
X122212141Y-153185947D01*
X122212141Y-153185947D02*
X122454998Y-153185947D01*
X122454998Y-153185947D02*
X122535951Y-153145471D01*
X122535951Y-153145471D02*
X122576427Y-153104994D01*
X121807379Y-152335947D02*
X121524046Y-153185947D01*
X121524046Y-153185947D02*
X121240712Y-152335947D01*
X121038332Y-152335947D02*
X120512141Y-152335947D01*
X120512141Y-152335947D02*
X120795475Y-152659756D01*
X120795475Y-152659756D02*
X120674046Y-152659756D01*
X120674046Y-152659756D02*
X120593094Y-152700232D01*
X120593094Y-152700232D02*
X120552618Y-152740709D01*
X120552618Y-152740709D02*
X120512141Y-152821661D01*
X120512141Y-152821661D02*
X120512141Y-153024042D01*
X120512141Y-153024042D02*
X120552618Y-153104994D01*
X120552618Y-153104994D02*
X120593094Y-153145471D01*
X120593094Y-153145471D02*
X120674046Y-153185947D01*
X120674046Y-153185947D02*
X120916903Y-153185947D01*
X120916903Y-153185947D02*
X120997856Y-153145471D01*
X120997856Y-153145471D02*
X121038332Y-153104994D01*
X119054998Y-152376423D02*
X119135951Y-152335947D01*
X119135951Y-152335947D02*
X119257379Y-152335947D01*
X119257379Y-152335947D02*
X119378808Y-152376423D01*
X119378808Y-152376423D02*
X119459760Y-152457375D01*
X119459760Y-152457375D02*
X119500237Y-152538328D01*
X119500237Y-152538328D02*
X119540713Y-152700232D01*
X119540713Y-152700232D02*
X119540713Y-152821661D01*
X119540713Y-152821661D02*
X119500237Y-152983566D01*
X119500237Y-152983566D02*
X119459760Y-153064518D01*
X119459760Y-153064518D02*
X119378808Y-153145471D01*
X119378808Y-153145471D02*
X119257379Y-153185947D01*
X119257379Y-153185947D02*
X119176427Y-153185947D01*
X119176427Y-153185947D02*
X119054998Y-153145471D01*
X119054998Y-153145471D02*
X119014522Y-153104994D01*
X119014522Y-153104994D02*
X119014522Y-152821661D01*
X119014522Y-152821661D02*
X119176427Y-152821661D01*
X118650237Y-153185947D02*
X118650237Y-152335947D01*
X118650237Y-152335947D02*
X118326427Y-152335947D01*
X118326427Y-152335947D02*
X118245475Y-152376423D01*
X118245475Y-152376423D02*
X118204998Y-152416899D01*
X118204998Y-152416899D02*
X118164522Y-152497851D01*
X118164522Y-152497851D02*
X118164522Y-152619280D01*
X118164522Y-152619280D02*
X118204998Y-152700232D01*
X118204998Y-152700232D02*
X118245475Y-152740709D01*
X118245475Y-152740709D02*
X118326427Y-152781185D01*
X118326427Y-152781185D02*
X118650237Y-152781185D01*
X117800237Y-153185947D02*
X117800237Y-152335947D01*
X117233570Y-152335947D02*
X117071665Y-152335947D01*
X117071665Y-152335947D02*
X116990713Y-152376423D01*
X116990713Y-152376423D02*
X116909760Y-152457375D01*
X116909760Y-152457375D02*
X116869284Y-152619280D01*
X116869284Y-152619280D02*
X116869284Y-152902613D01*
X116869284Y-152902613D02*
X116909760Y-153064518D01*
X116909760Y-153064518D02*
X116990713Y-153145471D01*
X116990713Y-153145471D02*
X117071665Y-153185947D01*
X117071665Y-153185947D02*
X117233570Y-153185947D01*
X117233570Y-153185947D02*
X117314522Y-153145471D01*
X117314522Y-153145471D02*
X117395475Y-153064518D01*
X117395475Y-153064518D02*
X117435951Y-152902613D01*
X117435951Y-152902613D02*
X117435951Y-152619280D01*
X117435951Y-152619280D02*
X117395475Y-152457375D01*
X117395475Y-152457375D02*
X117314522Y-152376423D01*
X117314522Y-152376423D02*
X117233570Y-152335947D01*
X115695475Y-152335947D02*
X115533570Y-152335947D01*
X115533570Y-152335947D02*
X115452618Y-152376423D01*
X115452618Y-152376423D02*
X115371665Y-152457375D01*
X115371665Y-152457375D02*
X115331189Y-152619280D01*
X115331189Y-152619280D02*
X115331189Y-152902613D01*
X115331189Y-152902613D02*
X115371665Y-153064518D01*
X115371665Y-153064518D02*
X115452618Y-153145471D01*
X115452618Y-153145471D02*
X115533570Y-153185947D01*
X115533570Y-153185947D02*
X115695475Y-153185947D01*
X115695475Y-153185947D02*
X115776427Y-153145471D01*
X115776427Y-153145471D02*
X115857380Y-153064518D01*
X115857380Y-153064518D02*
X115897856Y-152902613D01*
X115897856Y-152902613D02*
X115897856Y-152619280D01*
X115897856Y-152619280D02*
X115857380Y-152457375D01*
X115857380Y-152457375D02*
X115776427Y-152376423D01*
X115776427Y-152376423D02*
X115695475Y-152335947D01*
X114966904Y-153185947D02*
X114966904Y-152335947D01*
X114966904Y-152335947D02*
X114481189Y-153185947D01*
X114481189Y-153185947D02*
X114481189Y-152335947D01*
X113671666Y-153185947D02*
X114076428Y-153185947D01*
X114076428Y-153185947D02*
X114076428Y-152335947D01*
X113226428Y-152781185D02*
X113226428Y-153185947D01*
X113509761Y-152335947D02*
X113226428Y-152781185D01*
X113226428Y-152781185D02*
X112943094Y-152335947D01*
X124613333Y-133455339D02*
X124613333Y-132455339D01*
X124613333Y-132455339D02*
X124041905Y-133455339D01*
X124041905Y-133455339D02*
X124041905Y-132455339D01*
X123422857Y-132883910D02*
X123518095Y-132836291D01*
X123518095Y-132836291D02*
X123565714Y-132788672D01*
X123565714Y-132788672D02*
X123613333Y-132693434D01*
X123613333Y-132693434D02*
X123613333Y-132645815D01*
X123613333Y-132645815D02*
X123565714Y-132550577D01*
X123565714Y-132550577D02*
X123518095Y-132502958D01*
X123518095Y-132502958D02*
X123422857Y-132455339D01*
X123422857Y-132455339D02*
X123232381Y-132455339D01*
X123232381Y-132455339D02*
X123137143Y-132502958D01*
X123137143Y-132502958D02*
X123089524Y-132550577D01*
X123089524Y-132550577D02*
X123041905Y-132645815D01*
X123041905Y-132645815D02*
X123041905Y-132693434D01*
X123041905Y-132693434D02*
X123089524Y-132788672D01*
X123089524Y-132788672D02*
X123137143Y-132836291D01*
X123137143Y-132836291D02*
X123232381Y-132883910D01*
X123232381Y-132883910D02*
X123422857Y-132883910D01*
X123422857Y-132883910D02*
X123518095Y-132931529D01*
X123518095Y-132931529D02*
X123565714Y-132979148D01*
X123565714Y-132979148D02*
X123613333Y-133074386D01*
X123613333Y-133074386D02*
X123613333Y-133264862D01*
X123613333Y-133264862D02*
X123565714Y-133360100D01*
X123565714Y-133360100D02*
X123518095Y-133407720D01*
X123518095Y-133407720D02*
X123422857Y-133455339D01*
X123422857Y-133455339D02*
X123232381Y-133455339D01*
X123232381Y-133455339D02*
X123137143Y-133407720D01*
X123137143Y-133407720D02*
X123089524Y-133360100D01*
X123089524Y-133360100D02*
X123041905Y-133264862D01*
X123041905Y-133264862D02*
X123041905Y-133074386D01*
X123041905Y-133074386D02*
X123089524Y-132979148D01*
X123089524Y-132979148D02*
X123137143Y-132931529D01*
X123137143Y-132931529D02*
X123232381Y-132883910D01*
X122041905Y-133455339D02*
X122375238Y-132979148D01*
X122613333Y-133455339D02*
X122613333Y-132455339D01*
X122613333Y-132455339D02*
X122232381Y-132455339D01*
X122232381Y-132455339D02*
X122137143Y-132502958D01*
X122137143Y-132502958D02*
X122089524Y-132550577D01*
X122089524Y-132550577D02*
X122041905Y-132645815D01*
X122041905Y-132645815D02*
X122041905Y-132788672D01*
X122041905Y-132788672D02*
X122089524Y-132883910D01*
X122089524Y-132883910D02*
X122137143Y-132931529D01*
X122137143Y-132931529D02*
X122232381Y-132979148D01*
X122232381Y-132979148D02*
X122613333Y-132979148D01*
X121470476Y-132883910D02*
X121565714Y-132836291D01*
X121565714Y-132836291D02*
X121613333Y-132788672D01*
X121613333Y-132788672D02*
X121660952Y-132693434D01*
X121660952Y-132693434D02*
X121660952Y-132645815D01*
X121660952Y-132645815D02*
X121613333Y-132550577D01*
X121613333Y-132550577D02*
X121565714Y-132502958D01*
X121565714Y-132502958D02*
X121470476Y-132455339D01*
X121470476Y-132455339D02*
X121280000Y-132455339D01*
X121280000Y-132455339D02*
X121184762Y-132502958D01*
X121184762Y-132502958D02*
X121137143Y-132550577D01*
X121137143Y-132550577D02*
X121089524Y-132645815D01*
X121089524Y-132645815D02*
X121089524Y-132693434D01*
X121089524Y-132693434D02*
X121137143Y-132788672D01*
X121137143Y-132788672D02*
X121184762Y-132836291D01*
X121184762Y-132836291D02*
X121280000Y-132883910D01*
X121280000Y-132883910D02*
X121470476Y-132883910D01*
X121470476Y-132883910D02*
X121565714Y-132931529D01*
X121565714Y-132931529D02*
X121613333Y-132979148D01*
X121613333Y-132979148D02*
X121660952Y-133074386D01*
X121660952Y-133074386D02*
X121660952Y-133264862D01*
X121660952Y-133264862D02*
X121613333Y-133360100D01*
X121613333Y-133360100D02*
X121565714Y-133407720D01*
X121565714Y-133407720D02*
X121470476Y-133455339D01*
X121470476Y-133455339D02*
X121280000Y-133455339D01*
X121280000Y-133455339D02*
X121184762Y-133407720D01*
X121184762Y-133407720D02*
X121137143Y-133360100D01*
X121137143Y-133360100D02*
X121089524Y-133264862D01*
X121089524Y-133264862D02*
X121089524Y-133074386D01*
X121089524Y-133074386D02*
X121137143Y-132979148D01*
X121137143Y-132979148D02*
X121184762Y-132931529D01*
X121184762Y-132931529D02*
X121280000Y-132883910D01*
X119184762Y-132407720D02*
X120041904Y-133693434D01*
X118089523Y-132455339D02*
X118089523Y-133264862D01*
X118089523Y-133264862D02*
X118041904Y-133360100D01*
X118041904Y-133360100D02*
X117994285Y-133407720D01*
X117994285Y-133407720D02*
X117899047Y-133455339D01*
X117899047Y-133455339D02*
X117708571Y-133455339D01*
X117708571Y-133455339D02*
X117613333Y-133407720D01*
X117613333Y-133407720D02*
X117565714Y-133360100D01*
X117565714Y-133360100D02*
X117518095Y-133264862D01*
X117518095Y-133264862D02*
X117518095Y-132455339D01*
X117089523Y-133407720D02*
X116946666Y-133455339D01*
X116946666Y-133455339D02*
X116708571Y-133455339D01*
X116708571Y-133455339D02*
X116613333Y-133407720D01*
X116613333Y-133407720D02*
X116565714Y-133360100D01*
X116565714Y-133360100D02*
X116518095Y-133264862D01*
X116518095Y-133264862D02*
X116518095Y-133169624D01*
X116518095Y-133169624D02*
X116565714Y-133074386D01*
X116565714Y-133074386D02*
X116613333Y-133026767D01*
X116613333Y-133026767D02*
X116708571Y-132979148D01*
X116708571Y-132979148D02*
X116899047Y-132931529D01*
X116899047Y-132931529D02*
X116994285Y-132883910D01*
X116994285Y-132883910D02*
X117041904Y-132836291D01*
X117041904Y-132836291D02*
X117089523Y-132741053D01*
X117089523Y-132741053D02*
X117089523Y-132645815D01*
X117089523Y-132645815D02*
X117041904Y-132550577D01*
X117041904Y-132550577D02*
X116994285Y-132502958D01*
X116994285Y-132502958D02*
X116899047Y-132455339D01*
X116899047Y-132455339D02*
X116660952Y-132455339D01*
X116660952Y-132455339D02*
X116518095Y-132502958D01*
X115756190Y-132931529D02*
X115613333Y-132979148D01*
X115613333Y-132979148D02*
X115565714Y-133026767D01*
X115565714Y-133026767D02*
X115518095Y-133122005D01*
X115518095Y-133122005D02*
X115518095Y-133264862D01*
X115518095Y-133264862D02*
X115565714Y-133360100D01*
X115565714Y-133360100D02*
X115613333Y-133407720D01*
X115613333Y-133407720D02*
X115708571Y-133455339D01*
X115708571Y-133455339D02*
X116089523Y-133455339D01*
X116089523Y-133455339D02*
X116089523Y-132455339D01*
X116089523Y-132455339D02*
X115756190Y-132455339D01*
X115756190Y-132455339D02*
X115660952Y-132502958D01*
X115660952Y-132502958D02*
X115613333Y-132550577D01*
X115613333Y-132550577D02*
X115565714Y-132645815D01*
X115565714Y-132645815D02*
X115565714Y-132741053D01*
X115565714Y-132741053D02*
X115613333Y-132836291D01*
X115613333Y-132836291D02*
X115660952Y-132883910D01*
X115660952Y-132883910D02*
X115756190Y-132931529D01*
X115756190Y-132931529D02*
X116089523Y-132931529D01*
X115089523Y-133074386D02*
X114327619Y-133074386D01*
X113565714Y-132455339D02*
X113565714Y-133169624D01*
X113565714Y-133169624D02*
X113613333Y-133312481D01*
X113613333Y-133312481D02*
X113708571Y-133407720D01*
X113708571Y-133407720D02*
X113851428Y-133455339D01*
X113851428Y-133455339D02*
X113946666Y-133455339D01*
X113232380Y-132455339D02*
X112660952Y-132455339D01*
X112946666Y-133455339D02*
X112946666Y-132455339D01*
X112375237Y-133169624D02*
X111899047Y-133169624D01*
X112470475Y-133455339D02*
X112137142Y-132455339D01*
X112137142Y-132455339D02*
X111803809Y-133455339D01*
X110946666Y-132502958D02*
X111041904Y-132455339D01*
X111041904Y-132455339D02*
X111184761Y-132455339D01*
X111184761Y-132455339D02*
X111327618Y-132502958D01*
X111327618Y-132502958D02*
X111422856Y-132598196D01*
X111422856Y-132598196D02*
X111470475Y-132693434D01*
X111470475Y-132693434D02*
X111518094Y-132883910D01*
X111518094Y-132883910D02*
X111518094Y-133026767D01*
X111518094Y-133026767D02*
X111470475Y-133217243D01*
X111470475Y-133217243D02*
X111422856Y-133312481D01*
X111422856Y-133312481D02*
X111327618Y-133407720D01*
X111327618Y-133407720D02*
X111184761Y-133455339D01*
X111184761Y-133455339D02*
X111089523Y-133455339D01*
X111089523Y-133455339D02*
X110946666Y-133407720D01*
X110946666Y-133407720D02*
X110899047Y-133360100D01*
X110899047Y-133360100D02*
X110899047Y-133026767D01*
X110899047Y-133026767D02*
X111089523Y-133026767D01*
X122979998Y-129907053D02*
X122513332Y-129907053D01*
X122313332Y-130640386D02*
X122979998Y-130640386D01*
X122979998Y-130640386D02*
X122979998Y-129240386D01*
X122979998Y-129240386D02*
X122313332Y-129240386D01*
X121779998Y-130573720D02*
X121579998Y-130640386D01*
X121579998Y-130640386D02*
X121246665Y-130640386D01*
X121246665Y-130640386D02*
X121113331Y-130573720D01*
X121113331Y-130573720D02*
X121046665Y-130507053D01*
X121046665Y-130507053D02*
X120979998Y-130373720D01*
X120979998Y-130373720D02*
X120979998Y-130240386D01*
X120979998Y-130240386D02*
X121046665Y-130107053D01*
X121046665Y-130107053D02*
X121113331Y-130040386D01*
X121113331Y-130040386D02*
X121246665Y-129973720D01*
X121246665Y-129973720D02*
X121513331Y-129907053D01*
X121513331Y-129907053D02*
X121646665Y-129840386D01*
X121646665Y-129840386D02*
X121713331Y-129773720D01*
X121713331Y-129773720D02*
X121779998Y-129640386D01*
X121779998Y-129640386D02*
X121779998Y-129507053D01*
X121779998Y-129507053D02*
X121713331Y-129373720D01*
X121713331Y-129373720D02*
X121646665Y-129307053D01*
X121646665Y-129307053D02*
X121513331Y-129240386D01*
X121513331Y-129240386D02*
X121179998Y-129240386D01*
X121179998Y-129240386D02*
X120979998Y-129307053D01*
X120379998Y-130640386D02*
X120379998Y-129240386D01*
X120379998Y-129240386D02*
X119846665Y-129240386D01*
X119846665Y-129240386D02*
X119713332Y-129307053D01*
X119713332Y-129307053D02*
X119646665Y-129373720D01*
X119646665Y-129373720D02*
X119579998Y-129507053D01*
X119579998Y-129507053D02*
X119579998Y-129707053D01*
X119579998Y-129707053D02*
X119646665Y-129840386D01*
X119646665Y-129840386D02*
X119713332Y-129907053D01*
X119713332Y-129907053D02*
X119846665Y-129973720D01*
X119846665Y-129973720D02*
X120379998Y-129973720D01*
X119113332Y-129240386D02*
X118246665Y-129240386D01*
X118246665Y-129240386D02*
X118713332Y-129773720D01*
X118713332Y-129773720D02*
X118513332Y-129773720D01*
X118513332Y-129773720D02*
X118379998Y-129840386D01*
X118379998Y-129840386D02*
X118313332Y-129907053D01*
X118313332Y-129907053D02*
X118246665Y-130040386D01*
X118246665Y-130040386D02*
X118246665Y-130373720D01*
X118246665Y-130373720D02*
X118313332Y-130507053D01*
X118313332Y-130507053D02*
X118379998Y-130573720D01*
X118379998Y-130573720D02*
X118513332Y-130640386D01*
X118513332Y-130640386D02*
X118913332Y-130640386D01*
X118913332Y-130640386D02*
X119046665Y-130573720D01*
X119046665Y-130573720D02*
X119113332Y-130507053D01*
X117713332Y-129373720D02*
X117646665Y-129307053D01*
X117646665Y-129307053D02*
X117513332Y-129240386D01*
X117513332Y-129240386D02*
X117179999Y-129240386D01*
X117179999Y-129240386D02*
X117046665Y-129307053D01*
X117046665Y-129307053D02*
X116979999Y-129373720D01*
X116979999Y-129373720D02*
X116913332Y-129507053D01*
X116913332Y-129507053D02*
X116913332Y-129640386D01*
X116913332Y-129640386D02*
X116979999Y-129840386D01*
X116979999Y-129840386D02*
X117779999Y-130640386D01*
X117779999Y-130640386D02*
X116913332Y-130640386D01*
X116313332Y-130107053D02*
X115246666Y-130107053D01*
X114646666Y-130573720D02*
X114446666Y-130640386D01*
X114446666Y-130640386D02*
X114113333Y-130640386D01*
X114113333Y-130640386D02*
X113979999Y-130573720D01*
X113979999Y-130573720D02*
X113913333Y-130507053D01*
X113913333Y-130507053D02*
X113846666Y-130373720D01*
X113846666Y-130373720D02*
X113846666Y-130240386D01*
X113846666Y-130240386D02*
X113913333Y-130107053D01*
X113913333Y-130107053D02*
X113979999Y-130040386D01*
X113979999Y-130040386D02*
X114113333Y-129973720D01*
X114113333Y-129973720D02*
X114379999Y-129907053D01*
X114379999Y-129907053D02*
X114513333Y-129840386D01*
X114513333Y-129840386D02*
X114579999Y-129773720D01*
X114579999Y-129773720D02*
X114646666Y-129640386D01*
X114646666Y-129640386D02*
X114646666Y-129507053D01*
X114646666Y-129507053D02*
X114579999Y-129373720D01*
X114579999Y-129373720D02*
X114513333Y-129307053D01*
X114513333Y-129307053D02*
X114379999Y-129240386D01*
X114379999Y-129240386D02*
X114046666Y-129240386D01*
X114046666Y-129240386D02*
X113846666Y-129307053D01*
X113380000Y-129240386D02*
X112513333Y-129240386D01*
X112513333Y-129240386D02*
X112980000Y-129773720D01*
X112980000Y-129773720D02*
X112780000Y-129773720D01*
X112780000Y-129773720D02*
X112646666Y-129840386D01*
X112646666Y-129840386D02*
X112580000Y-129907053D01*
X112580000Y-129907053D02*
X112513333Y-130040386D01*
X112513333Y-130040386D02*
X112513333Y-130373720D01*
X112513333Y-130373720D02*
X112580000Y-130507053D01*
X112580000Y-130507053D02*
X112646666Y-130573720D01*
X112646666Y-130573720D02*
X112780000Y-130640386D01*
X112780000Y-130640386D02*
X113180000Y-130640386D01*
X113180000Y-130640386D02*
X113313333Y-130573720D01*
X113313333Y-130573720D02*
X113380000Y-130507053D01*
%LPC*%
D12*
X134290000Y-153260000D03*
D13*
X134290000Y-150720000D03*
X134290000Y-148180000D03*
X134290000Y-145640000D03*
X134290000Y-143100000D03*
X134290000Y-140560000D03*
X134290000Y-138020000D03*
X134290000Y-135480000D03*
X134290000Y-132940000D03*
X134290000Y-130400000D03*
X134290000Y-127860000D03*
X134290000Y-125320000D03*
X134290000Y-122780000D03*
X134290000Y-120240000D03*
X134290000Y-117700000D03*
X134290000Y-115160000D03*
X134290000Y-112620000D03*
X134290000Y-110080000D03*
X134290000Y-107540000D03*
X134290000Y-105000000D03*
D12*
X101270000Y-153260000D03*
D13*
X101270000Y-150720000D03*
X101270000Y-148180000D03*
X101270000Y-145640000D03*
X101270000Y-143100000D03*
X101270000Y-140560000D03*
X101270000Y-138020000D03*
X101270000Y-135480000D03*
X101270000Y-132940000D03*
X101270000Y-130400000D03*
X101270000Y-127860000D03*
X101270000Y-125320000D03*
X101270000Y-122780000D03*
X101270000Y-120240000D03*
X101270000Y-117700000D03*
X101270000Y-115160000D03*
X101270000Y-112620000D03*
X101270000Y-110080000D03*
X101270000Y-107540000D03*
X101270000Y-105000000D03*
D14*
X114890000Y-155395000D03*
X120670000Y-155395000D03*
D15*
X113460000Y-154895000D03*
D16*
X113460000Y-159075000D03*
D15*
X122100000Y-154895000D03*
D16*
X122100000Y-159075000D03*
%LPD*%
M02*
